<svg width="7" height="13" viewBox="0 0 7 13" fill="none" xmlns="http://www.w3.org/2000/svg">
<path d="M6.24975 9.66216e-05C6.45764 0.000285427 6.65693 0.0860121 6.80384 0.238428C6.93031 0.388447 7 0.580891 7 0.780091C7 0.97929 6.93031 1.17173 6.80384 1.32175L1.84846 6.50005L6.76202 11.6242C6.90006 11.7773 6.97831 11.978 6.98156 12.1875C6.98124 12.2925 6.96074 12.3964 6.92125 12.4931C6.88176 12.5899 6.82408 12.6775 6.75157 12.7508C6.61932 12.8947 6.4408 12.9833 6.24975 13C6.14841 12.9997 6.04814 12.9784 5.9548 12.9375C5.86147 12.8966 5.77693 12.8368 5.70613 12.7617L0.207119 7.06338C0.0740713 6.91672 -1.14758e-07 6.723 -1.18438e-07 6.52171C-1.22118e-07 6.32043 0.0740713 6.12671 0.207119 5.98005L5.65385 0.281761C5.72678 0.191923 5.81809 0.120036 5.92116 0.071318C6.02423 0.0225986 6.13648 -0.00172965 6.24975 9.66216e-05Z" fill="#403F47"/>
</svg>
