<svg width="7" height="12" viewBox="0 0 7 12" fill="none" xmlns="http://www.w3.org/2000/svg">
<path d="M0.750245 8.90491e-05C0.542364 0.000263552 0.343064 0.0793956 0.196162 0.220087C0.0696928 0.358567 -2.47278e-07 0.536207 -2.5096e-07 0.720084C-2.54642e-07 0.90396 0.0696928 1.0816 0.196162 1.22008L5.15154 6.00004L0.23798 10.73C0.0999341 10.8713 0.0216918 11.0566 0.0184374 11.25C0.0187578 11.3469 0.0392604 11.4429 0.0787492 11.5321C0.118238 11.6214 0.175921 11.7023 0.248434 11.77C0.380682 11.9028 0.559203 11.9846 0.750245 12C0.851591 11.9997 0.951859 11.9801 1.0452 11.9423C1.13853 11.9045 1.22307 11.8494 1.29387 11.78L6.79288 6.52004C6.92593 6.38466 7 6.20585 7 6.02004C7 5.83424 6.92593 5.65543 6.79288 5.52005L1.34614 0.260087C1.27322 0.177161 1.18191 0.110803 1.07884 0.0658316C0.975765 0.0208601 0.863519 -0.00159704 0.750245 8.90491e-05Z" fill="#403F47"/>
</svg>
