<svg xmlns="http://www.w3.org/2000/svg" viewBox="0 0 1400 900"><g id="_1400px_dots-only" data-name="1400px dots-only"><g id="dots"><path d="M275.54,31.41h-3.66v3.18h3.66Z" style="opacity:0.20000000298023224;isolation:isolate"/><path d="M214.48,31.41h-3.66v3.18h3.66Z" style="opacity:0.20000000298023224;isolation:isolate"/><path d="M153.41,31.41h-3.66v3.18h3.66Z" style="opacity:0.20000000298023224;isolation:isolate"/><path d="M92.35,31.41H88.69v3.18h3.66Z" style="opacity:0.20000000298023224;isolation:isolate"/><path d="M31.29,31.41H27.63v3.18h3.66Z" style="opacity:0.20000000298023224;isolation:isolate"/><path d="M275.54,84.41h-3.66v3.18h3.66Z" style="opacity:0.20000000298023224;isolation:isolate"/><path d="M214.48,84.41h-3.66v3.18h3.66Z" style="opacity:0.20000000298023224;isolation:isolate"/><path d="M153.41,84.41h-3.66v3.18h3.66Z" style="opacity:0.20000000298023224;isolation:isolate"/><path d="M92.35,84.41H88.69v3.18h3.66Z" style="opacity:0.20000000298023224;isolation:isolate"/><path d="M31.29,84.41H27.63v3.18h3.66Z" style="opacity:0.20000000298023224;isolation:isolate"/><path d="M275.54,137.41h-3.66v3.18h3.66Z" style="opacity:0.20000000298023224;isolation:isolate"/><path d="M214.48,137.41h-3.66v3.18h3.66Z" style="opacity:0.20000000298023224;isolation:isolate"/><path d="M153.41,137.41h-3.66v3.18h3.66Z" style="opacity:0.20000000298023224;isolation:isolate"/><path d="M92.35,137.41H88.69v3.18h3.66Z" style="opacity:0.20000000298023224;isolation:isolate"/><path d="M31.29,137.41H27.63v3.18h3.66Z" style="opacity:0.20000000298023224;isolation:isolate"/><path d="M275.54,190.41h-3.66v3.18h3.66Z" style="opacity:0.20000000298023224;isolation:isolate"/><path d="M214.48,190.41h-3.66v3.18h3.66Z" style="opacity:0.20000000298023224;isolation:isolate"/><path d="M153.41,190.41h-3.66v3.18h3.66Z" style="opacity:0.20000000298023224;isolation:isolate"/><path d="M92.35,190.41H88.69v3.18h3.66Z" style="opacity:0.20000000298023224;isolation:isolate"/><path d="M31.29,190.41H27.63v3.18h3.66Z" style="opacity:0.20000000298023224;isolation:isolate"/><path d="M275.54,243.41h-3.66v3.18h3.66Z" style="opacity:0.20000000298023224;isolation:isolate"/><path d="M214.48,243.41h-3.66v3.18h3.66Z" style="opacity:0.20000000298023224;isolation:isolate"/><path d="M153.41,243.41h-3.66v3.18h3.66Z" style="opacity:0.20000000298023224;isolation:isolate"/><path d="M92.35,243.41H88.69v3.18h3.66Z" style="opacity:0.20000000298023224;isolation:isolate"/><path d="M31.29,243.41H27.63v3.18h3.66Z" style="opacity:0.20000000298023224;isolation:isolate"/></g><g id="dots-2" data-name="dots"><path d="M578.44,31.41h-3.66v3.18h3.66Z" style="opacity:0.20000000298023224;isolation:isolate"/><path d="M517.38,31.41h-3.66v3.18h3.66Z" style="opacity:0.20000000298023224;isolation:isolate"/><path d="M456.31,31.41h-3.66v3.18h3.66Z" style="opacity:0.20000000298023224;isolation:isolate"/><path d="M395.25,31.41h-3.66v3.18h3.66Z" style="opacity:0.20000000298023224;isolation:isolate"/><path d="M334.19,31.41h-3.66v3.18h3.66Z" style="opacity:0.20000000298023224;isolation:isolate"/><path d="M578.44,84.41h-3.66v3.18h3.66Z" style="opacity:0.20000000298023224;isolation:isolate"/><path d="M517.38,84.41h-3.66v3.18h3.66Z" style="opacity:0.20000000298023224;isolation:isolate"/><path d="M456.31,84.41h-3.66v3.18h3.66Z" style="opacity:0.20000000298023224;isolation:isolate"/><path d="M395.25,84.41h-3.66v3.18h3.66Z" style="opacity:0.20000000298023224;isolation:isolate"/><path d="M334.19,84.41h-3.66v3.18h3.66Z" style="opacity:0.20000000298023224;isolation:isolate"/><path d="M578.44,137.41h-3.66v3.18h3.66Z" style="opacity:0.20000000298023224;isolation:isolate"/><path d="M517.38,137.41h-3.66v3.18h3.66Z" style="opacity:0.20000000298023224;isolation:isolate"/><path d="M456.31,137.41h-3.66v3.18h3.66Z" style="opacity:0.20000000298023224;isolation:isolate"/><path d="M395.25,137.41h-3.66v3.18h3.66Z" style="opacity:0.20000000298023224;isolation:isolate"/><path d="M334.19,137.41h-3.66v3.18h3.66Z" style="opacity:0.20000000298023224;isolation:isolate"/><path d="M578.44,190.41h-3.66v3.18h3.66Z" style="opacity:0.20000000298023224;isolation:isolate"/><path d="M517.38,190.41h-3.66v3.18h3.66Z" style="opacity:0.20000000298023224;isolation:isolate"/><path d="M456.31,190.41h-3.66v3.18h3.66Z" style="opacity:0.20000000298023224;isolation:isolate"/><path d="M395.25,190.41h-3.66v3.18h3.66Z" style="opacity:0.20000000298023224;isolation:isolate"/><path d="M334.19,190.41h-3.66v3.18h3.66Z" style="opacity:0.20000000298023224;isolation:isolate"/><path d="M578.44,243.41h-3.66v3.18h3.66Z" style="opacity:0.20000000298023224;isolation:isolate"/><path d="M517.38,243.41h-3.66v3.18h3.66Z" style="opacity:0.20000000298023224;isolation:isolate"/><path d="M456.31,243.41h-3.66v3.18h3.66Z" style="opacity:0.20000000298023224;isolation:isolate"/><path d="M395.25,243.41h-3.66v3.18h3.66Z" style="opacity:0.20000000298023224;isolation:isolate"/><path d="M334.19,243.41h-3.66v3.18h3.66Z" style="opacity:0.20000000298023224;isolation:isolate"/></g><g id="dots-3" data-name="dots"><path d="M881.34,31.41h-3.66v3.18h3.66Z" style="opacity:0.20000000298023224;isolation:isolate"/><path d="M820.27,31.41h-3.66v3.18h3.66Z" style="opacity:0.20000000298023224;isolation:isolate"/><path d="M759.21,31.41h-3.66v3.18h3.66Z" style="opacity:0.20000000298023224;isolation:isolate"/><path d="M698.15,31.41h-3.66v3.18h3.66Z" style="opacity:0.20000000298023224;isolation:isolate"/><path d="M637.09,31.41h-3.66v3.18h3.66Z" style="opacity:0.20000000298023224;isolation:isolate"/><path d="M881.34,84.41h-3.66v3.18h3.66Z" style="opacity:0.20000000298023224;isolation:isolate"/><path d="M820.27,84.41h-3.66v3.18h3.66Z" style="opacity:0.20000000298023224;isolation:isolate"/><path d="M759.21,84.41h-3.66v3.18h3.66Z" style="opacity:0.20000000298023224;isolation:isolate"/><path d="M698.15,84.41h-3.66v3.18h3.66Z" style="opacity:0.20000000298023224;isolation:isolate"/><path d="M637.09,84.41h-3.66v3.18h3.66Z" style="opacity:0.20000000298023224;isolation:isolate"/><path d="M881.34,137.41h-3.66v3.18h3.66Z" style="opacity:0.20000000298023224;isolation:isolate"/><path d="M820.27,137.41h-3.66v3.18h3.66Z" style="opacity:0.20000000298023224;isolation:isolate"/><path d="M759.21,137.41h-3.66v3.18h3.66Z" style="opacity:0.20000000298023224;isolation:isolate"/><path d="M698.15,137.41h-3.66v3.18h3.66Z" style="opacity:0.20000000298023224;isolation:isolate"/><path d="M637.09,137.41h-3.66v3.18h3.66Z" style="opacity:0.20000000298023224;isolation:isolate"/><path d="M881.34,190.41h-3.66v3.18h3.66Z" style="opacity:0.20000000298023224;isolation:isolate"/><path d="M820.27,190.41h-3.66v3.18h3.66Z" style="opacity:0.20000000298023224;isolation:isolate"/><path d="M759.21,190.41h-3.66v3.18h3.66Z" style="opacity:0.20000000298023224;isolation:isolate"/><path d="M698.15,190.41h-3.66v3.18h3.66Z" style="opacity:0.20000000298023224;isolation:isolate"/><path d="M637.09,190.41h-3.66v3.18h3.66Z" style="opacity:0.20000000298023224;isolation:isolate"/><path d="M881.34,243.41h-3.66v3.18h3.66Z" style="opacity:0.20000000298023224;isolation:isolate"/><path d="M820.27,243.41h-3.66v3.18h3.66Z" style="opacity:0.20000000298023224;isolation:isolate"/><path d="M759.21,243.41h-3.66v3.18h3.66Z" style="opacity:0.20000000298023224;isolation:isolate"/><path d="M698.15,243.41h-3.66v3.18h3.66Z" style="opacity:0.20000000298023224;isolation:isolate"/><path d="M637.09,243.41h-3.66v3.18h3.66Z" style="opacity:0.20000000298023224;isolation:isolate"/></g><g id="dots-4" data-name="dots"><path d="M1184.24,31.41h-3.66v3.18h3.66Z" style="opacity:0.20000000298023224;isolation:isolate"/><path d="M1123.17,31.41h-3.66v3.18h3.66Z" style="opacity:0.20000000298023224;isolation:isolate"/><path d="M1062.11,31.41h-3.66v3.18h3.66Z" style="opacity:0.20000000298023224;isolation:isolate"/><path d="M1001.05,31.41h-3.66v3.18h3.66Z" style="opacity:0.20000000298023224;isolation:isolate"/><path d="M940,31.41h-3.66v3.18H940Z" style="opacity:0.20000000298023224;isolation:isolate"/><path d="M1184.24,84.41h-3.66v3.18h3.66Z" style="opacity:0.20000000298023224;isolation:isolate"/><path d="M1123.17,84.41h-3.66v3.18h3.66Z" style="opacity:0.20000000298023224;isolation:isolate"/><path d="M1062.11,84.41h-3.66v3.18h3.66Z" style="opacity:0.20000000298023224;isolation:isolate"/><path d="M1001.05,84.41h-3.66v3.18h3.66Z" style="opacity:0.20000000298023224;isolation:isolate"/><path d="M940,84.41h-3.66v3.18H940Z" style="opacity:0.20000000298023224;isolation:isolate"/><path d="M1184.24,137.41h-3.66v3.18h3.66Z" style="opacity:0.20000000298023224;isolation:isolate"/><path d="M1123.17,137.41h-3.66v3.18h3.66Z" style="opacity:0.20000000298023224;isolation:isolate"/><path d="M1062.11,137.41h-3.66v3.18h3.66Z" style="opacity:0.20000000298023224;isolation:isolate"/><path d="M1001.05,137.41h-3.66v3.18h3.66Z" style="opacity:0.20000000298023224;isolation:isolate"/><path d="M940,137.41h-3.66v3.18H940Z" style="opacity:0.20000000298023224;isolation:isolate"/><path d="M1184.24,190.41h-3.66v3.18h3.66Z" style="opacity:0.20000000298023224;isolation:isolate"/><path d="M1123.17,190.41h-3.66v3.18h3.66Z" style="opacity:0.20000000298023224;isolation:isolate"/><path d="M1062.11,190.41h-3.66v3.18h3.66Z" style="opacity:0.20000000298023224;isolation:isolate"/><path d="M1001.05,190.41h-3.66v3.18h3.66Z" style="opacity:0.20000000298023224;isolation:isolate"/><path d="M940,190.41h-3.66v3.18H940Z" style="opacity:0.20000000298023224;isolation:isolate"/><path d="M1184.24,243.41h-3.66v3.18h3.66Z" style="opacity:0.20000000298023224;isolation:isolate"/><path d="M1123.17,243.41h-3.66v3.18h3.66Z" style="opacity:0.20000000298023224;isolation:isolate"/><path d="M1062.11,243.41h-3.66v3.18h3.66Z" style="opacity:0.20000000298023224;isolation:isolate"/><path d="M1001.05,243.41h-3.66v3.18h3.66Z" style="opacity:0.20000000298023224;isolation:isolate"/><path d="M940,243.41h-3.66v3.18H940Z" style="opacity:0.20000000298023224;isolation:isolate"/></g><g id="dots-5" data-name="dots"><path d="M1365,31.41h-3.66v3.18H1365Z" style="opacity:0.20000000298023224;isolation:isolate"/><path d="M1304,31.41h-3.66v3.18H1304Z" style="opacity:0.20000000298023224;isolation:isolate"/><path d="M1242.88,31.41h-3.66v3.18h3.66Z" style="opacity:0.20000000298023224;isolation:isolate"/><path d="M1365,84.41h-3.66v3.18H1365Z" style="opacity:0.20000000298023224;isolation:isolate"/><path d="M1304,84.41h-3.66v3.18H1304Z" style="opacity:0.20000000298023224;isolation:isolate"/><path d="M1242.88,84.41h-3.66v3.18h3.66Z" style="opacity:0.20000000298023224;isolation:isolate"/><path d="M1365,137.41h-3.66v3.18H1365Z" style="opacity:0.20000000298023224;isolation:isolate"/><path d="M1304,137.41h-3.66v3.18H1304Z" style="opacity:0.20000000298023224;isolation:isolate"/><path d="M1242.88,137.41h-3.66v3.18h3.66Z" style="opacity:0.20000000298023224;isolation:isolate"/><path d="M1365,190.41h-3.66v3.18H1365Z" style="opacity:0.20000000298023224;isolation:isolate"/><path d="M1304,190.41h-3.66v3.18H1304Z" style="opacity:0.20000000298023224;isolation:isolate"/><path d="M1242.88,190.41h-3.66v3.18h3.66Z" style="opacity:0.20000000298023224;isolation:isolate"/><path d="M1365,243.41h-3.66v3.18H1365Z" style="opacity:0.20000000298023224;isolation:isolate"/><path d="M1304,243.41h-3.66v3.18H1304Z" style="opacity:0.20000000298023224;isolation:isolate"/><path d="M1242.88,243.41h-3.66v3.18h3.66Z" style="opacity:0.20000000298023224;isolation:isolate"/></g><g id="dots-6" data-name="dots"><path d="M275.54,303.41h-3.66v3.18h3.66Z" style="opacity:0.20000000298023224;isolation:isolate"/><path d="M214.48,303.41h-3.66v3.18h3.66Z" style="opacity:0.20000000298023224;isolation:isolate"/><path d="M153.41,303.41h-3.66v3.18h3.66Z" style="opacity:0.20000000298023224;isolation:isolate"/><path d="M92.35,303.41H88.69v3.18h3.66Z" style="opacity:0.20000000298023224;isolation:isolate"/><path d="M31.29,303.41H27.63v3.18h3.66Z" style="opacity:0.20000000298023224;isolation:isolate"/><path d="M275.54,356.41h-3.66v3.18h3.66Z" style="opacity:0.20000000298023224;isolation:isolate"/><path d="M214.48,356.41h-3.66v3.18h3.66Z" style="opacity:0.20000000298023224;isolation:isolate"/><path d="M153.41,356.41h-3.66v3.18h3.66Z" style="opacity:0.20000000298023224;isolation:isolate"/><path d="M92.35,356.41H88.69v3.18h3.66Z" style="opacity:0.20000000298023224;isolation:isolate"/><path d="M31.29,356.41H27.63v3.18h3.66Z" style="opacity:0.20000000298023224;isolation:isolate"/><path d="M275.54,409.41h-3.66v3.18h3.66Z" style="opacity:0.20000000298023224;isolation:isolate"/><path d="M214.48,409.41h-3.66v3.18h3.66Z" style="opacity:0.20000000298023224;isolation:isolate"/><path d="M153.41,409.41h-3.66v3.18h3.66Z" style="opacity:0.20000000298023224;isolation:isolate"/><path d="M92.35,409.41H88.69v3.18h3.66Z" style="opacity:0.20000000298023224;isolation:isolate"/><path d="M31.29,409.41H27.63v3.18h3.66Z" style="opacity:0.20000000298023224;isolation:isolate"/><path d="M275.54,462.41h-3.66v3.18h3.66Z" style="opacity:0.20000000298023224;isolation:isolate"/><path d="M214.48,462.41h-3.66v3.18h3.66Z" style="opacity:0.20000000298023224;isolation:isolate"/><path d="M153.41,462.41h-3.66v3.18h3.66Z" style="opacity:0.20000000298023224;isolation:isolate"/><path d="M92.35,462.41H88.69v3.18h3.66Z" style="opacity:0.20000000298023224;isolation:isolate"/><path d="M31.29,462.41H27.63v3.18h3.66Z" style="opacity:0.20000000298023224;isolation:isolate"/><path d="M275.54,515.41h-3.66v3.18h3.66Z" style="opacity:0.20000000298023224;isolation:isolate"/><path d="M214.48,515.41h-3.66v3.18h3.66Z" style="opacity:0.20000000298023224;isolation:isolate"/><path d="M153.41,515.41h-3.66v3.18h3.66Z" style="opacity:0.20000000298023224;isolation:isolate"/><path d="M92.35,515.41H88.69v3.18h3.66Z" style="opacity:0.20000000298023224;isolation:isolate"/><path d="M31.29,515.41H27.63v3.18h3.66Z" style="opacity:0.20000000298023224;isolation:isolate"/></g><g id="dots-7" data-name="dots"><path d="M578.44,303.41h-3.66v3.18h3.66Z" style="opacity:0.20000000298023224;isolation:isolate"/><path d="M517.38,303.41h-3.66v3.18h3.66Z" style="opacity:0.20000000298023224;isolation:isolate"/><path d="M456.31,303.41h-3.66v3.18h3.66Z" style="opacity:0.20000000298023224;isolation:isolate"/><path d="M395.25,303.41h-3.66v3.18h3.66Z" style="opacity:0.20000000298023224;isolation:isolate"/><path d="M334.19,303.41h-3.66v3.18h3.66Z" style="opacity:0.20000000298023224;isolation:isolate"/><path d="M578.44,356.41h-3.66v3.18h3.66Z" style="opacity:0.20000000298023224;isolation:isolate"/><path d="M517.38,356.41h-3.66v3.18h3.66Z" style="opacity:0.20000000298023224;isolation:isolate"/><path d="M456.31,356.41h-3.66v3.18h3.66Z" style="opacity:0.20000000298023224;isolation:isolate"/><path d="M395.25,356.41h-3.66v3.18h3.66Z" style="opacity:0.20000000298023224;isolation:isolate"/><path d="M334.19,356.41h-3.66v3.18h3.66Z" style="opacity:0.20000000298023224;isolation:isolate"/><path d="M578.44,409.41h-3.66v3.18h3.66Z" style="opacity:0.20000000298023224;isolation:isolate"/><path d="M517.38,409.41h-3.66v3.18h3.66Z" style="opacity:0.20000000298023224;isolation:isolate"/><path d="M456.31,409.41h-3.66v3.18h3.66Z" style="opacity:0.20000000298023224;isolation:isolate"/><path d="M395.25,409.41h-3.66v3.18h3.66Z" style="opacity:0.20000000298023224;isolation:isolate"/><path d="M334.19,409.41h-3.66v3.18h3.66Z" style="opacity:0.20000000298023224;isolation:isolate"/><path d="M578.44,462.41h-3.66v3.18h3.66Z" style="opacity:0.20000000298023224;isolation:isolate"/><path d="M517.38,462.41h-3.66v3.18h3.66Z" style="opacity:0.20000000298023224;isolation:isolate"/><path d="M456.31,462.41h-3.66v3.18h3.66Z" style="opacity:0.20000000298023224;isolation:isolate"/><path d="M395.25,462.41h-3.66v3.18h3.66Z" style="opacity:0.20000000298023224;isolation:isolate"/><path d="M334.19,462.41h-3.66v3.18h3.66Z" style="opacity:0.20000000298023224;isolation:isolate"/><path d="M578.44,515.41h-3.66v3.18h3.66Z" style="opacity:0.20000000298023224;isolation:isolate"/><path d="M517.38,515.41h-3.66v3.18h3.66Z" style="opacity:0.20000000298023224;isolation:isolate"/><path d="M456.31,515.41h-3.66v3.18h3.66Z" style="opacity:0.20000000298023224;isolation:isolate"/><path d="M395.25,515.41h-3.66v3.18h3.66Z" style="opacity:0.20000000298023224;isolation:isolate"/><path d="M334.19,515.41h-3.66v3.18h3.66Z" style="opacity:0.20000000298023224;isolation:isolate"/></g><g id="dots-8" data-name="dots"><path d="M881.34,303.41h-3.66v3.18h3.66Z" style="opacity:0.20000000298023224;isolation:isolate"/><path d="M820.27,303.41h-3.66v3.18h3.66Z" style="opacity:0.20000000298023224;isolation:isolate"/><path d="M759.21,303.41h-3.66v3.18h3.66Z" style="opacity:0.20000000298023224;isolation:isolate"/><path d="M698.15,303.41h-3.66v3.18h3.66Z" style="opacity:0.20000000298023224;isolation:isolate"/><path d="M637.09,303.41h-3.66v3.18h3.66Z" style="opacity:0.20000000298023224;isolation:isolate"/><path d="M881.34,356.41h-3.66v3.18h3.66Z" style="opacity:0.20000000298023224;isolation:isolate"/><path d="M820.27,356.41h-3.66v3.18h3.66Z" style="opacity:0.20000000298023224;isolation:isolate"/><path d="M759.21,356.41h-3.66v3.18h3.66Z" style="opacity:0.20000000298023224;isolation:isolate"/><path d="M698.15,356.41h-3.66v3.18h3.66Z" style="opacity:0.20000000298023224;isolation:isolate"/><path d="M637.09,356.41h-3.66v3.18h3.66Z" style="opacity:0.20000000298023224;isolation:isolate"/><path d="M881.34,409.41h-3.66v3.18h3.66Z" style="opacity:0.20000000298023224;isolation:isolate"/><path d="M820.27,409.41h-3.66v3.18h3.66Z" style="opacity:0.20000000298023224;isolation:isolate"/><path d="M759.21,409.41h-3.66v3.18h3.66Z" style="opacity:0.20000000298023224;isolation:isolate"/><path d="M698.15,409.41h-3.66v3.18h3.66Z" style="opacity:0.20000000298023224;isolation:isolate"/><path d="M637.09,409.41h-3.66v3.18h3.66Z" style="opacity:0.20000000298023224;isolation:isolate"/><path d="M881.34,462.41h-3.66v3.18h3.66Z" style="opacity:0.20000000298023224;isolation:isolate"/><path d="M820.27,462.41h-3.66v3.18h3.66Z" style="opacity:0.20000000298023224;isolation:isolate"/><path d="M759.21,462.41h-3.66v3.18h3.66Z" style="opacity:0.20000000298023224;isolation:isolate"/><path d="M698.15,462.41h-3.66v3.18h3.66Z" style="opacity:0.20000000298023224;isolation:isolate"/><path d="M637.09,462.41h-3.66v3.18h3.66Z" style="opacity:0.20000000298023224;isolation:isolate"/><path d="M881.34,515.41h-3.66v3.18h3.66Z" style="opacity:0.20000000298023224;isolation:isolate"/><path d="M820.27,515.41h-3.66v3.18h3.66Z" style="opacity:0.20000000298023224;isolation:isolate"/><path d="M759.21,515.41h-3.66v3.18h3.66Z" style="opacity:0.20000000298023224;isolation:isolate"/><path d="M698.15,515.41h-3.66v3.18h3.66Z" style="opacity:0.20000000298023224;isolation:isolate"/><path d="M637.09,515.41h-3.66v3.18h3.66Z" style="opacity:0.20000000298023224;isolation:isolate"/></g><g id="dots-9" data-name="dots"><path d="M1184.24,303.41h-3.66v3.18h3.66Z" style="opacity:0.20000000298023224;isolation:isolate"/><path d="M1123.17,303.41h-3.66v3.18h3.66Z" style="opacity:0.20000000298023224;isolation:isolate"/><path d="M1062.11,303.41h-3.66v3.18h3.66Z" style="opacity:0.20000000298023224;isolation:isolate"/><path d="M1001.05,303.41h-3.66v3.18h3.66Z" style="opacity:0.20000000298023224;isolation:isolate"/><path d="M940,303.41h-3.66v3.18H940Z" style="opacity:0.20000000298023224;isolation:isolate"/><path d="M1184.24,356.41h-3.66v3.18h3.66Z" style="opacity:0.20000000298023224;isolation:isolate"/><path d="M1123.17,356.41h-3.66v3.18h3.66Z" style="opacity:0.20000000298023224;isolation:isolate"/><path d="M1062.11,356.41h-3.66v3.18h3.66Z" style="opacity:0.20000000298023224;isolation:isolate"/><path d="M1001.05,356.41h-3.66v3.18h3.66Z" style="opacity:0.20000000298023224;isolation:isolate"/><path d="M940,356.41h-3.66v3.18H940Z" style="opacity:0.20000000298023224;isolation:isolate"/><path d="M1184.24,409.41h-3.66v3.18h3.66Z" style="opacity:0.20000000298023224;isolation:isolate"/><path d="M1123.17,409.41h-3.66v3.18h3.66Z" style="opacity:0.20000000298023224;isolation:isolate"/><path d="M1062.11,409.41h-3.66v3.18h3.66Z" style="opacity:0.20000000298023224;isolation:isolate"/><path d="M1001.05,409.41h-3.66v3.18h3.66Z" style="opacity:0.20000000298023224;isolation:isolate"/><path d="M940,409.41h-3.66v3.18H940Z" style="opacity:0.20000000298023224;isolation:isolate"/><path d="M1184.24,462.41h-3.66v3.18h3.66Z" style="opacity:0.20000000298023224;isolation:isolate"/><path d="M1123.17,462.41h-3.66v3.18h3.66Z" style="opacity:0.20000000298023224;isolation:isolate"/><path d="M1062.11,462.41h-3.66v3.18h3.66Z" style="opacity:0.20000000298023224;isolation:isolate"/><path d="M1001.05,462.41h-3.66v3.18h3.66Z" style="opacity:0.20000000298023224;isolation:isolate"/><path d="M940,462.41h-3.66v3.18H940Z" style="opacity:0.20000000298023224;isolation:isolate"/><path d="M1184.24,515.41h-3.66v3.18h3.66Z" style="opacity:0.20000000298023224;isolation:isolate"/><path d="M1123.17,515.41h-3.66v3.18h3.66Z" style="opacity:0.20000000298023224;isolation:isolate"/><path d="M1062.11,515.41h-3.66v3.18h3.66Z" style="opacity:0.20000000298023224;isolation:isolate"/><path d="M1001.05,515.41h-3.66v3.18h3.66Z" style="opacity:0.20000000298023224;isolation:isolate"/><path d="M940,515.41h-3.66v3.18H940Z" style="opacity:0.20000000298023224;isolation:isolate"/></g><g id="dots-10" data-name="dots"><path d="M1365,303.41h-3.66v3.18H1365Z" style="opacity:0.20000000298023224;isolation:isolate"/><path d="M1304,303.41h-3.66v3.18H1304Z" style="opacity:0.20000000298023224;isolation:isolate"/><path d="M1242.88,303.41h-3.66v3.18h3.66Z" style="opacity:0.20000000298023224;isolation:isolate"/><path d="M1365,356.41h-3.66v3.18H1365Z" style="opacity:0.20000000298023224;isolation:isolate"/><path d="M1304,356.41h-3.66v3.18H1304Z" style="opacity:0.20000000298023224;isolation:isolate"/><path d="M1242.88,356.41h-3.66v3.18h3.66Z" style="opacity:0.20000000298023224;isolation:isolate"/><path d="M1365,409.41h-3.66v3.18H1365Z" style="opacity:0.20000000298023224;isolation:isolate"/><path d="M1304,409.41h-3.66v3.18H1304Z" style="opacity:0.20000000298023224;isolation:isolate"/><path d="M1242.88,409.41h-3.66v3.18h3.66Z" style="opacity:0.20000000298023224;isolation:isolate"/><path d="M1365,462.41h-3.66v3.18H1365Z" style="opacity:0.20000000298023224;isolation:isolate"/><path d="M1304,462.41h-3.66v3.18H1304Z" style="opacity:0.20000000298023224;isolation:isolate"/><path d="M1242.88,462.41h-3.66v3.18h3.66Z" style="opacity:0.20000000298023224;isolation:isolate"/><path d="M1365,515.41h-3.66v3.18H1365Z" style="opacity:0.20000000298023224;isolation:isolate"/><path d="M1304,515.41h-3.66v3.18H1304Z" style="opacity:0.20000000298023224;isolation:isolate"/><path d="M1242.88,515.41h-3.66v3.18h3.66Z" style="opacity:0.20000000298023224;isolation:isolate"/></g><g id="dots-11" data-name="dots"><path d="M275.54,575.41h-3.66v3.18h3.66Z" style="opacity:0.20000000298023224;isolation:isolate"/><path d="M214.48,575.41h-3.66v3.18h3.66Z" style="opacity:0.20000000298023224;isolation:isolate"/><path d="M153.41,575.41h-3.66v3.18h3.66Z" style="opacity:0.20000000298023224;isolation:isolate"/><path d="M92.35,575.41H88.69v3.18h3.66Z" style="opacity:0.20000000298023224;isolation:isolate"/><path d="M31.29,575.41H27.63v3.18h3.66Z" style="opacity:0.20000000298023224;isolation:isolate"/><path d="M275.54,628.41h-3.66v3.18h3.66Z" style="opacity:0.20000000298023224;isolation:isolate"/><path d="M214.48,628.41h-3.66v3.18h3.66Z" style="opacity:0.20000000298023224;isolation:isolate"/><path d="M153.41,628.41h-3.66v3.18h3.66Z" style="opacity:0.20000000298023224;isolation:isolate"/><path d="M92.35,628.41H88.69v3.18h3.66Z" style="opacity:0.20000000298023224;isolation:isolate"/><path d="M31.29,628.41H27.63v3.18h3.66Z" style="opacity:0.20000000298023224;isolation:isolate"/><path d="M275.54,681.41h-3.66v3.18h3.66Z" style="opacity:0.20000000298023224;isolation:isolate"/><path d="M214.48,681.41h-3.66v3.18h3.66Z" style="opacity:0.20000000298023224;isolation:isolate"/><path d="M153.41,681.41h-3.66v3.18h3.66Z" style="opacity:0.20000000298023224;isolation:isolate"/><path d="M92.35,681.41H88.69v3.18h3.66Z" style="opacity:0.20000000298023224;isolation:isolate"/><path d="M31.29,681.41H27.63v3.18h3.66Z" style="opacity:0.20000000298023224;isolation:isolate"/><path d="M275.54,734.41h-3.66v3.18h3.66Z" style="opacity:0.20000000298023224;isolation:isolate"/><path d="M214.48,734.41h-3.66v3.18h3.66Z" style="opacity:0.20000000298023224;isolation:isolate"/><path d="M153.41,734.41h-3.66v3.18h3.66Z" style="opacity:0.20000000298023224;isolation:isolate"/><path d="M92.35,734.41H88.69v3.18h3.66Z" style="opacity:0.20000000298023224;isolation:isolate"/><path d="M31.29,734.41H27.63v3.18h3.66Z" style="opacity:0.20000000298023224;isolation:isolate"/><path d="M275.54,787.41h-3.66v3.18h3.66Z" style="opacity:0.20000000298023224;isolation:isolate"/><path d="M214.48,787.41h-3.66v3.18h3.66Z" style="opacity:0.20000000298023224;isolation:isolate"/><path d="M153.41,787.41h-3.66v3.18h3.66Z" style="opacity:0.20000000298023224;isolation:isolate"/><path d="M92.35,787.41H88.69v3.18h3.66Z" style="opacity:0.20000000298023224;isolation:isolate"/><path d="M31.29,787.41H27.63v3.18h3.66Z" style="opacity:0.20000000298023224;isolation:isolate"/></g><g id="dots-12" data-name="dots"><path d="M578.44,575.41h-3.66v3.18h3.66Z" style="opacity:0.20000000298023224;isolation:isolate"/><path d="M517.38,575.41h-3.66v3.18h3.66Z" style="opacity:0.20000000298023224;isolation:isolate"/><path d="M456.31,575.41h-3.66v3.18h3.66Z" style="opacity:0.20000000298023224;isolation:isolate"/><path d="M395.25,575.41h-3.66v3.18h3.66Z" style="opacity:0.20000000298023224;isolation:isolate"/><path d="M334.19,575.41h-3.66v3.18h3.66Z" style="opacity:0.20000000298023224;isolation:isolate"/><path d="M578.44,628.41h-3.66v3.18h3.66Z" style="opacity:0.20000000298023224;isolation:isolate"/><path d="M517.38,628.41h-3.66v3.18h3.66Z" style="opacity:0.20000000298023224;isolation:isolate"/><path d="M456.31,628.41h-3.66v3.18h3.66Z" style="opacity:0.20000000298023224;isolation:isolate"/><path d="M395.25,628.41h-3.66v3.18h3.66Z" style="opacity:0.20000000298023224;isolation:isolate"/><path d="M334.19,628.41h-3.66v3.18h3.66Z" style="opacity:0.20000000298023224;isolation:isolate"/><path d="M578.44,681.41h-3.66v3.18h3.66Z" style="opacity:0.20000000298023224;isolation:isolate"/><path d="M517.38,681.41h-3.66v3.18h3.66Z" style="opacity:0.20000000298023224;isolation:isolate"/><path d="M456.31,681.41h-3.66v3.18h3.66Z" style="opacity:0.20000000298023224;isolation:isolate"/><path d="M395.25,681.41h-3.66v3.18h3.66Z" style="opacity:0.20000000298023224;isolation:isolate"/><path d="M334.19,681.41h-3.66v3.18h3.66Z" style="opacity:0.20000000298023224;isolation:isolate"/><path d="M578.44,734.41h-3.66v3.18h3.66Z" style="opacity:0.20000000298023224;isolation:isolate"/><path d="M517.38,734.41h-3.66v3.18h3.66Z" style="opacity:0.20000000298023224;isolation:isolate"/><path d="M456.31,734.41h-3.66v3.18h3.66Z" style="opacity:0.20000000298023224;isolation:isolate"/><path d="M395.25,734.41h-3.66v3.18h3.66Z" style="opacity:0.20000000298023224;isolation:isolate"/><path d="M334.19,734.41h-3.66v3.18h3.66Z" style="opacity:0.20000000298023224;isolation:isolate"/><path d="M578.44,787.41h-3.66v3.18h3.66Z" style="opacity:0.20000000298023224;isolation:isolate"/><path d="M517.38,787.41h-3.66v3.18h3.66Z" style="opacity:0.20000000298023224;isolation:isolate"/><path d="M456.31,787.41h-3.66v3.18h3.66Z" style="opacity:0.20000000298023224;isolation:isolate"/><path d="M395.25,787.41h-3.66v3.18h3.66Z" style="opacity:0.20000000298023224;isolation:isolate"/><path d="M334.19,787.41h-3.66v3.18h3.66Z" style="opacity:0.20000000298023224;isolation:isolate"/></g><g id="dots-13" data-name="dots"><path d="M881.34,575.41h-3.66v3.18h3.66Z" style="opacity:0.20000000298023224;isolation:isolate"/><path d="M820.27,575.41h-3.66v3.18h3.66Z" style="opacity:0.20000000298023224;isolation:isolate"/><path d="M759.21,575.41h-3.66v3.18h3.66Z" style="opacity:0.20000000298023224;isolation:isolate"/><path d="M698.15,575.41h-3.66v3.18h3.66Z" style="opacity:0.20000000298023224;isolation:isolate"/><path d="M637.09,575.41h-3.66v3.18h3.66Z" style="opacity:0.20000000298023224;isolation:isolate"/><path d="M881.34,628.41h-3.66v3.18h3.66Z" style="opacity:0.20000000298023224;isolation:isolate"/><path d="M820.27,628.41h-3.66v3.18h3.66Z" style="opacity:0.20000000298023224;isolation:isolate"/><path d="M759.21,628.41h-3.66v3.18h3.66Z" style="opacity:0.20000000298023224;isolation:isolate"/><path d="M698.15,628.41h-3.66v3.18h3.66Z" style="opacity:0.20000000298023224;isolation:isolate"/><path d="M637.09,628.41h-3.66v3.18h3.66Z" style="opacity:0.20000000298023224;isolation:isolate"/><path d="M881.34,681.41h-3.66v3.18h3.66Z" style="opacity:0.20000000298023224;isolation:isolate"/><path d="M820.27,681.41h-3.66v3.18h3.66Z" style="opacity:0.20000000298023224;isolation:isolate"/><path d="M759.21,681.41h-3.66v3.18h3.66Z" style="opacity:0.20000000298023224;isolation:isolate"/><path d="M698.15,681.41h-3.66v3.18h3.66Z" style="opacity:0.20000000298023224;isolation:isolate"/><path d="M637.09,681.41h-3.66v3.18h3.66Z" style="opacity:0.20000000298023224;isolation:isolate"/><path d="M881.34,734.41h-3.66v3.18h3.66Z" style="opacity:0.20000000298023224;isolation:isolate"/><path d="M820.27,734.41h-3.66v3.18h3.66Z" style="opacity:0.20000000298023224;isolation:isolate"/><path d="M759.21,734.41h-3.66v3.18h3.66Z" style="opacity:0.20000000298023224;isolation:isolate"/><path d="M698.15,734.41h-3.66v3.18h3.66Z" style="opacity:0.20000000298023224;isolation:isolate"/><path d="M637.09,734.41h-3.66v3.18h3.66Z" style="opacity:0.20000000298023224;isolation:isolate"/><path d="M881.34,787.41h-3.66v3.18h3.66Z" style="opacity:0.20000000298023224;isolation:isolate"/><path d="M820.27,787.41h-3.66v3.18h3.66Z" style="opacity:0.20000000298023224;isolation:isolate"/><path d="M759.21,787.41h-3.66v3.18h3.66Z" style="opacity:0.20000000298023224;isolation:isolate"/><path d="M698.15,787.41h-3.66v3.18h3.66Z" style="opacity:0.20000000298023224;isolation:isolate"/><path d="M637.09,787.41h-3.66v3.18h3.66Z" style="opacity:0.20000000298023224;isolation:isolate"/></g><g id="dots-14" data-name="dots"><path d="M1184.24,575.41h-3.66v3.18h3.66Z" style="opacity:0.20000000298023224;isolation:isolate"/><path d="M1123.17,575.41h-3.66v3.18h3.66Z" style="opacity:0.20000000298023224;isolation:isolate"/><path d="M1062.11,575.41h-3.66v3.18h3.66Z" style="opacity:0.20000000298023224;isolation:isolate"/><path d="M1001.05,575.41h-3.66v3.18h3.66Z" style="opacity:0.20000000298023224;isolation:isolate"/><path d="M940,575.41h-3.66v3.18H940Z" style="opacity:0.20000000298023224;isolation:isolate"/><path d="M1184.24,628.41h-3.66v3.18h3.66Z" style="opacity:0.20000000298023224;isolation:isolate"/><path d="M1123.17,628.41h-3.66v3.18h3.66Z" style="opacity:0.20000000298023224;isolation:isolate"/><path d="M1062.11,628.41h-3.66v3.18h3.66Z" style="opacity:0.20000000298023224;isolation:isolate"/><path d="M1001.05,628.41h-3.66v3.18h3.66Z" style="opacity:0.20000000298023224;isolation:isolate"/><path d="M940,628.41h-3.66v3.18H940Z" style="opacity:0.20000000298023224;isolation:isolate"/><path d="M1184.24,681.41h-3.66v3.18h3.66Z" style="opacity:0.20000000298023224;isolation:isolate"/><path d="M1123.17,681.41h-3.66v3.18h3.66Z" style="opacity:0.20000000298023224;isolation:isolate"/><path d="M1062.11,681.41h-3.66v3.18h3.66Z" style="opacity:0.20000000298023224;isolation:isolate"/><path d="M1001.05,681.41h-3.66v3.18h3.66Z" style="opacity:0.20000000298023224;isolation:isolate"/><path d="M940,681.41h-3.66v3.18H940Z" style="opacity:0.20000000298023224;isolation:isolate"/><path d="M1184.24,734.41h-3.66v3.18h3.66Z" style="opacity:0.20000000298023224;isolation:isolate"/><path d="M1123.17,734.41h-3.66v3.18h3.66Z" style="opacity:0.20000000298023224;isolation:isolate"/><path d="M1062.11,734.41h-3.66v3.18h3.66Z" style="opacity:0.20000000298023224;isolation:isolate"/><path d="M1001.05,734.41h-3.66v3.18h3.66Z" style="opacity:0.20000000298023224;isolation:isolate"/><path d="M940,734.41h-3.66v3.18H940Z" style="opacity:0.20000000298023224;isolation:isolate"/><path d="M1184.24,787.41h-3.66v3.18h3.66Z" style="opacity:0.20000000298023224;isolation:isolate"/><path d="M1123.17,787.41h-3.66v3.18h3.66Z" style="opacity:0.20000000298023224;isolation:isolate"/><path d="M1062.11,787.41h-3.66v3.18h3.66Z" style="opacity:0.20000000298023224;isolation:isolate"/><path d="M1001.05,787.41h-3.66v3.18h3.66Z" style="opacity:0.20000000298023224;isolation:isolate"/><path d="M940,787.41h-3.66v3.18H940Z" style="opacity:0.20000000298023224;isolation:isolate"/></g><g id="dots-15" data-name="dots"><path d="M1365,575.41h-3.66v3.18H1365Z" style="opacity:0.20000000298023224;isolation:isolate"/><path d="M1304,575.41h-3.66v3.18H1304Z" style="opacity:0.20000000298023224;isolation:isolate"/><path d="M1242.88,575.41h-3.66v3.18h3.66Z" style="opacity:0.20000000298023224;isolation:isolate"/><path d="M1365,628.41h-3.66v3.18H1365Z" style="opacity:0.20000000298023224;isolation:isolate"/><path d="M1304,628.41h-3.66v3.18H1304Z" style="opacity:0.20000000298023224;isolation:isolate"/><path d="M1242.88,628.41h-3.66v3.18h3.66Z" style="opacity:0.20000000298023224;isolation:isolate"/><path d="M1365,681.41h-3.66v3.18H1365Z" style="opacity:0.20000000298023224;isolation:isolate"/><path d="M1304,681.41h-3.66v3.18H1304Z" style="opacity:0.20000000298023224;isolation:isolate"/><path d="M1242.88,681.41h-3.66v3.18h3.66Z" style="opacity:0.20000000298023224;isolation:isolate"/><path d="M1365,734.41h-3.66v3.18H1365Z" style="opacity:0.20000000298023224;isolation:isolate"/><path d="M1304,734.41h-3.66v3.18H1304Z" style="opacity:0.20000000298023224;isolation:isolate"/><path d="M1242.88,734.41h-3.66v3.18h3.66Z" style="opacity:0.20000000298023224;isolation:isolate"/><path d="M1365,787.41h-3.66v3.18H1365Z" style="opacity:0.20000000298023224;isolation:isolate"/><path d="M1304,787.41h-3.66v3.18H1304Z" style="opacity:0.20000000298023224;isolation:isolate"/><path d="M1242.88,787.41h-3.66v3.18h3.66Z" style="opacity:0.20000000298023224;isolation:isolate"/></g><g id="dots-16" data-name="dots"><path d="M275.54,847.41h-3.66v3.18h3.66Z" style="opacity:0.20000000298023224;isolation:isolate"/><path d="M214.48,847.41h-3.66v3.18h3.66Z" style="opacity:0.20000000298023224;isolation:isolate"/><path d="M153.41,847.41h-3.66v3.18h3.66Z" style="opacity:0.20000000298023224;isolation:isolate"/><path d="M92.35,847.41H88.69v3.18h3.66Z" style="opacity:0.20000000298023224;isolation:isolate"/><path d="M31.29,847.41H27.63v3.18h3.66Z" style="opacity:0.20000000298023224;isolation:isolate"/></g><g id="dots-17" data-name="dots"><path d="M578.44,847.41h-3.66v3.18h3.66Z" style="opacity:0.20000000298023224;isolation:isolate"/><path d="M517.38,847.41h-3.66v3.18h3.66Z" style="opacity:0.20000000298023224;isolation:isolate"/><path d="M456.31,847.41h-3.66v3.18h3.66Z" style="opacity:0.20000000298023224;isolation:isolate"/><path d="M395.25,847.41h-3.66v3.18h3.66Z" style="opacity:0.20000000298023224;isolation:isolate"/><path d="M334.19,847.41h-3.66v3.18h3.66Z" style="opacity:0.20000000298023224;isolation:isolate"/></g><g id="dots-18" data-name="dots"><path d="M881.34,847.41h-3.66v3.18h3.66Z" style="opacity:0.20000000298023224;isolation:isolate"/><path d="M820.27,847.41h-3.66v3.18h3.66Z" style="opacity:0.20000000298023224;isolation:isolate"/><path d="M759.21,847.41h-3.66v3.18h3.66Z" style="opacity:0.20000000298023224;isolation:isolate"/><path d="M698.15,847.41h-3.66v3.18h3.66Z" style="opacity:0.20000000298023224;isolation:isolate"/><path d="M637.09,847.41h-3.66v3.18h3.66Z" style="opacity:0.20000000298023224;isolation:isolate"/></g><g id="dots-19" data-name="dots"><path d="M1184.24,847.41h-3.66v3.18h3.66Z" style="opacity:0.20000000298023224;isolation:isolate"/><path d="M1123.17,847.41h-3.66v3.18h3.66Z" style="opacity:0.20000000298023224;isolation:isolate"/><path d="M1062.11,847.41h-3.66v3.18h3.66Z" style="opacity:0.20000000298023224;isolation:isolate"/><path d="M1001.05,847.41h-3.66v3.18h3.66Z" style="opacity:0.20000000298023224;isolation:isolate"/><path d="M940,847.41h-3.66v3.18H940Z" style="opacity:0.20000000298023224;isolation:isolate"/></g><g id="dots-20" data-name="dots"><path d="M1365,847.41h-3.66v3.18H1365Z" style="opacity:0.20000000298023224;isolation:isolate"/><path d="M1304,847.41h-3.66v3.18H1304Z" style="opacity:0.20000000298023224;isolation:isolate"/><path d="M1242.88,847.41h-3.66v3.18h3.66Z" style="opacity:0.20000000298023224;isolation:isolate"/></g></g></svg>