<svg xmlns="http://www.w3.org/2000/svg" viewBox="0 0 1920 1080"><defs><style>.cls-1{opacity:0.2;isolation:isolate;}</style></defs><g id="_1920_dots_only" data-name="1920 dots only"><path class="cls-1" d="M35.48,23.06H31.82v3.18h3.66Z"/><path class="cls-1" d="M35.48,69.91H31.82v3.18h3.66Z"/><path class="cls-1" d="M35.48,116.76H31.82v3.18h3.66Z"/><path class="cls-1" d="M35.48,163.61H31.82v3.18h3.66Z"/><path class="cls-1" d="M35.48,210.46H31.82v3.18h3.66Z"/><path class="cls-1" d="M35.48,257.31H31.82v3.18h3.66Z"/><path class="cls-1" d="M35.48,304.16H31.82v3.18h3.66Z"/><path class="cls-1" d="M35.48,351H31.82v3.18h3.66Z"/><path class="cls-1" d="M35.48,397.86H31.82V401h3.66Z"/><path class="cls-1" d="M35.48,444.71H31.82v3.18h3.66Z"/><path class="cls-1" d="M35.48,491.56H31.82v3.18h3.66Z"/><path class="cls-1" d="M35.48,538.41H31.82v3.18h3.66Z"/><path class="cls-1" d="M35.48,585.26H31.82v3.18h3.66Z"/><path class="cls-1" d="M35.48,632.11H31.82v3.18h3.66Z"/><path class="cls-1" d="M35.48,679H31.82v3.18h3.66Z"/><path class="cls-1" d="M35.48,725.81H31.82V729h3.66Z"/><path class="cls-1" d="M35.48,772.66H31.82v3.18h3.66Z"/><path class="cls-1" d="M35.48,819.51H31.82v3.18h3.66Z"/><path class="cls-1" d="M35.48,866.36H31.82v3.18h3.66Z"/><path class="cls-1" d="M35.48,1006.91H31.82v3.18h3.66Z"/><path class="cls-1" d="M35.48,960.06H31.82v3.18h3.66Z"/><path class="cls-1" d="M35.48,913.21H31.82v3.18h3.66Z"/><path class="cls-1" d="M35.48,1053.76H31.82v3.18h3.66Z"/><path class="cls-1" d="M156.31,23.06h-3.66v3.18h3.66Z"/><path class="cls-1" d="M156.31,69.91h-3.66v3.18h3.66Z"/><path class="cls-1" d="M156.31,116.76h-3.66v3.18h3.66Z"/><path class="cls-1" d="M156.31,163.61h-3.66v3.18h3.66Z"/><path class="cls-1" d="M156.31,210.46h-3.66v3.18h3.66Z"/><path class="cls-1" d="M156.31,257.31h-3.66v3.18h3.66Z"/><path class="cls-1" d="M156.31,304.16h-3.66v3.18h3.66Z"/><path class="cls-1" d="M156.31,351h-3.66v3.18h3.66Z"/><path class="cls-1" d="M156.31,397.86h-3.66V401h3.66Z"/><path class="cls-1" d="M156.31,444.71h-3.66v3.18h3.66Z"/><path class="cls-1" d="M156.31,491.56h-3.66v3.18h3.66Z"/><path class="cls-1" d="M156.31,538.41h-3.66v3.18h3.66Z"/><path class="cls-1" d="M156.31,585.26h-3.66v3.18h3.66Z"/><path class="cls-1" d="M156.31,632.11h-3.66v3.18h3.66Z"/><path class="cls-1" d="M156.31,679h-3.66v3.18h3.66Z"/><path class="cls-1" d="M156.31,725.81h-3.66V729h3.66Z"/><path class="cls-1" d="M156.31,772.66h-3.66v3.18h3.66Z"/><path class="cls-1" d="M156.31,819.51h-3.66v3.18h3.66Z"/><path class="cls-1" d="M156.31,866.36h-3.66v3.18h3.66Z"/><path class="cls-1" d="M156.31,1006.91h-3.66v3.18h3.66Z"/><path class="cls-1" d="M156.31,960.06h-3.66v3.18h3.66Z"/><path class="cls-1" d="M156.31,913.21h-3.66v3.18h3.66Z"/><path class="cls-1" d="M156.31,1053.76h-3.66v3.18h3.66Z"/><path class="cls-1" d="M75.76,23.06H72.1v3.18h3.66Z"/><path class="cls-1" d="M75.76,69.91H72.1v3.18h3.66Z"/><path class="cls-1" d="M75.76,116.76H72.1v3.18h3.66Z"/><path class="cls-1" d="M75.76,163.61H72.1v3.18h3.66Z"/><path class="cls-1" d="M75.76,210.46H72.1v3.18h3.66Z"/><path class="cls-1" d="M75.76,257.31H72.1v3.18h3.66Z"/><path class="cls-1" d="M75.76,304.16H72.1v3.18h3.66Z"/><path class="cls-1" d="M75.76,351H72.1v3.18h3.66Z"/><path class="cls-1" d="M75.76,397.86H72.1V401h3.66Z"/><path class="cls-1" d="M75.76,444.71H72.1v3.18h3.66Z"/><path class="cls-1" d="M75.76,491.56H72.1v3.18h3.66Z"/><path class="cls-1" d="M75.76,538.41H72.1v3.18h3.66Z"/><path class="cls-1" d="M75.76,585.26H72.1v3.18h3.66Z"/><path class="cls-1" d="M75.76,632.11H72.1v3.18h3.66Z"/><path class="cls-1" d="M75.76,679H72.1v3.18h3.66Z"/><path class="cls-1" d="M75.76,725.81H72.1V729h3.66Z"/><path class="cls-1" d="M75.76,772.66H72.1v3.18h3.66Z"/><path class="cls-1" d="M75.76,819.51H72.1v3.18h3.66Z"/><path class="cls-1" d="M75.76,866.36H72.1v3.18h3.66Z"/><path class="cls-1" d="M75.76,1006.91H72.1v3.18h3.66Z"/><path class="cls-1" d="M75.76,960.06H72.1v3.18h3.66Z"/><path class="cls-1" d="M75.76,913.21H72.1v3.18h3.66Z"/><path class="cls-1" d="M75.76,1053.76H72.1v3.18h3.66Z"/><path class="cls-1" d="M116,23.06h-3.66v3.18H116Z"/><path class="cls-1" d="M116,69.91h-3.66v3.18H116Z"/><path class="cls-1" d="M116,116.76h-3.66v3.18H116Z"/><path class="cls-1" d="M116,163.61h-3.66v3.18H116Z"/><path class="cls-1" d="M116,210.46h-3.66v3.18H116Z"/><path class="cls-1" d="M116,257.31h-3.66v3.18H116Z"/><path class="cls-1" d="M116,304.16h-3.66v3.18H116Z"/><path class="cls-1" d="M116,351h-3.66v3.18H116Z"/><path class="cls-1" d="M116,397.86h-3.66V401H116Z"/><path class="cls-1" d="M116,444.71h-3.66v3.18H116Z"/><path class="cls-1" d="M116,491.56h-3.66v3.18H116Z"/><path class="cls-1" d="M116,538.41h-3.66v3.18H116Z"/><path class="cls-1" d="M116,585.26h-3.66v3.18H116Z"/><path class="cls-1" d="M116,632.11h-3.66v3.18H116Z"/><path class="cls-1" d="M116,679h-3.66v3.18H116Z"/><path class="cls-1" d="M116,725.81h-3.66V729H116Z"/><path class="cls-1" d="M116,772.66h-3.66v3.18H116Z"/><path class="cls-1" d="M116,819.51h-3.66v3.18H116Z"/><path class="cls-1" d="M116,866.36h-3.66v3.18H116Z"/><path class="cls-1" d="M116,1006.91h-3.66v3.18H116Z"/><path class="cls-1" d="M116,960.06h-3.66v3.18H116Z"/><path class="cls-1" d="M116,913.21h-3.66v3.18H116Z"/><path class="cls-1" d="M116,1053.76h-3.66v3.18H116Z"/><path class="cls-1" d="M196.58,23.06h-3.66v3.18h3.66Z"/><path class="cls-1" d="M196.58,69.91h-3.66v3.18h3.66Z"/><path class="cls-1" d="M196.58,116.76h-3.66v3.18h3.66Z"/><path class="cls-1" d="M196.58,163.61h-3.66v3.18h3.66Z"/><path class="cls-1" d="M196.58,210.46h-3.66v3.18h3.66Z"/><path class="cls-1" d="M196.58,257.31h-3.66v3.18h3.66Z"/><path class="cls-1" d="M196.58,304.16h-3.66v3.18h3.66Z"/><path class="cls-1" d="M196.58,351h-3.66v3.18h3.66Z"/><path class="cls-1" d="M196.58,397.86h-3.66V401h3.66Z"/><path class="cls-1" d="M196.58,444.71h-3.66v3.18h3.66Z"/><path class="cls-1" d="M196.58,491.56h-3.66v3.18h3.66Z"/><path class="cls-1" d="M196.58,538.41h-3.66v3.18h3.66Z"/><path class="cls-1" d="M196.58,585.26h-3.66v3.18h3.66Z"/><path class="cls-1" d="M196.58,632.11h-3.66v3.18h3.66Z"/><path class="cls-1" d="M196.58,679h-3.66v3.18h3.66Z"/><path class="cls-1" d="M196.58,725.81h-3.66V729h3.66Z"/><path class="cls-1" d="M196.58,772.66h-3.66v3.18h3.66Z"/><path class="cls-1" d="M196.58,819.51h-3.66v3.18h3.66Z"/><path class="cls-1" d="M196.58,866.36h-3.66v3.18h3.66Z"/><path class="cls-1" d="M196.58,1006.91h-3.66v3.18h3.66Z"/><path class="cls-1" d="M196.58,960.06h-3.66v3.18h3.66Z"/><path class="cls-1" d="M196.58,913.21h-3.66v3.18h3.66Z"/><path class="cls-1" d="M196.58,1053.76h-3.66v3.18h3.66Z"/><path class="cls-1" d="M236.86,23.06H233.2v3.18h3.66Z"/><path class="cls-1" d="M236.86,69.91H233.2v3.18h3.66Z"/><path class="cls-1" d="M236.86,116.76H233.2v3.18h3.66Z"/><path class="cls-1" d="M236.86,163.61H233.2v3.18h3.66Z"/><path class="cls-1" d="M236.86,210.46H233.2v3.18h3.66Z"/><path class="cls-1" d="M236.86,257.31H233.2v3.18h3.66Z"/><path class="cls-1" d="M236.86,304.16H233.2v3.18h3.66Z"/><path class="cls-1" d="M236.86,351H233.2v3.18h3.66Z"/><path class="cls-1" d="M236.86,397.86H233.2V401h3.66Z"/><path class="cls-1" d="M236.86,444.71H233.2v3.18h3.66Z"/><path class="cls-1" d="M236.86,491.56H233.2v3.18h3.66Z"/><path class="cls-1" d="M236.86,538.41H233.2v3.18h3.66Z"/><path class="cls-1" d="M236.86,585.26H233.2v3.18h3.66Z"/><path class="cls-1" d="M236.86,632.11H233.2v3.18h3.66Z"/><path class="cls-1" d="M236.86,679H233.2v3.18h3.66Z"/><path class="cls-1" d="M236.86,725.81H233.2V729h3.66Z"/><path class="cls-1" d="M236.86,772.66H233.2v3.18h3.66Z"/><path class="cls-1" d="M236.86,819.51H233.2v3.18h3.66Z"/><path class="cls-1" d="M236.86,866.36H233.2v3.18h3.66Z"/><path class="cls-1" d="M236.86,1006.91H233.2v3.18h3.66Z"/><path class="cls-1" d="M236.86,960.06H233.2v3.18h3.66Z"/><path class="cls-1" d="M236.86,913.21H233.2v3.18h3.66Z"/><path class="cls-1" d="M236.86,1053.76H233.2v3.18h3.66Z"/><path class="cls-1" d="M277.14,23.06h-3.66v3.18h3.66Z"/><path class="cls-1" d="M277.14,69.91h-3.66v3.18h3.66Z"/><path class="cls-1" d="M277.14,116.76h-3.66v3.18h3.66Z"/><path class="cls-1" d="M277.14,163.61h-3.66v3.18h3.66Z"/><path class="cls-1" d="M277.14,210.46h-3.66v3.18h3.66Z"/><path class="cls-1" d="M277.14,257.31h-3.66v3.18h3.66Z"/><path class="cls-1" d="M277.14,304.16h-3.66v3.18h3.66Z"/><path class="cls-1" d="M277.14,351h-3.66v3.18h3.66Z"/><path class="cls-1" d="M277.14,397.86h-3.66V401h3.66Z"/><path class="cls-1" d="M277.14,444.71h-3.66v3.18h3.66Z"/><path class="cls-1" d="M277.14,491.56h-3.66v3.18h3.66Z"/><path class="cls-1" d="M277.14,538.41h-3.66v3.18h3.66Z"/><path class="cls-1" d="M277.14,585.26h-3.66v3.18h3.66Z"/><path class="cls-1" d="M277.14,632.11h-3.66v3.18h3.66Z"/><path class="cls-1" d="M277.14,679h-3.66v3.18h3.66Z"/><path class="cls-1" d="M277.14,725.81h-3.66V729h3.66Z"/><path class="cls-1" d="M277.14,772.66h-3.66v3.18h3.66Z"/><path class="cls-1" d="M277.14,819.51h-3.66v3.18h3.66Z"/><path class="cls-1" d="M277.14,866.36h-3.66v3.18h3.66Z"/><path class="cls-1" d="M277.14,1006.91h-3.66v3.18h3.66Z"/><path class="cls-1" d="M277.14,960.06h-3.66v3.18h3.66Z"/><path class="cls-1" d="M277.14,913.21h-3.66v3.18h3.66Z"/><path class="cls-1" d="M277.14,1053.76h-3.66v3.18h3.66Z"/><path class="cls-1" d="M317.41,23.06h-3.66v3.18h3.66Z"/><path class="cls-1" d="M317.41,69.91h-3.66v3.18h3.66Z"/><path class="cls-1" d="M317.41,116.76h-3.66v3.18h3.66Z"/><path class="cls-1" d="M317.41,163.61h-3.66v3.18h3.66Z"/><path class="cls-1" d="M317.41,210.46h-3.66v3.18h3.66Z"/><path class="cls-1" d="M317.41,257.31h-3.66v3.18h3.66Z"/><path class="cls-1" d="M317.41,304.16h-3.66v3.18h3.66Z"/><path class="cls-1" d="M317.41,351h-3.66v3.18h3.66Z"/><path class="cls-1" d="M317.41,397.86h-3.66V401h3.66Z"/><path class="cls-1" d="M317.41,444.71h-3.66v3.18h3.66Z"/><path class="cls-1" d="M317.41,491.56h-3.66v3.18h3.66Z"/><path class="cls-1" d="M317.41,538.41h-3.66v3.18h3.66Z"/><path class="cls-1" d="M317.41,585.26h-3.66v3.18h3.66Z"/><path class="cls-1" d="M317.41,632.11h-3.66v3.18h3.66Z"/><path class="cls-1" d="M317.41,679h-3.66v3.18h3.66Z"/><path class="cls-1" d="M317.41,725.81h-3.66V729h3.66Z"/><path class="cls-1" d="M317.41,772.66h-3.66v3.18h3.66Z"/><path class="cls-1" d="M317.41,819.51h-3.66v3.18h3.66Z"/><path class="cls-1" d="M317.41,866.36h-3.66v3.18h3.66Z"/><path class="cls-1" d="M317.41,1006.91h-3.66v3.18h3.66Z"/><path class="cls-1" d="M317.41,960.06h-3.66v3.18h3.66Z"/><path class="cls-1" d="M317.41,913.21h-3.66v3.18h3.66Z"/><path class="cls-1" d="M317.41,1053.76h-3.66v3.18h3.66Z"/><path class="cls-1" d="M357.69,23.06H354v3.18h3.66Z"/><path class="cls-1" d="M357.69,69.91H354v3.18h3.66Z"/><path class="cls-1" d="M357.69,116.76H354v3.18h3.66Z"/><path class="cls-1" d="M357.69,163.61H354v3.18h3.66Z"/><path class="cls-1" d="M357.69,210.46H354v3.18h3.66Z"/><path class="cls-1" d="M357.69,257.31H354v3.18h3.66Z"/><path class="cls-1" d="M357.69,304.16H354v3.18h3.66Z"/><path class="cls-1" d="M357.69,351H354v3.18h3.66Z"/><path class="cls-1" d="M357.69,397.86H354V401h3.66Z"/><path class="cls-1" d="M357.69,444.71H354v3.18h3.66Z"/><path class="cls-1" d="M357.69,491.56H354v3.18h3.66Z"/><path class="cls-1" d="M357.69,538.41H354v3.18h3.66Z"/><path class="cls-1" d="M357.69,585.26H354v3.18h3.66Z"/><path class="cls-1" d="M357.69,632.11H354v3.18h3.66Z"/><path class="cls-1" d="M357.69,679H354v3.18h3.66Z"/><path class="cls-1" d="M357.69,725.81H354V729h3.66Z"/><path class="cls-1" d="M357.69,772.66H354v3.18h3.66Z"/><path class="cls-1" d="M357.69,819.51H354v3.18h3.66Z"/><path class="cls-1" d="M357.69,866.36H354v3.18h3.66Z"/><path class="cls-1" d="M357.69,1006.91H354v3.18h3.66Z"/><path class="cls-1" d="M357.69,960.06H354v3.18h3.66Z"/><path class="cls-1" d="M357.69,913.21H354v3.18h3.66Z"/><path class="cls-1" d="M357.69,1053.76H354v3.18h3.66Z"/><path class="cls-1" d="M398,23.06H394.3v3.18H398Z"/><path class="cls-1" d="M398,69.91H394.3v3.18H398Z"/><path class="cls-1" d="M398,116.76H394.3v3.18H398Z"/><path class="cls-1" d="M398,163.61H394.3v3.18H398Z"/><path class="cls-1" d="M398,210.46H394.3v3.18H398Z"/><path class="cls-1" d="M398,257.31H394.3v3.18H398Z"/><path class="cls-1" d="M398,304.16H394.3v3.18H398Z"/><path class="cls-1" d="M398,351H394.3v3.18H398Z"/><path class="cls-1" d="M398,397.86H394.3V401H398Z"/><path class="cls-1" d="M398,444.71H394.3v3.18H398Z"/><path class="cls-1" d="M398,491.56H394.3v3.18H398Z"/><path class="cls-1" d="M398,538.41H394.3v3.18H398Z"/><path class="cls-1" d="M398,585.26H394.3v3.18H398Z"/><path class="cls-1" d="M398,632.11H394.3v3.18H398Z"/><path class="cls-1" d="M398,679H394.3v3.18H398Z"/><path class="cls-1" d="M398,725.81H394.3V729H398Z"/><path class="cls-1" d="M398,772.66H394.3v3.18H398Z"/><path class="cls-1" d="M398,819.51H394.3v3.18H398Z"/><path class="cls-1" d="M398,866.36H394.3v3.18H398Z"/><path class="cls-1" d="M398,1006.91H394.3v3.18H398Z"/><path class="cls-1" d="M398,960.06H394.3v3.18H398Z"/><path class="cls-1" d="M398,913.21H394.3v3.18H398Z"/><path class="cls-1" d="M398,1053.76H394.3v3.18H398Z"/><path class="cls-1" d="M438.24,23.06h-3.66v3.18h3.66Z"/><path class="cls-1" d="M438.24,69.91h-3.66v3.18h3.66Z"/><path class="cls-1" d="M438.24,116.76h-3.66v3.18h3.66Z"/><path class="cls-1" d="M438.24,163.61h-3.66v3.18h3.66Z"/><path class="cls-1" d="M438.24,210.46h-3.66v3.18h3.66Z"/><path class="cls-1" d="M438.24,257.31h-3.66v3.18h3.66Z"/><path class="cls-1" d="M438.24,304.16h-3.66v3.18h3.66Z"/><path class="cls-1" d="M438.24,351h-3.66v3.18h3.66Z"/><path class="cls-1" d="M438.24,397.86h-3.66V401h3.66Z"/><path class="cls-1" d="M438.24,444.71h-3.66v3.18h3.66Z"/><path class="cls-1" d="M438.24,491.56h-3.66v3.18h3.66Z"/><path class="cls-1" d="M438.24,538.41h-3.66v3.18h3.66Z"/><path class="cls-1" d="M438.24,585.26h-3.66v3.18h3.66Z"/><path class="cls-1" d="M438.24,632.11h-3.66v3.18h3.66Z"/><path class="cls-1" d="M438.24,679h-3.66v3.18h3.66Z"/><path class="cls-1" d="M438.24,725.81h-3.66V729h3.66Z"/><path class="cls-1" d="M438.24,772.66h-3.66v3.18h3.66Z"/><path class="cls-1" d="M438.24,819.51h-3.66v3.18h3.66Z"/><path class="cls-1" d="M438.24,866.36h-3.66v3.18h3.66Z"/><path class="cls-1" d="M438.24,1006.91h-3.66v3.18h3.66Z"/><path class="cls-1" d="M438.24,960.06h-3.66v3.18h3.66Z"/><path class="cls-1" d="M438.24,913.21h-3.66v3.18h3.66Z"/><path class="cls-1" d="M438.24,1053.76h-3.66v3.18h3.66Z"/><path class="cls-1" d="M478.52,23.06h-3.66v3.18h3.66Z"/><path class="cls-1" d="M478.52,69.91h-3.66v3.18h3.66Z"/><path class="cls-1" d="M478.52,116.76h-3.66v3.18h3.66Z"/><path class="cls-1" d="M478.52,163.61h-3.66v3.18h3.66Z"/><path class="cls-1" d="M478.52,210.46h-3.66v3.18h3.66Z"/><path class="cls-1" d="M478.52,257.31h-3.66v3.18h3.66Z"/><path class="cls-1" d="M478.52,304.16h-3.66v3.18h3.66Z"/><path class="cls-1" d="M478.52,351h-3.66v3.18h3.66Z"/><path class="cls-1" d="M478.52,397.86h-3.66V401h3.66Z"/><path class="cls-1" d="M478.52,444.71h-3.66v3.18h3.66Z"/><path class="cls-1" d="M478.52,491.56h-3.66v3.18h3.66Z"/><path class="cls-1" d="M478.52,538.41h-3.66v3.18h3.66Z"/><path class="cls-1" d="M478.52,585.26h-3.66v3.18h3.66Z"/><path class="cls-1" d="M478.52,632.11h-3.66v3.18h3.66Z"/><path class="cls-1" d="M478.52,679h-3.66v3.18h3.66Z"/><path class="cls-1" d="M478.52,725.81h-3.66V729h3.66Z"/><path class="cls-1" d="M478.52,772.66h-3.66v3.18h3.66Z"/><path class="cls-1" d="M478.52,819.51h-3.66v3.18h3.66Z"/><path class="cls-1" d="M478.52,866.36h-3.66v3.18h3.66Z"/><path class="cls-1" d="M478.52,1006.91h-3.66v3.18h3.66Z"/><path class="cls-1" d="M478.52,960.06h-3.66v3.18h3.66Z"/><path class="cls-1" d="M478.52,913.21h-3.66v3.18h3.66Z"/><path class="cls-1" d="M478.52,1053.76h-3.66v3.18h3.66Z"/><path class="cls-1" d="M518.79,23.06h-3.66v3.18h3.66Z"/><path class="cls-1" d="M518.79,69.91h-3.66v3.18h3.66Z"/><path class="cls-1" d="M518.79,116.76h-3.66v3.18h3.66Z"/><path class="cls-1" d="M518.79,163.61h-3.66v3.18h3.66Z"/><path class="cls-1" d="M518.79,210.46h-3.66v3.18h3.66Z"/><path class="cls-1" d="M518.79,257.31h-3.66v3.18h3.66Z"/><path class="cls-1" d="M518.79,304.16h-3.66v3.18h3.66Z"/><path class="cls-1" d="M518.79,351h-3.66v3.18h3.66Z"/><path class="cls-1" d="M518.79,397.86h-3.66V401h3.66Z"/><path class="cls-1" d="M518.79,444.71h-3.66v3.18h3.66Z"/><path class="cls-1" d="M518.79,491.56h-3.66v3.18h3.66Z"/><path class="cls-1" d="M518.79,538.41h-3.66v3.18h3.66Z"/><path class="cls-1" d="M518.79,585.26h-3.66v3.18h3.66Z"/><path class="cls-1" d="M518.79,632.11h-3.66v3.18h3.66Z"/><path class="cls-1" d="M518.79,679h-3.66v3.18h3.66Z"/><path class="cls-1" d="M518.79,725.81h-3.66V729h3.66Z"/><path class="cls-1" d="M518.79,772.66h-3.66v3.18h3.66Z"/><path class="cls-1" d="M518.79,819.51h-3.66v3.18h3.66Z"/><path class="cls-1" d="M518.79,866.36h-3.66v3.18h3.66Z"/><path class="cls-1" d="M518.79,1006.91h-3.66v3.18h3.66Z"/><path class="cls-1" d="M518.79,960.06h-3.66v3.18h3.66Z"/><path class="cls-1" d="M518.79,913.21h-3.66v3.18h3.66Z"/><path class="cls-1" d="M518.79,1053.76h-3.66v3.18h3.66Z"/><path class="cls-1" d="M559.07,23.06h-3.66v3.18h3.66Z"/><path class="cls-1" d="M559.07,69.91h-3.66v3.18h3.66Z"/><path class="cls-1" d="M559.07,116.76h-3.66v3.18h3.66Z"/><path class="cls-1" d="M559.07,163.61h-3.66v3.18h3.66Z"/><path class="cls-1" d="M559.07,210.46h-3.66v3.18h3.66Z"/><path class="cls-1" d="M559.07,257.31h-3.66v3.18h3.66Z"/><path class="cls-1" d="M559.07,304.16h-3.66v3.18h3.66Z"/><path class="cls-1" d="M559.07,351h-3.66v3.18h3.66Z"/><path class="cls-1" d="M559.07,397.86h-3.66V401h3.66Z"/><path class="cls-1" d="M559.07,444.71h-3.66v3.18h3.66Z"/><path class="cls-1" d="M559.07,491.56h-3.66v3.18h3.66Z"/><path class="cls-1" d="M559.07,538.41h-3.66v3.18h3.66Z"/><path class="cls-1" d="M559.07,585.26h-3.66v3.18h3.66Z"/><path class="cls-1" d="M559.07,632.11h-3.66v3.18h3.66Z"/><path class="cls-1" d="M559.07,679h-3.66v3.18h3.66Z"/><path class="cls-1" d="M559.07,725.81h-3.66V729h3.66Z"/><path class="cls-1" d="M559.07,772.66h-3.66v3.18h3.66Z"/><path class="cls-1" d="M559.07,819.51h-3.66v3.18h3.66Z"/><path class="cls-1" d="M559.07,866.36h-3.66v3.18h3.66Z"/><path class="cls-1" d="M559.07,1006.91h-3.66v3.18h3.66Z"/><path class="cls-1" d="M559.07,960.06h-3.66v3.18h3.66Z"/><path class="cls-1" d="M559.07,913.21h-3.66v3.18h3.66Z"/><path class="cls-1" d="M559.07,1053.76h-3.66v3.18h3.66Z"/><path class="cls-1" d="M599.35,23.06h-3.66v3.18h3.66Z"/><path class="cls-1" d="M599.35,69.91h-3.66v3.18h3.66Z"/><path class="cls-1" d="M599.35,116.76h-3.66v3.18h3.66Z"/><path class="cls-1" d="M599.35,163.61h-3.66v3.18h3.66Z"/><path class="cls-1" d="M599.35,210.46h-3.66v3.18h3.66Z"/><path class="cls-1" d="M599.35,257.31h-3.66v3.18h3.66Z"/><path class="cls-1" d="M599.35,304.16h-3.66v3.18h3.66Z"/><path class="cls-1" d="M599.35,351h-3.66v3.18h3.66Z"/><path class="cls-1" d="M599.35,397.86h-3.66V401h3.66Z"/><path class="cls-1" d="M599.35,444.71h-3.66v3.18h3.66Z"/><path class="cls-1" d="M599.35,491.56h-3.66v3.18h3.66Z"/><path class="cls-1" d="M599.35,538.41h-3.66v3.18h3.66Z"/><path class="cls-1" d="M599.35,585.26h-3.66v3.18h3.66Z"/><path class="cls-1" d="M599.35,632.11h-3.66v3.18h3.66Z"/><path class="cls-1" d="M599.35,679h-3.66v3.18h3.66Z"/><path class="cls-1" d="M599.35,725.81h-3.66V729h3.66Z"/><path class="cls-1" d="M599.35,772.66h-3.66v3.18h3.66Z"/><path class="cls-1" d="M599.35,819.51h-3.66v3.18h3.66Z"/><path class="cls-1" d="M599.35,866.36h-3.66v3.18h3.66Z"/><path class="cls-1" d="M599.35,1006.91h-3.66v3.18h3.66Z"/><path class="cls-1" d="M599.35,960.06h-3.66v3.18h3.66Z"/><path class="cls-1" d="M599.35,913.21h-3.66v3.18h3.66Z"/><path class="cls-1" d="M599.35,1053.76h-3.66v3.18h3.66Z"/><path class="cls-1" d="M639.62,23.06H636v3.18h3.66Z"/><path class="cls-1" d="M639.62,69.91H636v3.18h3.66Z"/><path class="cls-1" d="M639.62,116.76H636v3.18h3.66Z"/><path class="cls-1" d="M639.62,163.61H636v3.18h3.66Z"/><path class="cls-1" d="M639.62,210.46H636v3.18h3.66Z"/><path class="cls-1" d="M639.62,257.31H636v3.18h3.66Z"/><path class="cls-1" d="M639.62,304.16H636v3.18h3.66Z"/><path class="cls-1" d="M639.62,351H636v3.18h3.66Z"/><path class="cls-1" d="M639.62,397.86H636V401h3.66Z"/><path class="cls-1" d="M639.62,444.71H636v3.18h3.66Z"/><path class="cls-1" d="M639.62,491.56H636v3.18h3.66Z"/><path class="cls-1" d="M639.62,538.41H636v3.18h3.66Z"/><path class="cls-1" d="M639.62,585.26H636v3.18h3.66Z"/><path class="cls-1" d="M639.62,632.11H636v3.18h3.66Z"/><path class="cls-1" d="M639.62,679H636v3.18h3.66Z"/><path class="cls-1" d="M639.62,725.81H636V729h3.66Z"/><path class="cls-1" d="M639.62,772.66H636v3.18h3.66Z"/><path class="cls-1" d="M639.62,819.51H636v3.18h3.66Z"/><path class="cls-1" d="M639.62,866.36H636v3.18h3.66Z"/><path class="cls-1" d="M639.62,1006.91H636v3.18h3.66Z"/><path class="cls-1" d="M639.62,960.06H636v3.18h3.66Z"/><path class="cls-1" d="M639.62,913.21H636v3.18h3.66Z"/><path class="cls-1" d="M639.62,1053.76H636v3.18h3.66Z"/><path class="cls-1" d="M679.9,23.06h-3.66v3.18h3.66Z"/><path class="cls-1" d="M679.9,69.91h-3.66v3.18h3.66Z"/><path class="cls-1" d="M679.9,116.76h-3.66v3.18h3.66Z"/><path class="cls-1" d="M679.9,163.61h-3.66v3.18h3.66Z"/><path class="cls-1" d="M679.9,210.46h-3.66v3.18h3.66Z"/><path class="cls-1" d="M679.9,257.31h-3.66v3.18h3.66Z"/><path class="cls-1" d="M679.9,304.16h-3.66v3.18h3.66Z"/><path class="cls-1" d="M679.9,351h-3.66v3.18h3.66Z"/><path class="cls-1" d="M679.9,397.86h-3.66V401h3.66Z"/><path class="cls-1" d="M679.9,444.71h-3.66v3.18h3.66Z"/><path class="cls-1" d="M679.9,491.56h-3.66v3.18h3.66Z"/><path class="cls-1" d="M679.9,538.41h-3.66v3.18h3.66Z"/><path class="cls-1" d="M679.9,585.26h-3.66v3.18h3.66Z"/><path class="cls-1" d="M679.9,632.11h-3.66v3.18h3.66Z"/><path class="cls-1" d="M679.9,679h-3.66v3.18h3.66Z"/><path class="cls-1" d="M679.9,725.81h-3.66V729h3.66Z"/><path class="cls-1" d="M679.9,772.66h-3.66v3.18h3.66Z"/><path class="cls-1" d="M679.9,819.51h-3.66v3.18h3.66Z"/><path class="cls-1" d="M679.9,866.36h-3.66v3.18h3.66Z"/><path class="cls-1" d="M679.9,1006.91h-3.66v3.18h3.66Z"/><path class="cls-1" d="M679.9,960.06h-3.66v3.18h3.66Z"/><path class="cls-1" d="M679.9,913.21h-3.66v3.18h3.66Z"/><path class="cls-1" d="M679.9,1053.76h-3.66v3.18h3.66Z"/><path class="cls-1" d="M720.17,23.06h-3.66v3.18h3.66Z"/><path class="cls-1" d="M720.17,69.91h-3.66v3.18h3.66Z"/><path class="cls-1" d="M720.17,116.76h-3.66v3.18h3.66Z"/><path class="cls-1" d="M720.17,163.61h-3.66v3.18h3.66Z"/><path class="cls-1" d="M720.17,210.46h-3.66v3.18h3.66Z"/><path class="cls-1" d="M720.17,257.31h-3.66v3.18h3.66Z"/><path class="cls-1" d="M720.17,304.16h-3.66v3.18h3.66Z"/><path class="cls-1" d="M720.17,351h-3.66v3.18h3.66Z"/><path class="cls-1" d="M720.17,397.86h-3.66V401h3.66Z"/><path class="cls-1" d="M720.17,444.71h-3.66v3.18h3.66Z"/><path class="cls-1" d="M720.17,491.56h-3.66v3.18h3.66Z"/><path class="cls-1" d="M720.17,538.41h-3.66v3.18h3.66Z"/><path class="cls-1" d="M720.17,585.26h-3.66v3.18h3.66Z"/><path class="cls-1" d="M720.17,632.11h-3.66v3.18h3.66Z"/><path class="cls-1" d="M720.17,679h-3.66v3.18h3.66Z"/><path class="cls-1" d="M720.17,725.81h-3.66V729h3.66Z"/><path class="cls-1" d="M720.17,772.66h-3.66v3.18h3.66Z"/><path class="cls-1" d="M720.17,819.51h-3.66v3.18h3.66Z"/><path class="cls-1" d="M720.17,866.36h-3.66v3.18h3.66Z"/><path class="cls-1" d="M720.17,1006.91h-3.66v3.18h3.66Z"/><path class="cls-1" d="M720.17,960.06h-3.66v3.18h3.66Z"/><path class="cls-1" d="M720.17,913.21h-3.66v3.18h3.66Z"/><path class="cls-1" d="M720.17,1053.76h-3.66v3.18h3.66Z"/><path class="cls-1" d="M760.45,23.06h-3.66v3.18h3.66Z"/><path class="cls-1" d="M760.45,69.91h-3.66v3.18h3.66Z"/><path class="cls-1" d="M760.45,116.76h-3.66v3.18h3.66Z"/><path class="cls-1" d="M760.45,163.61h-3.66v3.18h3.66Z"/><path class="cls-1" d="M760.45,210.46h-3.66v3.18h3.66Z"/><path class="cls-1" d="M760.45,257.31h-3.66v3.18h3.66Z"/><path class="cls-1" d="M760.45,304.16h-3.66v3.18h3.66Z"/><path class="cls-1" d="M760.45,351h-3.66v3.18h3.66Z"/><path class="cls-1" d="M760.45,397.86h-3.66V401h3.66Z"/><path class="cls-1" d="M760.45,444.71h-3.66v3.18h3.66Z"/><path class="cls-1" d="M760.45,491.56h-3.66v3.18h3.66Z"/><path class="cls-1" d="M760.45,538.41h-3.66v3.18h3.66Z"/><path class="cls-1" d="M760.45,585.26h-3.66v3.18h3.66Z"/><path class="cls-1" d="M760.45,632.11h-3.66v3.18h3.66Z"/><path class="cls-1" d="M760.45,679h-3.66v3.18h3.66Z"/><path class="cls-1" d="M760.45,725.81h-3.66V729h3.66Z"/><path class="cls-1" d="M760.45,772.66h-3.66v3.18h3.66Z"/><path class="cls-1" d="M760.45,819.51h-3.66v3.18h3.66Z"/><path class="cls-1" d="M760.45,866.36h-3.66v3.18h3.66Z"/><path class="cls-1" d="M760.45,1006.91h-3.66v3.18h3.66Z"/><path class="cls-1" d="M760.45,960.06h-3.66v3.18h3.66Z"/><path class="cls-1" d="M760.45,913.21h-3.66v3.18h3.66Z"/><path class="cls-1" d="M760.45,1053.76h-3.66v3.18h3.66Z"/><path class="cls-1" d="M800.73,23.06h-3.66v3.18h3.66Z"/><path class="cls-1" d="M800.73,69.91h-3.66v3.18h3.66Z"/><path class="cls-1" d="M800.73,116.76h-3.66v3.18h3.66Z"/><path class="cls-1" d="M800.73,163.61h-3.66v3.18h3.66Z"/><path class="cls-1" d="M800.73,210.46h-3.66v3.18h3.66Z"/><path class="cls-1" d="M800.73,257.31h-3.66v3.18h3.66Z"/><path class="cls-1" d="M800.73,304.16h-3.66v3.18h3.66Z"/><path class="cls-1" d="M800.73,351h-3.66v3.18h3.66Z"/><path class="cls-1" d="M800.73,397.86h-3.66V401h3.66Z"/><path class="cls-1" d="M800.73,444.71h-3.66v3.18h3.66Z"/><path class="cls-1" d="M800.73,491.56h-3.66v3.18h3.66Z"/><path class="cls-1" d="M800.73,538.41h-3.66v3.18h3.66Z"/><path class="cls-1" d="M800.73,585.26h-3.66v3.18h3.66Z"/><path class="cls-1" d="M800.73,632.11h-3.66v3.18h3.66Z"/><path class="cls-1" d="M800.73,679h-3.66v3.18h3.66Z"/><path class="cls-1" d="M800.73,725.81h-3.66V729h3.66Z"/><path class="cls-1" d="M800.73,772.66h-3.66v3.18h3.66Z"/><path class="cls-1" d="M800.73,819.51h-3.66v3.18h3.66Z"/><path class="cls-1" d="M800.73,866.36h-3.66v3.18h3.66Z"/><path class="cls-1" d="M800.73,1006.91h-3.66v3.18h3.66Z"/><path class="cls-1" d="M800.73,960.06h-3.66v3.18h3.66Z"/><path class="cls-1" d="M800.73,913.21h-3.66v3.18h3.66Z"/><path class="cls-1" d="M800.73,1053.76h-3.66v3.18h3.66Z"/><path class="cls-1" d="M841,23.06h-3.66v3.18H841Z"/><path class="cls-1" d="M841,69.91h-3.66v3.18H841Z"/><path class="cls-1" d="M841,116.76h-3.66v3.18H841Z"/><path class="cls-1" d="M841,163.61h-3.66v3.18H841Z"/><path class="cls-1" d="M841,210.46h-3.66v3.18H841Z"/><path class="cls-1" d="M841,257.31h-3.66v3.18H841Z"/><path class="cls-1" d="M841,304.16h-3.66v3.18H841Z"/><path class="cls-1" d="M841,351h-3.66v3.18H841Z"/><path class="cls-1" d="M841,397.86h-3.66V401H841Z"/><path class="cls-1" d="M841,444.71h-3.66v3.18H841Z"/><path class="cls-1" d="M841,491.56h-3.66v3.18H841Z"/><path class="cls-1" d="M841,538.41h-3.66v3.18H841Z"/><path class="cls-1" d="M841,585.26h-3.66v3.18H841Z"/><path class="cls-1" d="M841,632.11h-3.66v3.18H841Z"/><path class="cls-1" d="M841,679h-3.66v3.18H841Z"/><path class="cls-1" d="M841,725.81h-3.66V729H841Z"/><path class="cls-1" d="M841,772.66h-3.66v3.18H841Z"/><path class="cls-1" d="M841,819.51h-3.66v3.18H841Z"/><path class="cls-1" d="M841,866.36h-3.66v3.18H841Z"/><path class="cls-1" d="M841,1006.91h-3.66v3.18H841Z"/><path class="cls-1" d="M841,960.06h-3.66v3.18H841Z"/><path class="cls-1" d="M841,913.21h-3.66v3.18H841Z"/><path class="cls-1" d="M841,1053.76h-3.66v3.18H841Z"/><path class="cls-1" d="M881.28,23.06h-3.66v3.18h3.66Z"/><path class="cls-1" d="M881.28,69.91h-3.66v3.18h3.66Z"/><path class="cls-1" d="M881.28,116.76h-3.66v3.18h3.66Z"/><path class="cls-1" d="M881.28,163.61h-3.66v3.18h3.66Z"/><path class="cls-1" d="M881.28,210.46h-3.66v3.18h3.66Z"/><path class="cls-1" d="M881.28,257.31h-3.66v3.18h3.66Z"/><path class="cls-1" d="M881.28,304.16h-3.66v3.18h3.66Z"/><path class="cls-1" d="M881.28,351h-3.66v3.18h3.66Z"/><path class="cls-1" d="M881.28,397.86h-3.66V401h3.66Z"/><path class="cls-1" d="M881.28,444.71h-3.66v3.18h3.66Z"/><path class="cls-1" d="M881.28,491.56h-3.66v3.18h3.66Z"/><path class="cls-1" d="M881.28,538.41h-3.66v3.18h3.66Z"/><path class="cls-1" d="M881.28,585.26h-3.66v3.18h3.66Z"/><path class="cls-1" d="M881.28,632.11h-3.66v3.18h3.66Z"/><path class="cls-1" d="M881.28,679h-3.66v3.18h3.66Z"/><path class="cls-1" d="M881.28,725.81h-3.66V729h3.66Z"/><path class="cls-1" d="M881.28,772.66h-3.66v3.18h3.66Z"/><path class="cls-1" d="M881.28,819.51h-3.66v3.18h3.66Z"/><path class="cls-1" d="M881.28,866.36h-3.66v3.18h3.66Z"/><path class="cls-1" d="M881.28,1006.91h-3.66v3.18h3.66Z"/><path class="cls-1" d="M881.28,960.06h-3.66v3.18h3.66Z"/><path class="cls-1" d="M881.28,913.21h-3.66v3.18h3.66Z"/><path class="cls-1" d="M881.28,1053.76h-3.66v3.18h3.66Z"/><path class="cls-1" d="M921.55,23.06h-3.66v3.18h3.66Z"/><path class="cls-1" d="M921.55,69.91h-3.66v3.18h3.66Z"/><path class="cls-1" d="M921.55,116.76h-3.66v3.18h3.66Z"/><path class="cls-1" d="M921.55,163.61h-3.66v3.18h3.66Z"/><path class="cls-1" d="M921.55,210.46h-3.66v3.18h3.66Z"/><path class="cls-1" d="M921.55,257.31h-3.66v3.18h3.66Z"/><path class="cls-1" d="M921.55,304.16h-3.66v3.18h3.66Z"/><path class="cls-1" d="M921.55,351h-3.66v3.18h3.66Z"/><path class="cls-1" d="M921.55,397.86h-3.66V401h3.66Z"/><path class="cls-1" d="M921.55,444.71h-3.66v3.18h3.66Z"/><path class="cls-1" d="M921.55,491.56h-3.66v3.18h3.66Z"/><path class="cls-1" d="M921.55,538.41h-3.66v3.18h3.66Z"/><path class="cls-1" d="M921.55,585.26h-3.66v3.18h3.66Z"/><path class="cls-1" d="M921.55,632.11h-3.66v3.18h3.66Z"/><path class="cls-1" d="M921.55,679h-3.66v3.18h3.66Z"/><path class="cls-1" d="M921.55,725.81h-3.66V729h3.66Z"/><path class="cls-1" d="M921.55,772.66h-3.66v3.18h3.66Z"/><path class="cls-1" d="M921.55,819.51h-3.66v3.18h3.66Z"/><path class="cls-1" d="M921.55,866.36h-3.66v3.18h3.66Z"/><path class="cls-1" d="M921.55,1006.91h-3.66v3.18h3.66Z"/><path class="cls-1" d="M921.55,960.06h-3.66v3.18h3.66Z"/><path class="cls-1" d="M921.55,913.21h-3.66v3.18h3.66Z"/><path class="cls-1" d="M921.55,1053.76h-3.66v3.18h3.66Z"/><path class="cls-1" d="M961.83,23.06h-3.66v3.18h3.66Z"/><path class="cls-1" d="M961.83,69.91h-3.66v3.18h3.66Z"/><path class="cls-1" d="M961.83,116.76h-3.66v3.18h3.66Z"/><path class="cls-1" d="M961.83,163.61h-3.66v3.18h3.66Z"/><path class="cls-1" d="M961.83,210.46h-3.66v3.18h3.66Z"/><path class="cls-1" d="M961.83,257.31h-3.66v3.18h3.66Z"/><path class="cls-1" d="M961.83,304.16h-3.66v3.18h3.66Z"/><path class="cls-1" d="M961.83,351h-3.66v3.18h3.66Z"/><path class="cls-1" d="M961.83,397.86h-3.66V401h3.66Z"/><path class="cls-1" d="M961.83,444.71h-3.66v3.18h3.66Z"/><path class="cls-1" d="M961.83,491.56h-3.66v3.18h3.66Z"/><path class="cls-1" d="M961.83,538.41h-3.66v3.18h3.66Z"/><path class="cls-1" d="M961.83,585.26h-3.66v3.18h3.66Z"/><path class="cls-1" d="M961.83,632.11h-3.66v3.18h3.66Z"/><path class="cls-1" d="M961.83,679h-3.66v3.18h3.66Z"/><path class="cls-1" d="M961.83,725.81h-3.66V729h3.66Z"/><path class="cls-1" d="M961.83,772.66h-3.66v3.18h3.66Z"/><path class="cls-1" d="M961.83,819.51h-3.66v3.18h3.66Z"/><path class="cls-1" d="M961.83,866.36h-3.66v3.18h3.66Z"/><path class="cls-1" d="M961.83,1006.91h-3.66v3.18h3.66Z"/><path class="cls-1" d="M961.83,960.06h-3.66v3.18h3.66Z"/><path class="cls-1" d="M961.83,913.21h-3.66v3.18h3.66Z"/><path class="cls-1" d="M961.83,1053.76h-3.66v3.18h3.66Z"/><path class="cls-1" d="M1002.11,23.06h-3.66v3.18h3.66Z"/><path class="cls-1" d="M1002.11,69.91h-3.66v3.18h3.66Z"/><path class="cls-1" d="M1002.11,116.76h-3.66v3.18h3.66Z"/><path class="cls-1" d="M1002.11,163.61h-3.66v3.18h3.66Z"/><path class="cls-1" d="M1002.11,210.46h-3.66v3.18h3.66Z"/><path class="cls-1" d="M1002.11,257.31h-3.66v3.18h3.66Z"/><path class="cls-1" d="M1002.11,304.16h-3.66v3.18h3.66Z"/><path class="cls-1" d="M1002.11,351h-3.66v3.18h3.66Z"/><path class="cls-1" d="M1002.11,397.86h-3.66V401h3.66Z"/><path class="cls-1" d="M1002.11,444.71h-3.66v3.18h3.66Z"/><path class="cls-1" d="M1002.11,491.56h-3.66v3.18h3.66Z"/><path class="cls-1" d="M1002.11,538.41h-3.66v3.18h3.66Z"/><path class="cls-1" d="M1002.11,585.26h-3.66v3.18h3.66Z"/><path class="cls-1" d="M1002.11,632.11h-3.66v3.18h3.66Z"/><path class="cls-1" d="M1002.11,679h-3.66v3.18h3.66Z"/><path class="cls-1" d="M1002.11,725.81h-3.66V729h3.66Z"/><path class="cls-1" d="M1002.11,772.66h-3.66v3.18h3.66Z"/><path class="cls-1" d="M1002.11,819.51h-3.66v3.18h3.66Z"/><path class="cls-1" d="M1002.11,866.36h-3.66v3.18h3.66Z"/><path class="cls-1" d="M1002.11,1006.91h-3.66v3.18h3.66Z"/><path class="cls-1" d="M1002.11,960.06h-3.66v3.18h3.66Z"/><path class="cls-1" d="M1002.11,913.21h-3.66v3.18h3.66Z"/><path class="cls-1" d="M1002.11,1053.76h-3.66v3.18h3.66Z"/><path class="cls-1" d="M1042.38,23.06h-3.66v3.18h3.66Z"/><path class="cls-1" d="M1042.38,69.91h-3.66v3.18h3.66Z"/><path class="cls-1" d="M1042.38,116.76h-3.66v3.18h3.66Z"/><path class="cls-1" d="M1042.38,163.61h-3.66v3.18h3.66Z"/><path class="cls-1" d="M1042.38,210.46h-3.66v3.18h3.66Z"/><path class="cls-1" d="M1042.38,257.31h-3.66v3.18h3.66Z"/><path class="cls-1" d="M1042.38,304.16h-3.66v3.18h3.66Z"/><path class="cls-1" d="M1042.38,351h-3.66v3.18h3.66Z"/><path class="cls-1" d="M1042.38,397.86h-3.66V401h3.66Z"/><path class="cls-1" d="M1042.38,444.71h-3.66v3.18h3.66Z"/><path class="cls-1" d="M1042.38,491.56h-3.66v3.18h3.66Z"/><path class="cls-1" d="M1042.38,538.41h-3.66v3.18h3.66Z"/><path class="cls-1" d="M1042.38,585.26h-3.66v3.18h3.66Z"/><path class="cls-1" d="M1042.38,632.11h-3.66v3.18h3.66Z"/><path class="cls-1" d="M1042.38,679h-3.66v3.18h3.66Z"/><path class="cls-1" d="M1042.38,725.81h-3.66V729h3.66Z"/><path class="cls-1" d="M1042.38,772.66h-3.66v3.18h3.66Z"/><path class="cls-1" d="M1042.38,819.51h-3.66v3.18h3.66Z"/><path class="cls-1" d="M1042.38,866.36h-3.66v3.18h3.66Z"/><path class="cls-1" d="M1042.38,1006.91h-3.66v3.18h3.66Z"/><path class="cls-1" d="M1042.38,960.06h-3.66v3.18h3.66Z"/><path class="cls-1" d="M1042.38,913.21h-3.66v3.18h3.66Z"/><path class="cls-1" d="M1042.38,1053.76h-3.66v3.18h3.66Z"/><path class="cls-1" d="M1082.66,23.06H1079v3.18h3.66Z"/><path class="cls-1" d="M1082.66,69.91H1079v3.18h3.66Z"/><path class="cls-1" d="M1082.66,116.76H1079v3.18h3.66Z"/><path class="cls-1" d="M1082.66,163.61H1079v3.18h3.66Z"/><path class="cls-1" d="M1082.66,210.46H1079v3.18h3.66Z"/><path class="cls-1" d="M1082.66,257.31H1079v3.18h3.66Z"/><path class="cls-1" d="M1082.66,304.16H1079v3.18h3.66Z"/><path class="cls-1" d="M1082.66,351H1079v3.18h3.66Z"/><path class="cls-1" d="M1082.66,397.86H1079V401h3.66Z"/><path class="cls-1" d="M1082.66,444.71H1079v3.18h3.66Z"/><path class="cls-1" d="M1082.66,491.56H1079v3.18h3.66Z"/><path class="cls-1" d="M1082.66,538.41H1079v3.18h3.66Z"/><path class="cls-1" d="M1082.66,585.26H1079v3.18h3.66Z"/><path class="cls-1" d="M1082.66,632.11H1079v3.18h3.66Z"/><path class="cls-1" d="M1082.66,679H1079v3.18h3.66Z"/><path class="cls-1" d="M1082.66,725.81H1079V729h3.66Z"/><path class="cls-1" d="M1082.66,772.66H1079v3.18h3.66Z"/><path class="cls-1" d="M1082.66,819.51H1079v3.18h3.66Z"/><path class="cls-1" d="M1082.66,866.36H1079v3.18h3.66Z"/><path class="cls-1" d="M1082.66,1006.91H1079v3.18h3.66Z"/><path class="cls-1" d="M1082.66,960.06H1079v3.18h3.66Z"/><path class="cls-1" d="M1082.66,913.21H1079v3.18h3.66Z"/><path class="cls-1" d="M1082.66,1053.76H1079v3.18h3.66Z"/><path class="cls-1" d="M1122.93,23.06h-3.66v3.18h3.66Z"/><path class="cls-1" d="M1122.93,69.91h-3.66v3.18h3.66Z"/><path class="cls-1" d="M1122.93,116.76h-3.66v3.18h3.66Z"/><path class="cls-1" d="M1122.93,163.61h-3.66v3.18h3.66Z"/><path class="cls-1" d="M1122.93,210.46h-3.66v3.18h3.66Z"/><path class="cls-1" d="M1122.93,257.31h-3.66v3.18h3.66Z"/><path class="cls-1" d="M1122.93,304.16h-3.66v3.18h3.66Z"/><path class="cls-1" d="M1122.93,351h-3.66v3.18h3.66Z"/><path class="cls-1" d="M1122.93,397.86h-3.66V401h3.66Z"/><path class="cls-1" d="M1122.93,444.71h-3.66v3.18h3.66Z"/><path class="cls-1" d="M1122.93,491.56h-3.66v3.18h3.66Z"/><path class="cls-1" d="M1122.93,538.41h-3.66v3.18h3.66Z"/><path class="cls-1" d="M1122.93,585.26h-3.66v3.18h3.66Z"/><path class="cls-1" d="M1122.93,632.11h-3.66v3.18h3.66Z"/><path class="cls-1" d="M1122.93,679h-3.66v3.18h3.66Z"/><path class="cls-1" d="M1122.93,725.81h-3.66V729h3.66Z"/><path class="cls-1" d="M1122.93,772.66h-3.66v3.18h3.66Z"/><path class="cls-1" d="M1122.93,819.51h-3.66v3.18h3.66Z"/><path class="cls-1" d="M1122.93,866.36h-3.66v3.18h3.66Z"/><path class="cls-1" d="M1122.93,1006.91h-3.66v3.18h3.66Z"/><path class="cls-1" d="M1122.93,960.06h-3.66v3.18h3.66Z"/><path class="cls-1" d="M1122.93,913.21h-3.66v3.18h3.66Z"/><path class="cls-1" d="M1122.93,1053.76h-3.66v3.18h3.66Z"/><path class="cls-1" d="M1163.21,23.06h-3.66v3.18h3.66Z"/><path class="cls-1" d="M1163.21,69.91h-3.66v3.18h3.66Z"/><path class="cls-1" d="M1163.21,116.76h-3.66v3.18h3.66Z"/><path class="cls-1" d="M1163.21,163.61h-3.66v3.18h3.66Z"/><path class="cls-1" d="M1163.21,210.46h-3.66v3.18h3.66Z"/><path class="cls-1" d="M1163.21,257.31h-3.66v3.18h3.66Z"/><path class="cls-1" d="M1163.21,304.16h-3.66v3.18h3.66Z"/><path class="cls-1" d="M1163.21,351h-3.66v3.18h3.66Z"/><path class="cls-1" d="M1163.21,397.86h-3.66V401h3.66Z"/><path class="cls-1" d="M1163.21,444.71h-3.66v3.18h3.66Z"/><path class="cls-1" d="M1163.21,491.56h-3.66v3.18h3.66Z"/><path class="cls-1" d="M1163.21,538.41h-3.66v3.18h3.66Z"/><path class="cls-1" d="M1163.21,585.26h-3.66v3.18h3.66Z"/><path class="cls-1" d="M1163.21,632.11h-3.66v3.18h3.66Z"/><path class="cls-1" d="M1163.21,679h-3.66v3.18h3.66Z"/><path class="cls-1" d="M1163.21,725.81h-3.66V729h3.66Z"/><path class="cls-1" d="M1163.21,772.66h-3.66v3.18h3.66Z"/><path class="cls-1" d="M1163.21,819.51h-3.66v3.18h3.66Z"/><path class="cls-1" d="M1163.21,866.36h-3.66v3.18h3.66Z"/><path class="cls-1" d="M1163.21,1006.91h-3.66v3.18h3.66Z"/><path class="cls-1" d="M1163.21,960.06h-3.66v3.18h3.66Z"/><path class="cls-1" d="M1163.21,913.21h-3.66v3.18h3.66Z"/><path class="cls-1" d="M1163.21,1053.76h-3.66v3.18h3.66Z"/><path class="cls-1" d="M1203.49,23.06h-3.66v3.18h3.66Z"/><path class="cls-1" d="M1203.49,69.91h-3.66v3.18h3.66Z"/><path class="cls-1" d="M1203.49,116.76h-3.66v3.18h3.66Z"/><path class="cls-1" d="M1203.49,163.61h-3.66v3.18h3.66Z"/><path class="cls-1" d="M1203.49,210.46h-3.66v3.18h3.66Z"/><path class="cls-1" d="M1203.49,257.31h-3.66v3.18h3.66Z"/><path class="cls-1" d="M1203.49,304.16h-3.66v3.18h3.66Z"/><path class="cls-1" d="M1203.49,351h-3.66v3.18h3.66Z"/><path class="cls-1" d="M1203.49,397.86h-3.66V401h3.66Z"/><path class="cls-1" d="M1203.49,444.71h-3.66v3.18h3.66Z"/><path class="cls-1" d="M1203.49,491.56h-3.66v3.18h3.66Z"/><path class="cls-1" d="M1203.49,538.41h-3.66v3.18h3.66Z"/><path class="cls-1" d="M1203.49,585.26h-3.66v3.18h3.66Z"/><path class="cls-1" d="M1203.49,632.11h-3.66v3.18h3.66Z"/><path class="cls-1" d="M1203.49,679h-3.66v3.18h3.66Z"/><path class="cls-1" d="M1203.49,725.81h-3.66V729h3.66Z"/><path class="cls-1" d="M1203.49,772.66h-3.66v3.18h3.66Z"/><path class="cls-1" d="M1203.49,819.51h-3.66v3.18h3.66Z"/><path class="cls-1" d="M1203.49,866.36h-3.66v3.18h3.66Z"/><path class="cls-1" d="M1203.49,1006.91h-3.66v3.18h3.66Z"/><path class="cls-1" d="M1203.49,960.06h-3.66v3.18h3.66Z"/><path class="cls-1" d="M1203.49,913.21h-3.66v3.18h3.66Z"/><path class="cls-1" d="M1203.49,1053.76h-3.66v3.18h3.66Z"/><path class="cls-1" d="M1243.76,23.06h-3.66v3.18h3.66Z"/><path class="cls-1" d="M1243.76,69.91h-3.66v3.18h3.66Z"/><path class="cls-1" d="M1243.76,116.76h-3.66v3.18h3.66Z"/><path class="cls-1" d="M1243.76,163.61h-3.66v3.18h3.66Z"/><path class="cls-1" d="M1243.76,210.46h-3.66v3.18h3.66Z"/><path class="cls-1" d="M1243.76,257.31h-3.66v3.18h3.66Z"/><path class="cls-1" d="M1243.76,304.16h-3.66v3.18h3.66Z"/><path class="cls-1" d="M1243.76,351h-3.66v3.18h3.66Z"/><path class="cls-1" d="M1243.76,397.86h-3.66V401h3.66Z"/><path class="cls-1" d="M1243.76,444.71h-3.66v3.18h3.66Z"/><path class="cls-1" d="M1243.76,491.56h-3.66v3.18h3.66Z"/><path class="cls-1" d="M1243.76,538.41h-3.66v3.18h3.66Z"/><path class="cls-1" d="M1243.76,585.26h-3.66v3.18h3.66Z"/><path class="cls-1" d="M1243.76,632.11h-3.66v3.18h3.66Z"/><path class="cls-1" d="M1243.76,679h-3.66v3.18h3.66Z"/><path class="cls-1" d="M1243.76,725.81h-3.66V729h3.66Z"/><path class="cls-1" d="M1243.76,772.66h-3.66v3.18h3.66Z"/><path class="cls-1" d="M1243.76,819.51h-3.66v3.18h3.66Z"/><path class="cls-1" d="M1243.76,866.36h-3.66v3.18h3.66Z"/><path class="cls-1" d="M1243.76,1006.91h-3.66v3.18h3.66Z"/><path class="cls-1" d="M1243.76,960.06h-3.66v3.18h3.66Z"/><path class="cls-1" d="M1243.76,913.21h-3.66v3.18h3.66Z"/><path class="cls-1" d="M1243.76,1053.76h-3.66v3.18h3.66Z"/><path class="cls-1" d="M1284,23.06h-3.66v3.18H1284Z"/><path class="cls-1" d="M1284,69.91h-3.66v3.18H1284Z"/><path class="cls-1" d="M1284,116.76h-3.66v3.18H1284Z"/><path class="cls-1" d="M1284,163.61h-3.66v3.18H1284Z"/><path class="cls-1" d="M1284,210.46h-3.66v3.18H1284Z"/><path class="cls-1" d="M1284,257.31h-3.66v3.18H1284Z"/><path class="cls-1" d="M1284,304.16h-3.66v3.18H1284Z"/><path class="cls-1" d="M1284,351h-3.66v3.18H1284Z"/><path class="cls-1" d="M1284,397.86h-3.66V401H1284Z"/><path class="cls-1" d="M1284,444.71h-3.66v3.18H1284Z"/><path class="cls-1" d="M1284,491.56h-3.66v3.18H1284Z"/><path class="cls-1" d="M1284,538.41h-3.66v3.18H1284Z"/><path class="cls-1" d="M1284,585.26h-3.66v3.18H1284Z"/><path class="cls-1" d="M1284,632.11h-3.66v3.18H1284Z"/><path class="cls-1" d="M1284,679h-3.66v3.18H1284Z"/><path class="cls-1" d="M1284,725.81h-3.66V729H1284Z"/><path class="cls-1" d="M1284,772.66h-3.66v3.18H1284Z"/><path class="cls-1" d="M1284,819.51h-3.66v3.18H1284Z"/><path class="cls-1" d="M1284,866.36h-3.66v3.18H1284Z"/><path class="cls-1" d="M1284,1006.91h-3.66v3.18H1284Z"/><path class="cls-1" d="M1284,960.06h-3.66v3.18H1284Z"/><path class="cls-1" d="M1284,913.21h-3.66v3.18H1284Z"/><path class="cls-1" d="M1284,1053.76h-3.66v3.18H1284Z"/><path class="cls-1" d="M1324.31,23.06h-3.66v3.18h3.66Z"/><path class="cls-1" d="M1324.31,69.91h-3.66v3.18h3.66Z"/><path class="cls-1" d="M1324.31,116.76h-3.66v3.18h3.66Z"/><path class="cls-1" d="M1324.31,163.61h-3.66v3.18h3.66Z"/><path class="cls-1" d="M1324.31,210.46h-3.66v3.18h3.66Z"/><path class="cls-1" d="M1324.31,257.31h-3.66v3.18h3.66Z"/><path class="cls-1" d="M1324.31,304.16h-3.66v3.18h3.66Z"/><path class="cls-1" d="M1324.31,351h-3.66v3.18h3.66Z"/><path class="cls-1" d="M1324.31,397.86h-3.66V401h3.66Z"/><path class="cls-1" d="M1324.31,444.71h-3.66v3.18h3.66Z"/><path class="cls-1" d="M1324.31,491.56h-3.66v3.18h3.66Z"/><path class="cls-1" d="M1324.31,538.41h-3.66v3.18h3.66Z"/><path class="cls-1" d="M1324.31,585.26h-3.66v3.18h3.66Z"/><path class="cls-1" d="M1324.31,632.11h-3.66v3.18h3.66Z"/><path class="cls-1" d="M1324.31,679h-3.66v3.18h3.66Z"/><path class="cls-1" d="M1324.31,725.81h-3.66V729h3.66Z"/><path class="cls-1" d="M1324.31,772.66h-3.66v3.18h3.66Z"/><path class="cls-1" d="M1324.31,819.51h-3.66v3.18h3.66Z"/><path class="cls-1" d="M1324.31,866.36h-3.66v3.18h3.66Z"/><path class="cls-1" d="M1324.31,1006.91h-3.66v3.18h3.66Z"/><path class="cls-1" d="M1324.31,960.06h-3.66v3.18h3.66Z"/><path class="cls-1" d="M1324.31,913.21h-3.66v3.18h3.66Z"/><path class="cls-1" d="M1324.31,1053.76h-3.66v3.18h3.66Z"/><path class="cls-1" d="M1364.59,23.06h-3.66v3.18h3.66Z"/><path class="cls-1" d="M1364.59,69.91h-3.66v3.18h3.66Z"/><path class="cls-1" d="M1364.59,116.76h-3.66v3.18h3.66Z"/><path class="cls-1" d="M1364.59,163.61h-3.66v3.18h3.66Z"/><path class="cls-1" d="M1364.59,210.46h-3.66v3.18h3.66Z"/><path class="cls-1" d="M1364.59,257.31h-3.66v3.18h3.66Z"/><path class="cls-1" d="M1364.59,304.16h-3.66v3.18h3.66Z"/><path class="cls-1" d="M1364.59,351h-3.66v3.18h3.66Z"/><path class="cls-1" d="M1364.59,397.86h-3.66V401h3.66Z"/><path class="cls-1" d="M1364.59,444.71h-3.66v3.18h3.66Z"/><path class="cls-1" d="M1364.59,491.56h-3.66v3.18h3.66Z"/><path class="cls-1" d="M1364.59,538.41h-3.66v3.18h3.66Z"/><path class="cls-1" d="M1364.59,585.26h-3.66v3.18h3.66Z"/><path class="cls-1" d="M1364.59,632.11h-3.66v3.18h3.66Z"/><path class="cls-1" d="M1364.59,679h-3.66v3.18h3.66Z"/><path class="cls-1" d="M1364.59,725.81h-3.66V729h3.66Z"/><path class="cls-1" d="M1364.59,772.66h-3.66v3.18h3.66Z"/><path class="cls-1" d="M1364.59,819.51h-3.66v3.18h3.66Z"/><path class="cls-1" d="M1364.59,866.36h-3.66v3.18h3.66Z"/><path class="cls-1" d="M1364.59,1006.91h-3.66v3.18h3.66Z"/><path class="cls-1" d="M1364.59,960.06h-3.66v3.18h3.66Z"/><path class="cls-1" d="M1364.59,913.21h-3.66v3.18h3.66Z"/><path class="cls-1" d="M1364.59,1053.76h-3.66v3.18h3.66Z"/><path class="cls-1" d="M1404.87,23.06h-3.66v3.18h3.66Z"/><path class="cls-1" d="M1404.87,69.91h-3.66v3.18h3.66Z"/><path class="cls-1" d="M1404.87,116.76h-3.66v3.18h3.66Z"/><path class="cls-1" d="M1404.87,163.61h-3.66v3.18h3.66Z"/><path class="cls-1" d="M1404.87,210.46h-3.66v3.18h3.66Z"/><path class="cls-1" d="M1404.87,257.31h-3.66v3.18h3.66Z"/><path class="cls-1" d="M1404.87,304.16h-3.66v3.18h3.66Z"/><path class="cls-1" d="M1404.87,351h-3.66v3.18h3.66Z"/><path class="cls-1" d="M1404.87,397.86h-3.66V401h3.66Z"/><path class="cls-1" d="M1404.87,444.71h-3.66v3.18h3.66Z"/><path class="cls-1" d="M1404.87,491.56h-3.66v3.18h3.66Z"/><path class="cls-1" d="M1404.87,538.41h-3.66v3.18h3.66Z"/><path class="cls-1" d="M1404.87,585.26h-3.66v3.18h3.66Z"/><path class="cls-1" d="M1404.87,632.11h-3.66v3.18h3.66Z"/><path class="cls-1" d="M1404.87,679h-3.66v3.18h3.66Z"/><path class="cls-1" d="M1404.87,725.81h-3.66V729h3.66Z"/><path class="cls-1" d="M1404.87,772.66h-3.66v3.18h3.66Z"/><path class="cls-1" d="M1404.87,819.51h-3.66v3.18h3.66Z"/><path class="cls-1" d="M1404.87,866.36h-3.66v3.18h3.66Z"/><path class="cls-1" d="M1404.87,1006.91h-3.66v3.18h3.66Z"/><path class="cls-1" d="M1404.87,960.06h-3.66v3.18h3.66Z"/><path class="cls-1" d="M1404.87,913.21h-3.66v3.18h3.66Z"/><path class="cls-1" d="M1404.87,1053.76h-3.66v3.18h3.66Z"/><path class="cls-1" d="M1445.14,23.06h-3.66v3.18h3.66Z"/><path class="cls-1" d="M1445.14,69.91h-3.66v3.18h3.66Z"/><path class="cls-1" d="M1445.14,116.76h-3.66v3.18h3.66Z"/><path class="cls-1" d="M1445.14,163.61h-3.66v3.18h3.66Z"/><path class="cls-1" d="M1445.14,210.46h-3.66v3.18h3.66Z"/><path class="cls-1" d="M1445.14,257.31h-3.66v3.18h3.66Z"/><path class="cls-1" d="M1445.14,304.16h-3.66v3.18h3.66Z"/><path class="cls-1" d="M1445.14,351h-3.66v3.18h3.66Z"/><path class="cls-1" d="M1445.14,397.86h-3.66V401h3.66Z"/><path class="cls-1" d="M1445.14,444.71h-3.66v3.18h3.66Z"/><path class="cls-1" d="M1445.14,491.56h-3.66v3.18h3.66Z"/><path class="cls-1" d="M1445.14,538.41h-3.66v3.18h3.66Z"/><path class="cls-1" d="M1445.14,585.26h-3.66v3.18h3.66Z"/><path class="cls-1" d="M1445.14,632.11h-3.66v3.18h3.66Z"/><path class="cls-1" d="M1445.14,679h-3.66v3.18h3.66Z"/><path class="cls-1" d="M1445.14,725.81h-3.66V729h3.66Z"/><path class="cls-1" d="M1445.14,772.66h-3.66v3.18h3.66Z"/><path class="cls-1" d="M1445.14,819.51h-3.66v3.18h3.66Z"/><path class="cls-1" d="M1445.14,866.36h-3.66v3.18h3.66Z"/><path class="cls-1" d="M1445.14,1006.91h-3.66v3.18h3.66Z"/><path class="cls-1" d="M1445.14,960.06h-3.66v3.18h3.66Z"/><path class="cls-1" d="M1445.14,913.21h-3.66v3.18h3.66Z"/><path class="cls-1" d="M1445.14,1053.76h-3.66v3.18h3.66Z"/><path class="cls-1" d="M1485.42,23.06h-3.66v3.18h3.66Z"/><path class="cls-1" d="M1485.42,69.91h-3.66v3.18h3.66Z"/><path class="cls-1" d="M1485.42,116.76h-3.66v3.18h3.66Z"/><path class="cls-1" d="M1485.42,163.61h-3.66v3.18h3.66Z"/><path class="cls-1" d="M1485.42,210.46h-3.66v3.18h3.66Z"/><path class="cls-1" d="M1485.42,257.31h-3.66v3.18h3.66Z"/><path class="cls-1" d="M1485.42,304.16h-3.66v3.18h3.66Z"/><path class="cls-1" d="M1485.42,351h-3.66v3.18h3.66Z"/><path class="cls-1" d="M1485.42,397.86h-3.66V401h3.66Z"/><path class="cls-1" d="M1485.42,444.71h-3.66v3.18h3.66Z"/><path class="cls-1" d="M1485.42,491.56h-3.66v3.18h3.66Z"/><path class="cls-1" d="M1485.42,538.41h-3.66v3.18h3.66Z"/><path class="cls-1" d="M1485.42,585.26h-3.66v3.18h3.66Z"/><path class="cls-1" d="M1485.42,632.11h-3.66v3.18h3.66Z"/><path class="cls-1" d="M1485.42,679h-3.66v3.18h3.66Z"/><path class="cls-1" d="M1485.42,725.81h-3.66V729h3.66Z"/><path class="cls-1" d="M1485.42,772.66h-3.66v3.18h3.66Z"/><path class="cls-1" d="M1485.42,819.51h-3.66v3.18h3.66Z"/><path class="cls-1" d="M1485.42,866.36h-3.66v3.18h3.66Z"/><path class="cls-1" d="M1485.42,1006.91h-3.66v3.18h3.66Z"/><path class="cls-1" d="M1485.42,960.06h-3.66v3.18h3.66Z"/><path class="cls-1" d="M1485.42,913.21h-3.66v3.18h3.66Z"/><path class="cls-1" d="M1485.42,1053.76h-3.66v3.18h3.66Z"/><path class="cls-1" d="M1525.7,23.06H1522v3.18h3.66Z"/><path class="cls-1" d="M1525.7,69.91H1522v3.18h3.66Z"/><path class="cls-1" d="M1525.7,116.76H1522v3.18h3.66Z"/><path class="cls-1" d="M1525.7,163.61H1522v3.18h3.66Z"/><path class="cls-1" d="M1525.7,210.46H1522v3.18h3.66Z"/><path class="cls-1" d="M1525.7,257.31H1522v3.18h3.66Z"/><path class="cls-1" d="M1525.7,304.16H1522v3.18h3.66Z"/><path class="cls-1" d="M1525.7,351H1522v3.18h3.66Z"/><path class="cls-1" d="M1525.7,397.86H1522V401h3.66Z"/><path class="cls-1" d="M1525.7,444.71H1522v3.18h3.66Z"/><path class="cls-1" d="M1525.7,491.56H1522v3.18h3.66Z"/><path class="cls-1" d="M1525.7,538.41H1522v3.18h3.66Z"/><path class="cls-1" d="M1525.7,585.26H1522v3.18h3.66Z"/><path class="cls-1" d="M1525.7,632.11H1522v3.18h3.66Z"/><path class="cls-1" d="M1525.7,679H1522v3.18h3.66Z"/><path class="cls-1" d="M1525.7,725.81H1522V729h3.66Z"/><path class="cls-1" d="M1525.7,772.66H1522v3.18h3.66Z"/><path class="cls-1" d="M1525.7,819.51H1522v3.18h3.66Z"/><path class="cls-1" d="M1525.7,866.36H1522v3.18h3.66Z"/><path class="cls-1" d="M1525.7,1006.91H1522v3.18h3.66Z"/><path class="cls-1" d="M1525.7,960.06H1522v3.18h3.66Z"/><path class="cls-1" d="M1525.7,913.21H1522v3.18h3.66Z"/><path class="cls-1" d="M1525.7,1053.76H1522v3.18h3.66Z"/><path class="cls-1" d="M1566,23.06h-3.66v3.18H1566Z"/><path class="cls-1" d="M1566,69.91h-3.66v3.18H1566Z"/><path class="cls-1" d="M1566,116.76h-3.66v3.18H1566Z"/><path class="cls-1" d="M1566,163.61h-3.66v3.18H1566Z"/><path class="cls-1" d="M1566,210.46h-3.66v3.18H1566Z"/><path class="cls-1" d="M1566,257.31h-3.66v3.18H1566Z"/><path class="cls-1" d="M1566,304.16h-3.66v3.18H1566Z"/><path class="cls-1" d="M1566,351h-3.66v3.18H1566Z"/><path class="cls-1" d="M1566,397.86h-3.66V401H1566Z"/><path class="cls-1" d="M1566,444.71h-3.66v3.18H1566Z"/><path class="cls-1" d="M1566,491.56h-3.66v3.18H1566Z"/><path class="cls-1" d="M1566,538.41h-3.66v3.18H1566Z"/><path class="cls-1" d="M1566,585.26h-3.66v3.18H1566Z"/><path class="cls-1" d="M1566,632.11h-3.66v3.18H1566Z"/><path class="cls-1" d="M1566,679h-3.66v3.18H1566Z"/><path class="cls-1" d="M1566,725.81h-3.66V729H1566Z"/><path class="cls-1" d="M1566,772.66h-3.66v3.18H1566Z"/><path class="cls-1" d="M1566,819.51h-3.66v3.18H1566Z"/><path class="cls-1" d="M1566,866.36h-3.66v3.18H1566Z"/><path class="cls-1" d="M1566,1006.91h-3.66v3.18H1566Z"/><path class="cls-1" d="M1566,960.06h-3.66v3.18H1566Z"/><path class="cls-1" d="M1566,913.21h-3.66v3.18H1566Z"/><path class="cls-1" d="M1566,1053.76h-3.66v3.18H1566Z"/><path class="cls-1" d="M1606.25,23.06h-3.66v3.18h3.66Z"/><path class="cls-1" d="M1606.25,69.91h-3.66v3.18h3.66Z"/><path class="cls-1" d="M1606.25,116.76h-3.66v3.18h3.66Z"/><path class="cls-1" d="M1606.25,163.61h-3.66v3.18h3.66Z"/><path class="cls-1" d="M1606.25,210.46h-3.66v3.18h3.66Z"/><path class="cls-1" d="M1606.25,257.31h-3.66v3.18h3.66Z"/><path class="cls-1" d="M1606.25,304.16h-3.66v3.18h3.66Z"/><path class="cls-1" d="M1606.25,351h-3.66v3.18h3.66Z"/><path class="cls-1" d="M1606.25,397.86h-3.66V401h3.66Z"/><path class="cls-1" d="M1606.25,444.71h-3.66v3.18h3.66Z"/><path class="cls-1" d="M1606.25,491.56h-3.66v3.18h3.66Z"/><path class="cls-1" d="M1606.25,538.41h-3.66v3.18h3.66Z"/><path class="cls-1" d="M1606.25,585.26h-3.66v3.18h3.66Z"/><path class="cls-1" d="M1606.25,632.11h-3.66v3.18h3.66Z"/><path class="cls-1" d="M1606.25,679h-3.66v3.18h3.66Z"/><path class="cls-1" d="M1606.25,725.81h-3.66V729h3.66Z"/><path class="cls-1" d="M1606.25,772.66h-3.66v3.18h3.66Z"/><path class="cls-1" d="M1606.25,819.51h-3.66v3.18h3.66Z"/><path class="cls-1" d="M1606.25,866.36h-3.66v3.18h3.66Z"/><path class="cls-1" d="M1606.25,1006.91h-3.66v3.18h3.66Z"/><path class="cls-1" d="M1606.25,960.06h-3.66v3.18h3.66Z"/><path class="cls-1" d="M1606.25,913.21h-3.66v3.18h3.66Z"/><path class="cls-1" d="M1606.25,1053.76h-3.66v3.18h3.66Z"/><path class="cls-1" d="M1646.52,23.06h-3.66v3.18h3.66Z"/><path class="cls-1" d="M1646.52,69.91h-3.66v3.18h3.66Z"/><path class="cls-1" d="M1646.52,116.76h-3.66v3.18h3.66Z"/><path class="cls-1" d="M1646.52,163.61h-3.66v3.18h3.66Z"/><path class="cls-1" d="M1646.52,210.46h-3.66v3.18h3.66Z"/><path class="cls-1" d="M1646.52,257.31h-3.66v3.18h3.66Z"/><path class="cls-1" d="M1646.52,304.16h-3.66v3.18h3.66Z"/><path class="cls-1" d="M1646.52,351h-3.66v3.18h3.66Z"/><path class="cls-1" d="M1646.52,397.86h-3.66V401h3.66Z"/><path class="cls-1" d="M1646.52,444.71h-3.66v3.18h3.66Z"/><path class="cls-1" d="M1646.52,491.56h-3.66v3.18h3.66Z"/><path class="cls-1" d="M1646.52,538.41h-3.66v3.18h3.66Z"/><path class="cls-1" d="M1646.52,585.26h-3.66v3.18h3.66Z"/><path class="cls-1" d="M1646.52,632.11h-3.66v3.18h3.66Z"/><path class="cls-1" d="M1646.52,679h-3.66v3.18h3.66Z"/><path class="cls-1" d="M1646.52,725.81h-3.66V729h3.66Z"/><path class="cls-1" d="M1646.52,772.66h-3.66v3.18h3.66Z"/><path class="cls-1" d="M1646.52,819.51h-3.66v3.18h3.66Z"/><path class="cls-1" d="M1646.52,866.36h-3.66v3.18h3.66Z"/><path class="cls-1" d="M1646.52,1006.91h-3.66v3.18h3.66Z"/><path class="cls-1" d="M1646.52,960.06h-3.66v3.18h3.66Z"/><path class="cls-1" d="M1646.52,913.21h-3.66v3.18h3.66Z"/><path class="cls-1" d="M1646.52,1053.76h-3.66v3.18h3.66Z"/><path class="cls-1" d="M1686.8,23.06h-3.66v3.18h3.66Z"/><path class="cls-1" d="M1686.8,69.91h-3.66v3.18h3.66Z"/><path class="cls-1" d="M1686.8,116.76h-3.66v3.18h3.66Z"/><path class="cls-1" d="M1686.8,163.61h-3.66v3.18h3.66Z"/><path class="cls-1" d="M1686.8,210.46h-3.66v3.18h3.66Z"/><path class="cls-1" d="M1686.8,257.31h-3.66v3.18h3.66Z"/><path class="cls-1" d="M1686.8,304.16h-3.66v3.18h3.66Z"/><path class="cls-1" d="M1686.8,351h-3.66v3.18h3.66Z"/><path class="cls-1" d="M1686.8,397.86h-3.66V401h3.66Z"/><path class="cls-1" d="M1686.8,444.71h-3.66v3.18h3.66Z"/><path class="cls-1" d="M1686.8,491.56h-3.66v3.18h3.66Z"/><path class="cls-1" d="M1686.8,538.41h-3.66v3.18h3.66Z"/><path class="cls-1" d="M1686.8,585.26h-3.66v3.18h3.66Z"/><path class="cls-1" d="M1686.8,632.11h-3.66v3.18h3.66Z"/><path class="cls-1" d="M1686.8,679h-3.66v3.18h3.66Z"/><path class="cls-1" d="M1686.8,725.81h-3.66V729h3.66Z"/><path class="cls-1" d="M1686.8,772.66h-3.66v3.18h3.66Z"/><path class="cls-1" d="M1686.8,819.51h-3.66v3.18h3.66Z"/><path class="cls-1" d="M1686.8,866.36h-3.66v3.18h3.66Z"/><path class="cls-1" d="M1686.8,1006.91h-3.66v3.18h3.66Z"/><path class="cls-1" d="M1686.8,960.06h-3.66v3.18h3.66Z"/><path class="cls-1" d="M1686.8,913.21h-3.66v3.18h3.66Z"/><path class="cls-1" d="M1686.8,1053.76h-3.66v3.18h3.66Z"/><path class="cls-1" d="M1727.08,23.06h-3.66v3.18h3.66Z"/><path class="cls-1" d="M1727.08,69.91h-3.66v3.18h3.66Z"/><path class="cls-1" d="M1727.08,116.76h-3.66v3.18h3.66Z"/><path class="cls-1" d="M1727.08,163.61h-3.66v3.18h3.66Z"/><path class="cls-1" d="M1727.08,210.46h-3.66v3.18h3.66Z"/><path class="cls-1" d="M1727.08,257.31h-3.66v3.18h3.66Z"/><path class="cls-1" d="M1727.08,304.16h-3.66v3.18h3.66Z"/><path class="cls-1" d="M1727.08,351h-3.66v3.18h3.66Z"/><path class="cls-1" d="M1727.08,397.86h-3.66V401h3.66Z"/><path class="cls-1" d="M1727.08,444.71h-3.66v3.18h3.66Z"/><path class="cls-1" d="M1727.08,491.56h-3.66v3.18h3.66Z"/><path class="cls-1" d="M1727.08,538.41h-3.66v3.18h3.66Z"/><path class="cls-1" d="M1727.08,585.26h-3.66v3.18h3.66Z"/><path class="cls-1" d="M1727.08,632.11h-3.66v3.18h3.66Z"/><path class="cls-1" d="M1727.08,679h-3.66v3.18h3.66Z"/><path class="cls-1" d="M1727.08,725.81h-3.66V729h3.66Z"/><path class="cls-1" d="M1727.08,772.66h-3.66v3.18h3.66Z"/><path class="cls-1" d="M1727.08,819.51h-3.66v3.18h3.66Z"/><path class="cls-1" d="M1727.08,866.36h-3.66v3.18h3.66Z"/><path class="cls-1" d="M1727.08,1006.91h-3.66v3.18h3.66Z"/><path class="cls-1" d="M1727.08,960.06h-3.66v3.18h3.66Z"/><path class="cls-1" d="M1727.08,913.21h-3.66v3.18h3.66Z"/><path class="cls-1" d="M1727.08,1053.76h-3.66v3.18h3.66Z"/><path class="cls-1" d="M1767.35,23.06h-3.66v3.18h3.66Z"/><path class="cls-1" d="M1767.35,69.91h-3.66v3.18h3.66Z"/><path class="cls-1" d="M1767.35,116.76h-3.66v3.18h3.66Z"/><path class="cls-1" d="M1767.35,163.61h-3.66v3.18h3.66Z"/><path class="cls-1" d="M1767.35,210.46h-3.66v3.18h3.66Z"/><path class="cls-1" d="M1767.35,257.31h-3.66v3.18h3.66Z"/><path class="cls-1" d="M1767.35,304.16h-3.66v3.18h3.66Z"/><path class="cls-1" d="M1767.35,351h-3.66v3.18h3.66Z"/><path class="cls-1" d="M1767.35,397.86h-3.66V401h3.66Z"/><path class="cls-1" d="M1767.35,444.71h-3.66v3.18h3.66Z"/><path class="cls-1" d="M1767.35,491.56h-3.66v3.18h3.66Z"/><path class="cls-1" d="M1767.35,538.41h-3.66v3.18h3.66Z"/><path class="cls-1" d="M1767.35,585.26h-3.66v3.18h3.66Z"/><path class="cls-1" d="M1767.35,632.11h-3.66v3.18h3.66Z"/><path class="cls-1" d="M1767.35,679h-3.66v3.18h3.66Z"/><path class="cls-1" d="M1767.35,725.81h-3.66V729h3.66Z"/><path class="cls-1" d="M1767.35,772.66h-3.66v3.18h3.66Z"/><path class="cls-1" d="M1767.35,819.51h-3.66v3.18h3.66Z"/><path class="cls-1" d="M1767.35,866.36h-3.66v3.18h3.66Z"/><path class="cls-1" d="M1767.35,1006.91h-3.66v3.18h3.66Z"/><path class="cls-1" d="M1767.35,960.06h-3.66v3.18h3.66Z"/><path class="cls-1" d="M1767.35,913.21h-3.66v3.18h3.66Z"/><path class="cls-1" d="M1767.35,1053.76h-3.66v3.18h3.66Z"/><path class="cls-1" d="M1807.63,23.06H1804v3.18h3.66Z"/><path class="cls-1" d="M1807.63,69.91H1804v3.18h3.66Z"/><path class="cls-1" d="M1807.63,116.76H1804v3.18h3.66Z"/><path class="cls-1" d="M1807.63,163.61H1804v3.18h3.66Z"/><path class="cls-1" d="M1807.63,210.46H1804v3.18h3.66Z"/><path class="cls-1" d="M1807.63,257.31H1804v3.18h3.66Z"/><path class="cls-1" d="M1807.63,304.16H1804v3.18h3.66Z"/><path class="cls-1" d="M1807.63,351H1804v3.18h3.66Z"/><path class="cls-1" d="M1807.63,397.86H1804V401h3.66Z"/><path class="cls-1" d="M1807.63,444.71H1804v3.18h3.66Z"/><path class="cls-1" d="M1807.63,491.56H1804v3.18h3.66Z"/><path class="cls-1" d="M1807.63,538.41H1804v3.18h3.66Z"/><path class="cls-1" d="M1807.63,585.26H1804v3.18h3.66Z"/><path class="cls-1" d="M1807.63,632.11H1804v3.18h3.66Z"/><path class="cls-1" d="M1807.63,679H1804v3.18h3.66Z"/><path class="cls-1" d="M1807.63,725.81H1804V729h3.66Z"/><path class="cls-1" d="M1807.63,772.66H1804v3.18h3.66Z"/><path class="cls-1" d="M1807.63,819.51H1804v3.18h3.66Z"/><path class="cls-1" d="M1807.63,866.36H1804v3.18h3.66Z"/><path class="cls-1" d="M1807.63,1006.91H1804v3.18h3.66Z"/><path class="cls-1" d="M1807.63,960.06H1804v3.18h3.66Z"/><path class="cls-1" d="M1807.63,913.21H1804v3.18h3.66Z"/><path class="cls-1" d="M1807.63,1053.76H1804v3.18h3.66Z"/><path class="cls-1" d="M1847.9,23.06h-3.66v3.18h3.66Z"/><path class="cls-1" d="M1847.9,69.91h-3.66v3.18h3.66Z"/><path class="cls-1" d="M1847.9,116.76h-3.66v3.18h3.66Z"/><path class="cls-1" d="M1847.9,163.61h-3.66v3.18h3.66Z"/><path class="cls-1" d="M1847.9,210.46h-3.66v3.18h3.66Z"/><path class="cls-1" d="M1847.9,257.31h-3.66v3.18h3.66Z"/><path class="cls-1" d="M1847.9,304.16h-3.66v3.18h3.66Z"/><path class="cls-1" d="M1847.9,351h-3.66v3.18h3.66Z"/><path class="cls-1" d="M1847.9,397.86h-3.66V401h3.66Z"/><path class="cls-1" d="M1847.9,444.71h-3.66v3.18h3.66Z"/><path class="cls-1" d="M1847.9,491.56h-3.66v3.18h3.66Z"/><path class="cls-1" d="M1847.9,538.41h-3.66v3.18h3.66Z"/><path class="cls-1" d="M1847.9,585.26h-3.66v3.18h3.66Z"/><path class="cls-1" d="M1847.9,632.11h-3.66v3.18h3.66Z"/><path class="cls-1" d="M1847.9,679h-3.66v3.18h3.66Z"/><path class="cls-1" d="M1847.9,725.81h-3.66V729h3.66Z"/><path class="cls-1" d="M1847.9,772.66h-3.66v3.18h3.66Z"/><path class="cls-1" d="M1847.9,819.51h-3.66v3.18h3.66Z"/><path class="cls-1" d="M1847.9,866.36h-3.66v3.18h3.66Z"/><path class="cls-1" d="M1847.9,1006.91h-3.66v3.18h3.66Z"/><path class="cls-1" d="M1847.9,960.06h-3.66v3.18h3.66Z"/><path class="cls-1" d="M1847.9,913.21h-3.66v3.18h3.66Z"/><path class="cls-1" d="M1847.9,1053.76h-3.66v3.18h3.66Z"/><path class="cls-1" d="M1888.18,23.06h-3.66v3.18h3.66Z"/><path class="cls-1" d="M1888.18,69.91h-3.66v3.18h3.66Z"/><path class="cls-1" d="M1888.18,116.76h-3.66v3.18h3.66Z"/><path class="cls-1" d="M1888.18,163.61h-3.66v3.18h3.66Z"/><path class="cls-1" d="M1888.18,210.46h-3.66v3.18h3.66Z"/><path class="cls-1" d="M1888.18,257.31h-3.66v3.18h3.66Z"/><path class="cls-1" d="M1888.18,304.16h-3.66v3.18h3.66Z"/><path class="cls-1" d="M1888.18,351h-3.66v3.18h3.66Z"/><path class="cls-1" d="M1888.18,397.86h-3.66V401h3.66Z"/><path class="cls-1" d="M1888.18,444.71h-3.66v3.18h3.66Z"/><path class="cls-1" d="M1888.18,491.56h-3.66v3.18h3.66Z"/><path class="cls-1" d="M1888.18,538.41h-3.66v3.18h3.66Z"/><path class="cls-1" d="M1888.18,585.26h-3.66v3.18h3.66Z"/><path class="cls-1" d="M1888.18,632.11h-3.66v3.18h3.66Z"/><path class="cls-1" d="M1888.18,679h-3.66v3.18h3.66Z"/><path class="cls-1" d="M1888.18,725.81h-3.66V729h3.66Z"/><path class="cls-1" d="M1888.18,772.66h-3.66v3.18h3.66Z"/><path class="cls-1" d="M1888.18,819.51h-3.66v3.18h3.66Z"/><path class="cls-1" d="M1888.18,866.36h-3.66v3.18h3.66Z"/><path class="cls-1" d="M1888.18,1006.91h-3.66v3.18h3.66Z"/><path class="cls-1" d="M1888.18,960.06h-3.66v3.18h3.66Z"/><path class="cls-1" d="M1888.18,913.21h-3.66v3.18h3.66Z"/><path class="cls-1" d="M1888.18,1053.76h-3.66v3.18h3.66Z"/></g></svg>