<svg width="7" height="14" viewBox="0 0 7 14" fill="none" xmlns="http://www.w3.org/2000/svg">
<path d="M0.750245 0.500097C0.542365 0.500285 0.343065 0.586012 0.196163 0.738428C0.0696938 0.888447 2.2705e-07 1.08089 2.23408e-07 1.28009C2.19767e-07 1.47929 0.0696938 1.67173 0.196163 1.82175L5.15154 7.00005L0.23798 12.1242C0.0999351 12.2773 0.0216928 12.478 0.0184384 12.6875C0.0187583 12.7925 0.0392609 12.8964 0.0787497 12.9931C0.118238 13.0899 0.175922 13.1775 0.248435 13.2508C0.380682 13.3947 0.559204 13.4833 0.750245 13.5C0.851592 13.4997 0.951859 13.4784 1.0452 13.4375C1.13853 13.3966 1.22307 13.3368 1.29387 13.2617L6.79288 7.56338C6.92593 7.41672 7 7.223 7 7.02171C7 6.82043 6.92593 6.62671 6.79288 6.48005L1.34615 0.781761C1.27322 0.691923 1.18191 0.620036 1.07884 0.571318C0.975766 0.522599 0.86352 0.49827 0.750245 0.500097Z" fill="#88898F"/>
</svg>
