<svg width="20" height="20" viewBox="0 0 20 20" fill="none" xmlns="http://www.w3.org/2000/svg">
<path d="M10 20C11.9778 20 13.9112 19.4135 15.5557 18.3147C17.2002 17.2159 18.4819 15.6541 19.2388 13.8268C19.9957 11.9996 20.1937 9.98891 19.8078 8.0491C19.422 6.10929 18.4696 4.32746 17.0711 2.92894C15.6725 1.53041 13.8907 0.578003 11.9509 0.192152C10.0111 -0.193701 8.00043 0.0043335 6.17317 0.761209C4.3459 1.51809 2.78412 2.79981 1.6853 4.4443C0.586491 6.08879 1.90735e-06 8.02219 1.90735e-06 10C1.90735e-06 12.6522 1.05357 15.1957 2.92893 17.0711C4.8043 18.9464 7.34783 20 10 20V20ZM10 1.65556C11.6504 1.65556 13.2637 2.14495 14.6359 3.06185C16.0082 3.97875 17.0777 5.28197 17.7093 6.80672C18.3408 8.33147 18.5061 10.0093 18.1841 11.6279C17.8621 13.2466 17.0674 14.7334 15.9004 15.9004C14.7334 17.0674 13.2466 17.8621 11.6279 18.1841C10.0093 18.5061 8.33147 18.3408 6.80672 17.7093C5.28197 17.0777 3.97875 16.0082 3.06185 14.6359C2.14495 13.2637 1.65556 11.6504 1.65556 10C1.65849 7.78782 2.53858 5.66709 4.10283 4.10284C5.66708 2.53859 7.78782 1.6585 10 1.65556ZM10 7.7C9.77399 7.70288 9.55804 7.79395 9.39821 7.95377C9.23839 8.1136 9.14732 8.32955 9.14444 8.55556L9.14444 15.4444C9.14732 15.6705 9.23839 15.8864 9.39821 16.0462C9.55804 16.2061 9.77399 16.2971 10 16.3C10.2183 16.3002 10.4282 16.2158 10.5856 16.0646C10.7431 15.9133 10.8358 15.707 10.8444 15.4889L10.8444 8.55556C10.8445 8.33056 10.7558 8.11462 10.5978 7.95448C10.4397 7.79435 10.225 7.70293 10 7.7ZM10 3.74445C9.77502 3.74737 9.56025 3.8388 9.4022 3.99893C9.24415 4.15906 9.15553 4.37501 9.15555 4.6V5.4C9.15408 5.51183 9.17484 5.62283 9.21662 5.72657C9.25839 5.83031 9.32036 5.92472 9.39892 6.00431C9.47748 6.08391 9.57107 6.1471 9.67426 6.19023C9.77744 6.23336 9.88816 6.25557 10 6.25556C10.2243 6.2473 10.4371 6.1545 10.5958 5.99581C10.7545 5.83712 10.8473 5.62428 10.8556 5.4V4.6C10.8527 4.37399 10.7616 4.15805 10.6018 3.99822C10.442 3.83839 10.226 3.74733 10 3.74445Z" fill="white"/>
</svg>
