<svg id="sm_gift" data-name="sm gift" xmlns="http://www.w3.org/2000/svg" viewBox="0 0 373.91 180"><defs><style>.cls-1,.cls-2{fill:#7b7c7c;}.cls-2{fill-rule:evenodd;}</style></defs><g id="Layer_2" data-name="Layer 2"><path class="cls-1" d="M197.37,68.53c-.08,18.69-12,29.67-29.64,29.67-20.45,0-33.26-14.59-33.26-30.81,0-16.64,13-30.9,32.35-30.9,10.84,0,19.14,3.93,27,11.39l-4.52,4.26c-6.65-6.47-14.7-9.91-22.33-9.91-14.12,0-26.36,10.81-26.36,25,0,13.53,11.41,25.57,27.26,25.57,11.17,0,21.19-6.64,22.83-18.52H171.91V68.53Z"/><path class="cls-1" d="M215.84,38h5.91V96.81h-5.91Z"/><path class="cls-1" d="M243.35,38H272.9V43.7H249.26V62.14H272.9v5.74H249.26V96.81h-5.91Z"/><path class="cls-1" d="M285.46,43.7V38h32.36V43.7H304.68V96.81h-5.91V43.7Z"/><path class="cls-1" d="M56.16,124.8h4.52c2.46,0,4.2.29,5.49,1.56a5.61,5.61,0,0,1,1.57,4A5.12,5.12,0,0,1,64,135.57l4.6,8.61h-4L60.22,136h-.35v8.21H56.16Zm3.71,7.58h1.71c1.67,0,2.54-.67,2.54-2s-.89-2-2.65-2h-1.6Z"/><path class="cls-1" d="M92.63,124.8h10.6v3.61h-6.9v3.46h6.9v3.62h-6.9v5.07h6.9v3.62H92.63Z"/><path class="cls-1" d="M147,134.33a9.87,9.87,0,0,1-2.33,7.09,9,9,0,0,1-7.33,3.24,10.16,10.16,0,1,1-.11-20.32,10.5,10.5,0,0,1,8.39,3.62l-2.6,2.56a7.61,7.61,0,0,0-5.76-2.65,6.54,6.54,0,0,0-6.71,6.56,6.76,6.76,0,0,0,6.95,6.7,5.34,5.34,0,0,0,5.33-3.29h-5.62v-3.51Z"/><path class="cls-1" d="M171.09,124.8h3.71v19.38h-3.71Z"/><path class="cls-1" d="M201.36,138.59c.89,1.67,1.92,2.54,3.22,2.54a2.06,2.06,0,0,0,2.24-1.81,3.05,3.05,0,0,0-1.24-2.16c-4-3.37-6.41-5.21-6.41-8a5.1,5.1,0,0,1,5.33-4.89c2.46,0,4.08,1.32,5.62,3.11l-2.75,2.43c-.92-1.3-1.87-2-2.93-2s-1.65.56-1.65,1.35.57,1.24,1.14,1.72c3.62,3.19,6.52,4.7,6.52,8.24,0,3.24-2.44,5.5-5.95,5.5-2.84,0-4.82-1.37-6.25-4.21Z"/><path class="cls-1" d="M233.06,124.8H243.8v3.61h-3.57v15.77h-3.71V128.41h-3.46Z"/><path class="cls-1" d="M267.57,124.8h4.52c2.46,0,4.2.29,5.49,1.56a5.61,5.61,0,0,1,1.57,4,5.12,5.12,0,0,1-3.73,5.16l4.6,8.61h-4L271.63,136h-.35v8.21h-3.71Zm3.71,7.58H273c1.68,0,2.55-.67,2.55-2s-.9-2-2.65-2h-1.6Z"/><path class="cls-1" d="M302.09,124.8h4l3.63,6.93,3.57-6.93h3.95l-5.68,11v8.4h-3.71v-8.4Z"/><rect class="cls-1" x="55.94" y="109.62" width="262.03" height="1.69"/><path class="cls-2" d="M85.87,52.55c.2-2.18.12-4.65.17-7h3.68V88.31H85.93V81.56a11.07,11.07,0,0,1-3.79,5.6A11.09,11.09,0,0,1,68,86.82a12.19,12.19,0,0,1-3.9-6.07c-1.51-5.6.48-11.84,2.49-16.3,1.54,1,2.93,2.19,4.4,3.26-2.16-3.85-4.67-8.54-4.35-14.47.29-5.33,3.66-9.15,8.93-9.49a8.22,8.22,0,0,1,6.79,2.8A15.69,15.69,0,0,1,85.87,52.55Zm-5.71-3.48A5.34,5.34,0,0,0,75.24,47c-2.87.3-5.16,3.46-4.8,6.92a20.76,20.76,0,0,0,.9,3.66c1.85,6.12,5.15,10,7.69,15.39,1,2.14,2.19,4.78,1.87,7.26-.36,2.77-3.09,4.22-6,3.95a6,6,0,0,1-4.58-2.4,12.79,12.79,0,0,1-1.81-5.84,54,54,0,0,1,.57-7.09c-.56.46-.53,1-.68,1.6a17.67,17.67,0,0,0-.9,6.12,11,11,0,0,0,2.26,6.24,7.17,7.17,0,0,0,5.43,3c4.14.25,6.4-1.91,6.78-5.55.41-3.87-1.26-7.22-2.6-9.78S76.31,64.84,75,62.34c-1.43-2.65-3.23-6-3.22-9.33a6.84,6.84,0,0,1,.73-3.09c1-1.62,3.38-2,5.37-1,2.24,1.09,3.39,3.76,3.9,6.7a9.29,9.29,0,0,1,.34,3c-.12.47-.84,1.09-1.18,1.54s-.72,1.11-1.08,1.55c-.55-2.73-.94-5.57-2-7.89-.21-.5-.85-1.88-1.64-1.66s-.19,2.75,0,3.37a26.8,26.8,0,0,0,1.25,3C80.1,64.2,84.36,68.8,86,75.09V56.56c-.84.25-1.56.63-2.43.86C82.94,54.47,81.9,51.17,80.16,49.07ZM72.7,71.32a16.92,16.92,0,0,0-.45,3.77c0,2.27,1,4.2,2.26,5,.54.32,1.66.59,2.15.06s.11-2-.12-2.69A20.77,20.77,0,0,0,74.39,73a4.79,4.79,0,0,0-1.47-1.84s0-.06,0,0S72.71,71.27,72.7,71.32Z"/><path class="cls-2" d="M101.36,45.46h2.83c-.9,7.35-1.53,14.74-3.56,21.17a17.54,17.54,0,0,1-1.19,2.91c-.42.82-1.18,1.94-2.2,1.89C95.42,71.35,94.47,68,94,66.51c-2-6.29-2.76-13.57-3.57-20.93h2.6a116.3,116.3,0,0,0,2.32,14.7A19.71,19.71,0,0,0,96,62.51c.2.54.64,1.62,1.13,1.66s1-1.07,1.25-1.61A38.87,38.87,0,0,0,100,55.64c.57-3.4,1-6.6,1.36-10C101.3,45.55,101.3,45.47,101.36,45.46Z"/><path class="cls-2" d="M91.07,59c.05,0,.06,0,.06.06.92,4.16,1.67,8.25,3.62,11.61.53.92,1.55,2.45,2.83,2.29a3.09,3.09,0,0,0,1.75-1.09A17.13,17.13,0,0,0,102.1,66a67.28,67.28,0,0,0,1.69-7c.14,9.65,0,19.54.06,29.29h-3.67V76.92c-.74.41-1.6,2.52-2.89,2.52s-1.93-1.75-2.71-2.29V88.31H91.07Z"/><path class="cls-2" d="M119.06,65.31v3a31.47,31.47,0,0,1-9.5,21.11A29.85,29.85,0,0,1,88.08,98.2a30.32,30.32,0,0,1-21.6-8.69,32,32,0,0,1-6.39-8.81,31.54,31.54,0,0,1-3.22-12.13V65a32.13,32.13,0,0,1,9.21-20.6c4.9-4.95,11.6-8.38,20.41-9h2.94A31.09,31.09,0,0,1,110,44.55,31.67,31.67,0,0,1,119.06,65.31ZM106.57,43.63A29.33,29.33,0,0,0,72.42,41.4a30.62,30.62,0,0,0-9.16,9,29,29,0,0,0-4.64,13.61,30.94,30.94,0,0,0,2.6,15.33,29.5,29.5,0,0,0,20,16.42A30.75,30.75,0,0,0,97,95.11a29.26,29.26,0,0,0,10.74-6.29c.14-.12.55-.21.4-.51h-3V45.46h3.28A10.08,10.08,0,0,0,106.57,43.63Zm2.37,44.05a28.85,28.85,0,0,0,8.48-20.77,29.31,29.31,0,0,0-8.82-21.39c0-.06-.07-.05,0,.06V88C108.76,88.05,108.84,87.78,108.94,87.68Z"/></g></svg>