<svg width="17" height="16" viewBox="0 0 17 16" fill="none" xmlns="http://www.w3.org/2000/svg">
<path d="M14.2516 7.53325H12.8853C12.7762 6.41214 12.2813 5.36371 11.485 4.56722C10.6887 3.77073 9.64054 3.27563 8.5197 3.16659V1.79992C8.5197 1.73864 8.50764 1.67795 8.48419 1.62133C8.46074 1.56471 8.42638 1.51327 8.38305 1.46994C8.33973 1.4266 8.2883 1.39223 8.23169 1.36877C8.17509 1.34532 8.11442 1.33325 8.05315 1.33325C7.99189 1.33325 7.93122 1.34532 7.87461 1.36877C7.81801 1.39223 7.76658 1.4266 7.72325 1.46994C7.67993 1.51327 7.64557 1.56471 7.62212 1.62133C7.59867 1.67795 7.58661 1.73864 7.58661 1.79992V3.16659C6.46577 3.27563 5.41761 3.77073 4.62132 4.56722C3.82503 5.36371 3.33007 6.41214 3.22105 7.53325H1.85472C1.73099 7.53325 1.61232 7.58242 1.52482 7.66994C1.43733 7.75745 1.38818 7.87615 1.38818 7.99992C1.38818 8.12369 1.43733 8.24239 1.52482 8.3299C1.61232 8.41742 1.73099 8.46659 1.85472 8.46659H3.22105C3.33007 9.5877 3.82503 10.6361 4.62132 11.4326C5.41761 12.2291 6.46577 12.7242 7.58661 12.8333V14.1999C7.58661 14.3237 7.63576 14.4424 7.72325 14.5299C7.81075 14.6174 7.92942 14.6666 8.05315 14.6666C8.17689 14.6666 8.29556 14.6174 8.38305 14.5299C8.47055 14.4424 8.5197 14.3237 8.5197 14.1999V12.8333C9.64054 12.7242 10.6887 12.2291 11.485 11.4326C12.2813 10.6361 12.7762 9.5877 12.8853 8.46659H14.2516C14.3753 8.46659 14.494 8.41742 14.5815 8.3299C14.669 8.24239 14.7181 8.12369 14.7181 7.99992C14.7181 7.87615 14.669 7.75745 14.5815 7.66994C14.494 7.58242 14.3753 7.53325 14.2516 7.53325ZM8.05315 11.9266C7.27673 11.9266 6.51774 11.6963 5.87217 11.2648C5.22659 10.8334 4.72343 10.2201 4.42631 9.50259C4.12918 8.78508 4.05144 7.99556 4.20291 7.23386C4.35439 6.47217 4.72827 5.7725 5.27728 5.22335C5.8263 4.67419 6.52579 4.30021 7.28729 4.1487C8.0488 3.99719 8.83812 4.07495 9.55544 4.37215C10.2728 4.66935 10.8859 5.17264 11.3172 5.81838C11.7486 6.46412 11.9788 7.2233 11.9788 7.99992C11.9788 8.51558 11.8773 9.02618 11.68 9.50259C11.4827 9.97899 11.1936 10.4119 10.829 10.7765C10.4645 11.1411 10.0317 11.4304 9.55544 11.6277C9.07916 11.825 8.56868 11.9266 8.05315 11.9266ZM10.5325 7.99992C10.5325 8.49042 10.3871 8.9699 10.1147 9.37773C9.84224 9.78557 9.45501 10.1034 9.00197 10.2911C8.54892 10.4788 8.0504 10.528 7.56945 10.4323C7.0885 10.3366 6.64672 10.1004 6.29997 9.75354C5.95323 9.40671 5.71709 8.96482 5.62142 8.48374C5.52576 8.00267 5.57486 7.50402 5.76251 7.05086C5.95017 6.5977 6.26796 6.21038 6.67569 5.93787C7.08342 5.66537 7.56278 5.51992 8.05315 5.51992C8.379 5.51904 8.7018 5.58259 9.00301 5.70691C9.30422 5.83123 9.57789 6.01387 9.8083 6.24433C10.0387 6.4748 10.2213 6.74854 10.3456 7.04982C10.4699 7.35111 10.5334 7.67399 10.5325 7.99992Z" fill="#0797FF"/>
</svg>
