<svg width="114" height="114" viewBox="0 0 114 114" fill="none" xmlns="http://www.w3.org/2000/svg">
<g filter="url(#filter0_d)">
<circle cx="57" cy="52" r="49.5" fill="#F8F8F8" stroke="#E0E0E0"/>
<path d="M75.1747 57.7229C74.0597 56.1074 72.4296 54.9179 70.5509 54.3488L67.0019 53.3491C67.4942 52.7584 67.9293 52.1224 68.3016 51.4497C69.4943 49.4919 70.1254 47.2439 70.1261 44.9515C70.1059 42.6697 69.476 40.4347 68.3016 38.4783C67.1614 36.5137 65.5235 34.8844 63.5529 33.7546C61.562 32.6051 59.3036 32 57.0047 32C54.7058 32 52.4474 32.6051 50.4565 33.7546C48.45 34.8534 46.7776 36.4739 45.6162 38.4448C44.4548 40.4157 43.8474 42.6638 43.8584 44.9515C43.8421 47.2248 44.4378 49.4607 45.5829 51.4247C46.007 52.1022 46.4833 52.7457 47.0075 53.3491L43.5335 54.3488C41.5966 54.9089 39.9057 56.1066 38.7348 57.7479C37.5843 59.4232 36.9817 61.4142 37.0103 63.4463V66.4455C36.966 67.1354 37.0653 67.827 37.3019 68.4766C37.5385 69.1262 37.9072 69.7196 38.3849 70.2194C38.8283 70.7932 39.4017 71.2533 40.0579 71.5618C40.714 71.8704 41.4342 72.0185 42.1588 71.9939H71.8506C72.5582 72.0028 73.2591 71.855 73.9029 71.5612C74.5467 71.2673 75.1175 70.8348 75.5745 70.2944C76.5152 69.2354 77.0237 67.8617 76.9991 66.4455V63.4463C77.0173 61.3927 76.378 59.3871 75.1747 57.7229ZM48.5571 40.2278C49.4147 38.7483 50.6588 37.5301 52.1561 36.7038C53.6264 35.8404 55.2997 35.3833 57.0047 35.3791C58.7074 35.4005 60.3763 35.8565 61.8534 36.7038C63.3035 37.5247 64.5106 38.7146 65.3524 40.1528C66.2226 41.6045 66.6966 43.2592 66.727 44.9515C66.7259 46.6558 66.2499 48.3262 65.3524 49.7751C64.5629 51.2155 63.4077 52.4223 62.0033 53.2741C60.5136 54.1059 58.8358 54.5426 57.1297 54.5426C55.4235 54.5426 53.7457 54.1059 52.256 53.2741C50.7076 52.4827 49.4225 51.2584 48.5571 49.7501C47.7003 48.2977 47.2594 46.6376 47.2824 44.9515C47.2903 43.2772 47.7292 41.6331 48.5571 40.1778V40.2278ZM73.5501 66.4955C73.579 67.0914 73.3726 67.6749 72.9753 68.12C72.8408 68.2961 72.6665 68.4378 72.4666 68.5334C72.2668 68.629 72.0471 68.6757 71.8256 68.6699H42.1588C41.9208 68.6859 41.6829 68.636 41.4713 68.5258C41.2597 68.4156 41.0825 68.2493 40.9592 68.045C40.7632 67.8412 40.6146 67.5966 40.5239 67.3288C40.4332 67.061 40.4026 66.7765 40.4343 66.4955V63.4963C40.396 62.1619 40.7809 60.8496 41.534 59.7473C42.2486 58.71 43.299 57.9508 44.5082 57.5979L49.7817 56.0734L50.0566 55.9484L50.5315 56.2233C52.5418 57.3417 54.8042 57.9286 57.1047 57.9286C59.4051 57.9286 61.6675 57.3417 63.6779 56.2233L64.1277 55.9484L69.6512 57.5729C70.7928 57.9396 71.7841 58.6677 72.4754 59.6474C73.2694 60.7537 73.6897 62.0846 73.6751 63.4463L73.5501 66.4955Z" fill="#88898F"/>
</g>
<defs>
<filter id="filter0_d" x="0" y="0" width="114" height="114" filterUnits="userSpaceOnUse" color-interpolation-filters="sRGB">
<feFlood flood-opacity="0" result="BackgroundImageFix"/>
<feColorMatrix in="SourceAlpha" type="matrix" values="0 0 0 0 0 0 0 0 0 0 0 0 0 0 0 0 0 0 127 0"/>
<feOffset dy="5"/>
<feGaussianBlur stdDeviation="3.5"/>
<feColorMatrix type="matrix" values="0 0 0 0 0.906424 0 0 0 0 0.919401 0 0 0 0 0.958333 0 0 0 0.35 0"/>
<feBlend mode="multiply" in2="BackgroundImageFix" result="effect1_dropShadow"/>
<feBlend mode="normal" in="SourceGraphic" in2="effect1_dropShadow" result="shape"/>
</filter>
</defs>
</svg>
