<svg width="24" height="24" viewBox="0 0 24 24" fill="none" xmlns="http://www.w3.org/2000/svg">
<path d="M20.1786 14.5753C19.6769 13.8483 18.9433 13.313 18.0979 13.057L16.5009 12.6071C16.7224 12.3413 16.9182 12.0551 17.0857 11.7523C17.6224 10.8714 17.9064 9.85974 17.9067 8.82816C17.8977 7.80134 17.6142 6.79563 17.0857 5.91522C16.5726 5.03116 15.8356 4.29797 14.9488 3.78956C14.0529 3.27231 13.0366 3 12.0021 3C10.9676 3 9.95135 3.27231 9.05544 3.78956C8.1525 4.28401 7.39994 5.01324 6.87729 5.90015C6.35464 6.78707 6.08134 7.79872 6.08627 8.82816C6.07895 9.85117 6.347 10.8573 6.8623 11.7411C7.05315 12.046 7.26749 12.3355 7.50337 12.6071L5.94006 13.057C5.06849 13.309 4.30757 13.848 3.78066 14.5866C3.26292 15.3404 2.99178 16.2364 3.00463 17.1508V18.5005C2.98469 18.8109 3.02936 19.1222 3.13584 19.4145C3.24231 19.7068 3.40826 19.9738 3.6232 20.1987C3.82271 20.4569 4.08075 20.664 4.37603 20.8028C4.67131 20.9417 4.99537 21.0083 5.32148 20.9973H18.6828C19.0012 21.0013 19.3166 20.9347 19.6063 20.8025C19.896 20.6703 20.1529 20.4756 20.3585 20.2325C20.7818 19.7559 21.0107 19.1378 20.9996 18.5005V17.1508C21.0078 16.2267 20.7201 15.3242 20.1786 14.5753ZM8.20068 6.7025C8.58662 6.03672 9.14647 5.48853 9.82023 5.11669C10.4819 4.72819 11.2349 4.52248 12.0021 4.52061C12.7683 4.53024 13.5193 4.73542 14.184 5.11669C14.8366 5.48613 15.3798 6.02159 15.7586 6.66876C16.1502 7.32204 16.3634 8.06663 16.3772 8.82816C16.3766 9.59513 16.1624 10.3468 15.7586 10.9988C15.4033 11.647 14.8835 12.19 14.2515 12.5734C13.5811 12.9477 12.8261 13.1442 12.0584 13.1442C11.2906 13.1442 10.5356 12.9477 9.86522 12.5734C9.16842 12.2172 8.59013 11.6663 8.20068 10.9876C7.81514 10.334 7.61671 9.58693 7.62709 8.82816C7.63062 8.07473 7.82816 7.33491 8.20068 6.68001V6.7025ZM19.4475 18.523C19.4606 18.7911 19.3677 19.0537 19.1889 19.254C19.1284 19.3333 19.0499 19.397 18.96 19.44C18.87 19.483 18.7712 19.5041 18.6715 19.5014H5.32148C5.21436 19.5086 5.10732 19.4862 5.01209 19.4366C4.91687 19.387 4.83714 19.3122 4.78163 19.2203C4.69345 19.1285 4.62657 19.0185 4.58575 18.898C4.54493 18.7774 4.53117 18.6494 4.54545 18.523V17.1733C4.52818 16.5729 4.70141 15.9823 5.04031 15.4863C5.36185 15.0195 5.83456 14.6779 6.37869 14.5191L8.75178 13.833L8.87549 13.7768L9.08918 13.9005C9.99383 14.4037 11.0119 14.6679 12.0471 14.6679C13.0823 14.6679 14.1004 14.4037 15.005 13.9005L15.2075 13.7768L17.693 14.5078C18.2068 14.6728 18.6529 15.0005 18.9639 15.4413C19.3212 15.9392 19.5103 16.5381 19.5038 17.1508L19.4475 18.523Z" fill="#161720"/>
</svg>
