<svg width="24" height="24" viewBox="0 0 24 24" fill="none" xmlns="http://www.w3.org/2000/svg">
<path d="M18 12C17.9977 12.1761 17.9267 12.3443 17.8022 12.4689C17.6777 12.5934 17.5094 12.6644 17.3333 12.6667H12.6667V17.3333C12.6667 17.5101 12.5964 17.6797 12.4714 17.8047C12.3464 17.9298 12.1768 18 12 18C11.8232 18 11.6536 17.9298 11.5286 17.8047C11.4036 17.6797 11.3333 17.5101 11.3333 17.3333V12.6667H6.66667C6.48986 12.6667 6.32029 12.5964 6.19526 12.4714C6.07024 12.3464 6 12.1768 6 12C6 11.8232 6.07024 11.6536 6.19526 11.5286C6.32029 11.4036 6.48986 11.3333 6.66667 11.3333H11.3333V6.66667C11.3333 6.48986 11.4036 6.32029 11.5286 6.19526C11.6536 6.07024 11.8232 6 12 6C12.1768 6 12.3464 6.07024 12.4714 6.19526C12.5964 6.32029 12.6667 6.48986 12.6667 6.66667V11.3333H17.3333C17.5094 11.3356 17.6777 11.4066 17.8022 11.5311C17.9267 11.6557 17.9977 11.8239 18 12Z" fill="#161720"/>
</svg>
