<svg width="64" height="64" viewBox="0 0 64 64" fill="none" xmlns="http://www.w3.org/2000/svg">
<path d="M50.7611 34.6264V7.37321C50.7831 6.50401 50.4592 5.66144 49.8603 5.02945C49.2614 4.39746 48.436 4.02737 47.5644 4L7.19772 4C6.32607 4.02737 5.50069 4.39746 4.90177 5.02945C4.30285 5.66144 3.97905 6.50401 4.00105 7.37321V47.5492C3.97905 48.4184 4.30285 49.261 4.90177 49.893C5.50069 50.525 6.32607 50.8951 7.19772 50.9224H34.6027C35.2737 53.0539 36.486 54.9763 38.122 56.5028C39.7579 58.0294 41.762 59.1083 43.9396 59.6349C46.1171 60.1615 48.3943 60.1178 50.5499 59.5081C52.7056 58.8984 54.6665 57.7434 56.2424 56.1553C57.8182 54.5671 58.9555 52.5997 59.5438 50.4441C60.132 48.2884 60.1513 46.0178 59.5997 43.8525C59.0481 41.6873 57.9444 39.701 56.3958 38.0864C54.8471 36.4719 52.906 35.284 50.7611 34.638V34.6264ZM7.19772 6.32635H47.5644C47.8161 6.35566 48.0467 6.48108 48.2077 6.67628C48.3687 6.87148 48.4475 7.12127 48.4277 7.37321V11.5141H6.33439V7.37321C6.31457 7.12127 6.39343 6.87148 6.55441 6.67628C6.71539 6.48108 6.94596 6.35566 7.19772 6.32635ZM7.19772 48.5961C6.94475 48.5696 6.71239 48.445 6.55084 48.2491C6.3893 48.0532 6.31154 47.8018 6.33439 47.5492V13.8172H48.4277V34.1495C47.9494 34.1495 47.4711 34.0681 46.981 34.0681C43.5412 34.0588 40.2383 35.4107 37.7972 37.827C35.3562 40.2433 33.9765 43.5265 33.9611 46.956C33.9642 47.5047 34.0032 48.0525 34.0777 48.5961H7.19772ZM46.981 57.506C44.8895 57.4876 42.8501 56.8523 41.1202 55.6802C39.3902 54.508 38.0469 52.8515 37.2598 50.9194C36.4726 48.9873 36.2768 46.8661 36.697 44.8232C37.1172 42.7803 38.1345 40.9071 39.6208 39.4398C41.1072 37.9725 42.9959 36.9767 45.049 36.578C47.1021 36.1793 49.2276 36.3955 51.1576 37.1993C53.0877 38.0031 54.7358 39.3586 55.8944 41.0949C57.0529 42.8312 57.6699 44.8706 57.6677 46.956C57.6492 49.7665 56.514 52.4551 54.5109 54.4326C52.5077 56.4101 49.8 57.5153 46.981 57.506ZM53.5377 41.9311C53.7677 42.1293 53.9111 42.4092 53.9372 42.7112C53.9634 43.0131 53.8703 43.3134 53.6777 43.5479L45.6744 52.9813C45.4745 53.2164 45.1892 53.3628 44.8811 53.3884H44.8344C44.5578 53.3916 44.289 53.2968 44.076 53.1208L40.9844 50.527C40.804 50.3147 40.7059 50.0449 40.7079 49.7666C40.7099 49.4883 40.8119 49.22 40.9954 49.0103C41.1789 48.8007 41.4317 48.6635 41.708 48.6238C41.9842 48.5841 42.2656 48.6444 42.501 48.7938L44.6594 50.6084L51.916 42.0707C52.1148 41.8414 52.3955 41.6984 52.6984 41.6724C53.0013 41.6463 53.3025 41.7391 53.5377 41.9311ZM14.4194 17.0741C13.7272 17.0741 13.0505 17.2787 12.4749 17.6622C11.8993 18.0456 11.4507 18.5906 11.1858 19.2282C10.9209 19.8658 10.8516 20.5675 10.9866 21.2444C11.1217 21.9213 11.455 22.543 11.9445 23.0311C12.434 23.5191 13.0576 23.8514 13.7366 23.9861C14.4155 24.1207 15.1192 24.0516 15.7588 23.7875C16.3983 23.5234 16.9449 23.0761 17.3295 22.5023C17.7141 21.9284 17.9194 21.2538 17.9194 20.5636C17.9194 19.6381 17.5506 18.7505 16.8943 18.0961C16.2379 17.4417 15.3476 17.0741 14.4194 17.0741ZM14.4194 21.7268C14.11 21.7268 13.8132 21.6042 13.5944 21.3861C13.3756 21.1679 13.2527 20.8721 13.2527 20.5636C13.2527 20.2551 13.3756 19.9592 13.5944 19.7411C13.8132 19.523 14.11 19.4004 14.4194 19.4004C14.7288 19.4004 15.0256 19.523 15.2443 19.7411C15.4631 19.9592 15.5861 20.2551 15.5861 20.5636C15.5861 20.8721 15.4631 21.1679 15.2443 21.3861C15.0256 21.6042 14.7288 21.7268 14.4194 21.7268ZM20.1127 20.5636C20.1127 20.2551 20.2356 19.9592 20.4544 19.7411C20.6732 19.523 20.97 19.4004 21.2794 19.4004H41.9061C42.2155 19.4004 42.5122 19.523 42.731 19.7411C42.9498 19.9592 43.0727 20.2551 43.0727 20.5636C43.0727 20.8721 42.9498 21.1679 42.731 21.3861C42.5122 21.6042 42.2155 21.7268 41.9061 21.7268H21.2794C20.972 21.7268 20.677 21.6058 20.4585 21.3902C20.2401 21.1746 20.1158 20.8817 20.1127 20.5752V20.5636ZM14.4194 27.0076C13.7272 27.0076 13.0505 27.2122 12.4749 27.5957C11.8993 27.9791 11.4507 28.5241 11.1858 29.1617C10.9209 29.7994 10.8516 30.501 10.9866 31.1779C11.1217 31.8548 11.455 32.4766 11.9445 32.9646C12.434 33.4526 13.0576 33.7849 13.7366 33.9196C14.4155 34.0542 15.1192 33.9851 15.7588 33.721C16.3983 33.4569 16.9449 33.0096 17.3295 32.4358C17.7141 31.8619 17.9194 31.1873 17.9194 30.4971C17.9194 29.5716 17.5506 28.6841 16.8943 28.0296C16.2379 27.3752 15.3476 27.0076 14.4194 27.0076ZM14.4194 31.6603C14.1886 31.6603 13.9631 31.5921 13.7712 31.4643C13.5794 31.3364 13.4298 31.1548 13.3415 30.9422C13.2532 30.7297 13.2301 30.4958 13.2751 30.2702C13.3202 30.0445 13.4313 29.8373 13.5944 29.6746C13.7576 29.5119 13.9655 29.4012 14.1918 29.3563C14.4181 29.3114 14.6527 29.3344 14.8658 29.4225C15.079 29.5105 15.2612 29.6596 15.3894 29.8509C15.5176 30.0422 15.5861 30.2671 15.5861 30.4971C15.5907 30.6528 15.564 30.8078 15.5075 30.953C15.451 31.0981 15.3658 31.2305 15.257 31.3422C15.1482 31.454 15.018 31.5428 14.8741 31.6034C14.7302 31.664 14.5756 31.6952 14.4194 31.6952V31.6603ZM20.1127 30.5669C20.1127 30.2584 20.2356 29.9625 20.4544 29.7444C20.6732 29.5263 20.97 29.4037 21.2794 29.4037H40.4477C40.7571 29.4037 41.0539 29.5263 41.2727 29.7444C41.4915 29.9625 41.6144 30.2584 41.6144 30.5669C41.6144 30.8754 41.4915 31.1712 41.2727 31.3894C41.0539 31.6075 40.7571 31.7301 40.4477 31.7301H21.2794C20.9759 31.7302 20.6844 31.6125 20.4666 31.4018C20.2487 31.1912 20.1218 30.9042 20.1127 30.6018V30.5669ZM14.4194 36.9527C13.7272 36.9527 13.0505 37.1574 12.4749 37.5408C11.8993 37.9242 11.4507 38.4692 11.1858 39.1069C10.9209 39.7445 10.8516 40.4461 10.9866 41.123C11.1217 41.7999 11.455 42.4217 11.9445 42.9097C12.434 43.3977 13.0576 43.7301 13.7366 43.8647C14.4155 43.9994 15.1192 43.9303 15.7588 43.6661C16.3983 43.402 16.9449 42.9548 17.3295 42.3809C17.7141 41.8071 17.9194 41.1324 17.9194 40.4422C17.9194 39.5168 17.5506 38.6292 16.8943 37.9748C16.2379 37.3204 15.3476 36.9527 14.4194 36.9527ZM14.4194 41.6054C14.11 41.6054 13.8132 41.4829 13.5944 41.2647C13.3756 41.0466 13.2527 40.7507 13.2527 40.4422C13.2527 40.1338 13.3756 39.8379 13.5944 39.6198C13.8132 39.4016 14.11 39.2791 14.4194 39.2791C14.7288 39.2791 15.0256 39.4016 15.2443 39.6198C15.4631 39.8379 15.5861 40.1338 15.5861 40.4422C15.5861 40.7507 15.4631 41.0466 15.2443 41.2647C15.0256 41.4829 14.7288 41.6054 14.4194 41.6054ZM31.7561 40.4422C31.7561 40.7507 31.6331 41.0466 31.4143 41.2647C31.1956 41.4829 30.8988 41.6054 30.5894 41.6054H21.2561C20.9466 41.6054 20.6499 41.4829 20.4311 41.2647C20.2123 41.0466 20.0894 40.7507 20.0894 40.4422C20.0894 40.1338 20.2123 39.8379 20.4311 39.6198C20.6499 39.4016 20.9466 39.2791 21.2561 39.2791H30.5894C30.7436 39.2791 30.8962 39.3095 31.0386 39.3687C31.1809 39.4279 31.31 39.5146 31.4185 39.6239C31.527 39.7331 31.6127 39.8627 31.6706 40.0052C31.7286 40.1476 31.7576 40.3002 31.7561 40.4539V40.4422Z" fill="#FF9900"/>
</svg>
