<svg width="12" height="8" viewBox="0 0 12 8" fill="none" xmlns="http://www.w3.org/2000/svg">
<path d="M12 6.96054C11.9998 7.15938 11.9207 7.35002 11.78 7.49054C11.6415 7.61151 11.4639 7.67817 11.28 7.67817C11.0961 7.67817 10.9185 7.61151 10.78 7.49054L6 2.75054L1.27 7.45054C1.1287 7.58258 0.943374 7.65742 0.75 7.66054C0.653059 7.66023 0.557149 7.64062 0.467869 7.60285C0.378589 7.56508 0.297726 7.5099 0.23 7.44054C0.097228 7.31404 0.0154046 7.14328 0 6.96054C0.00030625 6.8636 0.0199178 6.76769 0.0576903 6.67841C0.0954627 6.58913 0.150639 6.50826 0.22 6.44054L5.48 1.18054C5.61538 1.05327 5.79419 0.982422 5.98 0.982422C6.16581 0.982422 6.34462 1.05327 6.48 1.18054L11.74 6.39054C11.8229 6.46029 11.8893 6.54764 11.9343 6.64623C11.9792 6.74482 12.0017 6.85219 12 6.96054Z" fill="#161720"/>
</svg>
