<svg width="12" height="7" viewBox="0 0 12 7" fill="none" xmlns="http://www.w3.org/2000/svg">
<path d="M0 0.822665C0.000175476 0.623819 0.0793076 0.433182 0.22 0.292665C0.35848 0.171692 0.536122 0.105028 0.72 0.105028C0.903878 0.105028 1.08152 0.171692 1.22 0.292665L6 5.03266L10.73 0.332665C10.8713 0.200619 11.0566 0.125778 11.25 0.122665C11.3469 0.122971 11.4429 0.142583 11.5321 0.180355C11.6214 0.218127 11.7023 0.273304 11.77 0.342665C11.9028 0.469164 11.9846 0.639926 12 0.822665C11.9997 0.919606 11.9801 1.01552 11.9423 1.1048C11.9045 1.19408 11.8494 1.27494 11.78 1.34266L6.52 6.60266C6.38462 6.72993 6.20581 6.80078 6.02 6.80078C5.83419 6.80078 5.65538 6.72993 5.52 6.60266L0.26 1.39266C0.177073 1.32291 0.110715 1.23557 0.0657434 1.13697C0.020772 1.03838 -0.0016861 0.931015 0 0.822665Z" fill="#161720"/>
</svg>
