<svg width="24" height="24" viewBox="0 0 24 24" fill="none" xmlns="http://www.w3.org/2000/svg">
<path d="M5.86698 22C5.59268 21.9999 5.32176 21.935 5.07352 21.81C4.75263 21.6486 4.48127 21.3927 4.29117 21.0722C4.10106 20.7516 4.00007 20.3797 4 20V3.09C3.99958 2.94205 4.02753 2.79559 4.08212 2.6597C4.13672 2.5238 4.2168 2.40137 4.31739 2.3C4.51017 2.10786 4.76353 2.00073 5.02684 2H18.7678C19.0946 2 19.408 2.13907 19.6391 2.38662C19.8702 2.63417 20 2.96991 20 3.32V20C20.0008 20.3787 19.9012 20.7498 19.7128 21.0702C19.5244 21.3906 19.255 21.6472 18.9358 21.81C18.6333 21.9567 18.2989 22.0109 17.9694 21.9668C17.64 21.9227 17.3283 21.7819 17.0688 21.56L12.2334 17.39C12.1679 17.3314 12.0853 17.2993 12 17.2993C11.9147 17.2993 11.8321 17.3314 11.7666 17.39L6.97783 21.56C6.66194 21.8319 6.27203 21.9864 5.86698 22ZM5.45625 3.56V20C5.45464 20.0748 5.47315 20.1485 5.50957 20.2123C5.54598 20.2761 5.59876 20.3274 5.66161 20.36C5.72015 20.4001 5.78818 20.4214 5.85765 20.4214C5.92712 20.4214 5.99514 20.4001 6.05368 20.36L10.8518 16.19C11.1799 15.9159 11.584 15.7671 12 15.7671C12.416 15.7671 12.8201 15.9159 13.1482 16.19L17.937 20.36C17.9955 20.4001 18.0635 20.4214 18.133 20.4214C18.2025 20.4214 18.2705 20.4001 18.3291 20.36C18.3944 20.33 18.4498 20.2796 18.4881 20.2154C18.5264 20.1512 18.5458 20.0761 18.5438 20V3.56H5.45625Z" fill="#161720"/>
</svg>
