<svg width="18" height="17" viewBox="0 0 18 17" fill="none" xmlns="http://www.w3.org/2000/svg">
<path d="M17.25 2.99609C17.4688 2.99609 17.6562 3.08984 17.8125 3.27734C17.9688 3.46484 18.0312 3.68359 17.9688 3.90234L16.5625 10.4023C16.5 10.5898 16.4062 10.7148 16.2812 10.8398C16.1562 10.9648 16 10.9961 15.8438 10.9961H6.0625L6.375 12.4961H15.1875C15.4062 12.4961 15.5938 12.5898 15.75 12.7773C15.9062 12.9648 15.9688 13.1836 15.9062 13.4023L15.875 13.5586C16.2812 13.9648 16.5 14.4336 16.5 14.9961C16.5 15.5586 16.2812 16.0586 15.9062 16.4336C15.5312 16.8086 15.0625 16.9961 14.5 16.9961C13.9375 16.9961 13.4375 16.8086 13.0625 16.4336C12.6875 16.0586 12.5 15.5586 12.5 14.9961C12.5 14.6523 12.5938 14.3086 12.7812 13.9961H8.21875C8.40625 14.3086 8.5 14.6523 8.5 14.9961C8.5 15.5586 8.28125 16.0586 7.90625 16.4336C7.53125 16.8086 7.0625 16.9961 6.5 16.9961C5.9375 16.9961 5.4375 16.8086 5.0625 16.4336C4.6875 16.0586 4.5 15.5898 4.5 15.0273C4.5 14.4648 4.6875 13.9961 5.0625 13.6211L2.875 2.49609H0.375C0.25 2.49609 0.15625 2.46484 0.09375 2.40234C0.03125 2.33984 0 2.24609 0 2.12109V1.37109C0 1.27734 0.03125 1.18359 0.09375 1.12109C0.15625 1.05859 0.25 0.996094 0.375 0.996094H3.5C3.6875 0.996094 3.84375 1.05859 3.96875 1.18359C4.09375 1.30859 4.1875 1.43359 4.25 1.58984L4.5 2.99609H17.25ZM6.5 15.7461C6.6875 15.7461 6.875 15.6836 7.03125 15.5273C7.15625 15.4023 7.25 15.2148 7.25 14.9961C7.25 14.8086 7.15625 14.6211 7.03125 14.4648C6.875 14.3398 6.6875 14.2461 6.5 14.2461C6.28125 14.2461 6.09375 14.3398 5.96875 14.4648C5.8125 14.6211 5.75 14.8086 5.75 14.9961C5.75 15.2148 5.8125 15.4023 5.96875 15.5273C6.09375 15.6836 6.28125 15.7461 6.5 15.7461ZM14.5 15.7461C14.6875 15.7461 14.875 15.6836 15.0312 15.5273C15.1562 15.4023 15.25 15.2148 15.25 14.9961C15.25 14.8086 15.1562 14.6211 15.0312 14.4648C14.875 14.3398 14.6875 14.2461 14.5 14.2461C14.2812 14.2461 14.0938 14.3398 13.9688 14.4648C13.8125 14.6211 13.75 14.8086 13.75 14.9961C13.75 15.2148 13.8125 15.4023 13.9688 15.5273C14.0938 15.6836 14.2812 15.7461 14.5 15.7461ZM15.2188 9.49609L16.3125 4.49609H4.8125L5.78125 9.49609H15.2188Z" fill="#FCE513"/>
</svg>
