<svg width="24" height="24" viewBox="0 0 24 24" fill="none" xmlns="http://www.w3.org/2000/svg">
<path d="M18.25 6C18.4688 6 18.6562 6.09375 18.8125 6.28125C18.9688 6.46875 19.0312 6.6875 18.9688 6.90625L17.5625 13.4062C17.5 13.5938 17.4062 13.7188 17.2812 13.8438C17.1562 13.9688 17 14 16.8438 14H7.0625L7.375 15.5H16.1875C16.4062 15.5 16.5938 15.5938 16.75 15.7812C16.9062 15.9688 16.9688 16.1875 16.9062 16.4062L16.875 16.5625C17.2812 16.9688 17.5 17.4375 17.5 18C17.5 18.5625 17.2812 19.0625 16.9062 19.4375C16.5312 19.8125 16.0625 20 15.5 20C14.9375 20 14.4375 19.8125 14.0625 19.4375C13.6875 19.0625 13.5 18.5625 13.5 18C13.5 17.6562 13.5938 17.3125 13.7812 17H9.21875C9.40625 17.3125 9.5 17.6562 9.5 18C9.5 18.5625 9.28125 19.0625 8.90625 19.4375C8.53125 19.8125 8.0625 20 7.5 20C6.9375 20 6.4375 19.8125 6.0625 19.4375C5.6875 19.0625 5.5 18.5938 5.5 18.0312C5.5 17.4688 5.6875 17 6.0625 16.625L3.875 5.5H1.375C1.25 5.5 1.15625 5.46875 1.09375 5.40625C1.03125 5.34375 1 5.25 1 5.125V4.375C1 4.28125 1.03125 4.1875 1.09375 4.125C1.15625 4.0625 1.25 4 1.375 4H4.5C4.6875 4 4.84375 4.0625 4.96875 4.1875C5.09375 4.3125 5.1875 4.4375 5.25 4.59375L5.5 6H18.25ZM7.5 18.75C7.6875 18.75 7.875 18.6875 8.03125 18.5312C8.15625 18.4062 8.25 18.2188 8.25 18C8.25 17.8125 8.15625 17.625 8.03125 17.4688C7.875 17.3438 7.6875 17.25 7.5 17.25C7.28125 17.25 7.09375 17.3438 6.96875 17.4688C6.8125 17.625 6.75 17.8125 6.75 18C6.75 18.2188 6.8125 18.4062 6.96875 18.5312C7.09375 18.6875 7.28125 18.75 7.5 18.75ZM15.5 18.75C15.6875 18.75 15.875 18.6875 16.0312 18.5312C16.1562 18.4062 16.25 18.2188 16.25 18C16.25 17.8125 16.1562 17.625 16.0312 17.4688C15.875 17.3438 15.6875 17.25 15.5 17.25C15.2812 17.25 15.0938 17.3438 14.9688 17.4688C14.8125 17.625 14.75 17.8125 14.75 18C14.75 18.2188 14.8125 18.4062 14.9688 18.5312C15.0938 18.6875 15.2812 18.75 15.5 18.75ZM16.2188 12.5L17.3125 7.5H5.8125L6.78125 12.5H16.2188Z" fill="#161720"/>
</svg>
