<svg width="20" height="21" viewBox="0 0 20 21" fill="none" xmlns="http://www.w3.org/2000/svg">
<path d="M10 0.320313C8.02219 0.320313 6.08879 0.906802 4.4443 2.00562C2.79981 3.10443 1.51809 4.66622 0.761209 6.49348C0.00433284 8.32074 -0.193701 10.3314 0.192152 12.2712C0.578004 14.211 1.53041 15.9929 2.92894 17.3914C4.32746 18.7899 6.10929 19.7423 8.0491 20.1282C9.98891 20.514 11.9996 20.316 13.8268 19.5591C15.6541 18.8022 17.2159 17.5205 18.3147 15.876C19.4135 14.2315 20 12.2981 20 10.3203C20 7.66815 18.9464 5.12461 17.0711 3.24924C15.1957 1.37388 12.6522 0.320313 10 0.320312V0.320313ZM10 18.8603C8.31095 18.8603 6.65983 18.3594 5.25543 17.4211C3.85104 16.4827 2.75645 15.1489 2.11007 13.5884C1.4637 12.0279 1.29458 10.3108 1.6241 8.65424C1.95362 6.99764 2.76697 5.47596 3.96131 4.28162C5.15565 3.08728 6.67734 2.27392 8.33393 1.94441C9.99053 1.61489 11.7076 1.78401 13.2681 2.43038C14.8286 3.07675 16.1624 4.17135 17.1008 5.57574C18.0391 6.98014 18.54 8.63126 18.54 10.3203C18.5374 12.5844 17.6368 14.7551 16.0358 16.3561C14.4348 17.9571 12.2641 18.8577 10 18.8603ZM15.25 6.86031C15.3795 6.99453 15.4519 7.17378 15.4519 7.36031C15.4519 7.54684 15.3795 7.72609 15.25 7.86031L9.25 13.5603C9.01435 13.7897 8.69889 13.9188 8.37 13.9203C8.20222 13.9274 8.03514 13.8948 7.88226 13.8253C7.72938 13.7559 7.59501 13.6514 7.49 13.5203L4.78 11.0403C4.65047 10.9061 4.57808 10.7268 4.57808 10.5403C4.57808 10.3538 4.65047 10.1745 4.78 10.0403C4.91538 9.91305 5.0942 9.8422 5.28 9.8422C5.46581 9.8422 5.64462 9.91305 5.78 10.0403L8.33 12.4703L14.21 6.92031C14.2759 6.84938 14.3553 6.79227 14.4435 6.75231C14.5317 6.71234 14.6269 6.69032 14.7237 6.68753C14.8205 6.68474 14.9169 6.70123 15.0072 6.73604C15.0976 6.77086 15.1801 6.8233 15.25 6.89031V6.86031Z" fill="#55C9A5"/>
</svg>
