<svg width="25" height="24" viewBox="0 0 25 24" fill="none" xmlns="http://www.w3.org/2000/svg">
<path d="M12.0044 22C10.0266 22 8.09319 21.4135 6.4487 20.3147C4.8042 19.2159 3.52248 17.6541 2.7656 15.8268C2.00873 13.9996 1.81069 11.9889 2.19655 10.0491C2.5824 8.10929 3.53481 6.32746 4.93333 4.92894C6.33186 3.53041 8.11369 2.578 10.0535 2.19215C11.9933 1.8063 14.004 2.00433 15.8312 2.76121C17.6585 3.51809 19.2203 4.79981 20.3191 6.4443C21.4179 8.08879 22.0044 10.0222 22.0044 12C22.0044 14.6522 20.9508 17.1957 19.0755 19.0711C17.2001 20.9464 14.6566 22 12.0044 22ZM12.0044 3.54C10.3312 3.54 8.69551 4.03618 7.30427 4.96577C5.91303 5.89537 4.8287 7.21664 4.18838 8.7625C3.54806 10.3084 3.38052 12.0094 3.70696 13.6505C4.03339 15.2915 4.83912 16.799 6.02228 17.9821C7.20543 19.1653 8.71286 19.971 10.3539 20.2974C11.995 20.6239 13.696 20.4563 15.2419 19.816C16.7878 19.1757 18.109 18.0914 19.0386 16.7001C19.9682 15.3089 20.4644 13.6732 20.4644 12C20.4644 9.75627 19.5731 7.60444 17.9865 6.01788C16.4 4.43132 14.2481 3.54 12.0044 3.54ZM17.3344 15.45C17.3898 15.3656 17.4279 15.271 17.4463 15.1717C17.4647 15.0724 17.4632 14.9704 17.4418 14.8717C17.4204 14.7731 17.3795 14.6796 17.3216 14.5969C17.2637 14.5142 17.1898 14.4439 17.1044 14.39L12.7744 11.58V6.74C12.7744 6.53579 12.6933 6.33993 12.5489 6.19553C12.4045 6.05113 12.2086 5.97 12.0044 5.97C11.8002 5.97 11.6043 6.05113 11.4599 6.19553C11.3155 6.33993 11.2344 6.53579 11.2344 6.74V12.42L16.2344 15.68C16.3572 15.7574 16.4992 15.7989 16.6444 15.8C16.7802 15.8088 16.9159 15.7809 17.0373 15.7194C17.1586 15.6578 17.2613 15.5648 17.3344 15.45Z" fill="#55C9A5"/>
</svg>
