<svg width="26" height="26" viewBox="0 0 26 26" fill="none" xmlns="http://www.w3.org/2000/svg">
<path d="M14.488 12.9082L22.1144 5.26693C22.2198 5.16424 22.3036 5.04148 22.3608 4.90589C22.4179 4.77031 22.4474 4.62464 22.4474 4.47749C22.4474 4.33033 22.4179 4.18467 22.3608 4.04908C22.3036 3.9135 22.2198 3.79074 22.1144 3.68804C21.9049 3.47884 21.621 3.36133 21.325 3.36133C21.0289 3.36133 20.745 3.47884 20.5355 3.68804L12.9092 11.3293L5.26791 3.68804C5.05614 3.49071 4.77604 3.38328 4.48662 3.38839C4.19721 3.39349 3.92107 3.51073 3.71639 3.71541C3.51171 3.92009 3.39447 4.19623 3.38936 4.48565C3.38426 4.77506 3.49168 5.05516 3.68902 5.26693L11.3303 12.9082L3.68902 20.5345C3.47981 20.744 3.3623 21.0279 3.3623 21.324C3.3623 21.62 3.47981 21.904 3.68902 22.1134C3.89848 22.3226 4.18242 22.4401 4.47846 22.4401C4.77451 22.4401 5.05844 22.3226 5.26791 22.1134L12.9092 14.4871L20.5355 22.1134C20.6386 22.2179 20.7616 22.3006 20.8972 22.3569C21.0327 22.4132 21.1782 22.4418 21.325 22.4411C21.4721 22.4444 21.6183 22.417 21.7543 22.3606C21.8902 22.3042 22.0129 22.22 22.1144 22.1134C22.2198 22.0107 22.3036 21.888 22.3608 21.7524C22.4179 21.6168 22.4474 21.4711 22.4474 21.324C22.4474 21.1768 22.4179 21.0312 22.3608 20.8956C22.3036 20.76 22.2198 20.6372 22.1144 20.5345L14.488 12.9082Z" fill="white"/>
</svg>
