<svg width="24" height="21" viewBox="0 0 24 21" fill="none" xmlns="http://www.w3.org/2000/svg">
<path d="M11.287 16.6534L14.331 18.6229C14.6523 18.8484 15.1286 18.7215 15.354 18.4002L22.8856 6.53431C23.1111 6.213 22.9842 5.73673 22.6629 5.51131L15.8111 1.11009C15.4898 0.884671 15.0135 1.01156 14.7881 1.33287L11.5872 6.31597M11.7501 6.13546L6.82484 13.892L7.81976 14.4977L11.5059 13.7645C13.2279 13.3866 13.4872 13.753 13.7043 14.311C13.9101 14.9901 13.4198 15.5313 12.6279 15.8978L9.4713 17.2429L9.0655 17.4007C8.75558 18.1053 6.41954 20.3574 4.46638 19.5404M11.7808 6.06535L6.06585 9.69038C5.83196 9.83978 5.64879 9.96944 5.50509 10.2006L0.999634 17.3849L4.5171 19.5207M16.931 8.79264C17.3257 9.80716 16.7988 11.005 15.7843 11.3997C14.7698 11.7944 13.572 11.2675 13.1773 10.253C12.7826 9.23847 13.3094 8.04064 14.324 7.64595C15.3892 7.23152 16.5166 7.72739 16.931 8.79264Z" stroke="#FCE513" stroke-width="1.3" stroke-miterlimit="10" stroke-linecap="round" stroke-linejoin="round"/>
</svg>
