<svg width="50" height="42" viewBox="0 0 50 42" fill="none" xmlns="http://www.w3.org/2000/svg">
<path d="M47.2156 0.875H3.28449C2.6123 0.875 1.96764 1.14004 1.49233 1.61181C1.01703 2.08358 0.75 2.72344 0.75 3.39062L0.75 31.7585C0.75 32.4257 1.01703 33.0655 1.49233 33.5373C1.96764 34.0091 2.6123 34.2741 3.28449 34.2741H17.503L16.9961 39.4479H13.9378C13.7137 39.4479 13.4988 39.5362 13.3404 39.6935C13.182 39.8508 13.093 40.064 13.093 40.2864C13.093 40.5088 13.182 40.7221 13.3404 40.8794C13.4988 41.0366 13.7137 41.125 13.9378 41.125H36.5623C36.7864 41.125 37.0013 41.0366 37.1597 40.8794C37.3181 40.7221 37.4071 40.5088 37.4071 40.2864C37.4071 40.064 37.3181 39.8508 37.1597 39.6935C37.0013 39.5362 36.7864 39.4479 36.5623 39.4479H33.504L32.9971 34.2741H47.2156C47.8878 34.2741 48.5324 34.0091 49.0078 33.5373C49.4831 33.0655 49.7501 32.4257 49.7501 31.7585V3.39062C49.7501 2.72344 49.4831 2.08358 49.0078 1.61181C48.5324 1.14004 47.8878 0.875 47.2156 0.875V0.875ZM18.6942 39.4479L19.1842 34.4167H31.3159L31.8059 39.4479H18.6942ZM48.0604 31.7585C48.0604 31.9809 47.9714 32.1942 47.813 32.3514C47.6546 32.5087 47.4397 32.597 47.2156 32.597H3.28449C3.06042 32.597 2.84554 32.5087 2.6871 32.3514C2.52867 32.1942 2.43966 31.9809 2.43966 31.7585V3.39062C2.43966 3.16823 2.52867 2.95494 2.6871 2.79769C2.84554 2.64043 3.06042 2.55208 3.28449 2.55208H47.2156C47.4397 2.55208 47.6546 2.64043 47.813 2.79769C47.9714 2.95494 48.0604 3.16823 48.0604 3.39062V31.7585ZM16.3033 11.2058L18.6857 19.5074C18.7573 19.7601 18.8779 19.9965 19.0406 20.2034L18.1957 21.9392C18.0522 22.2196 18.0124 22.5411 18.0835 22.8477C18.1545 23.1542 18.3318 23.4263 18.5843 23.6162C18.3534 24.0175 18.2661 24.4845 18.3366 24.9413C18.4072 25.3981 18.6315 25.8177 18.973 26.1319C19.3116 26.4451 19.7477 26.6345 20.2093 26.6688C20.671 26.703 21.1306 26.5801 21.5124 26.3203C21.8942 26.0605 22.1754 25.6793 22.3097 25.2396C22.4439 24.7998 22.4232 24.3278 22.2509 23.9013H28.1647C28.0501 24.1799 27.9993 24.4802 28.016 24.7807C28.0327 25.0811 28.1165 25.3741 28.2613 25.6384C28.4062 25.9027 28.6084 26.1318 28.8534 26.3089C29.0984 26.4861 29.3801 26.607 29.678 26.6628C29.9758 26.7187 30.2825 26.7081 30.5757 26.6318C30.869 26.5555 31.1414 26.4154 31.3734 26.2217C31.6054 26.028 31.7911 25.7856 31.917 25.5119C32.043 25.2382 32.106 24.9401 32.1016 24.6393C32.1 24.3282 32.0278 24.0216 31.8904 23.742C31.9851 23.6522 32.0515 23.5371 32.0815 23.4105C32.1115 23.284 32.1038 23.1515 32.0594 23.0293C32.012 22.9069 31.9286 22.8016 31.8202 22.7268C31.7117 22.652 31.5831 22.6113 31.4511 22.61H19.3869L20.1811 20.9497C20.347 20.9898 20.5172 21.0096 20.688 21.0084H20.933L30.0656 19.935C30.6389 19.8692 31.1762 19.6241 31.5999 19.2352C32.0236 18.8463 32.3118 18.3338 32.4226 17.7716L33.4956 12.3295C33.515 12.2376 33.5137 12.1426 33.4917 12.0513C33.4698 11.9599 33.4279 11.8745 33.3689 11.8012C33.3124 11.727 33.2398 11.6666 33.1563 11.6245C33.0729 11.5823 32.9809 11.5596 32.8873 11.558L17.5959 10.8536C17.5058 10.5581 17.3146 10.303 17.0552 10.1325L15.1543 8.89146C15.0603 8.82575 14.9498 8.78707 14.835 8.77967C14.7202 8.77228 14.6056 8.79645 14.5038 8.84953C14.4016 8.89911 14.3147 8.97511 14.2522 9.06954C14.1898 9.16398 14.1541 9.27336 14.149 9.38619C14.1407 9.49928 14.1629 9.61252 14.2134 9.71422C14.2639 9.81593 14.3408 9.90243 14.4362 9.96479L16.3033 11.2058ZM30.0571 23.9013C30.2034 23.9016 30.3464 23.9447 30.4681 24.0253C30.5898 24.1058 30.6849 24.2202 30.7414 24.3542C30.8043 24.4935 30.8226 24.6485 30.7939 24.7985C30.7652 24.9484 30.6908 25.086 30.5809 25.1927C30.4946 25.279 30.3881 25.3428 30.2709 25.3784C30.1538 25.414 30.0295 25.4203 29.9093 25.3967C29.7891 25.3732 29.6766 25.3205 29.5819 25.2434C29.4871 25.1662 29.4131 25.0671 29.3663 24.9547C29.3195 24.8423 29.3014 24.7201 29.3136 24.5991C29.3258 24.4781 29.368 24.362 29.4364 24.261C29.5048 24.1601 29.5972 24.0775 29.7055 24.0206C29.8138 23.9637 29.9346 23.9343 30.0571 23.9349V23.9013ZM19.8178 24.111C19.9588 23.9769 20.1463 23.9019 20.3416 23.9013C20.4519 23.9009 20.561 23.9248 20.6609 23.9713C20.7608 24.0179 20.849 24.0859 20.9191 24.1705C20.9892 24.2551 21.0394 24.3541 21.0662 24.4603C21.0929 24.5666 21.0955 24.6774 21.0738 24.7848C21.052 24.8922 21.0064 24.9934 20.9403 25.0811C20.8743 25.1688 20.7894 25.2408 20.6917 25.2919C20.5941 25.343 20.4863 25.3719 20.3761 25.3765C20.2658 25.3811 20.1559 25.3613 20.0543 25.3185C19.9194 25.26 19.8044 25.1639 19.7235 25.0419C19.6425 24.9198 19.5989 24.777 19.5981 24.6309C19.6018 24.4361 19.6804 24.2501 19.8178 24.111ZM24.5488 19.2642L23.0281 19.4403L22.5128 16.2958H24.5488V19.2642ZM29.7023 12.6984L32.0425 12.8074L31.6032 15.0044H29.4742L29.7023 12.6984ZM29.3728 16.2958H31.3413L31.1047 17.5033C31.0436 17.7983 30.8909 18.0669 30.6682 18.2714C30.4455 18.4759 30.1639 18.6061 29.8628 18.6437L29.1532 18.7192L29.3728 16.2958ZM25.8583 12.514L28.3928 12.6313L28.1732 15.0044H25.8583V12.514ZM25.8583 16.2958H28.0802L27.8352 18.8785L25.8583 19.1049V16.2958ZM24.5488 12.4636V14.9793H22.3016L21.8707 12.3462L24.5488 12.4636ZM21.744 19.5829L20.7471 19.7086C20.5653 19.7404 20.3782 19.7039 20.222 19.6062C20.0659 19.5086 19.9519 19.3568 19.9023 19.1804L19.0574 16.2958H21.1949L21.744 19.5829ZM20.5359 12.2792L21.0259 14.996H18.7533L17.9085 12.1618L20.5359 12.2792Z" fill="#02AF91"/>
</svg>
