<svg width="57" height="36" viewBox="0 0 57 36" fill="none" xmlns="http://www.w3.org/2000/svg">
<path d="M51.94 15.05L51.43 7.46C51.5489 7.37099 51.6466 7.25659 51.7157 7.12513C51.7849 6.99367 51.824 6.84844 51.83 6.7V5.38C51.8301 4.6918 51.5935 4.0245 51.16 3.49V3.38H51.08C50.7939 3.0468 50.4396 2.77886 50.0411 2.59427C49.6426 2.40968 49.2092 2.31275 48.77 2.31H42.25C42.1351 1.66367 41.7968 1.07825 41.2941 0.656018C40.7915 0.233788 40.1565 0.00159264 39.5 0L10.87 0C10.1291 0.00528727 9.42055 0.303992 8.89949 0.830684C8.37842 1.35738 8.08734 2.06912 8.09 2.81V3.38V13.38H5.87C5.60478 13.38 5.35043 13.4854 5.16289 13.6729C4.97536 13.8604 4.87 14.1148 4.87 14.38C4.87 14.6452 4.97536 14.8996 5.16289 15.0871C5.35043 15.2746 5.60478 15.38 5.87 15.38H17.38C17.6452 15.38 17.8996 15.2746 18.0871 15.0871C18.2746 14.8996 18.38 14.6452 18.38 14.38C18.38 14.1148 18.2746 13.8604 18.0871 13.6729C17.8996 13.4854 17.6452 13.38 17.38 13.38H10.09V7.67V2.81C10.0873 2.70542 10.1055 2.60136 10.1434 2.50384C10.1813 2.40633 10.2381 2.31732 10.3107 2.24196C10.3833 2.16661 10.4701 2.10642 10.5661 2.06488C10.6621 2.02334 10.7654 2.00129 10.87 2H39.5C39.6046 2.00129 39.7079 2.02334 39.8039 2.06488C39.8999 2.10642 39.9867 2.16661 40.0593 2.24196C40.1319 2.31732 40.1887 2.40633 40.2266 2.50384C40.2645 2.60136 40.2827 2.70542 40.28 2.81V3.38V27.83H23.75C23.3645 26.7809 22.6664 25.8754 21.7499 25.2357C20.8334 24.5961 19.7427 24.2531 18.625 24.2531C17.5073 24.2531 16.4166 24.5961 15.5001 25.2357C14.5836 25.8754 13.8855 26.7809 13.5 27.83H10.87C10.7641 27.8274 10.6597 27.8038 10.563 27.7606C10.4662 27.7173 10.379 27.6553 10.3065 27.5781C10.2339 27.5009 10.1774 27.41 10.1402 27.3108C10.1031 27.2115 10.086 27.1059 10.09 27V24.63H12.09C12.3552 24.63 12.6096 24.5246 12.7971 24.3371C12.9846 24.1496 13.09 23.8952 13.09 23.63C13.09 23.3648 12.9846 23.1104 12.7971 22.9229C12.6096 22.7354 12.3552 22.63 12.09 22.63H4.52C4.25478 22.63 4.00043 22.7354 3.81289 22.9229C3.62536 23.1104 3.52 23.3648 3.52 23.63C3.52 23.8952 3.62536 24.1496 3.81289 24.3371C4.00043 24.5246 4.25478 24.63 4.52 24.63H8.09V27C8.08734 27.7409 8.37842 28.4526 8.89949 28.9793C9.42055 29.506 10.1291 29.8047 10.87 29.81H13.13C13.13 31.2687 13.7095 32.6676 14.7409 33.6991C15.7724 34.7305 17.1713 35.31 18.63 35.31C20.0887 35.31 21.4876 34.7305 22.5191 33.6991C23.5505 32.6676 24.13 31.2687 24.13 29.81H41.65C41.65 31.2687 42.2295 32.6676 43.2609 33.6991C44.2924 34.7305 45.6913 35.31 47.15 35.31C48.6087 35.31 50.0076 34.7305 51.0391 33.6991C52.0705 32.6676 52.65 31.2687 52.65 29.81H55.25C55.5152 29.81 55.7696 29.7046 55.9571 29.5171C56.1446 29.3296 56.25 29.0752 56.25 28.81V19.55C56.2461 18.3902 55.7966 17.2763 54.9943 16.4387C54.1921 15.6011 53.0986 15.1039 51.94 15.05ZM18.63 33.41C17.9183 33.4259 17.2181 33.2293 16.6187 32.8453C16.0193 32.4612 15.548 31.9072 15.265 31.254C14.9821 30.6009 14.9002 29.8781 15.03 29.1782C15.1598 28.4783 15.4953 27.833 15.9936 27.3246C16.492 26.8163 17.1306 26.4681 17.8278 26.3245C18.525 26.1809 19.2492 26.2484 19.9078 26.5184C20.5665 26.7884 21.1297 27.2486 21.5255 27.8403C21.9214 28.4319 22.1318 29.1282 22.13 29.84C22.138 30.7772 21.774 31.6793 21.1179 32.3485C20.4618 33.0177 19.5671 33.3994 18.63 33.41ZM42.49 4.31H48.76C48.8973 4.31052 49.0331 4.33769 49.16 4.39L49.25 5.7H42.49V4.31ZM42.25 7.67H49.35L49.85 15.02H42.25V7.67ZM47.15 33.41C46.4383 33.4259 45.7381 33.2293 45.1387 32.8453C44.5393 32.4612 44.068 31.9072 43.785 31.254C43.5021 30.6009 43.4202 29.8781 43.55 29.1782C43.6798 28.4783 44.0153 27.833 44.5136 27.3246C45.012 26.8163 45.6505 26.4681 46.3478 26.3245C47.045 26.1809 47.7692 26.2484 48.4278 26.5184C49.0865 26.7884 49.6497 27.2486 50.0455 27.8403C50.4414 28.4319 50.6518 29.1282 50.65 29.84C50.658 30.7772 50.2941 31.6793 49.6379 32.3485C48.9818 33.0177 48.0871 33.3994 47.15 33.41ZM54.25 27.83H52.25C51.8859 26.828 51.236 25.9548 50.3807 25.3185C49.5253 24.6822 48.5021 24.3107 47.4378 24.2501C46.3735 24.1894 45.3147 24.4422 44.3926 24.9772C43.4705 25.5122 42.7256 26.3059 42.25 27.26V17H51.69C52.2259 17.0028 52.7472 17.1757 53.1785 17.4938C53.6098 17.8119 53.929 18.2588 54.09 18.77H51.09C50.8248 18.77 50.5704 18.8754 50.3829 19.0629C50.1954 19.2504 50.09 19.5048 50.09 19.77V20.77C50.0873 21.5294 50.3858 22.259 50.92 22.7988C51.4542 23.3386 52.1806 23.6447 52.94 23.65H54.25V27.83ZM54.25 21.69H53C52.8862 21.6887 52.7738 21.6648 52.6693 21.6198C52.5648 21.5747 52.4703 21.5094 52.3912 21.4275C52.3121 21.3457 52.2501 21.2489 52.2087 21.1429C52.1673 21.0369 52.1473 20.9238 52.15 20.81H54.25V21.69ZM12.76 20.07H1.25C0.984784 20.07 0.73043 19.9646 0.542893 19.7771C0.355357 19.5896 0.25 19.3352 0.25 19.07C0.25 18.8048 0.355357 18.5504 0.542893 18.3629C0.73043 18.1754 0.984784 18.07 1.25 18.07H12.76C13.0252 18.07 13.2796 18.1754 13.4671 18.3629C13.6546 18.5504 13.76 18.8048 13.76 19.07C13.76 19.3352 13.6546 19.5896 13.4671 19.7771C13.2796 19.9646 13.0252 20.07 12.76 20.07Z" fill="#02AF91"/>
</svg>
