<svg width="53" height="54" viewBox="0 0 53 54" fill="none" xmlns="http://www.w3.org/2000/svg">
<path d="M52.1751 36.4316V26.4241C52.171 25.4803 51.8676 24.5622 51.3085 23.8019C50.7495 23.0416 49.9636 22.4782 49.064 22.1929V21.2699C49.0744 9.54087 38.9839 0 26.5185 0C14.0531 0 4.0145 9.54087 4.0145 21.2699V22.027C2.96653 22.1923 2.01183 22.7258 1.32185 23.5317C0.631882 24.3376 0.251846 25.3631 0.25 26.4241V36.4316C0.25227 37.4432 0.596845 38.4243 1.22765 39.2151C1.85845 40.006 2.73834 40.5601 3.72412 40.7872C3.8821 43.0347 3.18163 45.2584 1.76409 47.0095C1.40716 47.4086 1.17357 47.9026 1.09162 48.4316C1.00966 48.9607 1.08286 49.5022 1.30234 49.9906C1.52182 50.4789 1.87817 50.8932 2.32824 51.1831C2.77831 51.4731 3.3028 51.6264 3.8382 51.6244H17.5791C17.6481 51.6303 17.7175 51.6303 17.7865 51.6244C20.4336 53.1799 23.4482 54 26.5185 54C29.5888 54 32.6034 53.1799 35.2505 51.6244H48.8773C49.4147 51.631 49.9423 51.4805 50.3952 51.1913C50.8482 50.9022 51.2069 50.4871 51.4272 49.9969C51.6475 49.5067 51.7198 48.9629 51.6353 48.4322C51.5508 47.9015 51.3131 47.407 50.9514 47.0095C49.5306 45.2239 48.8312 42.9702 48.9914 40.6939C49.9087 40.4183 50.7133 39.8554 51.2865 39.088C51.8597 38.3206 52.1712 37.3894 52.1751 36.4316ZM50.101 26.4241V36.4316C50.101 37.067 49.8486 37.6763 49.3994 38.1255C48.9501 38.5748 48.3408 38.8272 47.7055 38.8272H43.9098V24.0285H47.7055C48.34 24.0312 48.9477 24.2845 49.3964 24.7331C49.845 25.1818 50.0983 25.7895 50.101 26.4241ZM9.74939 40.9428C9.98324 41.9074 10.3061 42.8482 10.7138 43.7532C9.7936 43.0623 9.15006 42.0658 8.899 40.9428H9.74939ZM41.8357 25.8641C39.9009 25.4164 38.1206 24.4605 36.6786 23.0951C35.2366 21.7296 34.1851 20.0041 33.6327 18.0965C33.5842 17.9035 33.4811 17.7285 33.3358 17.5924C33.1906 17.4563 33.0092 17.3649 32.8134 17.3291C32.617 17.2943 32.4146 17.3168 32.2307 17.3941C32.0468 17.4713 31.889 17.6 31.7763 17.7647C31.7141 17.858 25.2222 27.2226 11.6057 26.5692C11.4991 26.5535 11.3908 26.5535 11.2842 26.5692V22.5144C11.388 18.5305 13.0435 14.7447 15.8979 11.9637C18.7523 9.1827 22.58 7.62636 26.5652 7.62636C30.5504 7.62636 34.378 9.1827 37.2324 11.9637C40.0868 14.7447 41.7423 18.5305 41.8461 22.5144L41.8357 25.8641ZM26.5704 2.0741C37.8431 2.0741 47.0003 10.6816 47.0003 21.2699V21.9544H43.8891C43.7785 17.4332 41.9047 13.1343 38.6679 9.97576C35.4311 6.81718 31.0877 5.04914 26.5652 5.04914C22.0426 5.04914 17.6992 6.81718 14.4624 9.97576C11.2256 13.1343 9.35186 17.4332 9.24123 21.9544H6.13008V21.2699C6.0886 10.6816 15.2561 2.0741 26.5704 2.0741ZM2.3241 36.4316V26.4241C2.32683 25.7895 2.5801 25.1818 3.02877 24.7331C3.47744 24.2845 4.08518 24.0312 4.71969 24.0285H8.54641V38.8272H4.71969C4.08434 38.8272 3.47501 38.5748 3.02575 38.1255C2.57649 37.6763 2.3241 37.067 2.3241 36.4316ZM3.82783 49.5918C3.69211 49.5916 3.5595 49.5511 3.44686 49.4754C3.33422 49.3997 3.24663 49.2922 3.19522 49.1666C3.13646 49.0494 3.11491 48.9171 3.13344 48.7874C3.15198 48.6576 3.20972 48.5367 3.29893 48.4407C5.05078 46.3309 5.94646 43.6401 5.80859 40.9013H6.79379C7.01823 42.3244 7.67823 43.643 8.68296 44.6756C9.68769 45.7082 10.9878 46.404 12.4042 46.6673C13.1655 47.7255 14.0382 48.699 15.0072 49.571L3.82783 49.5918ZM15.1524 46.8021H20.4621C20.679 47.4157 21.0828 47.9458 21.6167 48.3179C22.1506 48.6899 22.7878 48.8852 23.4385 48.8762H28.9037C29.7426 48.8762 30.5471 48.543 31.1403 47.9498C31.7335 47.3566 32.0667 46.5521 32.0667 45.7132C32.0667 44.8743 31.7335 44.0698 31.1403 43.4766C30.5471 42.8834 29.7426 42.5502 28.9037 42.5502H23.4385C22.7814 42.5449 22.1396 42.7477 21.6049 43.1296C21.0702 43.5115 20.6702 44.0529 20.4621 44.6762H13.5968C12.0801 42.2659 11.2749 39.4764 11.2739 36.6286V28.5396C11.3481 28.5665 11.4244 28.5873 11.502 28.6019H12.9539C16.5831 28.6691 20.1852 27.9641 23.5214 26.5338C26.8576 25.1035 29.8517 22.9805 32.3052 20.3055C33.1449 22.2687 34.4525 23.9964 36.1138 25.3378C37.7752 26.6791 39.7397 27.5933 41.8357 28.0004V36.6909C41.8412 39.7901 40.9026 42.8175 39.1448 45.3701C37.387 47.9227 34.8934 49.8793 31.996 50.9795C29.0986 52.0796 25.9348 52.2712 22.9258 51.5287C19.9168 50.7861 17.2054 49.1447 15.1524 46.8229V46.8021ZM22.3392 45.7651C22.3419 45.4753 22.4589 45.1984 22.6648 44.9945C22.8707 44.7905 23.1487 44.6761 23.4385 44.6762H28.9037C29.1925 44.6762 29.4695 44.7909 29.6737 44.9951C29.8779 45.1993 29.9926 45.4763 29.9926 45.7651C29.9926 46.0539 29.8779 46.3308 29.6737 46.535C29.4695 46.7392 29.1925 46.854 28.9037 46.854H23.4385C23.1487 46.854 22.8707 46.7396 22.6648 46.5357C22.4589 46.3318 22.3419 46.0548 22.3392 45.7651ZM49.4062 48.4407C49.4946 48.537 49.5526 48.6572 49.5729 48.7864C49.5932 48.9155 49.5749 49.0478 49.5203 49.1666C49.4682 49.2938 49.379 49.4025 49.2644 49.4783C49.1497 49.5541 49.0148 49.5937 48.8773 49.5918H38.1024C40.6865 47.2857 42.5213 44.259 43.3706 40.9013H46.9173C46.7736 43.6374 47.6618 46.3278 49.4062 48.4407Z" fill="#02AF91"/>
</svg>
