<svg width="24" height="12" viewBox="0 0 24 12" fill="none" xmlns="http://www.w3.org/2000/svg">
<path d="M1.81379 7.2363L19.0854 7.2363L16.6798 9.48708C16.4851 9.67763 16.3588 9.94823 16.3262 10.2444C16.2936 10.5406 16.3572 10.8404 16.5042 11.0834C16.5798 11.2146 16.677 11.3265 16.79 11.4124C16.903 11.4982 17.0295 11.5563 17.162 11.5831C17.2945 11.6099 17.4301 11.6049 17.5609 11.5685C17.6917 11.532 17.8149 11.4647 17.9232 11.3707L22.7074 6.98089C22.7679 6.93648 22.8265 6.88853 22.883 6.83723C22.9823 6.73986 23.0622 6.61787 23.117 6.47992C23.1718 6.34197 23.2002 6.19146 23.2002 6.03908C23.2002 5.88669 23.1718 5.73618 23.117 5.59824C23.0622 5.46029 22.9823 5.3383 22.883 5.24093C22.8279 5.16781 22.7693 5.09852 22.7074 5.03341L17.9232 0.707442C17.8198 0.597505 17.6983 0.513892 17.5663 0.46181C17.4344 0.409729 17.2948 0.390295 17.1562 0.404718C17.0176 0.419141 16.883 0.467112 16.7608 0.545644C16.6385 0.624176 16.5313 0.731588 16.4458 0.86119C16.3602 0.990792 16.2982 1.13981 16.2635 1.29896C16.2288 1.45812 16.2223 1.624 16.2442 1.78627C16.2662 1.94855 16.3162 2.10375 16.3911 2.24221C16.4661 2.38067 16.5644 2.49942 16.6798 2.59107L19.0854 4.84185L1.81379 4.84185C1.54497 4.84185 1.28716 4.96799 1.09707 5.19251C0.906988 5.41704 0.800198 5.72155 0.800198 6.03908C0.800198 6.3566 0.906988 6.66112 1.09707 6.88564C1.28716 7.11017 1.54497 7.2363 1.81379 7.2363Z" fill="#161720"/>
</svg>
