<svg width="24" height="12" viewBox="0 0 24 12" fill="none" xmlns="http://www.w3.org/2000/svg">
<path d="M22.1862 4.76419H4.91455L7.32015 2.51341C7.51486 2.32285 7.64123 2.05226 7.67383 1.75608C7.70643 1.4599 7.64283 1.16013 7.49584 0.917109C7.42024 0.785879 7.32302 0.673992 7.21 0.588131C7.09697 0.502269 6.97045 0.444194 6.838 0.417375C6.70555 0.390555 6.56988 0.395541 6.4391 0.432034C6.30831 0.468528 6.1851 0.535781 6.07681 0.629775L1.29264 5.0196C1.2321 5.06401 1.17346 5.11196 1.11695 5.16326C1.01771 5.26063 0.937847 5.38262 0.883034 5.52057C0.828221 5.65851 0.799805 5.80903 0.799805 5.96141C0.799805 6.11379 0.828221 6.26431 0.883034 6.40225C0.937847 6.5402 1.01771 6.66219 1.11695 6.75956C1.17208 6.83268 1.23074 6.90197 1.29264 6.96708L6.07681 11.293C6.18022 11.403 6.30169 11.4866 6.43365 11.5387C6.56561 11.5908 6.70524 11.6102 6.84383 11.5958C6.98243 11.5813 7.11702 11.5334 7.23924 11.4548C7.36146 11.3763 7.46868 11.2689 7.55423 11.1393C7.63978 11.0097 7.70182 10.8607 7.73649 10.7015C7.77116 10.5424 7.77773 10.3765 7.75577 10.2142C7.73381 10.0519 7.6838 9.89673 7.60886 9.75828C7.53391 9.61982 7.43564 9.50106 7.32015 9.40941L4.91455 7.15863H22.1862C22.455 7.15863 22.7128 7.0325 22.9029 6.80798C23.093 6.58345 23.1998 6.27893 23.1998 5.96141C23.1998 5.64389 23.093 5.33937 22.9029 5.11485C22.7128 4.89032 22.455 4.76419 22.1862 4.76419Z" fill="#161720"/>
</svg>
