<svg width="28" height="21" viewBox="0 0 28 21" fill="none" xmlns="http://www.w3.org/2000/svg">
<path d="M27.3428 1.18816C27.1933 1.03719 27.0153 0.917501 26.8191 0.836071C26.6229 0.75464 26.4124 0.713101 26.1999 0.713878H9.85708C9.48974 0.717926 9.13561 0.851483 8.85708 1.09102C8.5578 1.32492 8.35452 1.66032 8.28566 2.03387H4.55994C4.30942 2.03512 4.06204 2.08966 3.83423 2.19387C3.61566 2.30491 3.4214 2.45837 3.2628 2.6453H3.19423V2.70816C2.94651 3.01359 2.81133 3.3949 2.81137 3.78816V4.54244C2.81808 4.62734 2.83934 4.71046 2.87423 4.78815C2.9148 4.86252 2.97141 4.92693 3.03994 4.97672L2.74851 9.31386C2.08695 9.34601 1.46289 9.63054 1.00475 10.1089C0.546613 10.5872 0.289259 11.223 0.285654 11.8853V17.1767C0.285219 17.2519 0.299634 17.3264 0.328071 17.3961C0.356507 17.4657 0.398408 17.529 0.451368 17.5824C0.504763 17.6354 0.568086 17.6773 0.637708 17.7057C0.707329 17.7341 0.781879 17.7486 0.857083 17.7481H2.3428C2.3428 18.5817 2.67392 19.3811 3.26332 19.9705C3.85272 20.5599 4.65212 20.891 5.48565 20.891C6.31919 20.891 7.11859 20.5599 7.70799 19.9705C8.29739 19.3811 8.62851 18.5817 8.62851 17.7481H18.6399C18.6399 18.5817 18.9711 19.3811 19.5605 19.9705C20.1499 20.5599 20.9493 20.891 21.7828 20.891C22.6163 20.891 23.4157 20.5599 24.0051 19.9705C24.5945 19.3811 24.9257 18.5817 24.9257 17.7481H26.2171C26.6404 17.7451 27.0453 17.5744 27.3431 17.2734C27.6408 16.9725 27.8072 16.5658 27.8057 16.1424V2.31959C27.8053 1.89641 27.6392 1.49022 27.3428 1.18816ZM4.33708 3.22244C4.40976 3.19309 4.48728 3.17758 4.56565 3.17673H8.14851V3.97101H4.28565L4.33708 3.22244ZM1.42851 12.6053H2.62851C2.62873 12.6697 2.61711 12.7336 2.59423 12.7938C2.57242 12.8559 2.53732 12.9125 2.49137 12.9596C2.399 13.0526 2.27392 13.106 2.1428 13.1081H1.42851V12.6053ZM7.41137 18.571C7.24747 18.9453 6.97724 19.2632 6.63423 19.4853C6.29326 19.7025 5.89557 19.8139 5.49137 19.8053C5.22599 19.803 4.96365 19.7484 4.7194 19.6446C4.47515 19.5408 4.25379 19.3898 4.06799 19.2003C3.8822 19.0108 3.73563 18.7865 3.63668 18.5403C3.53773 18.294 3.48835 18.0306 3.49137 17.7653C3.49129 17.4614 3.55871 17.1613 3.68876 16.8867C3.81881 16.6121 4.00824 16.3698 4.24335 16.1774C4.47847 15.9849 4.75341 15.8471 5.0483 15.7738C5.34319 15.7006 5.65066 15.6937 5.94851 15.7538C6.3467 15.8391 6.71181 16.0375 6.99994 16.3253C7.29071 16.6157 7.48946 16.9854 7.57137 17.3881C7.63681 17.7895 7.5811 18.2014 7.41137 18.571ZM8.28566 16.2853C8.01079 15.7476 7.58606 15.301 7.0628 14.9996C6.66962 14.7704 6.23101 14.6303 5.77783 14.5889C5.32465 14.5475 4.86791 14.606 4.43975 14.7601C4.0116 14.9143 3.62242 15.1604 3.29963 15.4812C2.97683 15.8019 2.72824 16.1895 2.57137 16.6167H1.42851V14.2281H2.17708C2.61105 14.2251 3.02612 14.0502 3.33137 13.7417C3.63663 13.4333 3.80718 13.0164 3.80565 12.5824V12.011C3.80565 11.8594 3.74545 11.7141 3.63829 11.6069C3.53112 11.4998 3.38578 11.4396 3.23423 11.4396H1.51994C1.61036 11.1465 1.79234 10.8901 2.03917 10.7081C2.28599 10.5261 2.58467 10.4279 2.89137 10.4281H8.28566V16.2853ZM8.28566 9.28529H3.9428L4.22851 5.0853H8.28566V9.28529ZM15.9885 1.85673H20.1714V7.211L18.3599 6.02815C18.2772 5.97244 18.1797 5.9426 18.0799 5.94244C17.9785 5.94346 17.8795 5.97318 17.7942 6.02815L15.9885 7.21672V1.85673ZM23.7142 18.571C23.5503 18.9453 23.2801 19.2632 22.9371 19.4853C22.5961 19.7025 22.1984 19.8139 21.7942 19.8053C21.5288 19.803 21.2665 19.7484 21.0223 19.6446C20.778 19.5408 20.5566 19.3898 20.3708 19.2003C20.1851 19.0108 20.0385 18.7865 19.9395 18.5403C19.8406 18.294 19.7912 18.0306 19.7942 17.7653C19.7941 17.4614 19.8616 17.1613 19.9916 16.8867C20.1217 16.6121 20.3111 16.3698 20.5462 16.1774C20.7813 15.9849 21.0563 15.8471 21.3512 15.7738C21.646 15.7006 21.9535 15.6937 22.2514 15.7538C22.6496 15.8391 23.0147 16.0375 23.3028 16.3253C23.5936 16.6157 23.7923 16.9854 23.8742 17.3881C23.9397 17.7895 23.884 18.2014 23.7142 18.571ZM26.6628 16.1424C26.6742 16.2009 26.6742 16.2611 26.6628 16.3196C26.6415 16.3772 26.6085 16.4298 26.5657 16.4738C26.526 16.518 26.4773 16.5531 26.4228 16.5767C26.3669 16.6015 26.3067 16.615 26.2457 16.6167H24.7142C24.494 16.0172 24.095 15.4998 23.5713 15.1343C23.0476 14.7687 22.4243 14.5727 21.7857 14.5727C21.147 14.5727 20.5237 14.7687 20 15.1343C19.4763 15.4998 19.0773 16.0172 18.8571 16.6167H9.42851V2.33102C9.4203 2.27225 9.4203 2.21264 9.42851 2.15387C9.45342 2.09985 9.48615 2.04979 9.52565 2.0053C9.56941 1.96335 9.61956 1.92864 9.67423 1.90245C9.7285 1.87967 9.78679 1.86801 9.84565 1.86816H14.9485V8.15386C14.9492 8.24679 14.9748 8.33784 15.0226 8.41753C15.0704 8.49722 15.1387 8.56264 15.2204 8.60698C15.3021 8.65132 15.3942 8.67296 15.487 8.66965C15.5799 8.66633 15.6702 8.63819 15.7485 8.58814L18.0685 7.05672L20.3885 8.58814C20.475 8.6395 20.5736 8.6671 20.6742 8.66814C20.7577 8.66885 20.84 8.64924 20.9142 8.611C20.9955 8.56543 21.0632 8.49909 21.1104 8.41877C21.1576 8.33844 21.1826 8.24702 21.1828 8.15386V1.85673H26.2057C26.2645 1.85658 26.3228 1.86824 26.3771 1.89102C26.4317 1.91721 26.4819 1.95193 26.5257 1.99387C26.5652 2.03836 26.5979 2.08842 26.6228 2.14245C26.631 2.20121 26.631 2.26083 26.6228 2.31959V16.1424H26.6628Z" fill="#161720"/>
<path d="M11.3257 12.5481H14.8628C14.9992 12.5481 15.13 12.494 15.2265 12.3975C15.3229 12.3011 15.3771 12.1703 15.3771 12.0339C15.3771 11.8975 15.3229 11.7667 15.2265 11.6702C15.13 11.5738 14.9992 11.5196 14.8628 11.5196H11.3257C11.1893 11.5196 11.0585 11.5738 10.962 11.6702C10.8656 11.7667 10.8114 11.8975 10.8114 12.0339C10.8114 12.1703 10.8656 12.3011 10.962 12.3975C11.0585 12.494 11.1893 12.5481 11.3257 12.5481Z" fill="#161720"/>
<path d="M16.3371 13.6395H11.3257C11.1893 13.6395 11.0585 13.6937 10.962 13.7902C10.8656 13.8866 10.8114 14.0174 10.8114 14.1538C10.8114 14.2902 10.8656 14.421 10.962 14.5175C11.0585 14.6139 11.1893 14.6681 11.3257 14.6681H16.3371C16.4735 14.6681 16.6043 14.6139 16.7008 14.5175C16.7972 14.421 16.8514 14.2902 16.8514 14.1538C16.8514 14.0174 16.7972 13.8866 16.7008 13.7902C16.6043 13.6937 16.4735 13.6395 16.3371 13.6395Z" fill="#161720"/>
</svg>
