<svg width="22" height="16" viewBox="0 0 22 16" fill="none" xmlns="http://www.w3.org/2000/svg">
<path d="M21.0333 7C20.7382 6.6 20.2464 6.4 19.7546 6.4L19.5578 3.4L19.6562 3.3C19.6562 3.2 19.7546 3.1 19.7546 3V2.4C19.7546 2.1 19.6562 1.7 19.4595 1.5C19.3611 1.3 19.1644 1.2 18.9677 1.1C18.7709 1 18.5742 1 18.3775 1H15.8201C15.7217 0.7 15.6233 0.5 15.4266 0.3C15.1315 0.1 14.8364 0 14.5413 0H2.34434C1.95089 0 1.6558 0.1 1.36071 0.4C1.06562 0.7 0.967258 1 0.967258 1.4V11.4V11.5V11.7C0.967258 12.1 1.06562 12.4 1.36071 12.7C1.6558 13 1.95089 13.1 2.34434 13.1H3.13124C3.13124 13.7 3.42633 14.3 3.81978 14.7C4.3116 15.2 4.90177 15.4 5.59031 15.4C6.27885 15.4 6.86903 15.1 7.36085 14.7C7.7543 14.3 8.04939 13.7 8.04939 13.1H15.0332C15.0332 13.7 15.3282 14.3 15.7217 14.7C16.2135 15.2 16.8037 15.4 17.4922 15.4C18.1808 15.4 18.7709 15.1 19.2628 14.7C19.6562 14.3 19.9513 13.7 19.9513 13.1H20.8366C21.0333 13.1 21.1316 13 21.23 12.9C21.3284 12.8 21.4267 12.6 21.4267 12.5V8.5C21.6235 7.9 21.4267 7.4 21.0333 7ZM6.47558 13.8C6.27885 14.1 5.8854 14.2 5.59031 14.2C5.29523 14.2 5.0985 14.1 4.90177 14C4.70505 13.9 4.50832 13.6 4.40996 13.4C4.3116 13.2 4.3116 12.9 4.3116 12.6C4.3116 12.3 4.50832 12.1 4.70505 11.9C4.90177 11.7 5.0985 11.6 5.39359 11.5C5.49195 11.5 5.59031 11.5 5.68868 11.5C5.8854 11.5 5.98377 11.5 6.18049 11.6C6.37722 11.7 6.67231 11.9 6.77067 12.1C6.86903 12.3 6.96739 12.6 6.96739 12.8C6.86903 13.2 6.67231 13.6 6.47558 13.8ZM14.5413 11.8H7.95102C7.7543 11.4 7.45921 11 7.06576 10.7C6.67231 10.4 6.18049 10.2 5.59031 10.2C5.00014 10.2 4.60669 10.4 4.11487 10.7C3.72142 11 3.42633 11.4 3.2296 11.8H2.24598C2.24598 11.8 2.24598 11.8 2.14761 11.8C2.14761 11.8 2.14761 11.8 2.14761 11.7V11.5V11.4V1.4C2.14761 1.4 2.14761 1.4 2.14761 1.3C2.14761 1.3 2.14761 1.3 2.24598 1.3H14.3446C14.3446 1.3 14.3446 1.3 14.443 1.3C14.443 1.3 14.443 1.3 14.443 1.4V11.8H14.5413ZM20.3447 8.9V9.3C20.3447 9.4 20.2464 9.4 20.2464 9.4H19.8529C19.6562 9.4 19.5578 9.3 19.5578 9.1V8.9C19.5578 8.8 19.6562 8.8 19.6562 8.8H20.148C20.3447 8.8 20.3447 8.9 20.3447 8.9ZM15.7217 1.9639H18.1808L18.2791 2.4H15.7217V1.9639ZM15.7217 3.6H18.3775L18.4759 6.3H15.7217V3.6ZM18.4759 13.8C18.2791 14.1 17.8857 14.2 17.5906 14.2C17.2955 14.2 17.0988 14.1 16.902 14C16.7053 13.9 16.5086 13.7 16.4102 13.4C16.3119 13.1 16.3119 12.9 16.3119 12.6C16.3119 12.3 16.5086 12.1 16.7053 11.9C16.902 11.7 17.0988 11.6 17.3939 11.5C17.4922 11.5 17.5906 11.5 17.6889 11.5C17.8857 11.5 17.984 11.5 18.1808 11.6C18.3775 11.7 18.6726 11.9 18.7709 12.1C18.8693 12.3 18.9677 12.6 18.9677 12.8C18.8693 13.2 18.7709 13.6 18.4759 13.8ZM20.3447 11.8H19.8529C19.6562 11.4 19.3611 11 19.066 10.8C18.6726 10.5 18.1808 10.3 17.6889 10.3C17.1971 10.3 16.7053 10.4 16.3119 10.6C16.1151 10.7 15.9184 10.9 15.7217 11.1V7.6H19.4595C19.6562 7.6 19.8529 7.7 19.9513 7.8C20.0497 7.9 20.0497 7.9 20.148 8H19.1644C18.9677 8 18.8693 8.1 18.7709 8.2C18.6726 8.3 18.5742 8.5 18.5742 8.6V9C18.5742 9.4 18.6726 9.7 18.9677 10C19.2628 10.3 19.5578 10.4 19.9513 10.4H20.3447V11.8Z" fill="black"/>
</svg>
