<svg width="48" height="31" viewBox="0 0 48 31" fill="none" xmlns="http://www.w3.org/2000/svg">
<path d="M44.3056 13.4722L43.8685 6.96654C43.9704 6.89024 44.0541 6.79219 44.1134 6.67951C44.1727 6.56682 44.2062 6.44234 44.2113 6.31511V5.18369C44.2114 4.5938 44.0086 4.02183 43.6371 3.56369V3.4694H43.5685C43.3233 3.1838 43.0196 2.95414 42.678 2.79592C42.3365 2.63771 41.9649 2.55462 41.5885 2.55226H35.9999C35.9015 1.99826 35.6115 1.49648 35.1806 1.13457C34.7498 0.772655 34.2055 0.573631 33.6428 0.572266L9.10284 0.572266C8.46781 0.576798 7.86046 0.83283 7.41383 1.28428C6.9672 1.73573 6.7177 2.34579 6.71999 2.98083V3.4694V12.0408H4.81713C4.58981 12.0408 4.37179 12.1311 4.21104 12.2919C4.0503 12.4526 3.95999 12.6706 3.95999 12.898C3.95999 13.1253 4.0503 13.3433 4.21104 13.504C4.37179 13.6648 4.58981 13.7551 4.81713 13.7551H14.6828C14.9102 13.7551 15.1282 13.6648 15.2889 13.504C15.4497 13.3433 15.54 13.1253 15.54 12.898C15.54 12.6706 15.4497 12.4526 15.2889 12.2919C15.1282 12.1311 14.9102 12.0408 14.6828 12.0408H8.43427V7.14654V2.98083C8.43199 2.89119 8.44754 2.802 8.48001 2.71841C8.51249 2.63483 8.56124 2.55853 8.62343 2.49394C8.68563 2.42936 8.76004 2.37776 8.84233 2.34216C8.92463 2.30656 9.01318 2.28765 9.10284 2.28655H33.6428C33.7325 2.28765 33.821 2.30656 33.9033 2.34216C33.9856 2.37776 34.06 2.42936 34.1222 2.49394C34.1844 2.55853 34.2331 2.63483 34.2656 2.71841C34.2981 2.802 34.3136 2.89119 34.3114 2.98083V3.4694V24.4265H20.1428C19.8124 23.5273 19.214 22.7511 18.4285 22.2029C17.6429 21.6546 16.708 21.3606 15.75 21.3606C14.792 21.3606 13.8571 21.6546 13.0715 22.2029C12.2859 22.7511 11.6875 23.5273 11.3571 24.4265H9.10284C9.01204 24.4243 8.92258 24.4041 8.83966 24.367C8.75674 24.3299 8.682 24.2768 8.6198 24.2106C8.5576 24.1444 8.50917 24.0665 8.47732 23.9814C8.44547 23.8964 8.43084 23.8058 8.43427 23.7151V21.6837H10.1486C10.3759 21.6837 10.5939 21.5933 10.7546 21.4326C10.9154 21.2719 11.0057 21.0538 11.0057 20.8265C11.0057 20.5992 10.9154 20.3812 10.7546 20.2204C10.5939 20.0597 10.3759 19.9694 10.1486 19.9694H3.65999C3.43266 19.9694 3.21465 20.0597 3.0539 20.2204C2.89316 20.3812 2.80285 20.5992 2.80285 20.8265C2.80285 21.0538 2.89316 21.2719 3.0539 21.4326C3.21465 21.5933 3.43266 21.6837 3.65999 21.6837H6.71999V23.7151C6.7177 24.3501 6.9672 24.9602 7.41383 25.4116C7.86046 25.8631 8.46781 26.1191 9.10284 26.1236H11.04C11.04 27.3739 11.5367 28.573 12.4208 29.4571C13.3049 30.3412 14.504 30.8379 15.7543 30.8379C17.0046 30.8379 18.2037 30.3412 19.0878 29.4571C19.9718 28.573 20.4685 27.3739 20.4685 26.1236H35.4856C35.4856 27.3739 35.9823 28.573 36.8664 29.4571C37.7505 30.3412 38.9496 30.8379 40.1999 30.8379C41.4502 30.8379 42.6493 30.3412 43.5334 29.4571C44.4175 28.573 44.9142 27.3739 44.9142 26.1236H47.1428C47.3701 26.1236 47.5881 26.0333 47.7489 25.8726C47.9096 25.7118 47.9999 25.4938 47.9999 25.2665V17.3294C47.9966 16.3353 47.6112 15.3805 46.9236 14.6625C46.236 13.9446 45.2987 13.5184 44.3056 13.4722ZM15.7543 29.2094C15.1442 29.223 14.544 29.0545 14.0303 28.7253C13.5165 28.3961 13.1126 27.9213 12.87 27.3614C12.6275 26.8015 12.5573 26.182 12.6686 25.5821C12.7798 24.9822 13.0674 24.429 13.4945 23.9933C13.9217 23.5576 14.469 23.2592 15.0666 23.1361C15.6642 23.013 16.285 23.0708 16.8495 23.3023C17.4141 23.5337 17.8969 23.9282 18.2361 24.4353C18.5754 24.9424 18.7558 25.5392 18.7542 26.1494C18.7611 26.9526 18.4492 27.7259 17.8868 28.2995C17.3244 28.8731 16.5575 29.2003 15.7543 29.2094ZM36.2056 4.26654H41.5799C41.6976 4.26699 41.814 4.29028 41.9228 4.33512L41.9999 5.45797H36.2056V4.26654ZM35.9999 7.14654H42.0856L42.5142 13.4465H35.9999V7.14654ZM40.1999 29.2094C39.5899 29.223 38.9897 29.0545 38.4759 28.7253C37.9622 28.3961 37.5582 27.9213 37.3157 27.3614C37.0731 26.8015 37.003 26.182 37.1142 25.5821C37.2255 24.9822 37.513 24.429 37.9402 23.9933C38.3673 23.5576 38.9147 23.2592 39.5123 23.1361C40.1099 23.013 40.7306 23.0708 41.2952 23.3023C41.8598 23.5337 42.3425 23.9282 42.6818 24.4353C43.0211 24.9424 43.2015 25.5392 43.1999 26.1494C43.2068 26.9526 42.8948 27.7259 42.3324 28.2995C41.7701 28.8731 41.0032 29.2003 40.1999 29.2094ZM46.2856 24.4265H44.5713C44.2593 23.5677 43.7022 22.8192 42.9691 22.2738C42.2359 21.7284 41.3589 21.41 40.4466 21.358C39.5343 21.306 38.6268 21.5227 37.8365 21.9813C37.0461 22.4398 36.4076 23.1201 35.9999 23.9379V15.1437H44.0913C44.5507 15.1461 44.9975 15.2943 45.3672 15.5669C45.7369 15.8396 46.0105 16.2226 46.1485 16.6608H43.5771C43.3497 16.6608 43.1317 16.7511 42.971 16.9119C42.8102 17.0726 42.7199 17.2906 42.7199 17.5179V18.3751C42.7176 19.026 42.9735 19.6514 43.4313 20.1141C43.8892 20.5768 44.5118 20.8391 45.1628 20.8437H46.2856V24.4265ZM46.2856 19.1637H45.2142C45.1167 19.1625 45.0203 19.1421 44.9307 19.1035C44.8412 19.0649 44.7601 19.0088 44.6924 18.9387C44.6246 18.8685 44.5714 18.7856 44.5359 18.6948C44.5005 18.6039 44.4834 18.5069 44.4856 18.4094H46.2856V19.1637ZM10.7228 17.7751H0.857141C0.629813 17.7751 0.411796 17.6848 0.251051 17.524C0.0903057 17.3633 0 17.1453 0 16.9179C0 16.6906 0.0903057 16.4726 0.251051 16.3119C0.411796 16.1511 0.629813 16.0608 0.857141 16.0608H10.7228C10.9502 16.0608 11.1682 16.1511 11.3289 16.3119C11.4897 16.4726 11.58 16.6906 11.58 16.9179C11.58 17.1453 11.4897 17.3633 11.3289 17.524C11.1682 17.6848 10.9502 17.7751 10.7228 17.7751Z" fill="#161720"/>
</svg>
