<svg width="36" height="35" viewBox="0 0 36 35" fill="none" xmlns="http://www.w3.org/2000/svg">
<path d="M33.4286 32.7945H26.6743C26.4697 32.7945 26.2735 32.7132 26.1288 32.5685C25.9841 32.4239 25.9029 32.2277 25.9029 32.0231C25.9029 31.8185 25.9841 31.6223 26.1288 31.4776C26.2735 31.3329 26.4697 31.2516 26.6743 31.2516H33.4286C33.5294 31.2494 33.6253 31.2078 33.6958 31.1357C33.7663 31.0636 33.8057 30.9668 33.8057 30.8659V2.78599C33.8057 2.68516 33.7663 2.58833 33.6958 2.51623C33.6253 2.44414 33.5294 2.40252 33.4286 2.40028H1.92857C1.82627 2.40028 1.72817 2.44091 1.65583 2.51325C1.58349 2.58558 1.54286 2.68369 1.54286 2.78599V30.8574C1.54286 30.9597 1.58349 31.0578 1.65583 31.1301C1.72817 31.2024 1.82627 31.2431 1.92857 31.2431H13.5171C13.7217 31.2431 13.918 31.3243 14.0626 31.469C14.2073 31.6137 14.2886 31.8099 14.2886 32.0145C14.2886 32.2191 14.2073 32.4153 14.0626 32.56C13.918 32.7046 13.7217 32.7859 13.5171 32.7859H1.92857C1.41708 32.7859 0.926543 32.5827 0.564866 32.2211C0.203188 31.8594 0 31.3688 0 30.8574V2.78599C0 2.2745 0.203188 1.78396 0.564866 1.42229C0.926543 1.06061 1.41708 0.857422 1.92857 0.857422H33.4286C33.9386 0.859689 34.4269 1.06388 34.7867 1.42531C35.1466 1.78674 35.3486 2.27598 35.3486 2.78599V30.8574C35.3497 31.1106 35.3009 31.3616 35.2051 31.596C35.1092 31.8305 34.9681 32.0437 34.7898 32.2236C34.6115 32.4035 34.3995 32.5465 34.166 32.6444C33.9324 32.7424 33.6818 32.7934 33.4286 32.7945Z" fill="#161720"/>
<path d="M14.8371 12.4888C14.7355 12.49 14.6347 12.4708 14.5406 12.4324C14.4464 12.3941 14.3609 12.3373 14.2891 12.2654C14.2172 12.1936 14.1604 12.1081 14.1221 12.014C14.0837 11.9199 14.0645 11.819 14.0657 11.7174V1.62885C14.0657 1.42425 14.147 1.22804 14.2916 1.08337C14.4363 0.938697 14.6325 0.857422 14.8371 0.857422H22.1314C22.336 0.857422 22.5322 0.938697 22.6769 1.08337C22.8216 1.22804 22.9028 1.42425 22.9028 1.62885V11.7174C22.9044 11.8586 22.8668 11.9974 22.7942 12.1185C22.7215 12.2395 22.6167 12.3381 22.4914 12.4031C22.366 12.4663 22.226 12.4948 22.0858 12.4858C21.9457 12.4768 21.8105 12.4305 21.6943 12.3517L18.4885 10.1403L15.2743 12.3517C15.1468 12.4427 14.9937 12.4907 14.8371 12.4888ZM18.4885 8.43455C18.6448 8.43494 18.7972 8.48276 18.9257 8.57169L21.36 10.286V2.40028H15.6085V10.286L18.0514 8.57169C18.1789 8.4807 18.332 8.43267 18.4885 8.43455Z" fill="#161720"/>
<path d="M7.38855 26.3059C7.18909 26.3039 6.99832 26.2239 6.85713 26.083L0.505697 19.8173C0.433391 19.7463 0.375957 19.6616 0.336752 19.5682C0.297546 19.4747 0.277353 19.3744 0.277353 19.273C0.277353 19.1717 0.297546 19.0714 0.336752 18.9779C0.375957 18.8845 0.433391 18.7998 0.505697 18.7288C0.65027 18.5848 0.845973 18.504 1.04998 18.504C1.25399 18.504 1.4497 18.5848 1.59427 18.7288L7.4057 24.463L14.4771 17.683L0.445697 2.57165C0.319493 2.42249 0.253869 2.23139 0.261805 2.03617C0.269741 1.84094 0.35066 1.6558 0.488554 1.51737C0.559563 1.44506 0.644266 1.38763 0.737718 1.34843C0.83117 1.30922 0.931497 1.28903 1.03284 1.28903C1.13418 1.28903 1.23451 1.30922 1.32796 1.34843C1.42141 1.38763 1.50612 1.44506 1.57713 1.51737L16.1486 17.143C16.2899 17.2873 16.3691 17.4811 16.3691 17.683C16.3691 17.885 16.2899 18.0788 16.1486 18.223L7.91998 26.0916C7.77598 26.2271 7.5863 26.3036 7.38855 26.3059Z" fill="#161720"/>
<path d="M25.6114 34.886C25.2776 34.893 24.9471 34.8186 24.6484 34.6692C24.3497 34.5199 24.0919 34.3001 23.8972 34.0288L19.7486 28.2003C19.6686 28.1201 19.6072 28.0233 19.5688 27.9168C19.5304 27.8102 19.516 27.6965 19.5265 27.5837C19.537 27.471 19.5722 27.3619 19.6296 27.2643C19.687 27.1666 19.7652 27.0828 19.8586 27.0188C19.9521 26.9548 20.0585 26.9122 20.1703 26.8939C20.282 26.8757 20.3965 26.8823 20.5054 26.9132C20.6144 26.9442 20.7151 26.9987 20.8006 27.073C20.8861 27.1473 20.9542 27.2395 21 27.3431L25.1486 33.1717C25.2294 33.284 25.3515 33.3598 25.4881 33.3823C25.6246 33.4048 25.7646 33.3722 25.8772 33.2917C25.9339 33.2538 25.9825 33.2049 26.0201 33.1481C26.0578 33.0912 26.0837 33.0274 26.0965 32.9604C26.1093 32.8934 26.1086 32.8245 26.0945 32.7578C26.0803 32.691 26.0531 32.6278 26.0143 32.5717L20.0829 23.7517C19.9854 23.6068 19.9399 23.4331 19.9539 23.259C19.9679 23.0849 20.0406 22.9208 20.1601 22.7934C20.2795 22.6659 20.4387 22.5828 20.6115 22.5576C20.7843 22.5324 20.9606 22.5666 21.1114 22.6546C22.224 23.2451 23.3854 23.7383 24.5829 24.1288C25.1021 24.37 25.6939 24.4037 26.2372 24.2231L20.7943 20.6489C19.8509 20.0018 18.7607 19.6011 17.6229 19.4831H14.5029C14.2983 19.4831 14.1021 19.4019 13.9574 19.2572C13.8127 19.1125 13.7314 18.9163 13.7314 18.7117C13.7314 18.5071 13.8127 18.3109 13.9574 18.1662C14.1021 18.0216 14.2983 17.9403 14.5029 17.9403H17.6657C19.0972 18.0641 20.4727 18.5541 21.66 19.3631L27.8229 23.426C27.9675 23.5199 28.0765 23.6596 28.1324 23.8228C28.1884 23.9859 28.188 24.1631 28.1314 24.326C27.84 25.1831 26.6229 26.4688 24.0772 25.586L22.8943 25.1488L27.3172 31.6631C27.5274 31.974 27.649 32.3363 27.6688 32.7111C27.6886 33.0859 27.606 33.459 27.4297 33.7903C27.2535 34.1217 26.9903 34.3988 26.6684 34.5918C26.3466 34.7848 25.9782 34.8865 25.6029 34.886H25.6114Z" fill="#161720"/>
<path d="M22.1657 34.6802C21.8318 34.6872 21.5013 34.6128 21.2026 34.4635C20.9039 34.3142 20.6461 34.0943 20.4514 33.8231L17.4685 29.6402C17.3922 29.559 17.3344 29.4621 17.299 29.3564C17.2637 29.2506 17.2517 29.1385 17.2639 29.0276C17.2761 28.9168 17.3122 28.8099 17.3697 28.7144C17.4272 28.6188 17.5047 28.5369 17.5968 28.4742C17.689 28.4114 17.7937 28.3695 17.9037 28.3511C18.0137 28.3327 18.1263 28.3384 18.2339 28.3678C18.3415 28.3972 18.4414 28.4495 18.5268 28.5212C18.6122 28.5929 18.681 28.6822 18.7285 28.7831L21.7028 32.9745C21.7838 33.0864 21.9051 33.1624 22.0411 33.1864C22.1771 33.2104 22.3171 33.1805 22.4314 33.1031C22.4884 33.0644 22.5372 33.0148 22.5749 32.9571C22.6127 32.8995 22.6387 32.835 22.6514 32.7673C22.6642 32.6996 22.6634 32.63 22.6492 32.5626C22.635 32.4952 22.6075 32.4313 22.5685 32.3745L19.9971 28.6117C19.9019 28.4425 19.874 28.2436 19.9189 28.0548C19.9638 27.8659 20.0783 27.7009 20.2395 27.5927C20.4007 27.4846 20.5967 27.4411 20.7885 27.4711C20.9803 27.5011 21.1538 27.6023 21.2743 27.7545L23.8457 31.5259C24.1204 31.9663 24.2209 32.4933 24.1273 33.0039C24.0338 33.5144 23.753 33.9716 23.34 34.2859C22.9964 34.531 22.5876 34.6683 22.1657 34.6802Z" fill="#161720"/>
<path d="M19.1571 34.9887C18.8232 34.9957 18.4927 34.9214 18.194 34.772C17.8954 34.6227 17.6375 34.4029 17.4428 34.1316L14.9142 30.5916C14.7973 30.423 14.7515 30.2151 14.7868 30.0129C14.8221 29.8107 14.9356 29.6306 15.1028 29.5116C15.269 29.3942 15.4749 29.3473 15.6756 29.381C15.8763 29.4147 16.0555 29.5264 16.1742 29.6916L18.7028 33.2402C18.7806 33.3509 18.8989 33.4265 19.0321 33.4506C19.1653 33.4746 19.3026 33.4452 19.4142 33.3688C19.5237 33.2869 19.5998 33.1681 19.6285 33.0345C19.6404 32.9677 19.6389 32.8992 19.6242 32.833C19.6095 32.7669 19.5818 32.7042 19.5428 32.6488L17.4428 29.6402C17.3267 29.4705 17.2823 29.2619 17.3192 29.0596C17.3561 28.8574 17.4714 28.6779 17.64 28.5602C17.8083 28.4445 18.0156 28.4004 18.2164 28.4373C18.4173 28.4743 18.5953 28.5893 18.7114 28.7573L20.8457 31.7145C21.0024 31.9359 21.1128 32.1867 21.1703 32.4518C21.2277 32.7169 21.231 32.9909 21.18 33.2573C21.135 33.5255 21.0358 33.7816 20.8885 34.01C20.7411 34.2385 20.5486 34.4344 20.3228 34.5859C19.9848 34.8367 19.5778 34.9774 19.1571 34.9887Z" fill="#161720"/>
<path d="M15.6257 34.706C15.301 34.702 14.9817 34.6225 14.6931 34.4737C14.4044 34.3249 14.1544 34.111 13.9628 33.8488L11.3228 30.4203C9.97538 28.6144 8.82592 26.6689 7.89424 24.6174C7.85737 24.5224 7.83992 24.421 7.84289 24.3192C7.84586 24.2173 7.86921 24.1171 7.91156 24.0244C7.9539 23.9317 8.01439 23.8485 8.08944 23.7796C8.16448 23.7106 8.25258 23.6574 8.34852 23.6231C8.53954 23.5538 8.75022 23.5625 8.93479 23.6476C9.11935 23.7327 9.2629 23.8871 9.33424 24.0774C10.2208 25.9884 11.3007 27.8036 12.5571 29.4946L15.1885 32.9231C15.2294 32.9802 15.2812 33.0287 15.3409 33.0657C15.4006 33.1027 15.467 33.1275 15.5364 33.1387C15.6057 33.1498 15.6766 33.1471 15.7449 33.1307C15.8132 33.1143 15.8775 33.0845 15.9342 33.0431C16.0524 32.9615 16.1339 32.8368 16.1612 32.6957C16.1884 32.5547 16.1593 32.4086 16.08 32.2888L14.9142 30.5745C14.8574 30.4907 14.8176 30.3965 14.7972 30.2972C14.7768 30.198 14.7761 30.0957 14.7952 29.9962C14.8143 29.8967 14.8528 29.802 14.9085 29.7174C14.9642 29.6328 15.0361 29.56 15.12 29.5031C15.29 29.3905 15.4973 29.349 15.6976 29.3875C15.8979 29.4259 16.0751 29.5413 16.1914 29.7088L17.3571 31.4231C17.5667 31.7371 17.6878 32.1017 17.7076 32.4786C17.7275 32.8556 17.6453 33.2309 17.4699 33.5651C17.2945 33.8993 17.0322 34.1801 16.7106 34.3778C16.3891 34.5756 16.0202 34.683 15.6428 34.6888L15.6257 34.706Z" fill="#161720"/>
</svg>
