<svg width="8" height="5" viewBox="0 0 8 5" fill="none" xmlns="http://www.w3.org/2000/svg">
<path d="M4.21094 0.34375C4.14062 0.296875 4.07031 0.273438 4 0.273438C3.90625 0.273438 3.85938 0.296875 3.8125 0.34375L0.320312 3.78906C0.273438 3.85938 0.25 3.92969 0.25 4C0.25 4.07031 0.273438 4.14062 0.34375 4.1875L0.789062 4.65625C0.835938 4.70312 0.90625 4.72656 1 4.72656C1.07031 4.72656 1.14062 4.70312 1.1875 4.65625L4 1.86719L6.8125 4.65625C6.85938 4.70312 6.90625 4.72656 7 4.72656C7.07031 4.72656 7.14062 4.70312 7.21094 4.65625L7.67969 4.1875C7.72656 4.14062 7.75 4.07031 7.75 4C7.75 3.92969 7.72656 3.85938 7.67969 3.78906L4.21094 0.34375Z" fill="#88898F"/>
</svg>
