<svg width="64" height="64" viewBox="0 0 64 64" fill="none" xmlns="http://www.w3.org/2000/svg">
<path d="M55.9897 15.2455C55.9945 14.9371 55.8777 14.6392 55.6647 14.4171L45.637 4.33688C45.4779 4.17768 45.2763 4.06826 45.0567 4.02188C44.9267 3.99271 44.792 3.99271 44.662 4.02188H18.2C17.2765 4.02188 16.3909 4.39064 15.7379 5.04703C15.0849 5.70342 14.7181 6.59369 14.7181 7.52197V10.9287C12.4687 11.7055 10.5162 13.1682 9.13278 15.113C7.74934 17.0579 7.0038 19.3881 7 21.779C7 21.9322 7.03002 22.0839 7.08835 22.2255C7.14667 22.367 7.23216 22.4956 7.33994 22.604C7.44771 22.7123 7.57566 22.7983 7.71647 22.8569C7.85728 22.9155 8.0082 22.9457 8.16062 22.9457H18.4321C18.7399 22.9457 19.0351 22.8228 19.2528 22.604C19.4704 22.3852 19.5927 22.0884 19.5927 21.779V11.4654C19.5927 11.156 19.4704 10.8592 19.2528 10.6404C19.0351 10.4216 18.7399 10.2987 18.4321 10.2987C17.9663 10.3 17.5011 10.3311 17.0393 10.392V7.49863C17.0393 7.18921 17.1616 6.89245 17.3793 6.67365C17.5969 6.45486 17.8921 6.33194 18.2 6.33194H43.6523V12.9121C43.6523 13.3717 43.7424 13.8269 43.9173 14.2515C44.0923 14.6762 44.3488 15.062 44.6721 15.387C45.3251 16.0434 46.2107 16.4122 47.1342 16.4122H53.68V56.4999C53.68 56.8093 53.5578 57.1061 53.3401 57.3249C53.1224 57.5437 52.8272 57.6666 52.5194 57.6666H18.2C17.8921 57.6666 17.5969 57.5437 17.3793 57.3249C17.1616 57.1061 17.0393 56.8093 17.0393 56.4999V35.9544C18.7568 36.9548 20.7065 37.482 22.6916 37.4827C25.7235 37.4827 28.6313 36.272 30.7753 34.1168C32.9192 31.9617 34.1236 29.0386 34.1236 25.9908C34.1236 22.9429 32.9192 20.0199 30.7753 17.8647C28.6313 15.7096 25.7235 14.4988 22.6916 14.4988C22.3837 14.4988 22.0885 14.6217 21.8709 14.8405C21.6532 15.0593 21.5309 15.3561 21.5309 15.6655V24.8124H12.4201C12.1123 24.8124 11.8171 24.9353 11.5994 25.1541C11.3817 25.3729 11.2595 25.6697 11.2595 25.9791C11.2703 27.5048 11.5838 29.0129 12.1816 30.4153C12.7795 31.8176 13.6497 33.086 14.7413 34.146V56.4999C14.7413 57.4282 15.1082 58.3185 15.7611 58.9748C16.4141 59.6312 17.2997 60 18.2232 60H52.5194C53.4429 60 54.3285 59.6312 54.9815 58.9748C55.6344 58.3185 56.0013 57.4282 56.0013 56.4999V15.2455H55.9897ZM17.2715 20.6123H9.39087C9.65118 18.6041 10.5655 16.739 11.9911 15.3081C13.4167 13.8771 15.2734 12.9608 17.2715 12.7021V20.6123ZM13.6619 27.1575H22.6916C22.9994 27.1575 23.2946 27.0346 23.5122 26.8158C23.7299 26.597 23.8522 26.3002 23.8522 25.9908V16.9139C25.5421 17.1305 27.1378 17.8192 28.458 18.9016C29.7782 19.984 30.7701 21.4168 31.321 23.0374C31.8719 24.6579 31.9597 26.4013 31.5745 28.0695C31.1894 29.7377 30.3466 31.264 29.1419 32.475C27.9373 33.6859 26.419 34.5331 24.7595 34.9203C23.0999 35.3075 21.3656 35.2192 19.7535 34.6654C18.1414 34.1116 16.716 33.1146 15.6393 31.7875C14.5625 30.4603 13.8775 28.8563 13.6619 27.1575ZM47.1342 14.0788C46.8263 14.0788 46.5311 13.9559 46.3135 13.7371C46.0958 13.5183 45.9735 13.2215 45.9735 12.9121V7.97698L52.0436 14.0788H47.1342ZM36.3172 27.8342C36.3172 27.5247 36.4395 27.228 36.6571 27.0092C36.8748 26.7904 37.17 26.6675 37.4778 26.6675H49.084C49.3918 26.6675 49.687 26.7904 49.9047 27.0092C50.1223 27.228 50.2446 27.5247 50.2446 27.8342C50.2446 28.1436 50.1223 28.4403 49.9047 28.6591C49.687 28.8779 49.3918 29.0009 49.084 29.0009H37.4778C37.17 29.0009 36.8748 28.8779 36.6571 28.6591C36.4395 28.4403 36.3172 28.1436 36.3172 27.8342ZM36.3172 21.779C36.3172 21.4696 36.4395 21.1728 36.6571 20.954C36.8748 20.7352 37.17 20.6123 37.4778 20.6123H49.084C49.3918 20.6123 49.687 20.7352 49.9047 20.954C50.1223 21.1728 50.2446 21.4696 50.2446 21.779C50.2446 22.0884 50.1223 22.3852 49.9047 22.604C49.687 22.8228 49.3918 22.9457 49.084 22.9457H37.4778C37.17 22.9457 36.8748 22.8228 36.6571 22.604C36.4395 22.3852 36.3172 22.0884 36.3172 21.779ZM31.1176 37.9378C30.4687 37.9314 29.8293 38.095 29.2623 38.4125C28.6954 38.73 28.2205 39.1905 27.8843 39.7486C27.5482 40.3066 27.3624 40.9431 27.3453 41.5952C27.3282 42.2474 27.4803 42.8928 27.7867 43.4679C27.7455 43.4869 27.7066 43.5104 27.6706 43.5379L24.4093 46.9447C23.9314 46.7281 23.413 46.6168 22.8889 46.618C22.1428 46.618 21.4135 46.8404 20.7932 47.257C20.1729 47.6737 19.6895 48.2659 19.404 48.9587C19.1185 49.6516 19.0438 50.414 19.1893 51.1495C19.3349 51.885 19.6941 52.5606 20.2216 53.0909C20.7492 53.6212 21.4213 53.9824 22.153 54.1287C22.8847 54.275 23.6431 54.1999 24.3323 53.9129C25.0216 53.6259 25.6107 53.1399 26.0252 52.5163C26.4396 51.8928 26.6609 51.1597 26.6609 50.4098C26.659 49.7403 26.4786 49.0836 26.1386 48.508L29.3535 45.1596L29.4115 45.0779C29.9399 45.3634 30.5294 45.5156 31.1292 45.5213C31.7063 45.5146 32.274 45.3749 32.7889 45.1129L35.6673 48.2397C35.2832 48.808 35.0604 49.4707 35.023 50.1567C34.9855 50.8426 35.1347 51.5259 35.4545 52.133C35.7744 52.7402 36.2527 53.2482 36.8383 53.6025C37.4238 53.9569 38.0943 54.1441 38.7777 54.1441C39.4611 54.1441 40.1316 53.9569 40.7172 53.6025C41.3027 53.2482 41.7811 52.7402 42.1009 52.133C42.4207 51.5259 42.5699 50.8426 42.5325 50.1567C42.495 49.4707 42.2722 48.808 41.8882 48.2397L46.8788 42.1145C47.3696 42.3443 47.9043 42.4637 48.4457 42.4645C49.1917 42.4645 49.921 42.2422 50.5413 41.8255C51.1616 41.4089 51.645 40.8167 51.9305 40.1238C52.216 39.431 52.2907 38.6686 52.1452 37.933C51.9996 37.1975 51.6404 36.5219 51.1129 35.9916C50.5853 35.4613 49.9132 35.1002 49.1815 34.9539C48.4498 34.8076 47.6914 34.8827 47.0022 35.1696C46.3129 35.4566 45.7238 35.9426 45.3093 36.5662C44.8949 37.1897 44.6736 37.9228 44.6736 38.6728C44.675 39.3245 44.8472 39.9643 45.1727 40.5278L40.0544 46.8163C39.6393 46.6566 39.1989 46.5736 38.7545 46.5713C38.3385 46.5727 37.926 46.6477 37.5358 46.793L34.4486 43.4329C34.7403 42.8958 34.8958 42.2947 34.9012 41.6829C34.886 40.6843 34.4807 39.7318 33.7727 39.0311C33.0648 38.3303 32.1111 37.9376 31.1176 37.9378ZM22.8772 51.8331C22.5903 51.8331 22.3098 51.7476 22.0712 51.5873C21.8327 51.4271 21.6467 51.1993 21.5369 50.9328C21.4271 50.6664 21.3984 50.3731 21.4544 50.0902C21.5103 49.8073 21.6485 49.5475 21.8514 49.3435C22.0543 49.1396 22.3128 49.0007 22.5942 48.9444C22.8756 48.8881 23.1673 48.917 23.4324 49.0274C23.6975 49.1378 23.9241 49.3247 24.0835 49.5645C24.2429 49.8044 24.328 50.0863 24.328 50.3748C24.325 50.7606 24.1712 51.1298 23.8997 51.4026C23.6283 51.6754 23.2611 51.8301 22.8772 51.8331ZM29.6669 41.6945C29.6669 41.4061 29.7519 41.1241 29.9114 40.8843C30.0708 40.6445 30.2974 40.4575 30.5624 40.3472C30.8275 40.2368 31.1192 40.2079 31.4007 40.2642C31.6821 40.3204 31.9406 40.4593 32.1435 40.6633C32.3464 40.8673 32.4846 41.1271 32.5405 41.41C32.5965 41.6929 32.5678 41.9861 32.458 42.2526C32.3482 42.5191 32.1622 42.7469 31.9236 42.9071C31.6851 43.0674 31.4046 43.1529 31.1176 43.1529C30.7388 43.153 30.375 43.0042 30.1039 42.7382C29.8328 42.4722 29.676 42.1102 29.6669 41.7295V41.6945ZM48.434 37.2611C48.721 37.2611 49.0015 37.3466 49.2401 37.5069C49.4786 37.6671 49.6646 37.8949 49.7744 38.1614C49.8842 38.4278 49.9129 38.7211 49.8569 39.004C49.801 39.2869 49.6628 39.5467 49.4599 39.7507C49.257 39.9546 48.9985 40.0935 48.7171 40.1498C48.4357 40.2061 48.144 40.1772 47.8789 40.0668C47.6138 39.9564 47.3872 39.7695 47.2278 39.5297C47.0684 39.2898 46.9833 39.0079 46.9833 38.7194C46.9833 38.3327 47.1361 37.9617 47.4082 37.6882C47.6803 37.4147 48.0493 37.2611 48.434 37.2611ZM40.1937 50.4098C40.1937 50.6982 40.1086 50.9802 39.9492 51.22C39.7898 51.4598 39.5632 51.6467 39.2981 51.7571C39.033 51.8675 38.7413 51.8964 38.4599 51.8401C38.1784 51.7838 37.9199 51.6449 37.717 51.441C37.5141 51.237 37.376 50.9772 37.32 50.6943C37.264 50.4114 37.2927 50.1181 37.4026 49.8517C37.5124 49.5852 37.6983 49.3574 37.9369 49.1972C38.1755 49.0369 38.456 48.9514 38.7429 48.9514C39.1267 48.9544 39.494 49.1091 39.7654 49.3819C40.0368 49.6547 40.1906 50.0239 40.1937 50.4098Z" fill="#F86A6A"/>
</svg>
