<svg width="57" height="47" viewBox="0 0 57 47" fill="none" xmlns="http://www.w3.org/2000/svg">
<path d="M55.4953 44.5068H53.3552V32.8267H55.4953C55.7617 32.8267 56.0173 32.7217 56.2057 32.5348C56.3941 32.3479 56.5 32.0944 56.5 31.8301C56.5 31.5658 56.3941 31.3123 56.2057 31.1254C56.0173 30.9385 55.7617 30.8335 55.4953 30.8335H50.4716V27.3553L53.7269 23.9868C53.8627 23.8465 53.954 23.6698 53.9897 23.4785C54.0254 23.2872 54.0039 23.0898 53.9279 22.9105C53.851 22.7304 53.7223 22.5767 53.5579 22.4686C53.3936 22.3605 53.2008 22.3028 53.0035 22.3026H45.9202C45.723 22.3028 45.5302 22.3605 45.3658 22.4686C45.2014 22.5767 45.0728 22.7304 44.9958 22.9105C44.9198 23.0898 44.8983 23.2872 44.934 23.4785C44.9697 23.6698 45.0611 23.8465 45.1968 23.9868L48.4622 27.3553V30.8335H43.4385C43.172 30.8335 42.9165 30.9385 42.7281 31.1254C42.5396 31.3123 42.4338 31.5658 42.4338 31.8301C42.4338 32.0944 42.5396 32.3479 42.7281 32.5348C42.9165 32.7217 43.172 32.8267 43.4385 32.8267H45.5786V44.5068H43.4385C43.172 44.5068 42.9165 44.6118 42.7281 44.7987C42.5396 44.9856 42.4338 45.2391 42.4338 45.5034C42.4338 45.7677 42.5396 46.0212 42.7281 46.2081C42.9165 46.395 43.172 46.5 43.4385 46.5H55.4953C55.7617 46.5 56.0173 46.395 56.2057 46.2081C56.3941 46.0212 56.5 45.7677 56.5 45.5034C56.5 45.2391 56.3941 44.9856 56.2057 44.7987C56.0173 44.6118 55.7617 44.5068 55.4953 44.5068ZM50.6424 24.2958L49.4669 25.5216L48.2813 24.2958H50.6424ZM47.578 44.5068V32.8267H51.3457V44.5068H47.578Z" fill="#B678A4"/>
<path d="M33.3912 24.1463V13.5624C33.4392 11.8645 33.1434 10.1743 32.5215 8.59164C31.8995 7.00903 30.964 5.56617 29.7701 4.34838C28.5763 3.13058 27.1484 2.16257 25.571 1.50157C23.9935 0.840568 22.2984 0.5 20.5859 0.5C18.8735 0.5 17.1784 0.840568 15.6009 1.50157C14.0234 2.16257 12.5955 3.13058 11.4017 4.34838C10.2079 5.56617 9.27234 7.00903 8.65038 8.59164C8.02843 10.1743 7.73268 11.8645 7.78064 13.5624V24.1463H4.76645C3.63009 24.1857 2.55273 24.6579 1.75824 25.4647C0.963745 26.2715 0.513221 27.351 0.500286 28.4788C0.487352 29.6065 0.913 30.6959 1.68878 31.5205C2.46456 32.345 3.53082 32.8414 4.66597 32.9064V43.6298C4.66729 44.008 4.7437 44.3823 4.89084 44.7312C5.03798 45.0802 5.25297 45.3969 5.52354 45.6635C5.7941 45.93 6.11494 46.141 6.46774 46.2846C6.82053 46.4281 7.19837 46.5013 7.57969 46.5H9.99104C10.3724 46.5013 10.7502 46.4281 11.103 46.2846C11.4558 46.141 11.7766 45.93 12.0472 45.6635C12.3178 45.3969 12.5327 45.0802 12.6799 44.7312C12.827 44.3823 12.9034 44.008 12.9048 43.6298V43.0518H28.1867V43.6298C28.188 44.008 28.2644 44.3823 28.4116 44.7312C28.5587 45.0802 28.7737 45.3969 29.0443 45.6635C29.3148 45.93 29.6357 46.141 29.9885 46.2846C30.3413 46.4281 30.7191 46.5013 31.1004 46.5H33.6022C33.9835 46.5013 34.3614 46.4281 34.7142 46.2846C35.0669 46.141 35.3878 45.93 35.6584 45.6635C35.9289 45.3969 36.1439 45.0802 36.291 44.7312C36.4382 44.3823 36.5146 44.008 36.5159 43.6298V32.9064C37.6511 32.8414 38.7173 32.345 39.4931 31.5205C40.2689 30.6959 40.6945 29.6065 40.6816 28.4788C40.6687 27.351 40.2181 26.2715 39.4237 25.4647C38.6292 24.6579 37.5518 24.1857 36.4154 24.1463H33.3912ZM20.5508 2.84902C21.9713 2.8464 23.3785 3.1215 24.6918 3.65861C26.0051 4.19571 27.1988 4.98428 28.2047 5.97925C29.2105 6.97421 30.0089 8.15606 30.554 9.45723C31.0992 10.7584 31.3804 12.1534 31.3817 13.5624V24.1463H31.1406C30.3696 24.1463 29.63 24.4494 29.0838 24.9893C28.5377 25.5291 28.2296 26.2617 28.2269 27.0265V28.2423H12.9048V27.0265C12.9021 26.2617 12.5939 25.5291 12.0478 24.9893C11.5017 24.4494 10.7621 24.1463 9.99104 24.1463H9.74991V13.5624C9.75257 10.7219 10.8914 7.9984 12.9163 5.98982C14.9413 3.98124 17.687 2.85166 20.5508 2.84902ZM28.1867 32.3284H12.9048V30.2355H28.1867V32.3284ZM10.8953 43.6298C10.894 43.7463 10.8696 43.8613 10.8234 43.9685C10.7772 44.0756 10.7103 44.1726 10.6263 44.2541C10.5423 44.3355 10.443 44.3997 10.334 44.4431C10.225 44.4865 10.1085 44.5081 9.99104 44.5068H7.48926C7.25288 44.5068 7.02587 44.4151 6.85686 44.2512C6.68784 44.0872 6.59026 43.8642 6.58501 43.6298V31.9198C6.58501 31.6554 6.47915 31.402 6.29073 31.2151C6.1023 31.0282 5.84675 30.9232 5.58028 30.9232H4.67602C4.03649 30.9232 3.42315 30.6712 2.97094 30.2226C2.51872 29.7741 2.26467 29.1657 2.26467 28.5313C2.26467 27.897 2.51872 27.2886 2.97094 26.8401C3.42315 26.3915 4.03649 26.1395 4.67602 26.1395H9.99104C10.1093 26.1382 10.2267 26.1601 10.3363 26.2041C10.446 26.2481 10.5457 26.3132 10.6298 26.3957C10.714 26.4782 10.7807 26.5765 10.8263 26.6847C10.8718 26.793 10.8953 26.9091 10.8953 27.0265V43.6298ZM12.9048 41.0586V34.3216H28.1867V41.0586H12.9048ZM36.4054 30.9232H35.5011C35.2347 30.9232 34.9791 31.0282 34.7907 31.2151C34.6023 31.402 34.4964 31.6554 34.4964 31.9198V43.6298C34.4951 43.7463 34.4707 43.8613 34.4245 43.9685C34.3784 44.0756 34.3114 44.1726 34.2274 44.2541C34.1434 44.3355 34.0441 44.3997 33.9351 44.4431C33.8261 44.4865 33.7096 44.5081 33.5922 44.5068H31.1004C30.983 44.5081 30.8664 44.4865 30.7574 44.4431C30.6484 44.3997 30.5491 44.3355 30.4652 44.2541C30.3812 44.1726 30.3142 44.0756 30.2681 43.9685C30.2219 43.8613 30.1975 43.7463 30.1962 43.6298V27.0265C30.1962 26.9091 30.2196 26.793 30.2652 26.6847C30.3107 26.5765 30.3775 26.4782 30.4616 26.3957C30.5457 26.3132 30.6455 26.2481 30.7551 26.2041C30.8648 26.1601 30.9821 26.1382 31.1004 26.1395H36.4054C37.0449 26.1395 37.6583 26.3915 38.1105 26.8401C38.5627 27.2886 38.8167 27.897 38.8167 28.5313C38.8167 29.1657 38.5627 29.7741 38.1105 30.2226C37.6583 30.6712 37.0449 30.9232 36.4054 30.9232Z" fill="#B678A4"/>
</svg>
