<svg width="24" height="24" viewBox="0 0 24 24" fill="none" xmlns="http://www.w3.org/2000/svg">
<path d="M21 4.00446C21 3.72321 20.8795 3.48214 20.6786 3.28125C20.4777 3.12054 20.2366 3 19.9955 3H4.00446C3.68304 3 3.44196 3.12054 3.28125 3.28125C3.08036 3.48214 3 3.72321 3 4.00446V19.9955C3 20.2768 3.08036 20.5179 3.28125 20.7188C3.44196 20.9196 3.68304 21 4.00446 21H12.6027V14.0089H10.2723V11.317H12.6027V9.30804C12.6027 8.18304 12.9241 7.29911 13.567 6.65625C14.2098 6.05357 15.0536 5.73214 16.0982 5.73214C16.9018 5.73214 17.625 5.77232 18.1875 5.8125V8.26339H16.7411C16.2188 8.26339 15.8571 8.38393 15.6562 8.625C15.4955 8.82589 15.4152 9.14732 15.4152 9.58929V11.317H18.1071L17.7455 14.0089H15.4152V21H19.9955C20.2768 21 20.5179 20.9196 20.7188 20.7188C20.8795 20.5179 21 20.2768 21 19.9955V4.00446Z" fill="white"/>
</svg>
