<svg width="52" height="48" viewBox="0 0 52 48" fill="none" xmlns="http://www.w3.org/2000/svg">
<path d="M51.5796 17.2826C51.5894 17.2146 51.5894 17.1455 51.5796 17.0774C51.57 17.0159 51.5488 16.9568 51.5173 16.9029C51.4889 16.8446 51.4541 16.7895 51.4135 16.7387L51.2682 16.5848V16.5334L42.3601 10.2113V3.9303C42.3601 3.48419 42.2712 3.04244 42.0985 2.63029C41.9258 2.21813 41.6726 1.84364 41.3535 1.52819C41.0344 1.21274 40.6555 0.962512 40.2386 0.791792C39.8217 0.621072 39.3748 0.533203 38.9235 0.533203H12.4899C11.5803 0.53592 10.7088 0.895026 10.0666 1.53181C9.42435 2.1686 9.06371 3.03111 9.06371 3.9303V10.704L0.653973 16.5232C0.653973 16.5232 0.653973 16.5232 0.591679 16.5848C0.548834 16.6134 0.510372 16.6479 0.477473 16.6874C0.477473 16.6874 0.477473 16.6874 0.477473 16.7387C0.477473 16.79 0.477473 16.8208 0.404796 16.8619C0.398922 16.9061 0.398922 16.951 0.404796 16.9953C0.400509 17.0328 0.400509 17.0707 0.404796 17.1082C0.399649 17.1525 0.399649 17.1973 0.404796 17.2416C0.399933 17.2722 0.399933 17.3034 0.404796 17.334V44.3876C0.404796 45.2042 0.732953 45.9873 1.31708 46.5647C1.9012 47.1422 2.69344 47.4665 3.51951 47.4665H48.4857C49.3117 47.4665 50.104 47.1422 50.6881 46.5647C51.2722 45.9873 51.6004 45.2042 51.6004 44.3876V17.3647C51.5983 17.3364 51.5913 17.3086 51.5796 17.2826ZM49.5031 44.1208L33.4312 32.2258L49.5239 19.6226L49.5031 44.1208ZM2.28401 19.479L18.4286 32.1129L2.28401 43.8437V19.479ZM25.416 29.5882C25.5556 29.4857 25.7249 29.4303 25.8988 29.4303C26.0727 29.4303 26.2419 29.4857 26.3815 29.5882L30.7318 32.8108C30.7318 32.8108 30.7318 32.9031 30.8148 32.9545C30.9624 33.1263 31.1631 33.2453 31.3859 33.2931L47.8108 45.4242H3.62334L25.416 29.5882ZM48.9425 17.4674L42.3601 22.599V12.7463L48.9425 17.4674ZM11.1402 3.9303C11.1402 3.5755 11.2821 3.23507 11.5349 2.98323C11.7877 2.73138 12.131 2.58854 12.4899 2.58583H38.9235C39.2842 2.58583 39.6301 2.72748 39.8852 2.97962C40.1403 3.23175 40.2836 3.57373 40.2836 3.9303V24.2411L31.6973 30.9531L27.6274 27.946C27.1293 27.5795 26.5249 27.3816 25.904 27.3816C25.283 27.3816 24.6786 27.5795 24.1805 27.946L20.1625 30.8608L11.0987 23.7689C11.1035 23.7075 11.1035 23.6457 11.0987 23.5842L11.1402 3.9303ZM9.06371 22.1679L2.97963 17.4058L9.06371 13.2082V22.1679Z" fill="#0067B3"/>
<path d="M25.904 24.7337C26.1518 24.7337 26.3895 24.6364 26.5647 24.4632C26.74 24.29 26.8384 24.055 26.8384 23.8101C26.8384 23.5651 26.74 23.3301 26.5647 23.1569C26.3895 22.9837 26.1518 22.8864 25.904 22.8864C24.2818 22.8864 22.696 22.4109 21.3471 21.52C19.9983 20.6291 18.947 19.3628 18.3262 17.8812C17.7054 16.3997 17.543 14.7695 17.8595 13.1967C18.176 11.624 18.9571 10.1793 20.1042 9.04536C21.2513 7.91146 22.7128 7.13926 24.3038 6.82641C25.8949 6.51357 27.5441 6.67413 29.0428 7.2878C30.5415 7.90146 31.8225 8.94067 32.7238 10.274C33.625 11.6073 34.1061 13.1749 34.1061 14.7785V18.0627C34.1061 18.471 33.942 18.8626 33.6499 19.1513C33.3579 19.44 32.9618 19.6022 32.5487 19.6022C32.1357 19.6022 31.7396 19.44 31.4475 19.1513C31.1554 18.8626 30.9914 18.471 30.9914 18.0627V14.7785C30.9914 14.6572 30.9672 14.5371 30.9202 14.425C30.8733 14.313 30.8044 14.2111 30.7177 14.1254C30.6309 14.0396 30.5279 13.9715 30.4145 13.9251C30.3012 13.8787 30.1797 13.8548 30.0569 13.8548C29.9342 13.8548 29.8127 13.8787 29.6994 13.9251C29.586 13.9715 29.483 14.0396 29.3962 14.1254C29.3094 14.2111 29.2406 14.313 29.1937 14.425C29.1467 14.5371 29.1225 14.6572 29.1225 14.7785C29.1225 15.4078 28.9338 16.0229 28.5801 16.5461C28.2264 17.0693 27.7238 17.4771 27.1357 17.7179C26.5476 17.9587 25.9004 18.0217 25.2761 17.8989C24.6517 17.7762 24.0783 17.4732 23.6281 17.0282C23.178 16.5833 22.8715 16.0164 22.7473 15.3992C22.6231 14.782 22.6868 14.1423 22.9304 13.561C23.174 12.9796 23.5866 12.4827 24.1159 12.1331C24.6451 11.7835 25.2674 11.5969 25.904 11.5969C26.1518 11.5969 26.3895 11.4996 26.5647 11.3264C26.74 11.1532 26.8384 10.9182 26.8384 10.6732C26.8384 10.4283 26.74 10.1933 26.5647 10.0201C26.3895 9.84688 26.1518 9.74956 25.904 9.74956C25.0854 9.75025 24.2791 9.9462 23.5534 10.3208C22.8278 10.6953 22.2044 11.2375 21.736 11.9011C21.2676 12.5647 20.9682 13.3303 20.8631 14.1328C20.758 14.9353 20.8503 15.751 21.1323 16.5107C21.4142 17.2704 21.8775 17.9516 22.4827 18.4964C23.0879 19.0413 23.8171 19.4338 24.6086 19.6405C25.4 19.8473 26.2302 19.8622 27.0287 19.684C27.8272 19.5058 28.5704 19.1397 29.1952 18.6169C29.3259 19.4082 29.7371 20.1277 30.3553 20.6467C30.9735 21.1657 31.7584 21.4503 32.5695 21.4495H32.746C33.6228 21.4047 34.4484 21.0279 35.0516 20.3972C35.6548 19.7666 35.9891 18.9306 35.9853 18.0627V14.7785C35.9853 12.8095 35.3946 10.8848 34.288 9.24766C33.1814 7.61053 31.6086 6.33454 29.7683 5.58105C27.9281 4.82756 25.9032 4.63042 23.9496 5.01454C21.9961 5.39867 20.2016 6.34681 18.7932 7.73908C17.3847 9.13134 16.4255 10.9052 16.037 12.8363C15.6484 14.7675 15.8478 16.7691 16.6101 18.5882C17.3723 20.4073 18.6631 21.9621 20.3193 23.056C21.9754 24.1499 23.9225 24.7337 25.9144 24.7337H25.904Z" fill="#0067B3"/>
</svg>
