<svg width="36" height="36" viewBox="0 0 36 36" fill="none" xmlns="http://www.w3.org/2000/svg">
<path d="M34.6562 19.963C34.3876 19.6859 34.0661 19.4657 33.7107 19.3152C33.3554 19.1648 32.9734 19.0872 32.5875 19.0872C32.2016 19.0872 31.8196 19.1648 31.4643 19.3152C31.1089 19.4657 30.7874 19.6859 30.5187 19.963L28.6437 21.838V12.5005C29.073 12.4205 29.4609 12.1931 29.7404 11.8577C30.02 11.5222 30.1737 11.0997 30.175 10.663V7.23803C30.175 6.74075 29.9775 6.26384 29.6258 5.91221C29.2742 5.56058 28.7973 5.36303 28.3 5.36303H25.6688C26.0369 4.8395 26.2354 4.21555 26.2375 3.57553C26.2475 2.77099 25.9379 1.99534 25.3766 1.41883C24.8154 0.84232 24.0483 0.512058 23.2437 0.500531C22.5375 0.491763 21.8542 0.750806 21.3313 1.22553L17.7188 4.75678L14.1125 1.21303C13.5861 0.74136 12.9004 0.486757 12.1937 0.500531C11.3892 0.512058 10.6221 0.84232 10.0609 1.41883C9.49959 1.99534 9.18998 2.77099 9.2 3.57553C9.19962 4.21593 9.39838 4.8406 9.76875 5.36303H7.1125C6.61522 5.36303 6.13831 5.56058 5.78667 5.91221C5.43504 6.26384 5.2375 6.74075 5.2375 7.23803V10.663C5.23799 11.097 5.38903 11.5174 5.66485 11.8525C5.94066 12.1876 6.32418 12.4166 6.75 12.5005V20.7068C6.5799 20.4529 6.35033 20.2445 6.08127 20.0996C5.81222 19.9547 5.51183 19.8778 5.20625 19.8755H2.375C1.87772 19.8755 1.40081 20.0731 1.04917 20.4247C0.697544 20.7763 0.5 21.2533 0.5 21.7505L0.5 33.6255C0.5 34.1228 0.697544 34.5997 1.04917 34.9514C1.40081 35.303 1.87772 35.5005 2.375 35.5005H5.20625C5.70353 35.5005 6.18044 35.303 6.53208 34.9514C6.88371 34.5997 7.08125 34.1228 7.08125 33.6255V33.238C9.5375 34.4318 13.7938 34.438 19.0938 34.438H19.575C24.575 34.438 25.675 33.8693 27.1562 32.4755C29.1063 30.6443 34.4562 24.4193 34.6562 24.1818C35.1984 23.6133 35.5009 22.858 35.5009 22.0724C35.5009 21.2869 35.1984 20.5315 34.6562 19.963ZM25.4625 25.088C25.3302 24.5469 25.021 24.0655 24.584 23.7202C24.1469 23.3748 23.607 23.1853 23.05 23.1818C22.425 23.1818 21.5375 23.1818 20.6875 23.1318V12.538H27.4188V23.1005L25.4625 25.088ZM12.0437 20.2943C10.6071 20.2982 9.20486 20.7337 8.01875 21.5443V12.538H14.75V20.913C13.9012 20.5194 12.9792 20.3086 12.0437 20.2943ZM16 12.538H19.4375V23.038C18.7541 23.0016 18.079 22.8712 17.4312 22.6505C17.0742 22.4564 16.7353 22.2305 16.4187 21.9755C16.2875 21.8755 16.15 21.7693 16 21.6693V12.538ZM19.4375 6.61303V11.288H16V6.61303H19.4375ZM28.95 7.23803V10.663C28.95 10.8288 28.8842 10.9878 28.7669 11.105C28.6497 11.2222 28.4908 11.288 28.325 11.288H20.6875V6.61303H28.325C28.4908 6.61303 28.6497 6.67888 28.7669 6.79609C28.8842 6.9133 28.95 7.07227 28.95 7.23803ZM24.9875 3.57553C24.9947 3.99358 24.8556 4.401 24.5942 4.72738C24.3329 5.05376 23.9657 5.2786 23.5562 5.36303H18.8875L22.1125 2.19428C22.2619 2.04851 22.4389 1.93414 22.6332 1.85793C22.8275 1.78171 23.0351 1.7452 23.2437 1.75053C23.7168 1.762 24.1659 1.96055 24.4928 2.30265C24.8197 2.64475 24.9976 3.10249 24.9875 3.57553ZM10.45 3.57553C10.4399 3.10249 10.6178 2.64475 10.9447 2.30265C11.2716 1.96055 11.7207 1.762 12.1937 1.75053C12.4024 1.7452 12.61 1.78171 12.8043 1.85793C12.9986 1.93414 13.1756 2.04851 13.325 2.19428L16.55 5.36303H11.8875C11.478 5.27765 11.1108 5.05276 10.8486 4.72675C10.5864 4.40075 10.4455 3.99385 10.45 3.57553ZM6.4875 10.663V7.23803C6.4875 7.07227 6.55335 6.9133 6.67056 6.79609C6.78777 6.67888 6.94674 6.61303 7.1125 6.61303H14.75V11.288H7.1125C6.94674 11.288 6.78777 11.2222 6.67056 11.105C6.55335 10.9878 6.4875 10.8288 6.4875 10.663ZM5.83125 33.6255C5.83125 33.7913 5.7654 33.9503 5.64819 34.0675C5.53098 34.1847 5.37201 34.2505 5.20625 34.2505H2.375C2.20924 34.2505 2.05027 34.1847 1.93306 34.0675C1.81585 33.9503 1.75 33.7913 1.75 33.6255V21.7505C1.75 21.5848 1.81585 21.4258 1.93306 21.3086C2.05027 21.1914 2.20924 21.1255 2.375 21.1255H5.20625C5.28833 21.1255 5.3696 21.1417 5.44543 21.1731C5.52126 21.2045 5.59015 21.2506 5.64819 21.3086C5.70623 21.3666 5.75227 21.4355 5.78367 21.5114C5.81508 21.5872 5.83125 21.6685 5.83125 21.7505V33.6255ZM33.7312 23.338C33.675 23.4068 28.2 29.7818 26.3 31.563C25.1875 32.613 24.575 33.188 19.575 33.188H19.0938C13.6375 33.188 9.33125 33.188 7.275 31.938C7.21525 31.9033 7.14954 31.88 7.08125 31.8693V23.8443C7.13926 23.8185 7.19218 23.7825 7.2375 23.738C7.2375 23.738 9.40625 21.4505 12 21.5443C13.357 21.5789 14.6574 22.0951 15.6688 23.0005C16.0499 23.3037 16.4578 23.5714 16.8875 23.8005C18.3125 24.488 22.575 24.463 23.0562 24.4255C23.3879 24.4485 23.6985 24.5964 23.9253 24.8394C24.1521 25.0824 24.2782 25.4025 24.2782 25.7349C24.2782 26.0673 24.1521 26.3874 23.9253 26.6304C23.6985 26.8734 23.3879 27.0214 23.0562 27.0443H15.7563C15.5905 27.0443 15.4315 27.1101 15.3143 27.2273C15.1971 27.3446 15.1313 27.5035 15.1313 27.6693C15.1313 27.835 15.1971 27.994 15.3143 28.1112C15.4315 28.2284 15.5905 28.2943 15.7563 28.2943H23.0562C23.4229 28.2908 23.7843 28.2066 24.1148 28.0479C24.4453 27.8891 24.7369 27.6596 24.9688 27.3755L31.4062 20.8505C31.5597 20.6958 31.7422 20.5729 31.9433 20.4891C32.1445 20.4052 32.3602 20.3621 32.5781 20.3621C32.796 20.3621 33.0118 20.4052 33.2129 20.4891C33.4141 20.5729 33.5966 20.6958 33.75 20.8505C34.0691 21.1871 34.2454 21.6343 34.2419 22.0981C34.2384 22.5619 34.0554 23.0063 33.7312 23.338Z" fill="#F86A6A"/>
</svg>
