<svg width="55" height="57" viewBox="0 0 55 57" fill="none" xmlns="http://www.w3.org/2000/svg">
<path d="M8.77584 12.1667C8.77584 11.8572 8.89952 11.5605 9.11966 11.3417C9.33981 11.1229 9.63839 11 9.94972 11H33.4273C33.7386 11 34.0372 11.1229 34.2573 11.3417C34.4775 11.5605 34.6012 11.8572 34.6012 12.1667C34.6012 12.4761 34.4775 12.7728 34.2573 12.9916C34.0372 13.2104 33.7386 13.3333 33.4273 13.3333H9.94972C9.63839 13.3333 9.33981 13.2104 9.11966 12.9916C8.89952 12.7728 8.77584 12.4761 8.77584 12.1667ZM9.94972 20.6133H33.4273C33.7386 20.6133 34.0372 20.4904 34.2573 20.2716C34.4775 20.0528 34.6012 19.7561 34.6012 19.4467C34.6012 19.1372 34.4775 18.8405 34.2573 18.6217C34.0372 18.4029 33.7386 18.28 33.4273 18.28H9.94972C9.63839 18.28 9.33981 18.4029 9.11966 18.6217C8.89952 18.8405 8.77584 19.1372 8.77584 19.4467C8.77584 19.7561 8.89952 20.0528 9.11966 20.2716C9.33981 20.4904 9.63839 20.6133 9.94972 20.6133ZM9.94972 27.8933H30.3282C30.6396 27.8933 30.9382 27.7704 31.1583 27.5516C31.3784 27.3328 31.5021 27.0361 31.5021 26.7267C31.5021 26.4172 31.3784 26.1205 31.1583 25.9017C30.9382 25.6829 30.6396 25.56 30.3282 25.56H9.94972C9.63839 25.56 9.33981 25.6829 9.11966 25.9017C8.89952 26.1205 8.77584 26.4172 8.77584 26.7267C8.77584 27.0361 8.89952 27.3328 9.11966 27.5516C9.33981 27.7704 9.63839 27.8933 9.94972 27.8933ZM24.271 32.84H9.94972C9.63839 32.84 9.33981 32.9629 9.11966 33.1817C8.89952 33.4005 8.77584 33.6972 8.77584 34.0067C8.77584 34.3161 8.89952 34.6128 9.11966 34.8316C9.33981 35.0504 9.63839 35.1733 9.94972 35.1733H24.271C24.5824 35.1733 24.8809 35.0504 25.1011 34.8316C25.3212 34.6128 25.4449 34.3161 25.4449 34.0067C25.4449 33.6972 25.3212 33.4005 25.1011 33.1817C24.8809 32.9629 24.5824 32.84 24.271 32.84ZM42.9122 52.23V53C42.9122 53.9283 42.5412 54.8185 41.8807 55.4749C41.2203 56.1312 40.3246 56.5 39.3906 56.5H12.1097H11.9923H11.8631H11.734C11.5186 56.4581 11.3193 56.3571 11.1588 56.2083L0.852163 46.0817C0.741246 45.9736 0.653005 45.8448 0.592555 45.7026C0.532104 45.5604 0.500645 45.4077 0.5 45.2533V45.2533V4C0.5 3.07174 0.871028 2.1815 1.53146 1.52513C2.1919 0.868749 3.08764 0.5 4.02163 0.5L39.3554 0.5C40.2894 0.5 41.1851 0.868749 41.8455 1.52513C42.506 2.1815 42.877 3.07174 42.877 4V26.6917C46.0624 27.0094 49.0154 28.4919 51.1631 30.8514C53.3108 33.2109 54.5 36.2791 54.5 39.4608C54.5 42.6425 53.3108 45.7108 51.1631 48.0703C49.0154 50.4298 46.0624 51.9122 42.877 52.23H42.9122ZM10.8184 47.5633C10.8184 47.2539 10.6947 46.9572 10.4746 46.7384C10.2544 46.5196 9.95584 46.3967 9.64451 46.3967H4.53814L10.8184 52.5217V47.5633ZM40.5645 53V52.2533C37.3791 51.9356 34.4261 50.4531 32.2784 48.0936C30.1307 45.7341 28.9414 42.6659 28.9414 39.4842C28.9414 36.3025 30.1307 33.2342 32.2784 30.8747C34.4261 28.5152 37.3791 27.0328 40.5645 26.715V4C40.5645 3.69058 40.4408 3.39383 40.2206 3.17504C40.0005 2.95625 39.7019 2.83333 39.3906 2.83333H4.02163C3.7103 2.83333 3.41172 2.95625 3.19158 3.17504C2.97143 3.39383 2.84776 3.69058 2.84776 4V44.0867H9.59755C10.5315 44.0867 11.4273 44.4554 12.0877 45.1118C12.7482 45.7682 13.1192 46.6584 13.1192 47.5867V54.1667H39.3554C39.5125 54.1714 39.6689 54.1446 39.8154 54.0881C39.9619 54.0316 40.0955 53.9464 40.2083 53.8376C40.321 53.7288 40.4107 53.5986 40.4719 53.4547C40.533 53.3108 40.5645 53.1562 40.5645 53ZM52.5028 39.455C52.5424 37.3311 51.9449 35.2435 50.7865 33.4583C49.628 31.673 47.961 30.271 45.9979 29.4308C44.0347 28.5905 41.8644 28.3502 39.7633 28.7403C37.6622 29.1304 35.7256 30.1334 34.2001 31.6214C32.6746 33.1093 31.6294 35.015 31.1976 37.0955C30.7659 39.176 30.9671 41.3372 31.7756 43.3036C32.5841 45.2701 33.9634 46.9528 35.7377 48.1373C37.512 49.3219 39.6009 49.9546 41.7383 49.955C44.5664 49.9799 47.2886 48.8879 49.3071 46.9191C51.3255 44.9503 52.4749 42.2656 52.5028 39.455ZM49.9907 37.6817C49.9907 37.8349 49.9603 37.9866 49.9013 38.1281C49.8423 38.2697 49.7559 38.3983 49.6469 38.5066C49.5379 38.615 49.4085 38.7009 49.266 38.7595C49.1236 38.8182 48.971 38.8483 48.8168 38.8483H47.6429C47.376 39.7738 46.8139 40.5882 46.0412 41.1688C45.2685 41.7495 44.327 42.0652 43.3583 42.0683H39.8366V45.4283C39.8366 45.7377 39.713 46.0345 39.4928 46.2533C39.2727 46.4721 38.9741 46.595 38.6628 46.595C38.3514 46.595 38.0529 46.4721 37.8327 46.2533C37.6126 46.0345 37.4889 45.7377 37.4889 45.4283V38.8483H36.5263C36.215 38.8483 35.9164 38.7254 35.6963 38.5066C35.4761 38.2878 35.3524 37.9911 35.3524 37.6817C35.3524 37.3722 35.4761 37.0755 35.6963 36.8567C35.9164 36.6379 36.215 36.515 36.5263 36.515H37.4889V34.4617C37.4889 34.1522 37.6126 33.8555 37.8327 33.6367C38.0529 33.4179 38.3514 33.295 38.6628 33.295H43.3583C44.328 33.2943 45.2713 33.6085 46.0448 34.1898C46.8182 34.7711 47.3794 35.5875 47.6429 36.515H48.8168C48.971 36.515 49.1236 36.5452 49.266 36.6038C49.4085 36.6624 49.5379 36.7484 49.6469 36.8567C49.7559 36.965 49.8423 37.0937 49.9013 37.2352C49.9603 37.3767 49.9907 37.5285 49.9907 37.6817ZM39.8249 36.515H45.1074C44.9095 36.2406 44.6487 36.017 44.3466 35.8628C44.0445 35.7086 43.7097 35.6282 43.37 35.6283H39.8484L39.8249 36.515ZM45.1308 38.8483H39.8249V39.735H43.3465C43.6902 39.7388 44.0296 39.6602 44.3362 39.5059C44.6427 39.3515 44.9072 39.126 45.1074 38.8483H45.1308Z" fill="#92ACD9"/>
</svg>
