<svg width="57" height="50" viewBox="0 0 57 50" fill="none" xmlns="http://www.w3.org/2000/svg">
<path d="M21.7648 26.4782L23.9526 24.6489C24.2756 24.3866 24.5041 24.0258 24.6033 23.6216C24.7025 23.2174 24.6669 22.7918 24.5021 22.4096C24.3331 22.0294 24.0498 21.7114 23.6917 21.5C23.3335 21.2885 22.9184 21.1942 22.504 21.2301L19.5869 21.47L18.508 18.8709C18.3375 18.4925 18.0535 18.1767 17.6955 17.9671C17.3374 17.7575 16.9231 17.6646 16.5099 17.7013C16.1021 17.7389 15.7157 17.901 15.403 18.1656C15.0903 18.4302 14.8664 18.7846 14.7616 19.1808L14.1023 21.9198L11.1851 22.1597C10.7773 22.1973 10.3909 22.3594 10.0782 22.624C9.7655 22.8887 9.54162 23.243 9.43686 23.6392C9.33845 24.0433 9.37388 24.4685 9.53784 24.8507C9.70181 25.2329 9.98541 25.5515 10.346 25.7585L12.8136 27.2179L12.1642 29.937C12.0658 30.3411 12.1012 30.7663 12.2652 31.1485C12.4291 31.5307 12.7127 31.8493 13.0733 32.0562C13.3768 32.2324 13.7214 32.3255 14.0723 32.3261C14.5392 32.327 14.9916 32.1644 15.3511 31.8663L17.5589 30.007L20.0664 31.4864C20.4199 31.6917 20.8279 31.7835 21.2351 31.7496C21.6424 31.7156 22.0295 31.5575 22.3442 31.2965C22.6641 31.0319 22.8897 30.6706 22.9869 30.2669C23.0842 29.8631 23.048 29.4387 22.8837 29.0573L21.7648 26.4782ZM19.6369 26.5882L21.0754 29.757L17.9585 27.9277C17.7813 27.8258 17.577 27.7807 17.3734 27.7985C17.1697 27.8164 16.9764 27.8964 16.8196 28.0277L14.0923 30.4068L14.9215 27.008C14.973 26.7997 14.9562 26.5802 14.8734 26.3822C14.7906 26.1842 14.6464 26.018 14.4619 25.9084L11.5148 24.139L14.9714 23.8591C15.1819 23.8414 15.3814 23.7573 15.5411 23.619C15.7009 23.4807 15.8127 23.2953 15.8606 23.0894L16.6698 19.7306L18.0484 22.9195C18.1313 23.1114 18.2723 23.2726 18.4515 23.3802C18.6307 23.4878 18.8391 23.5364 19.0474 23.5193L22.504 23.2394L19.8966 25.4286C19.735 25.5686 19.6226 25.7568 19.5758 25.9656C19.5291 26.1743 19.5505 26.3925 19.6369 26.5882Z" fill="#F7A9A9"/>
<path d="M56.2808 15.0123C55.9109 14.4852 55.7376 13.8449 55.7913 13.203C55.8001 12.9989 55.837 12.7971 55.9012 12.6032C56.0232 12.384 56.0688 12.1304 56.0308 11.8825C55.9928 11.6345 55.8734 11.4062 55.6914 11.2337L52.2448 8.3347C52.0928 8.20664 51.9062 8.12682 51.7086 8.10546C51.5111 8.08409 51.3117 8.12214 51.1359 8.21475C50.5865 8.5018 49.9658 8.62341 49.3488 8.56486C48.7318 8.50632 48.145 8.27013 47.6593 7.88486C47.2112 7.50924 46.8934 7.00125 46.7516 6.43376C46.6098 5.86628 46.6513 5.26843 46.8701 4.72598C46.9494 4.53077 46.9651 4.31546 46.9149 4.11079C46.8647 3.90612 46.7511 3.72258 46.5903 3.58638L43.1337 0.647423C42.9818 0.519359 42.7951 0.439542 42.5976 0.418174C42.4 0.396807 42.2006 0.434858 42.0248 0.527465C41.5874 0.762411 41.1009 0.891158 40.6046 0.903313C40.1082 0.915468 39.616 0.810692 39.1676 0.597441C38.9739 0.505102 38.7557 0.477602 38.5452 0.51901C38.3347 0.560418 38.1431 0.668533 37.9988 0.827359L32.7439 6.59532C32.2523 6.29978 31.8594 5.8649 31.615 5.34576C31.5278 5.16022 31.4609 4.96584 31.4152 4.76597C31.4178 4.52462 31.3409 4.28914 31.1965 4.09584C31.0521 3.90254 30.8481 3.76216 30.616 3.69634L26.2003 2.6967C26.0046 2.65156 25.7998 2.66653 25.6126 2.73964C25.4255 2.81276 25.2648 2.94062 25.1514 3.10655C24.8015 3.59549 24.3157 3.97079 23.7545 4.18583C23.1932 4.40087 22.5812 4.44618 21.9945 4.31613C21.4188 4.18853 20.8956 3.88883 20.4941 3.45677C20.0927 3.02471 19.832 2.48072 19.7467 1.89698C19.7269 1.68813 19.642 1.49079 19.5039 1.33291C19.3659 1.17503 19.1817 1.06461 18.9774 1.01729L14.5618 0.0176458C14.3745 -0.0180414 14.1809 0.000645019 14.0038 0.0714984C13.8268 0.142352 13.6738 0.262413 13.5627 0.417504C13.2902 0.810631 12.9277 1.13281 12.5054 1.35715C12.083 1.58148 11.6132 1.70145 11.1351 1.70705C10.9055 1.70091 10.6809 1.77409 10.4989 1.91429C10.317 2.05448 10.1888 2.25313 10.1361 2.47678L0.525514 42.1727C0.474212 42.3955 0.500766 42.6291 0.600752 42.8347C0.700737 43.0402 0.868112 43.2053 1.07498 43.3023C1.4935 43.5083 1.85526 43.8137 2.12867 44.1919C2.40207 44.57 2.57881 45.0094 2.64344 45.4716C2.66906 45.6751 2.75661 45.8657 2.89422 46.0177C3.03183 46.1697 3.21284 46.2757 3.41268 46.3213L7.81836 47.3209C8.00663 47.3555 8.20087 47.3353 8.37797 47.2627C8.55508 47.19 8.7076 47.068 8.81738 46.9111C9.16815 46.4231 9.65399 46.0486 10.215 45.8336C10.7759 45.6187 11.3875 45.5728 11.9743 45.7015C12.5505 45.8278 13.0745 46.1271 13.4762 46.5594C13.8779 46.9917 14.1381 47.5364 14.2221 48.1206C14.2484 48.3255 14.3374 48.5171 14.4769 48.6693C14.6164 48.8214 14.7996 48.9266 15.0013 48.9703L19.5069 50H19.7267C19.8894 50.0013 20.05 49.9629 20.1946 49.888C20.3391 49.813 20.4631 49.7039 20.5559 49.5701C20.8274 49.1784 21.1884 48.857 21.6088 48.6327C22.0293 48.4085 22.4971 48.2878 22.9735 48.2806C23.1556 48.2754 23.3329 48.2206 23.4861 48.1219C23.6392 48.0232 23.7626 47.8845 23.8426 47.7208C24.2801 47.5085 24.76 47.3982 25.2463 47.3982C25.7325 47.3982 26.2124 47.5085 26.6499 47.7208C26.8436 47.8131 27.0618 47.8406 27.2723 47.7992C27.4828 47.7578 27.6744 47.6497 27.8188 47.4909L47.2897 26.1084L56.2808 16.2619C56.4227 16.0846 56.5 15.8642 56.5 15.6371C56.5 15.41 56.4227 15.1896 56.2808 15.0123ZM19.3171 47.9307L16.1302 47.201C15.8886 46.3561 15.426 45.5911 14.7903 44.9849C14.1546 44.3786 13.3687 43.9531 12.5138 43.7522C11.6534 43.5589 10.7575 43.5937 9.91471 43.8532C9.07192 44.1127 8.31143 44.5878 7.70847 45.2317L4.5216 44.5119C4.22771 43.475 3.59003 42.569 2.71337 41.9428L11.9143 3.66636C12.9971 3.47733 13.9873 2.93622 14.7316 2.1269L17.9085 2.85664C18.1642 3.69484 18.6358 4.45102 19.2758 5.04932C19.9158 5.64762 20.7018 6.06701 21.5549 6.26544C22.4168 6.45853 23.3141 6.42365 24.1585 6.16423C25.0028 5.90481 25.7651 5.42979 26.3702 4.78596L29.5471 5.5057C29.6144 5.7392 29.7013 5.96659 29.8068 6.18546C30.1529 6.93743 30.6861 7.58796 31.3553 8.0748L28.4981 19.8806C28.4082 20.2605 28.3582 20.4604 28.3382 20.5804L27.1994 25.2687H27.2893C27.0195 26.0085 26.6699 27.428 26.0005 30.197L24.8117 35.1952C23.7527 39.5537 23.443 40.8332 23.3531 41.1931L22.1044 46.3513C21.0237 46.538 20.0359 47.0797 19.2971 47.8907L19.3171 47.9307ZM35.4912 23.7193L38.738 25.0088L35.2515 25.7985C35.0469 25.8434 34.8615 25.9516 34.7217 26.1076C34.5819 26.2637 34.4946 26.4598 34.4722 26.6682L34.1126 30.227L32.2444 27.208C32.1346 27.0292 31.9712 26.8895 31.7775 26.8087C31.5839 26.728 31.3697 26.7103 31.1655 26.7582L28.7678 27.298C28.9876 26.3783 29.1375 25.7585 29.1474 25.7385L30.1465 21.55L31.675 22.1698C31.8633 22.2459 32.0703 22.2627 32.2684 22.2181C32.4665 22.1734 32.6463 22.0694 32.7839 21.9199L35.2415 19.1309L34.8818 22.6996C34.8611 22.9125 34.909 23.1263 35.0187 23.3099C35.1284 23.4934 35.294 23.6369 35.4912 23.7193ZM45.2517 25.2587L41.9049 29.0074C41.4154 29.4672 40.4663 30.5069 38.3185 32.866C36.1706 35.2252 35.1915 36.2948 34.8019 36.8046L26.7498 45.6015C25.9793 45.367 25.1636 45.3225 24.3721 45.4716L26.7498 35.645C26.7498 35.645 27.569 32.2562 28.2383 29.4672L30.9157 28.8574L32.4142 31.3066C32.5945 31.5914 32.8438 31.826 33.139 31.9886C33.4342 32.1511 33.7657 32.2363 34.1026 32.2362C34.2518 32.2558 34.4029 32.2558 34.5521 32.2362C34.9566 32.1457 35.3229 31.9316 35.6003 31.6236C35.8778 31.3155 36.0526 30.9288 36.1006 30.5169L36.3903 27.6679L39.3175 27.0081C39.7234 26.917 40.0907 26.7014 40.3683 26.3914C40.6459 26.0814 40.8199 25.6924 40.866 25.2787C40.9108 24.859 40.8168 24.4362 40.5984 24.0751C40.3801 23.714 40.0494 23.4345 39.6571 23.2794L36.9498 22.1798L37.2395 19.3708C37.2843 18.9511 37.1903 18.5283 36.972 18.1672C36.7537 17.8061 36.423 17.5266 36.0307 17.3715C35.6493 17.2138 35.2284 17.1781 34.8259 17.2694C34.4234 17.3607 34.0591 17.5745 33.7829 17.8813L31.7849 20.0805L30.626 19.6107L33.1635 9.11443L39.0078 2.6967C40.0943 3.02932 41.26 2.99419 42.3245 2.59673L44.7921 4.676C44.5995 5.52957 44.6459 6.41974 44.9262 7.24864C45.2064 8.07754 45.7096 8.81306 46.3806 9.37434C47.0749 9.94663 47.9074 10.3263 48.7945 10.4755C49.6817 10.6246 50.5924 10.5379 51.4356 10.224L53.9032 12.3033C53.8512 12.5372 53.8145 12.7743 53.7933 13.013C53.7348 13.8381 53.8897 14.6644 54.2428 15.4122L45.2517 25.2587Z" fill="#F7A9A9"/>
</svg>
