<svg width="32" height="57" viewBox="0 0 32 57" fill="none" xmlns="http://www.w3.org/2000/svg">
<path d="M29.2 0.5H2.82927C2.0789 0.5 1.35926 0.805535 0.828673 1.34939C0.298083 1.89325 0 2.63087 0 3.4L0 53.6C0 54.3691 0.298083 55.1068 0.828673 55.6506C1.35926 56.1945 2.0789 56.5 2.82927 56.5H29.1707C29.9211 56.5 30.6407 56.1945 31.1713 55.6506C31.7019 55.1068 32 54.3691 32 53.6V3.4C32 2.63604 31.706 1.90293 31.1817 1.35992C30.6574 0.816923 29.9453 0.507903 29.2 0.5V0.5ZM2.82927 2.43H29.1707C29.4295 2.43 29.6776 2.53536 29.8606 2.72289C30.0436 2.91043 30.1463 3.16478 30.1463 3.43V7.98H1.85366V3.4C1.86127 3.14002 1.96741 2.8933 2.14955 2.71221C2.3317 2.53111 2.57551 2.42988 2.82927 2.43ZM30.1463 9.91V43.22H1.85366V9.91H30.1463ZM29.1707 54.57H2.82927C2.57052 54.57 2.32237 54.4646 2.13941 54.2771C1.95645 54.0896 1.85366 53.8352 1.85366 53.57V45.15H30.1463V53.6C30.139 53.8549 30.0369 54.0972 29.861 54.2775C29.6851 54.4578 29.4487 54.5625 29.2 54.57H29.1707ZM16.0098 46.5C15.373 46.5 14.7505 46.6935 14.2211 47.0561C13.6916 47.4188 13.279 47.9341 13.0353 48.5371C12.7916 49.1401 12.7279 49.8037 12.8521 50.4438C12.9763 51.0839 13.283 51.6719 13.7332 52.1335C14.1835 52.595 14.7571 52.9093 15.3817 53.0366C16.0062 53.1639 16.6535 53.0986 17.2418 52.8488C17.8301 52.599 18.3329 52.1761 18.6867 51.6334C19.0404 51.0907 19.2293 50.4527 19.2293 49.8C19.2293 48.9248 18.8901 48.0854 18.2863 47.4665C17.6825 46.8477 16.8636 46.5 16.0098 46.5ZM16.0098 51.16C15.745 51.16 15.4862 51.0794 15.2662 50.9284C15.0462 50.7774 14.8749 50.5629 14.774 50.3119C14.6731 50.061 14.6472 49.785 14.6996 49.519C14.752 49.253 14.8802 49.0089 15.0682 48.8177C15.2561 48.6265 15.4951 48.4968 15.755 48.4451C16.0149 48.3934 16.284 48.4219 16.528 48.5272C16.7721 48.6324 16.9802 48.8096 17.1258 49.0362C17.2715 49.2628 17.3483 49.5286 17.3463 49.8C17.3489 49.9811 17.3162 50.1609 17.2501 50.3289C17.184 50.4969 17.0858 50.6497 16.9613 50.7782C16.8368 50.9067 16.6885 51.0085 16.5251 51.0775C16.3617 51.1465 16.1865 51.1814 16.0098 51.18V51.16ZM9.54146 25.25H11.1024V33.81C11.0631 33.9583 11.0577 34.1139 11.0865 34.2647C11.1154 34.4155 11.1778 34.5575 11.2688 34.6796C11.3599 34.8017 11.4772 34.9006 11.6116 34.9687C11.746 35.0368 11.894 35.0723 12.0439 35.0723C12.1938 35.0723 12.3418 35.0368 12.4762 34.9687C12.6106 34.9006 12.7279 34.8017 12.819 34.6796C12.91 34.5575 12.9724 34.4155 13.0013 34.2647C13.0301 34.1139 13.0247 33.9583 12.9854 33.81V29.21H17.561C18.6772 29.2073 19.7578 28.8068 20.6176 28.077C21.4773 27.3472 22.0626 26.3336 22.2732 25.21H23.922C24.0666 25.2503 24.2185 25.2559 24.3656 25.2263C24.5127 25.1967 24.6512 25.1328 24.7703 25.0394C24.8895 24.9461 24.986 24.8259 25.0524 24.6881C25.1189 24.5503 25.1534 24.3987 25.1534 24.245C25.1534 24.0913 25.1189 23.9397 25.0524 23.8019C24.986 23.6641 24.8895 23.5439 24.7703 23.4506C24.6512 23.3572 24.5127 23.2933 24.3656 23.2637C24.2185 23.2341 24.0666 23.2397 23.922 23.28H22.3122C22.1016 22.1564 21.5163 21.1428 20.6566 20.413C19.7969 19.6832 18.7163 19.2827 17.6 19.28H12.039C11.7803 19.28 11.5321 19.3854 11.3492 19.5729C11.1662 19.7604 11.0634 20.0148 11.0634 20.28V23.28H9.54146C9.33479 23.3376 9.15234 23.4633 9.02226 23.6376C8.89218 23.812 8.82171 24.0255 8.82171 24.245C8.82171 24.4645 8.89218 24.678 9.02226 24.8524C9.15234 25.0267 9.33479 25.1524 9.54146 25.21V25.25ZM17.6 27.25H12.9854V25.25H20.3512C20.151 25.8438 19.774 26.3581 19.2734 26.7205C18.7728 27.0829 18.1738 27.2751 17.561 27.27L17.6 27.25ZM12.9854 21.25H17.561C18.1648 21.2517 18.7534 21.4449 19.2459 21.8029C19.7385 22.161 20.1109 22.6665 20.3122 23.25H12.9854V21.25Z" fill="#EED3AA"/>
</svg>
