<svg width="57" height="57" viewBox="0 0 57 57" fill="none" xmlns="http://www.w3.org/2000/svg">
<path d="M56.1477 47.8234L47.1527 38.8199L54.5727 34.3239C54.7569 34.2099 54.9057 34.0469 55.0026 33.853C55.0994 33.6591 55.1404 33.4421 55.1211 33.2262C55.1025 33.0119 55.0251 32.8069 54.8974 32.6338C54.7698 32.4607 54.5969 32.3262 54.3977 32.2453L19.7361 18.0335C19.5236 17.944 19.2894 17.9196 19.0631 17.9633C18.8368 18.0069 18.6285 18.1167 18.4644 18.2787C18.3006 18.4416 18.1887 18.6495 18.143 18.8761C18.0973 19.1027 18.1198 19.3378 18.2077 19.5516L32.3011 54.4097C32.3817 54.6103 32.5164 54.7847 32.6903 54.9132C32.8641 55.0417 33.0702 55.1194 33.2855 55.1375C33.5008 55.1557 33.717 55.1137 33.9098 55.0161C34.1027 54.9185 34.2647 54.7692 34.3777 54.5848L38.8927 47.1695L47.8294 56.1613C47.9384 56.2696 48.0677 56.3552 48.2098 56.4133C48.352 56.4714 48.5042 56.5009 48.6577 56.5C48.9666 56.4957 49.2625 56.3747 49.4861 56.1613L56.1477 49.505C56.2606 49.3961 56.3505 49.2655 56.4118 49.121C56.4731 48.9765 56.5048 48.8212 56.5048 48.6642C56.5048 48.5072 56.4731 48.3519 56.4118 48.2074C56.3505 48.063 56.2606 47.9324 56.1477 47.8234ZM48.6577 53.6623L39.4994 44.4485C39.3904 44.3403 39.2611 44.2547 39.119 44.1966C38.9768 44.1385 38.8246 44.109 38.6711 44.1099H38.5311C38.3539 44.131 38.184 44.1926 38.0343 44.2897C37.8847 44.3869 37.7592 44.5171 37.6677 44.6704L33.5844 51.3618L21.4161 21.2332L51.3877 33.4831L44.7144 37.6054C44.5649 37.6971 44.4379 37.8214 44.343 37.9689C44.2481 38.1165 44.1876 38.2837 44.1661 38.4579C44.1468 38.6327 44.1672 38.8096 44.2258 38.9754C44.2844 39.1412 44.3796 39.2916 44.5044 39.4154L53.6744 48.6409L48.6577 53.6623ZM9.8194 3.54139C9.74426 3.40442 9.69734 3.25375 9.68143 3.0983C9.66552 2.94285 9.68094 2.78579 9.72678 2.63641C9.77262 2.48704 9.84794 2.34839 9.94828 2.22869C10.0486 2.10898 10.172 2.01065 10.311 1.93952C10.45 1.86839 10.6018 1.82591 10.7575 1.81459C10.9132 1.80327 11.0696 1.82334 11.2174 1.87362C11.3652 1.9239 11.5015 2.00336 11.618 2.1073C11.7346 2.21124 11.8291 2.33754 11.8961 2.47871L15.9561 10.478C16.0944 10.7538 16.1181 11.0732 16.0219 11.3664C15.9258 11.6596 15.7175 11.9028 15.4427 12.0428C15.2817 12.1302 15.1009 12.1745 14.9177 12.1712C14.7023 12.1706 14.4912 12.1102 14.308 11.9969C14.1247 11.8835 13.9763 11.7216 13.8794 11.529L9.8194 3.54139ZM21.3344 9.80066L24.0877 1.26423C24.192 0.980694 24.4021 0.748667 24.6737 0.616899C24.9454 0.485131 25.2575 0.463881 25.5444 0.557612C25.8314 0.651344 26.0709 0.852761 26.2126 1.11954C26.3543 1.38632 26.3872 1.6977 26.3044 1.98825L23.5511 10.5247C23.4748 10.7588 23.3265 10.9628 23.1275 11.1075C22.9284 11.2522 22.6888 11.3303 22.4427 11.3304C22.3228 11.3475 22.201 11.3475 22.0811 11.3304C21.9288 11.2834 21.7877 11.2056 21.6666 11.1018C21.5456 10.9981 21.447 10.8706 21.377 10.7273C21.3071 10.5839 21.2672 10.4278 21.2599 10.2684C21.2525 10.109 21.2779 9.94984 21.3344 9.80066ZM27.6111 14.6703C27.5403 14.5339 27.4971 14.3848 27.4841 14.2316C27.471 14.0785 27.4882 13.9242 27.5349 13.7778C27.5815 13.6313 27.6565 13.4955 27.7557 13.3781C27.8548 13.2607 27.9762 13.1641 28.1127 13.0938L36.0694 9.00657C36.3435 8.87638 36.6576 8.85822 36.9449 8.95595C37.2322 9.05368 37.4702 9.25961 37.6083 9.53005C37.7464 9.80049 37.7738 10.1142 37.6847 10.4045C37.5956 10.6948 37.397 10.939 37.1311 11.0852L29.1744 15.1724C29.0119 15.2558 28.832 15.2998 28.6494 15.3009C28.4364 15.3024 28.227 15.2456 28.0439 15.1365C27.8609 15.0274 27.7112 14.8702 27.6111 14.682V14.6703ZM0.544399 13.304C0.640504 13.0099 0.849293 12.766 1.12491 12.6259C1.40053 12.4857 1.72045 12.4608 2.0144 12.5566L10.5077 15.3242C10.8172 15.3722 11.0948 15.5413 11.2797 15.7943C11.4646 16.0472 11.5415 16.3633 11.4936 16.673C11.4456 16.9827 11.2767 17.2607 11.024 17.4457C10.7713 17.6308 10.4555 17.7078 10.1461 17.6598C10.0301 17.6209 9.9201 17.5658 9.8194 17.4963L1.29107 14.7287C1.00787 14.6323 0.772485 14.4307 0.63353 14.1656C0.494575 13.9004 0.462667 13.592 0.544399 13.304ZM16.1544 29.6528L11.3477 37.2083C11.2413 37.3745 11.0945 37.5109 10.921 37.6048C10.7476 37.6987 10.5532 37.7472 10.3561 37.7455C10.1468 37.7452 9.94149 37.6885 9.76163 37.5814C9.58177 37.4743 9.434 37.3208 9.33379 37.1369C9.23359 36.953 9.18464 36.7456 9.19208 36.5362C9.19951 36.3269 9.26306 36.1234 9.37607 35.9471L14.1827 28.3916C14.2655 28.2621 14.3729 28.15 14.4989 28.062C14.6248 27.974 14.7669 27.9117 14.917 27.8786C15.067 27.8455 15.2221 27.8423 15.3733 27.8693C15.5246 27.8962 15.6691 27.9527 15.7986 28.0355C15.928 28.1183 16.0399 28.2258 16.1279 28.3519C16.2158 28.478 16.2781 28.6202 16.3111 28.7704C16.3442 28.9206 16.3473 29.0758 16.3204 29.2272C16.2936 29.3786 16.2371 29.5233 16.1544 29.6528ZM10.4494 24.4562L2.5044 28.4851C2.33835 28.5702 2.15431 28.6143 1.96773 28.6135C1.70549 28.6146 1.45054 28.5272 1.24402 28.3654C1.03749 28.2036 0.891441 27.977 0.829426 27.7219C0.76741 27.4669 0.793049 27.1983 0.902205 26.9597C1.01136 26.721 1.19767 26.5261 1.43107 26.4064L9.38773 22.3309C9.52793 22.2579 9.68148 22.2143 9.83905 22.2025C9.99663 22.1907 10.1549 22.2111 10.3044 22.2625C10.4539 22.3138 10.5914 22.395 10.7085 22.5011C10.8257 22.6072 10.9201 22.736 10.9861 22.8797C11.0556 23.0183 11.0969 23.1693 11.1075 23.3239C11.1181 23.4786 11.0978 23.6338 11.0479 23.7806C10.9979 23.9273 10.9193 24.0626 10.8165 24.1787C10.7138 24.2947 10.589 24.389 10.4494 24.4562Z" fill="#88BEE6"/>
</svg>
