<svg width="16" height="16" viewBox="0 0 16 16" fill="none" xmlns="http://www.w3.org/2000/svg">
<path d="M8 16C9.58225 16 11.129 15.5308 12.4446 14.6518C13.7602 13.7727 14.7855 12.5233 15.391 11.0615C15.9965 9.59966 16.155 7.99113 15.8463 6.43928C15.5376 4.88743 14.7757 3.46197 13.6569 2.34315C12.538 1.22433 11.1126 0.462401 9.56072 0.15372C8.00887 -0.154961 6.40034 0.0034647 4.93853 0.608966C3.47672 1.21447 2.22729 2.23985 1.34824 3.55544C0.469192 4.87103 0 6.41775 0 8C0 10.1217 0.842854 12.1566 2.34314 13.6569C3.84344 15.1571 5.87827 16 8 16V16ZM8 1.32445C9.3203 1.32445 10.6109 1.71596 11.7087 2.44948C12.8065 3.183 13.6621 4.22558 14.1674 5.44538C14.6727 6.66518 14.8049 8.00741 14.5473 9.30234C14.2897 10.5973 13.6539 11.7867 12.7203 12.7203C11.7867 13.6539 10.5973 14.2897 9.30233 14.5473C8.0074 14.8049 6.66517 14.6727 5.44537 14.1674C4.22558 13.6622 3.183 12.8065 2.44948 11.7087C1.71596 10.611 1.32444 9.3203 1.32444 8C1.3268 6.23026 2.03087 4.53367 3.28227 3.28227C4.53367 2.03087 6.23025 1.3268 8 1.32445ZM8 6.16C7.81919 6.16231 7.64643 6.23516 7.51857 6.36302C7.39071 6.49088 7.31786 6.66364 7.31555 6.84445L7.31555 12.3556C7.31786 12.5364 7.39071 12.7091 7.51857 12.837C7.64643 12.9648 7.81919 13.0377 8 13.04C8.17464 13.0401 8.34255 12.9726 8.4685 12.8517C8.59445 12.7307 8.66866 12.5656 8.67555 12.3911V6.84445C8.67557 6.66445 8.60468 6.49169 8.47824 6.36359C8.3518 6.23548 8.17998 6.16234 8 6.16ZM8 2.99556C7.82002 2.9979 7.6482 3.07104 7.52176 3.19914C7.39532 3.32725 7.32443 3.50001 7.32444 3.68V4.32C7.32327 4.40946 7.33987 4.49827 7.37329 4.58126C7.40672 4.66425 7.45629 4.73977 7.51914 4.80345C7.58199 4.86712 7.65686 4.91768 7.7394 4.95219C7.82195 4.98669 7.91053 5.00445 8 5.00445C8.17942 4.99784 8.34969 4.9236 8.47665 4.79665C8.6036 4.6697 8.67783 4.49942 8.68444 4.32V3.68C8.68214 3.49919 8.60929 3.32644 8.48143 3.19857C8.35356 3.07071 8.18081 2.99786 8 2.99556Z" fill="#161720"/>
</svg>
