<svg width="25" height="24" viewBox="0 0 25 24" fill="none" xmlns="http://www.w3.org/2000/svg">
<path d="M12.0092 21.9992C11.7553 22.0073 11.5032 21.9532 11.2749 21.8418C11.0466 21.7303 10.849 21.5648 10.6992 21.3596C10.0392 20.4535 9.18924 19.2909 8.14924 17.8717C6.84924 16.0928 6.00924 14.9335 5.60924 14.3239C5.09671 13.605 4.6736 12.8264 4.34924 12.0053C4.11143 11.2525 3.99662 10.4662 4.00924 9.67677C4.0048 8.31299 4.38612 6.97572 5.10924 5.81914C5.84122 4.65031 6.85848 3.68661 8.06545 3.01855C9.27243 2.35049 10.6295 2 12.0092 2C13.389 2 14.746 2.35049 15.953 3.01855C17.16 3.68661 18.1773 4.65031 18.9092 5.81914C19.6324 6.97572 20.0137 8.31299 20.0092 9.67677C20.0219 10.4662 19.9071 11.2525 19.6692 12.0053C19.3478 12.8403 18.9246 13.6325 18.4092 14.3639C17.9992 14.9735 17.1692 16.1328 15.8792 17.9117L13.3192 21.3596C13.1695 21.5648 12.9719 21.7303 12.7436 21.8418C12.5153 21.9532 12.2632 22.0073 12.0092 21.9992ZM9.24924 17.0023C10.2892 18.4147 11.1392 19.5807 11.7992 20.5001C11.7992 20.5001 11.8592 20.5701 12.0092 20.5701C12.1592 20.5701 12.1992 20.5701 12.2192 20.4901L14.7692 17.0023C16.0592 15.2434 16.8692 14.1041 17.2692 13.5044C17.7182 12.8868 18.0878 12.2153 18.3692 11.5056C18.5601 10.9152 18.6513 10.2971 18.6392 9.67677C18.6486 8.57666 18.3395 7.49731 17.7492 6.56868C17.1561 5.60277 16.3223 4.8073 15.3292 4.2601C14.3127 3.69929 13.1704 3.40514 12.0092 3.40514C10.8481 3.40514 9.70582 3.69929 8.68924 4.2601C7.69621 4.8073 6.86234 5.60277 6.26924 6.56868C5.67899 7.49731 5.36992 8.57666 5.37924 9.67677C5.36717 10.2971 5.45842 10.9152 5.64924 11.5056C5.9307 12.2153 6.30026 12.8868 6.74924 13.5044C7.14924 14.134 8.00924 15.2733 9.24924 17.0023ZM12.0092 14.0941C11.2117 14.1159 10.4258 13.8989 9.75259 13.471C9.07939 13.043 8.54964 12.4236 8.23143 11.6924C7.91322 10.9611 7.82109 10.1515 7.96687 9.36759C8.11266 8.58364 8.4897 7.86117 9.04954 7.29304C9.60938 6.72491 10.3264 6.33709 11.1085 6.17941C11.8907 6.02173 12.7021 6.10141 13.4385 6.4082C14.175 6.71498 14.8028 7.23487 15.2413 7.90102C15.6798 8.56718 15.9089 9.34917 15.8992 10.1465C15.9046 11.1847 15.4984 12.1828 14.7694 12.9226C14.0404 13.6623 13.0481 14.0835 12.0092 14.0941ZM12.0092 7.58805C11.5009 7.57813 11.0011 7.7197 10.5736 7.99473C10.1461 8.26975 9.81021 8.66576 9.60876 9.1323C9.40731 9.59883 9.34943 10.1147 9.44249 10.6143C9.53554 11.1138 9.77533 11.5743 10.1313 11.9372C10.4872 12.3 10.9432 12.5486 11.4411 12.6515C11.939 12.7543 12.4563 12.7067 12.927 12.5146C13.3977 12.3225 13.8005 11.9947 14.0841 11.5729C14.3677 11.1512 14.5191 10.6546 14.5192 10.1465C14.5246 9.47496 14.2634 8.82868 13.793 8.34916C13.3226 7.86964 12.6812 7.59596 12.0092 7.58805Z" fill="#FF4E4E"/>
</svg>
