<svg width="70" height="70" viewBox="0 0 70 70" fill="none" xmlns="http://www.w3.org/2000/svg">
<g filter="url(#filter0_d)">
<circle cx="35" cy="30" r="28" fill="white"/>
<circle cx="35" cy="30" r="27.5" stroke="#E0E0E0"/>
</g>
<path d="M45.1862 28.7642H27.9146L30.3202 26.5134C30.5149 26.3229 30.6412 26.0523 30.6738 25.7561C30.7064 25.4599 30.6428 25.1601 30.4958 24.9171C30.4202 24.7859 30.323 24.674 30.21 24.5881C30.097 24.5023 29.9705 24.4442 29.838 24.4174C29.7055 24.3906 29.5699 24.3955 29.4391 24.432C29.3083 24.4685 29.1851 24.5358 29.0768 24.6298L24.2926 29.0196C24.2321 29.064 24.1735 29.112 24.117 29.1633C24.0177 29.2606 23.9378 29.3826 23.883 29.5206C23.8282 29.6585 23.7998 29.809 23.7998 29.9614C23.7998 30.1138 23.8282 30.2643 23.883 30.4023C23.9378 30.5402 24.0177 30.6622 24.117 30.7596C24.1721 30.8327 24.2307 30.902 24.2926 30.9671L29.0768 35.293C29.1802 35.403 29.3017 35.4866 29.4337 35.5387C29.5656 35.5908 29.7052 35.6102 29.8438 35.5958C29.9824 35.5813 30.117 35.5334 30.2392 35.4548C30.3615 35.3763 30.4687 35.2689 30.5542 35.1393C30.6398 35.0097 30.7018 34.8607 30.7365 34.7015C30.7712 34.5424 30.7777 34.3765 30.7558 34.2142C30.7338 34.0519 30.6838 33.8967 30.6089 33.7583C30.5339 33.6198 30.4356 33.5011 30.3202 33.4094L27.9146 31.1586H45.1862C45.455 31.1586 45.7128 31.0325 45.9029 30.808C46.093 30.5835 46.1998 30.2789 46.1998 29.9614C46.1998 29.6439 46.093 29.3394 45.9029 29.1148C45.7128 28.8903 45.455 28.7642 45.1862 28.7642Z" fill="#161720"/>
<defs>
<filter id="filter0_d" x="0" y="0" width="70" height="70" filterUnits="userSpaceOnUse" color-interpolation-filters="sRGB">
<feFlood flood-opacity="0" result="BackgroundImageFix"/>
<feColorMatrix in="SourceAlpha" type="matrix" values="0 0 0 0 0 0 0 0 0 0 0 0 0 0 0 0 0 0 127 0"/>
<feOffset dy="5"/>
<feGaussianBlur stdDeviation="3.5"/>
<feColorMatrix type="matrix" values="0 0 0 0 0.906424 0 0 0 0 0.919401 0 0 0 0 0.958333 0 0 0 0.35 0"/>
<feBlend mode="multiply" in2="BackgroundImageFix" result="effect1_dropShadow"/>
<feBlend mode="normal" in="SourceGraphic" in2="effect1_dropShadow" result="shape"/>
</filter>
</defs>
</svg>
