<svg width="70" height="70" viewBox="0 0 70 70" fill="none" xmlns="http://www.w3.org/2000/svg">
<g filter="url(#filter0_d)">
<circle cx="35" cy="30" r="28" fill="white"/>
<circle cx="35" cy="30" r="27.5" stroke="#E0E0E0"/>
</g>
<path d="M24.8138 31.2363L42.0854 31.2363L39.6798 33.4871C39.4851 33.6776 39.3588 33.9482 39.3262 34.2444C39.2936 34.5406 39.3572 34.8404 39.5042 35.0834C39.5798 35.2146 39.677 35.3265 39.79 35.4124C39.903 35.4982 40.0295 35.5563 40.162 35.5831C40.2945 35.6099 40.4301 35.6049 40.5609 35.5685C40.6917 35.532 40.8149 35.4647 40.9232 35.3707L45.7074 30.9809C45.7679 30.9365 45.8265 30.8885 45.883 30.8372C45.9823 30.7399 46.0622 30.6179 46.117 30.4799C46.1718 30.342 46.2002 30.1915 46.2002 30.0391C46.2002 29.8867 46.1718 29.7362 46.117 29.5982C46.0622 29.4603 45.9823 29.3383 45.883 29.2409C45.8279 29.1678 45.7693 29.0985 45.7074 29.0334L40.9232 24.7074C40.8198 24.5975 40.6983 24.5139 40.5663 24.4618C40.4344 24.4097 40.2948 24.3903 40.1562 24.4047C40.0176 24.4191 39.883 24.4671 39.7608 24.5456C39.6385 24.6242 39.5313 24.7316 39.4458 24.8612C39.3602 24.9908 39.2982 25.1398 39.2635 25.299C39.2288 25.4581 39.2223 25.624 39.2442 25.7863C39.2662 25.9486 39.3162 26.1038 39.3911 26.2422C39.4661 26.3807 39.5644 26.4994 39.6798 26.5911L42.0854 28.8419L24.8138 28.8419C24.545 28.8419 24.2872 28.968 24.0971 29.1925C23.907 29.417 23.8002 29.7216 23.8002 30.0391C23.8002 30.3566 23.907 30.6611 24.0971 30.8856C24.2872 31.1102 24.545 31.2363 24.8138 31.2363Z" fill="#161720"/>
<defs>
<filter id="filter0_d" x="0" y="0" width="70" height="70" filterUnits="userSpaceOnUse" color-interpolation-filters="sRGB">
<feFlood flood-opacity="0" result="BackgroundImageFix"/>
<feColorMatrix in="SourceAlpha" type="matrix" values="0 0 0 0 0 0 0 0 0 0 0 0 0 0 0 0 0 0 127 0"/>
<feOffset dy="5"/>
<feGaussianBlur stdDeviation="3.5"/>
<feColorMatrix type="matrix" values="0 0 0 0 0.906424 0 0 0 0 0.919401 0 0 0 0 0.958333 0 0 0 0.35 0"/>
<feBlend mode="multiply" in2="BackgroundImageFix" result="effect1_dropShadow"/>
<feBlend mode="normal" in="SourceGraphic" in2="effect1_dropShadow" result="shape"/>
</filter>
</defs>
</svg>
