<svg width="24" height="24" viewBox="0 0 24 24" fill="none" xmlns="http://www.w3.org/2000/svg">
<path d="M19.44 4.00008H4.56C4.22644 3.99745 3.89563 4.06054 3.58645 4.18576C3.27727 4.31097 2.99579 4.49586 2.75807 4.72987C2.52035 4.96387 2.33105 5.24241 2.20098 5.54958C2.07091 5.85675 2.00262 6.18652 2 6.52008V17.5201C2.01573 18.1868 2.29301 18.8205 2.77197 19.2845C3.25094 19.7485 3.89316 20.0055 4.56 20.0001H19.44C19.7736 20.0027 20.1044 19.9396 20.4136 19.8144C20.7227 19.6892 21.0042 19.5043 21.2419 19.2703C21.4797 19.0363 21.669 18.7578 21.799 18.4506C21.9291 18.1434 21.9974 17.8136 22 17.4801V6.48008C21.9843 5.81341 21.707 5.17967 21.228 4.71567C20.7491 4.25167 20.1068 3.99465 19.44 4.00008ZM4.56 5.37008H19.44C19.7459 5.37007 20.0395 5.49091 20.2567 5.7063C20.474 5.92168 20.5974 6.21417 20.6 6.52008V6.66008H20.51L12 12.2501L3.44 6.30008C3.49248 6.04051 3.6322 5.8067 3.83595 5.63752C4.0397 5.46834 4.2952 5.37396 4.56 5.37008ZM19.44 18.6301H4.56C4.25407 18.6301 3.96053 18.5093 3.74327 18.2939C3.52601 18.0785 3.40264 17.786 3.4 17.4801V8.00008L11.6 13.6401C11.7156 13.7259 11.8561 13.7715 12 13.7701C12.1389 13.7691 12.2745 13.7274 12.39 13.6501L20.6 8.28008V17.4801C20.5974 17.786 20.474 18.0785 20.2567 18.2939C20.0395 18.5093 19.7459 18.6301 19.44 18.6301Z" fill="#161720"/>
</svg>
