<svg width="64" height="64" viewBox="0 0 64 64" fill="none" xmlns="http://www.w3.org/2000/svg">
<path d="M27.7186 18.5741C26.3673 18.5797 25.0535 19.0304 23.971 19.8599C22.8885 20.6894 22.0947 21.8537 21.7066 23.1811C21.6575 23.3536 21.6773 23.539 21.7616 23.6966C21.8458 23.8541 21.9876 23.9709 22.1559 24.0212C22.3241 24.0715 22.5049 24.0512 22.6585 23.9648C22.8121 23.8784 22.926 23.733 22.9751 23.5604C23.2394 22.6618 23.7419 21.8561 24.4265 21.2332C25.1112 20.6102 25.9511 20.1946 26.8526 20.0324C27.7541 19.8703 28.6819 19.9681 29.5324 20.3149C30.3829 20.6618 31.1227 21.2441 31.6695 21.9968C32.2162 22.7496 32.5484 23.6432 32.6288 24.5782C32.7093 25.5132 32.535 26.4527 32.1254 27.2921C31.7157 28.1314 31.0867 28.8376 30.3087 29.3318C29.5306 29.8261 28.6339 30.0891 27.7186 30.0914C27.5434 30.0914 27.3753 30.1628 27.2514 30.2899C27.1275 30.417 27.0579 30.5893 27.0579 30.7689V34.2919C27.0579 34.4715 27.1275 34.6439 27.2514 34.7709C27.3753 34.898 27.5434 34.9694 27.7186 34.9694C27.8938 34.9694 28.0619 34.898 28.1858 34.7709C28.3096 34.6439 28.3793 34.4715 28.3793 34.2919V31.3719C29.9778 31.2029 31.4518 30.4103 32.4964 29.1581C33.5411 27.9058 34.0763 26.2897 33.9914 24.644C33.9066 22.9983 33.2081 21.4492 32.0405 20.3168C30.8729 19.1845 29.3256 18.5557 27.7186 18.5606V18.5741Z" fill="#0067B3"/>
<path d="M27.7451 38.0655C27.5736 38.0655 27.406 38.1178 27.2636 38.2156C27.1211 38.3134 27.0102 38.4524 26.9449 38.615C26.8796 38.7775 26.8628 38.9563 26.8968 39.1287C26.9307 39.301 27.0138 39.4592 27.1355 39.583C27.2572 39.7069 27.412 39.7908 27.5803 39.8243C27.7486 39.8578 27.9229 39.8393 28.0809 39.771C28.2389 39.7028 28.3736 39.588 28.4679 39.4411C28.5622 39.2943 28.6118 39.1221 28.6105 38.9463C28.6105 38.9003 28.607 38.8545 28.6001 38.8092C28.5895 38.7402 28.5709 38.6725 28.5445 38.6076C28.501 38.5003 28.4371 38.4029 28.3567 38.321C28.2762 38.2392 28.1807 38.1745 28.0758 38.1306C27.9708 38.0867 27.8584 38.0647 27.7451 38.0655Z" fill="#0067B3"/>
<path d="M27.7186 18.5741C26.3673 18.5797 25.0535 19.0304 23.971 19.8599C22.8885 20.6894 22.0947 21.8537 21.7066 23.1811C21.6575 23.3536 21.6773 23.539 21.7616 23.6966C21.8458 23.8541 21.9876 23.9709 22.1559 24.0212C22.3241 24.0715 22.5049 24.0512 22.6585 23.9648C22.8121 23.8784 22.926 23.733 22.9751 23.5604C23.2394 22.6618 23.7419 21.8561 24.4265 21.2332C25.1112 20.6102 25.9511 20.1946 26.8526 20.0324C27.7541 19.8703 28.6819 19.9681 29.5324 20.3149C30.3829 20.6618 31.1227 21.2441 31.6695 21.9968C32.2162 22.7496 32.5484 23.6432 32.6288 24.5782C32.7093 25.5132 32.535 26.4527 32.1254 27.2921C31.7157 28.1314 31.0867 28.8376 30.3087 29.3318C29.5306 29.8261 28.6339 30.0891 27.7186 30.0914C27.5434 30.0914 27.3753 30.1628 27.2514 30.2899C27.1275 30.417 27.0579 30.5893 27.0579 30.7689V34.2919C27.0579 34.4715 27.1275 34.6439 27.2514 34.7709C27.3753 34.898 27.5434 34.9694 27.7186 34.9694C27.8938 34.9694 28.0619 34.898 28.1858 34.7709C28.3096 34.6439 28.3793 34.4715 28.3793 34.2919V31.3719C29.9778 31.2029 31.4518 30.4103 32.4964 29.1581C33.5411 27.9058 34.0763 26.2897 33.9914 24.644C33.9066 22.9983 33.2081 21.4492 32.0405 20.3168C30.8729 19.1845 29.3256 18.5557 27.7186 18.5606V18.5741Z" stroke="#0067B3"/>
<path d="M27.7451 38.0655C27.5736 38.0655 27.406 38.1178 27.2636 38.2156C27.1211 38.3134 27.0102 38.4524 26.9449 38.615C26.8796 38.7775 26.8628 38.9563 26.8968 39.1287C26.9307 39.301 27.0138 39.4592 27.1355 39.583C27.2572 39.7069 27.412 39.7908 27.5803 39.8243C27.7486 39.8578 27.9229 39.8393 28.0809 39.771C28.2389 39.7028 28.3736 39.588 28.4679 39.4411C28.5622 39.2943 28.6118 39.1221 28.6105 38.9463C28.6105 38.9003 28.607 38.8545 28.6001 38.8092C28.5895 38.7402 28.5709 38.6725 28.5445 38.6076C28.501 38.5003 28.4371 38.4029 28.3567 38.321C28.2762 38.2392 28.1807 38.1745 28.0758 38.1306C27.9708 38.0867 27.8584 38.0647 27.7451 38.0655Z" stroke="#0067B3"/>
<path d="M37.36 48.8H10C7.79086 48.8 6 47.0091 6 44.8V8C6 5.79086 7.79086 4 10 4H46.8C49.0091 4 50.8 5.79086 50.8 8V35.36" stroke="#0067B3" stroke-width="2"/>
<line x1="6" y1="13" x2="51" y2="13" stroke="#0067B3" stroke-width="2"/>
<path fill-rule="evenodd" clip-rule="evenodd" d="M45.7591 54.4011C51.6355 54.4011 56.3991 49.6374 56.3991 43.7611C56.3991 37.8848 51.6355 33.1211 45.7591 33.1211C39.8828 33.1211 35.1191 37.8848 35.1191 43.7611C35.1191 49.6374 39.8828 54.4011 45.7591 54.4011ZM45.7591 52.1611C50.3983 52.1611 54.1591 48.4003 54.1591 43.7611C54.1591 39.1219 50.3983 35.3611 45.7591 35.3611C41.1199 35.3611 37.3591 39.1219 37.3591 43.7611C37.3591 48.4003 41.1199 52.1611 45.7591 52.1611Z" fill="#0067B3"/>
<line x1="52.214" y1="52.1602" x2="58.6398" y2="58.5859" stroke="#0067B3" stroke-width="2" stroke-linecap="round"/>
</svg>
