<svg width="17" height="21" viewBox="0 0 17 21" fill="none" xmlns="http://www.w3.org/2000/svg">
<path d="M8.00094 20.0656C7.74697 20.0737 7.49488 20.0196 7.26657 19.9082C7.03827 19.7967 6.84066 19.6312 6.69094 19.426C6.03094 18.5199 5.18094 17.3573 4.14094 15.9382C2.84094 14.1592 2.00094 13 1.60094 12.3903C1.08841 11.6714 0.665297 10.8928 0.340938 10.0717C0.103125 9.31886 -0.0116817 8.53259 0.000937875 7.74318C-0.00349796 6.37939 0.377823 5.04212 1.10094 3.88555C1.83292 2.71672 2.85018 1.75301 4.05715 1.08495C5.26413 0.416896 6.62121 0.0664063 8.00094 0.0664062C9.38066 0.0664063 10.7377 0.416896 11.9447 1.08495C13.1517 1.75301 14.169 2.71672 14.9009 3.88555C15.6241 5.04212 16.0054 6.37939 16.0009 7.74318C16.0136 8.53259 15.8988 9.31886 15.6609 10.0717C15.3395 10.9067 14.9163 11.6989 14.4009 12.4303C13.9909 13.0399 13.1609 14.1992 11.8709 15.9781L9.31094 19.426C9.16122 19.6312 8.96361 19.7967 8.7353 19.9082C8.507 20.0196 8.2549 20.0737 8.00094 20.0656ZM5.24094 15.0687C6.28094 16.4812 7.13094 17.6471 7.79094 18.5665C7.79094 18.5665 7.85094 18.6365 8.00094 18.6365C8.15094 18.6365 8.19094 18.6365 8.21094 18.5565L10.7609 15.0687C12.0509 13.3098 12.8609 12.1705 13.2609 11.5708C13.7099 10.9532 14.0795 10.2817 14.3609 9.57206C14.5518 8.9816 14.643 8.36355 14.6309 7.74318C14.6403 6.64307 14.3312 5.56372 13.7409 4.63509C13.1478 3.66918 12.314 2.8737 11.3209 2.3265C10.3044 1.76569 9.16212 1.47155 8.00094 1.47155C6.83976 1.47155 5.69752 1.76569 4.68094 2.3265C3.68791 2.8737 2.85404 3.66918 2.26094 4.63509C1.67069 5.56372 1.36162 6.64307 1.37094 7.74318C1.35887 8.36355 1.45011 8.9816 1.64094 9.57206C1.9224 10.2817 2.29196 10.9532 2.74094 11.5708C3.14094 12.2004 4.00094 13.3397 5.24094 15.0687ZM8.00094 12.1605C7.20337 12.1823 6.41749 11.9653 5.74429 11.5374C5.07109 11.1094 4.54134 10.49 4.22313 9.75877C3.90492 9.02755 3.81279 8.21794 3.95857 7.43399C4.10436 6.65004 4.4814 5.92757 5.04124 5.35945C5.60108 4.79132 6.31814 4.40349 7.10025 4.24582C7.88236 4.08814 8.69378 4.16781 9.43022 4.4746C10.1667 4.78139 10.7945 5.30127 11.233 5.96743C11.6715 6.63358 11.9006 7.41557 11.8909 8.21289C11.8963 9.25112 11.4901 10.2492 10.7611 10.989C10.0321 11.7287 9.03976 12.1499 8.00094 12.1605ZM8.00094 5.65446C7.49261 5.64454 6.99283 5.78611 6.56531 6.06113C6.1378 6.33615 5.80191 6.73217 5.60046 7.1987C5.39901 7.66523 5.34113 8.18114 5.43418 8.68068C5.52724 9.18021 5.76703 9.64074 6.12298 10.0036C6.47893 10.3664 6.93492 10.6151 7.43283 10.7179C7.93074 10.8207 8.44801 10.7731 8.91871 10.581C9.38941 10.3889 9.79221 10.0611 10.0758 9.63933C10.3594 9.21759 10.5108 8.72101 10.5109 8.21289C10.5163 7.54136 10.2551 6.89508 9.78469 6.41556C9.31425 5.93605 8.67285 5.66237 8.00094 5.65446Z" fill="#FF4E4E"/>
</svg>
