<svg width="20" height="21" viewBox="0 0 20 21" fill="none" xmlns="http://www.w3.org/2000/svg">
<path d="M10 20.0664C8.02219 20.0664 6.08879 19.4799 4.4443 18.3811C2.79981 17.2823 1.51809 15.7205 0.761209 13.8932C0.00433284 12.066 -0.193701 10.0553 0.192152 8.11551C0.578004 6.1757 1.53041 4.39387 2.92894 2.99534C4.32746 1.59682 6.10929 0.64441 8.0491 0.258558C9.98891 -0.127294 11.9996 0.0707391 13.8268 0.827615C15.6541 1.58449 17.2159 2.86622 18.3147 4.51071C19.4135 6.1552 20 8.0886 20 10.0664C20 12.7186 18.9464 15.2621 17.0711 17.1375C15.1957 19.0128 12.6522 20.0664 10 20.0664ZM10 1.60641C8.32677 1.60641 6.69112 2.10258 5.29988 3.03218C3.90864 3.96177 2.8243 5.28305 2.18398 6.82891C1.54367 8.37477 1.37613 10.0758 1.70256 11.7169C2.02899 13.358 2.83473 14.8654 4.01788 16.0485C5.20103 17.2317 6.70846 18.0374 8.34954 18.3639C9.99062 18.6903 11.6916 18.5227 13.2375 17.8824C14.7834 17.2421 16.1046 16.1578 17.0342 14.7665C17.9638 13.3753 18.46 11.7396 18.46 10.0664C18.46 7.82268 17.5687 5.67085 15.9821 4.08429C14.3956 2.49773 12.2437 1.60641 10 1.60641ZM15.33 13.5164C15.3854 13.432 15.4235 13.3374 15.4419 13.2381C15.4604 13.1388 15.4588 13.0368 15.4374 12.9382C15.416 12.8395 15.3751 12.746 15.3172 12.6633C15.2593 12.5806 15.1854 12.5103 15.1 12.4564L10.77 9.64641V4.80641C10.77 4.60219 10.6889 4.40634 10.5445 4.26194C10.4001 4.11754 10.2042 4.03641 10 4.03641C9.79579 4.03641 9.59994 4.11754 9.45553 4.26194C9.31113 4.40634 9.23 4.60219 9.23 4.80641V10.4864L14.23 13.7464C14.3528 13.8238 14.4948 13.8653 14.64 13.8664C14.7758 13.8752 14.9115 13.8474 15.0329 13.7858C15.1543 13.7242 15.2569 13.6312 15.33 13.5164Z" fill="#55C9A5"/>
</svg>
