<svg width="24" height="24" viewBox="0 0 24 24" fill="none" xmlns="http://www.w3.org/2000/svg">
<path d="M19.26 7.6576H16.37V5.8376C16.293 4.75229 15.7908 3.74121 14.9725 3.02407C14.1542 2.30692 13.086 1.94164 12 2.0076C10.914 1.94164 9.84575 2.30692 9.0275 3.02407C8.20924 3.74121 7.70703 4.75229 7.63 5.8376V7.6576H4.74C4.64413 7.65628 4.54894 7.67386 4.45987 7.70932C4.3708 7.74479 4.28958 7.79746 4.22086 7.86432C4.15215 7.93118 4.09727 8.01092 4.05938 8.09899C4.02148 8.18706 4.0013 8.28173 4 8.3776V17.2176C4 20.4476 5.62 22.0076 9 22.0076H15C18.34 22.0076 20 20.4476 20 17.2176V8.3776C19.9987 8.28173 19.9785 8.18706 19.9406 8.09899C19.9027 8.01092 19.8479 7.93118 19.7791 7.86432C19.7104 7.79746 19.6292 7.74479 19.5401 7.70932C19.4511 7.67386 19.3559 7.65628 19.26 7.6576ZM9.11 7.6576V5.8376C9.18096 5.13858 9.52359 4.49538 10.0641 4.0465C10.6046 3.59761 11.2998 3.37895 12 3.4376C12.7002 3.37895 13.3954 3.59761 13.9359 4.0465C14.4764 4.49538 14.819 5.13858 14.89 5.8376V7.6576H9.11ZM18.52 9.0876V17.2176C18.52 19.6376 17.52 20.5776 15.03 20.5776H9C6.5 20.5776 5.52 19.6376 5.52 17.2176V9.0876H18.52ZM10.57 13.4476C10.57 13.0683 10.7207 12.7046 10.9888 12.4364C11.257 12.1683 11.6207 12.0176 12 12.0176C12.3793 12.0176 12.743 12.1683 13.0112 12.4364C13.2793 12.7046 13.43 13.0683 13.43 13.4476C13.4279 13.6847 13.3629 13.917 13.2417 14.1208C13.1205 14.3246 12.9474 14.4926 12.74 14.6076V16.0976C12.74 16.2939 12.662 16.4821 12.5233 16.6209C12.3845 16.7596 12.1963 16.8376 12 16.8376C11.8037 16.8376 11.6155 16.7596 11.4767 16.6209C11.338 16.4821 11.26 16.2939 11.26 16.0976V14.6076C11.0526 14.4926 10.8795 14.3246 10.7583 14.1208C10.6371 13.917 10.5721 13.6847 10.57 13.4476Z" fill="black"/>
</svg>
