<svg width="24" height="24" viewBox="0 0 24 24" fill="none" xmlns="http://www.w3.org/2000/svg">
<path d="M19.5109 21.9999C16.4067 22.0126 13.3561 21.192 10.6786 19.6241C8.06981 18.0891 5.90073 15.9097 4.38002 13.2956C2.81646 10.6347 1.99474 7.60454 2.00012 4.51964C1.99568 4.15183 2.11086 3.7925 2.32839 3.4956C2.44762 3.32987 2.6007 3.19124 2.77752 3.08886C2.95434 2.98649 3.15088 2.92269 3.35421 2.90167L7.0369 2.03124C7.41852 1.95601 7.81449 2.01766 8.15504 2.20532C8.50592 2.3806 8.77454 2.68549 8.90389 3.05527L10.6273 7.04899C10.7656 7.37302 10.7873 7.73482 10.6888 8.07303C10.6141 8.39409 10.4465 8.68613 10.2067 8.91273L8.45253 10.3464C9.04077 11.4463 9.78344 12.4566 10.658 13.3468C11.5417 14.2365 12.5593 14.9828 13.6739 15.5587L15.0588 13.869C15.2985 13.6098 15.603 13.4189 15.941 13.3161C16.2822 13.2242 16.6447 13.2531 16.9668 13.398L21.0086 15.1184C21.365 15.2635 21.6566 15.5327 21.8292 15.8761C22.0015 16.2219 22.0452 16.6175 21.9523 16.9923L21.0906 20.7198C21.0663 20.9134 21.0006 21.0996 20.898 21.2657C20.7953 21.4318 20.6581 21.5739 20.4956 21.6824C20.2083 21.8876 19.8642 21.9986 19.5109 21.9999ZM7.38567 3.56729L3.52859 4.44795C3.51515 7.29673 4.26607 10.0971 5.70333 12.5583C7.09767 14.9332 9.07913 16.9112 11.4582 18.3031C13.9001 19.7303 16.6812 20.4765 19.5109 20.4638H19.6134L20.4649 16.6749V16.5827L16.3616 14.8009C16.2983 14.8131 16.2407 14.8454 16.1975 14.8931L14.1458 17.4532L13.6021 17.2074C12.0974 16.5356 10.7305 15.5912 9.57067 14.422C8.42348 13.272 7.48618 11.9308 6.80096 10.459L6.5445 9.91628L9.18086 7.77606C9.17818 7.74881 9.17818 7.72138 9.18086 7.69413L7.44722 3.59801L7.38567 3.56729Z" fill="#161720"/>
</svg>
