<svg width="60" height="60" viewBox="0 0 60 60" fill="none" xmlns="http://www.w3.org/2000/svg">
<path d="M51 15.2692H9C8.20435 15.2692 7.44129 15.5852 6.87868 16.1477C6.31607 16.7102 6 17.4731 6 18.2686V41.6645C6 42.46 6.31607 43.2229 6.87868 43.7854C7.44129 44.3479 8.20435 44.6639 9 44.6639H51C51.7957 44.6639 52.5587 44.3479 53.1213 43.7854C53.6839 43.2229 54 42.46 54 41.6645V18.2686C54 17.4731 53.6839 16.7102 53.1213 16.1477C52.5587 15.5852 51.7957 15.2692 51 15.2692ZM52 41.6645C52 41.9296 51.8946 42.1839 51.7071 42.3714C51.5196 42.5589 51.2652 42.6643 51 42.6643H9C8.73478 42.6643 8.48043 42.5589 8.29289 42.3714C8.10536 42.1839 8 41.9296 8 41.6645V18.2686C8 18.0035 8.10536 17.7492 8.29289 17.5616C8.48043 17.3741 8.73478 17.2688 9 17.2688H51C51.2652 17.2688 51.5196 17.3741 51.7071 17.5616C51.8946 17.7492 52 18.0035 52 18.2686V41.6645Z" fill="white"/>
<path d="M30.06 28.7068H29.94C29.36 28.7068 28.87 28.3468 28.87 27.9269C28.87 27.507 29.36 27.147 29.94 27.147C30.1311 27.1319 30.3229 27.1652 30.4977 27.2439C30.6725 27.3225 30.8246 27.444 30.94 27.597C31.0127 27.7069 31.1063 27.8013 31.2156 27.8749C31.3249 27.9485 31.4477 27.9998 31.5768 28.0258C31.706 28.0518 31.839 28.0521 31.9683 28.0265C32.0976 28.001 32.2205 27.9501 32.33 27.8769C32.5492 27.7303 32.7017 27.5031 32.7541 27.2447C32.8065 26.9862 32.7548 26.7176 32.61 26.4972C32.2188 25.928 31.643 25.5113 30.98 25.3174V24.5075C30.98 24.2423 30.8747 23.988 30.6871 23.8005C30.4996 23.613 30.2453 23.5077 29.98 23.5077C29.7148 23.5077 29.4605 23.613 29.2729 23.8005C29.0854 23.988 28.98 24.2423 28.98 24.5075V25.3074C28.4002 25.4653 27.8862 25.8049 27.5137 26.2764C27.1411 26.7479 26.9295 27.3263 26.91 27.9269C26.9514 28.7014 27.2974 29.4282 27.8724 29.9489C28.4475 30.4695 29.2051 30.7418 29.98 30.7064H30.1C30.68 30.7064 31.17 31.0663 31.17 31.4863C31.17 31.9062 30.68 32.2661 30.1 32.2661C29.9093 32.2785 29.7184 32.244 29.5441 32.1656C29.3697 32.0871 29.2173 31.9672 29.1 31.8162C29.0282 31.7055 28.9351 31.6101 28.8262 31.5355C28.7173 31.461 28.5947 31.4087 28.4654 31.3818C28.3362 31.3548 28.2029 31.3537 28.0733 31.3785C27.9436 31.4033 27.8202 31.4535 27.71 31.5263C27.6001 31.5989 27.5056 31.6925 27.432 31.8018C27.3584 31.9111 27.3071 32.0338 27.2811 32.1629C27.2551 32.2921 27.2548 32.4251 27.2804 32.5543C27.306 32.6836 27.3568 32.8065 27.43 32.916C27.805 33.4302 28.3338 33.8119 28.94 34.0058V35.3856C28.94 35.6507 29.0454 35.905 29.2329 36.0926C29.4205 36.2801 29.6748 36.3854 29.94 36.3854C30.2053 36.3854 30.4596 36.2801 30.6471 36.0926C30.8347 35.905 30.94 35.6507 30.94 35.3856V34.1358C31.5461 33.9973 32.0895 33.6624 32.4855 33.1833C32.8816 32.7041 33.1082 32.1075 33.13 31.4863C33.0886 30.7117 32.7427 29.9849 32.1676 29.4643C31.5926 28.9436 30.835 28.6714 30.06 28.7068Z" fill="white"/>
<path d="M32.3 20.3883C31.0439 20.0864 29.7405 20.0352 28.4645 20.2378C27.1885 20.4404 25.9651 20.8927 24.8642 21.5689C23.7634 22.2451 22.8069 23.1318 22.0494 24.1782C21.2919 25.2246 20.7484 26.4102 20.45 27.667C19.8413 30.2031 20.2624 32.877 21.6213 35.1032C22.9801 37.3294 25.1659 38.9266 27.7 39.5449C28.4605 39.7234 29.2389 39.814 30.02 39.8149C32.2261 39.8113 34.3665 39.0643 36.0957 37.6946C37.8249 36.325 39.0418 34.4126 39.55 32.2662C40.1588 29.7302 39.7377 27.0563 38.3788 24.8301C37.02 22.6038 34.8342 21.0067 32.3 20.3883ZM37.61 31.7963C37.2596 33.2191 36.5162 34.5149 35.4648 35.5357C34.4134 36.5566 33.0962 37.2614 31.6634 37.57C30.2306 37.8785 28.74 37.7782 27.3615 37.2807C25.983 36.7831 24.772 35.9082 23.8668 34.7557C22.9616 33.6033 22.3985 32.2197 22.2418 30.7628C22.085 29.3058 22.341 27.8342 22.9804 26.5156C23.6198 25.1971 24.6169 24.0847 25.8581 23.3054C27.0992 22.5261 28.5344 22.1112 30 22.108C30.6197 22.1121 31.2369 22.1859 31.84 22.328C33.857 22.8253 35.5954 24.0998 36.6763 25.8735C37.7572 27.6472 38.0928 29.7762 37.61 31.7963Z" fill="white"/>
<path d="M21.06 7.23064C22.315 5.8537 23.9342 4.86007 25.7304 4.36466C27.5266 3.86925 29.4263 3.8923 31.21 4.43114C33.6286 5.14365 35.6936 6.73406 37 8.89034L34 8.0205C33.8716 7.9763 33.7356 7.95869 33.6002 7.96875C33.4648 7.97881 33.3329 8.01633 33.2125 8.07902C33.0921 8.1417 32.9857 8.22824 32.8998 8.33337C32.8139 8.4385 32.7504 8.56001 32.713 8.69049C32.6756 8.82098 32.6652 8.95771 32.6824 9.09235C32.6995 9.22699 32.744 9.35673 32.8129 9.47365C32.8819 9.59057 32.9739 9.69223 33.0834 9.77243C33.193 9.85264 33.3177 9.9097 33.45 9.94016L38.9 11.5299H39.18C39.2959 11.5297 39.411 11.5094 39.52 11.4699C39.5523 11.4512 39.5857 11.4345 39.62 11.4199C39.6869 11.3858 39.7505 11.3457 39.81 11.2999C39.845 11.2715 39.8754 11.2378 39.9 11.1999C39.9368 11.1594 39.9702 11.1159 40 11.07L40.06 10.93C40.0633 10.9001 40.0633 10.8699 40.06 10.84C40.065 10.8102 40.065 10.7798 40.06 10.75C40.0658 10.7169 40.0658 10.6831 40.06 10.65L40.56 4.88106C40.5821 4.6173 40.4988 4.35551 40.3282 4.15309C40.1576 3.95067 39.9137 3.82415 39.65 3.80125C39.3862 3.77909 39.1243 3.86242 38.9219 4.03297C38.7194 4.20353 38.5929 4.44739 38.57 4.71109L38.33 7.51059C36.7734 5.11129 34.4176 3.34034 31.68 2.51148C29.5368 1.8603 27.2529 1.83029 25.0934 2.42493C22.9339 3.01957 20.9874 4.21447 19.48 5.87088C19.3812 5.96542 19.3028 6.07921 19.2498 6.20522C19.1967 6.33123 19.17 6.46678 19.1714 6.6035C19.1728 6.74021 19.2023 6.87519 19.2579 7.00008C19.3136 7.12497 19.3943 7.23712 19.495 7.3296C19.5957 7.42208 19.7143 7.49293 19.8435 7.53775C19.9727 7.58258 20.1097 7.60044 20.2461 7.59023C20.3824 7.58002 20.5153 7.54195 20.6363 7.47838C20.7574 7.41481 20.8641 7.32709 20.95 7.22064L21.06 7.23064Z" fill="white"/>
<path d="M38.94 52.7925C37.6852 54.1697 36.0656 55.1628 34.2689 55.6566C32.4723 56.1503 30.5725 56.1245 28.79 55.582C26.3906 54.8627 24.3446 53.2768 23.05 51.1328L26.05 52.0027C26.1427 52.018 26.2373 52.018 26.33 52.0027C26.5544 52.011 26.7751 51.9435 26.9565 51.8111C27.138 51.6787 27.2695 51.4891 27.33 51.2728C27.4008 51.0182 27.368 50.746 27.2387 50.5156C27.1094 50.2851 26.8942 50.1152 26.64 50.043L21.1 48.4933H20.91C20.91 48.4933 20.84 48.4933 20.8 48.4933H20.63L20.39 48.5733H20.3C20.2238 48.6218 20.1534 48.6789 20.09 48.7432L20.01 48.8532C19.9648 48.9169 19.931 48.988 19.91 49.0632C19.8898 49.0875 19.873 49.1144 19.86 49.1432C19.855 49.173 19.855 49.2034 19.86 49.2332C19.8542 49.2662 19.8542 49.3001 19.86 49.3331L19.36 55.0921C19.3476 55.2235 19.3614 55.3561 19.4005 55.4821C19.4397 55.6082 19.5033 55.7252 19.5879 55.8265C19.6725 55.9278 19.7764 56.0114 19.8934 56.0724C20.0105 56.1334 20.1385 56.1706 20.27 56.1819H20.36C20.6103 56.1829 20.8519 56.09 21.0371 55.9216C21.2222 55.7531 21.3375 55.5214 21.36 55.2721L21.6 52.4626C22.6809 54.1545 24.1693 55.5481 25.9286 56.5159C27.6879 57.4836 29.662 57.9944 31.67 58.0016C33.316 58.0006 34.9436 57.6559 36.4486 56.9896C37.9537 56.3233 39.3029 55.3501 40.41 54.1323C40.5088 54.0377 40.5871 53.924 40.6402 53.7979C40.6933 53.6719 40.7199 53.5364 40.7185 53.3997C40.7171 53.263 40.6877 53.128 40.632 53.0031C40.5764 52.8782 40.4957 52.766 40.395 52.6736C40.2943 52.5811 40.1756 52.5102 40.0464 52.4654C39.9173 52.4206 39.7802 52.4027 39.6439 52.4129C39.5075 52.4231 39.3747 52.4612 39.2536 52.5248C39.1326 52.5883 39.0258 52.6761 38.94 52.7825V52.7925Z" fill="white"/>
</svg>
