<svg width="20" height="20" viewBox="0 0 20 20" fill="none" xmlns="http://www.w3.org/2000/svg">
<path d="M18.063 17.8385H14.6356C14.531 17.8385 14.4306 17.7956 14.3566 17.7193C14.2827 17.6429 14.2411 17.5394 14.2411 17.4314C14.2411 17.3235 14.2827 17.2199 14.3566 17.1436C14.4306 17.0672 14.531 17.0244 14.6356 17.0244H18.063C18.1153 17.0244 18.1655 17.0029 18.2025 16.9647C18.2395 16.9266 18.2603 16.8748 18.2603 16.8208V2.01376C18.2603 1.95978 18.2395 1.90801 18.2025 1.86984C18.1655 1.83167 18.1153 1.81023 18.063 1.81023H1.9863C1.93398 1.81023 1.88381 1.83167 1.84682 1.86984C1.80982 1.90801 1.78904 1.95978 1.78904 2.01376V16.8208C1.78904 16.8748 1.80982 16.9266 1.84682 16.9647C1.88381 17.0029 1.93398 17.0244 1.9863 17.0244H7.90411C8.00029 17.0304 8.09101 17.0725 8.15915 17.1428C8.22728 17.2131 8.26813 17.3067 8.27397 17.406C8.27397 17.5139 8.23241 17.6175 8.15842 17.6938C8.08443 17.7702 7.98409 17.8131 7.87945 17.8131H1.9863C1.72472 17.8131 1.47385 17.7058 1.28888 17.515C1.10391 17.3241 1 17.0653 1 16.7954V2.01376C1 1.74386 1.10391 1.48501 1.28888 1.29416C1.47385 1.10331 1.72472 0.996094 1.9863 0.996094H18.0137C18.2753 0.996094 18.5262 1.10331 18.7111 1.29416C18.8961 1.48501 19 1.74386 19 2.01376V16.8208C19.0003 17.0821 18.9032 17.3336 18.7288 17.523C18.5543 17.7125 18.316 17.8254 18.063 17.8385Z" fill="#FCE513"/>
<path d="M8.58219 7.12754C8.5211 7.13958 8.45835 7.13958 8.39726 7.12754C8.33434 7.09007 8.28193 7.03636 8.24519 6.97169C8.20845 6.90701 8.18862 6.8336 8.18767 6.75864V1.40316C8.18767 1.2952 8.22924 1.19166 8.30322 1.11532C8.37721 1.03898 8.47756 0.996094 8.58219 0.996094H12.2808C12.3326 0.996094 12.3839 1.00662 12.4318 1.02708C12.4797 1.04754 12.5232 1.07752 12.5598 1.11532C12.5964 1.15312 12.6255 1.198 12.6453 1.24738C12.6651 1.29677 12.6753 1.3497 12.6753 1.40316V6.72048C12.677 6.79597 12.6583 6.87046 12.6213 6.93561C12.5843 7.00076 12.5304 7.054 12.4658 7.08938C12.4032 7.1239 12.3333 7.14196 12.2623 7.14196C12.1914 7.14196 12.1215 7.1239 12.0589 7.08938L10.4438 5.95722L8.80411 7.12754C8.73126 7.14639 8.65504 7.14639 8.58219 7.12754ZM10.4438 4.99044C10.5242 4.98846 10.6026 5.01545 10.6658 5.06677L11.9726 5.95722V1.81023H8.97671V5.95722L10.2096 5.07949C10.2753 5.02269 10.3581 4.99121 10.4438 4.99044Z" fill="#FCE513"/>
<path d="M4.7726 14.4166C4.72106 14.4176 4.66994 14.4067 4.623 14.3847C4.57606 14.3627 4.5345 14.3301 4.50137 14.2894L1.2589 11.0456C1.22122 11.0087 1.19121 10.9643 1.17071 10.9151C1.1502 10.8659 1.13962 10.8129 1.13962 10.7593C1.13962 10.7058 1.1502 10.6528 1.17071 10.6036C1.19121 10.5544 1.22122 10.51 1.2589 10.4731C1.33276 10.3978 1.43244 10.3555 1.5363 10.3555C1.64017 10.3555 1.73984 10.3978 1.8137 10.4731L4.78493 13.4371L8.39726 9.86252L1.23425 1.92472C1.16207 1.84472 1.12297 1.73883 1.12528 1.62955C1.12758 1.52028 1.17109 1.41624 1.24658 1.33956C1.32043 1.2642 1.42011 1.22194 1.52397 1.22194C1.62784 1.22194 1.72751 1.2642 1.80137 1.33956L9.19863 9.58267C9.26883 9.66038 9.30786 9.76266 9.30786 9.86889C9.30786 9.97511 9.26883 10.0774 9.19863 10.1551L5.04384 14.3021C5.00815 14.3387 4.96582 14.3676 4.91928 14.3872C4.87273 14.4069 4.82289 14.4169 4.7726 14.4166Z" fill="#FCE513"/>
<path d="M14.0932 18.9325C13.9247 18.9384 13.7576 18.9007 13.6068 18.823C13.4561 18.7452 13.3266 18.6298 13.2301 18.4873L11.1096 15.4088C11.0544 15.3232 11.0326 15.2193 11.0486 15.1178C11.0646 15.0164 11.1172 14.9249 11.1959 14.8618C11.2832 14.8016 11.3897 14.7786 11.4931 14.7976C11.5965 14.8165 11.6888 14.876 11.7507 14.9636L13.8712 18.0293C13.8899 18.0602 13.9146 18.0869 13.9436 18.1077C13.9727 18.1284 14.0055 18.1428 14.0402 18.15C14.0748 18.1571 14.1105 18.1569 14.1451 18.1492C14.1796 18.1416 14.2123 18.1268 14.2411 18.1056C14.297 18.0625 14.3346 17.9987 14.3461 17.9276C14.3576 17.8565 14.3421 17.7836 14.3027 17.724L11.2575 13.0682C11.2149 12.9904 11.1974 12.9006 11.2077 12.8119C11.2179 12.7231 11.2553 12.6401 11.3144 12.5748C11.3736 12.5095 11.4514 12.4654 11.5365 12.4489C11.6216 12.4324 11.7096 12.4444 11.7877 12.483C12.3546 12.7985 12.949 13.0583 13.563 13.259C13.6954 13.3178 13.838 13.3481 13.9822 13.3481C14.1263 13.3481 14.269 13.3178 14.4014 13.259L11.6274 11.4272C11.1428 11.0868 10.5833 10.8769 10 10.8166H8.40959C8.30496 10.8166 8.20461 10.7737 8.13062 10.6974C8.05663 10.621 8.01507 10.5175 8.01507 10.4095C8.01507 10.3016 8.05663 10.198 8.13062 10.1217C8.20461 10.0453 8.30496 10.0025 8.40959 10.0025H10.0247C10.7581 10.0668 11.463 10.3253 12.0712 10.753L15.2151 12.8901C15.2896 12.9412 15.3457 13.0163 15.3747 13.1037C15.4037 13.1911 15.4039 13.2859 15.3753 13.3735C15.2274 13.806 14.5986 14.5056 13.3041 14.035L12.7 13.806L14.9562 17.2406C15.0353 17.3571 15.0911 17.4886 15.1203 17.6276C15.1495 17.7666 15.1516 17.9102 15.1263 18.05C15.1011 18.1898 15.049 18.323 14.9732 18.4417C14.8974 18.5605 14.7994 18.6625 14.6849 18.7417C14.5127 18.8693 14.3052 18.9362 14.0932 18.9325Z" fill="#FCE513"/>
<path d="M12.3301 18.8307C12.1613 18.8308 11.995 18.7893 11.8449 18.7096C11.6948 18.63 11.5653 18.5145 11.4671 18.3728L9.93836 16.1339C9.90789 16.0898 9.88625 16.0399 9.87471 15.9871C9.86317 15.9343 9.86195 15.8796 9.87114 15.8263C9.88032 15.773 9.89972 15.7221 9.9282 15.6766C9.95668 15.6312 9.99366 15.592 10.037 15.5615C10.1209 15.5007 10.2244 15.476 10.3257 15.4926C10.427 15.5092 10.518 15.5658 10.5795 15.6505L12.1082 17.8639C12.1323 17.8893 12.1611 17.9095 12.1929 17.9233C12.2246 17.937 12.2587 17.9441 12.2931 17.9441C12.3276 17.9441 12.3617 17.937 12.3934 17.9233C12.4252 17.9095 12.454 17.8893 12.4781 17.8639C12.536 17.8227 12.5761 17.7598 12.5899 17.6886C12.6037 17.6174 12.5901 17.5434 12.5521 17.4823L11.2452 15.5996C11.215 15.5566 11.1936 15.5077 11.1822 15.4558C11.1708 15.404 11.1697 15.3504 11.1789 15.2981C11.1881 15.2458 11.2075 15.196 11.2358 15.1516C11.2642 15.1073 11.3009 15.0693 11.3438 15.0399C11.4292 14.9804 11.5338 14.9578 11.6352 14.9768C11.7365 14.9958 11.8267 15.055 11.8863 15.1417L13.2055 17.1261C13.2903 17.2456 13.3504 17.3817 13.3822 17.5261C13.4139 17.6705 13.4166 17.8201 13.39 17.9656C13.3634 18.1111 13.3082 18.2494 13.2276 18.372C13.1471 18.4945 13.0431 18.5987 12.9219 18.6781C12.7443 18.7898 12.5378 18.8431 12.3301 18.8307Z" fill="#FCE513"/>
<path d="M10.7397 18.9961C10.5711 18.9951 10.4051 18.9532 10.2552 18.8736C10.1052 18.794 9.97555 18.6791 9.87671 18.5381L8.64384 16.6682C8.59219 16.5837 8.57245 16.4826 8.58837 16.3841C8.60428 16.2856 8.65474 16.1965 8.73014 16.1339C8.81746 16.0737 8.92397 16.0507 9.02737 16.0696C9.13078 16.0886 9.22307 16.1481 9.28493 16.2357L10.5178 18.1056C10.5597 18.1633 10.6215 18.2022 10.6904 18.214C10.7593 18.2259 10.8299 18.2098 10.8877 18.1692C10.9167 18.1489 10.9414 18.1228 10.9603 18.0923C10.9793 18.0618 10.992 18.0277 10.9977 17.9921C11.0035 17.9564 11.0022 17.9198 10.9939 17.8847C10.9855 17.8496 10.9704 17.8165 10.9493 17.7876L9.93836 16.1339C9.90727 16.0906 9.88483 16.0413 9.87234 15.989C9.85984 15.9367 9.85754 15.8823 9.86557 15.8291C9.8736 15.7758 9.8918 15.7247 9.91911 15.6788C9.94641 15.6329 9.98229 15.593 10.0247 15.5615C10.112 15.5013 10.2185 15.4782 10.3219 15.4972C10.4253 15.5162 10.5176 15.5757 10.5795 15.6632L11.6521 17.2533C11.7312 17.3683 11.7873 17.4984 11.8169 17.636C11.8466 17.7737 11.8492 17.916 11.8247 18.0548C11.7861 18.3086 11.6602 18.5397 11.47 18.7055C11.2798 18.8714 11.0381 18.961 10.789 18.9579L10.7397 18.9961Z" fill="#FCE513"/>
<path d="M8.98904 18.8434C8.82476 18.8425 8.66283 18.8031 8.51547 18.7282C8.36811 18.6532 8.23916 18.5448 8.13836 18.4109L6.78219 16.5919C6.10223 15.6545 5.5157 14.6487 5.03151 13.5897C4.98736 13.4835 4.98595 13.3634 5.02756 13.2561C5.06918 13.1487 5.15043 13.0628 5.25342 13.0173C5.35642 12.9717 5.47274 12.9703 5.57678 13.0132C5.68083 13.0562 5.76408 13.14 5.80822 13.2463C6.2444 14.2633 6.78151 15.231 7.41096 16.1339L8.76712 17.9148C8.81793 17.9669 8.88662 17.9961 8.95822 17.9961C9.02981 17.9961 9.09851 17.9669 9.14931 17.9148C9.20053 17.8602 9.22917 17.7873 9.22917 17.7113C9.22917 17.6353 9.20053 17.5623 9.14931 17.5078L8.55753 16.6046C8.52866 16.5177 8.5301 16.4231 8.56161 16.3371C8.59313 16.2512 8.65273 16.1793 8.73014 16.1339C8.81553 16.0744 8.92009 16.0518 9.02146 16.0708C9.12283 16.0898 9.21297 16.149 9.2726 16.2357L9.86438 17.1388C9.94608 17.2577 10.0039 17.3923 10.0346 17.5345C10.0652 17.6768 10.0679 17.824 10.0427 17.9673C10.0174 18.1107 9.96461 18.2475 9.88742 18.3695C9.81023 18.4916 9.71018 18.5965 9.59315 18.6781C9.41376 18.7977 9.20228 18.8555 8.98904 18.8434Z" fill="#FCE513"/>
<path d="M9.93836 16.1339L11.4671 18.3728C11.5653 18.5145 11.6948 18.63 11.8449 18.7096C11.995 18.7893 12.1613 18.8308 12.3301 18.8307C12.5378 18.8431 12.7443 18.7898 12.9219 18.6781C13.0431 18.5987 13.1471 18.4945 13.2276 18.372C13.3082 18.2494 13.3634 18.1111 13.39 17.9656C13.4166 17.8201 13.4139 17.6705 13.3822 17.5261C13.3504 17.3817 13.2903 17.2456 13.2055 17.1261L11.8863 15.1417C11.8267 15.055 11.7365 14.9958 11.6352 14.9768C11.5338 14.9578 11.4292 14.9804 11.3438 15.0399C11.3009 15.0693 11.2642 15.1073 11.2358 15.1516C11.2075 15.196 11.1881 15.2458 11.1789 15.2981C11.1697 15.3504 11.1708 15.404 11.1822 15.4558C11.1936 15.5077 11.215 15.5566 11.2452 15.5996L12.5521 17.4823C12.5901 17.5434 12.6037 17.6174 12.5899 17.6886C12.5761 17.7598 12.536 17.8227 12.4781 17.8639C12.454 17.8893 12.4252 17.9095 12.3934 17.9233C12.3617 17.937 12.3276 17.9441 12.2932 17.9441C12.2587 17.9441 12.2246 17.937 12.1929 17.9233C12.1611 17.9095 12.1323 17.8893 12.1082 17.8639L10.5795 15.6505C10.518 15.5658 10.427 15.5092 10.3257 15.4926C10.2244 15.476 10.1209 15.5007 10.037 15.5615C9.99366 15.592 9.95668 15.6312 9.9282 15.6766C9.89972 15.7221 9.88032 15.773 9.87114 15.8263C9.86195 15.8796 9.86317 15.9343 9.87471 15.9871C9.88625 16.0399 9.90789 16.0898 9.93836 16.1339ZM9.93836 16.1339L10.9493 17.7876C10.9704 17.8165 10.9855 17.8496 10.9939 17.8847C11.0022 17.9198 11.0035 17.9564 10.9977 17.9921C10.992 18.0277 10.9793 18.0618 10.9603 18.0923C10.9414 18.1228 10.9167 18.1489 10.8877 18.1692C10.8299 18.2098 10.7593 18.2259 10.6904 18.214C10.6215 18.2022 10.5597 18.1633 10.5178 18.1056L9.28493 16.2357C9.22307 16.1481 9.13078 16.0886 9.02737 16.0696C8.92397 16.0507 8.81746 16.0737 8.73014 16.1339M9.93836 16.1339C9.90727 16.0906 9.88483 16.0413 9.87234 15.989C9.85984 15.9367 9.85754 15.8823 9.86557 15.8291C9.8736 15.7758 9.8918 15.7247 9.91911 15.6788C9.94641 15.6329 9.98229 15.593 10.0247 15.5615C10.112 15.5013 10.2185 15.4782 10.3219 15.4972C10.4253 15.5162 10.5176 15.5757 10.5795 15.6632L11.6521 17.2533C11.7312 17.3683 11.7873 17.4984 11.8169 17.636C11.8466 17.7737 11.8492 17.916 11.8247 18.0548C11.7861 18.3086 11.6602 18.5397 11.47 18.7055C11.2798 18.8714 11.0381 18.961 10.789 18.9579L10.7397 18.9961C10.5711 18.9951 10.4051 18.9532 10.2552 18.8736C10.1052 18.794 9.97555 18.6791 9.87671 18.5381L8.64384 16.6682C8.59219 16.5837 8.57245 16.4826 8.58836 16.3841C8.60428 16.2856 8.65474 16.1965 8.73014 16.1339M8.73014 16.1339C8.65273 16.1793 8.59313 16.2512 8.56161 16.3371C8.5301 16.4231 8.52866 16.5177 8.55753 16.6046L9.14931 17.5078C9.20053 17.5623 9.22917 17.6353 9.22917 17.7113C9.22917 17.7873 9.20053 17.8602 9.14931 17.9148C9.09851 17.9669 9.02981 17.9961 8.95822 17.9961C8.88662 17.9961 8.81793 17.9669 8.76712 17.9148L7.41096 16.1339C6.78151 15.231 6.2444 14.2633 5.80822 13.2463C5.76408 13.14 5.68083 13.0562 5.57678 13.0132C5.47274 12.9703 5.35642 12.9717 5.25342 13.0173C5.15043 13.0628 5.06918 13.1487 5.02756 13.2561C4.98595 13.3634 4.98736 13.4835 5.03151 13.5897C5.5157 14.6487 6.10223 15.6545 6.78219 16.5919L8.13836 18.4109C8.23916 18.5448 8.36811 18.6532 8.51547 18.7282C8.66283 18.8031 8.82476 18.8425 8.98904 18.8434C9.20228 18.8555 9.41376 18.7977 9.59315 18.6781C9.71018 18.5965 9.81023 18.4916 9.88742 18.3695C9.96461 18.2475 10.0174 18.1107 10.0427 17.9673C10.0679 17.824 10.0652 17.6768 10.0346 17.5345C10.0039 17.3923 9.94608 17.2577 9.86438 17.1388L9.2726 16.2357C9.21297 16.149 9.12283 16.0898 9.02146 16.0708C8.92009 16.0518 8.81553 16.0744 8.73014 16.1339ZM18.063 17.8385H14.6356C14.531 17.8385 14.4306 17.7956 14.3566 17.7193C14.2827 17.6429 14.2411 17.5394 14.2411 17.4314C14.2411 17.3235 14.2827 17.2199 14.3566 17.1436C14.4306 17.0672 14.531 17.0244 14.6356 17.0244H18.063C18.1153 17.0244 18.1655 17.0029 18.2025 16.9647C18.2395 16.9266 18.2603 16.8748 18.2603 16.8208V2.01376C18.2603 1.95978 18.2395 1.90801 18.2025 1.86984C18.1655 1.83167 18.1153 1.81023 18.063 1.81023H1.9863C1.93398 1.81023 1.88381 1.83167 1.84682 1.86984C1.80982 1.90801 1.78904 1.95978 1.78904 2.01376V16.8208C1.78904 16.8748 1.80982 16.9266 1.84682 16.9647C1.88381 17.0029 1.93398 17.0244 1.9863 17.0244H7.90411C8.00029 17.0304 8.09101 17.0725 8.15915 17.1428C8.22728 17.2131 8.26813 17.3067 8.27397 17.406C8.27397 17.5139 8.23241 17.6175 8.15842 17.6938C8.08443 17.7702 7.98409 17.8131 7.87945 17.8131H1.9863C1.72472 17.8131 1.47385 17.7058 1.28888 17.515C1.10391 17.3241 1 17.0653 1 16.7954V2.01376C1 1.74386 1.10391 1.48501 1.28888 1.29416C1.47385 1.10331 1.72472 0.996094 1.9863 0.996094H18.0137C18.2753 0.996094 18.5262 1.10331 18.7111 1.29416C18.8961 1.48501 19 1.74386 19 2.01376V16.8208C19.0003 17.0821 18.9032 17.3336 18.7288 17.523C18.5543 17.7125 18.316 17.8254 18.063 17.8385ZM8.58219 7.12754C8.5211 7.13958 8.45835 7.13958 8.39726 7.12754C8.33434 7.09007 8.28193 7.03636 8.24519 6.97169C8.20845 6.90701 8.18863 6.8336 8.18767 6.75864V1.40316C8.18767 1.2952 8.22924 1.19166 8.30322 1.11532C8.37721 1.03898 8.47756 0.996094 8.58219 0.996094H12.2808C12.3326 0.996094 12.3839 1.00662 12.4318 1.02708C12.4797 1.04754 12.5232 1.07752 12.5598 1.11532C12.5964 1.15312 12.6255 1.198 12.6453 1.24738C12.6651 1.29677 12.6753 1.3497 12.6753 1.40316V6.72048C12.677 6.79597 12.6583 6.87046 12.6213 6.93561C12.5843 7.00076 12.5304 7.054 12.4658 7.08938C12.4032 7.1239 12.3333 7.14196 12.2623 7.14196C12.1914 7.14196 12.1215 7.1239 12.0589 7.08938L10.4438 5.95722L8.80411 7.12754C8.73126 7.14639 8.65504 7.14639 8.58219 7.12754ZM10.4438 4.99044C10.5242 4.98846 10.6026 5.01545 10.6658 5.06677L11.9726 5.95722V1.81023H8.97671V5.95722L10.2096 5.07949C10.2753 5.02269 10.3581 4.99121 10.4438 4.99044ZM4.7726 14.4166C4.72106 14.4176 4.66994 14.4067 4.623 14.3847C4.57606 14.3627 4.5345 14.3301 4.50137 14.2894L1.2589 11.0456C1.22122 11.0087 1.19121 10.9643 1.17071 10.9151C1.1502 10.8659 1.13962 10.8129 1.13962 10.7593C1.13962 10.7058 1.1502 10.6528 1.17071 10.6036C1.19121 10.5544 1.22122 10.51 1.2589 10.4731C1.33276 10.3978 1.43244 10.3555 1.5363 10.3555C1.64017 10.3555 1.73984 10.3978 1.8137 10.4731L4.78493 13.4371L8.39726 9.86253L1.23425 1.92472C1.16207 1.84472 1.12297 1.73883 1.12528 1.62955C1.12758 1.52028 1.17109 1.41624 1.24658 1.33956C1.32043 1.2642 1.42011 1.22194 1.52397 1.22194C1.62784 1.22194 1.72751 1.2642 1.80137 1.33956L9.19863 9.58267C9.26883 9.66038 9.30786 9.76266 9.30786 9.86889C9.30786 9.97512 9.26883 10.0774 9.19863 10.1551L5.04384 14.3021C5.00815 14.3387 4.96582 14.3676 4.91928 14.3872C4.87273 14.4069 4.82289 14.4169 4.7726 14.4166ZM14.0932 18.9325C13.9247 18.9384 13.7576 18.9007 13.6068 18.823C13.4561 18.7452 13.3266 18.6298 13.2301 18.4873L11.1096 15.4088C11.0544 15.3232 11.0326 15.2193 11.0486 15.1178C11.0646 15.0164 11.1172 14.9249 11.1959 14.8618C11.2832 14.8016 11.3897 14.7786 11.4931 14.7976C11.5965 14.8165 11.6888 14.876 11.7507 14.9636L13.8712 18.0293C13.8899 18.0602 13.9146 18.0869 13.9436 18.1077C13.9727 18.1284 14.0055 18.1428 14.0402 18.15C14.0748 18.1571 14.1105 18.1569 14.1451 18.1492C14.1796 18.1416 14.2123 18.1268 14.2411 18.1056C14.297 18.0625 14.3346 17.9987 14.3461 17.9276C14.3576 17.8565 14.3421 17.7836 14.3027 17.724L11.2575 13.0682C11.2149 12.9904 11.1974 12.9006 11.2077 12.8119C11.2179 12.7231 11.2553 12.6401 11.3144 12.5748C11.3736 12.5095 11.4514 12.4654 11.5365 12.4489C11.6216 12.4324 11.7096 12.4444 11.7877 12.483C12.3546 12.7985 12.949 13.0583 13.563 13.259C13.6954 13.3178 13.838 13.3481 13.9822 13.3481C14.1263 13.3481 14.269 13.3178 14.4014 13.259L11.6274 11.4272C11.1428 11.0868 10.5833 10.8769 10 10.8166H8.40959C8.30496 10.8166 8.20461 10.7737 8.13062 10.6974C8.05663 10.621 8.01507 10.5175 8.01507 10.4095C8.01507 10.3016 8.05663 10.198 8.13062 10.1217C8.20461 10.0453 8.30496 10.0025 8.40959 10.0025H10.0247C10.7581 10.0668 11.463 10.3253 12.0712 10.753L15.2151 12.8901C15.2896 12.9412 15.3457 13.0163 15.3747 13.1037C15.4037 13.1911 15.4039 13.2859 15.3753 13.3735C15.2274 13.806 14.5986 14.5056 13.3041 14.035L12.7 13.806L14.9562 17.2406C15.0353 17.3571 15.0911 17.4886 15.1203 17.6276C15.1495 17.7666 15.1516 17.9102 15.1263 18.05C15.1011 18.1898 15.049 18.323 14.9732 18.4417C14.8974 18.5605 14.7994 18.6625 14.6849 18.7417C14.5127 18.8693 14.3052 18.9362 14.0932 18.9325Z" stroke="#FCE513" stroke-width="0.2" stroke-miterlimit="10"/>
</svg>
