<svg width="24" height="24" viewBox="0 0 24 24" fill="none" xmlns="http://www.w3.org/2000/svg">
<path d="M16.7279 8.24173C16.8508 8.36788 16.9196 8.53703 16.9196 8.71314C16.9196 8.88925 16.8508 9.0584 16.7279 9.18454L13.4281 12.4844L16.7279 15.7842C16.8529 15.9092 16.9232 16.0788 16.9232 16.2556C16.9232 16.4324 16.8529 16.602 16.7279 16.727C16.6029 16.852 16.4333 16.9223 16.2565 16.9223C16.0797 16.9223 15.9101 16.852 15.7851 16.727L12.4853 13.4272L9.18545 16.727C9.06043 16.852 8.89086 16.9223 8.71405 16.9223C8.53723 16.9223 8.36767 16.852 8.24264 16.727C8.11762 16.602 8.04738 16.4324 8.04738 16.2556C8.04738 16.0788 8.11762 15.9092 8.24264 15.7842L11.5425 12.4844L8.24264 9.18454C8.11762 9.05952 8.04738 8.88995 8.04738 8.71314C8.04738 8.53633 8.11762 8.36676 8.24264 8.24173C8.36767 8.11671 8.53723 8.04647 8.71405 8.04647C8.89086 8.04647 9.06043 8.11671 9.18545 8.24173L12.4853 11.5416L15.7851 8.24173C15.9113 8.11884 16.0804 8.05007 16.2565 8.05007C16.4326 8.05007 16.6018 8.11884 16.7279 8.24173Z" fill="#161720"/>
</svg>
