<svg width="10" height="12" viewBox="0 0 10 12" fill="none" xmlns="http://www.w3.org/2000/svg">
<path d="M6.15607 6.44661L9.91329 10.5974C9.9711 10.6826 10 10.7783 10 10.8848C10 10.9912 9.9711 11.0763 9.91329 11.1402L9.24855 11.8746C9.19075 11.9384 9.11368 11.9704 9.01734 11.9704C8.921 11.9704 8.8343 11.9384 8.75723 11.8746L5 7.72378L1.24277 11.8746C1.1657 11.9384 1.079 11.9704 0.982659 11.9704C0.88632 11.9704 0.809249 11.9384 0.751445 11.8746L0.0867052 11.1402C0.0289017 11.0763 0 10.9912 0 10.8848C0 10.7783 0.0289017 10.6826 0.0867052 10.5974L3.84393 6.44661L0.0867052 2.29581C0.0289017 2.21066 0 2.11488 0 2.00845C0 1.90201 0.0289017 1.81687 0.0867052 1.75301L0.751445 1.01864C0.809249 0.954781 0.88632 0.922852 0.982659 0.922852C1.079 0.922852 1.1657 0.954781 1.24277 1.01864L5 5.16944L8.75723 1.01864C8.8343 0.954781 8.921 0.922852 9.01734 0.922852C9.11368 0.922852 9.19075 0.954781 9.24855 1.01864L9.91329 1.75301C9.9711 1.81687 10 1.90201 10 2.00845C10 2.11488 9.9711 2.21066 9.91329 2.29581L6.15607 6.44661Z" fill="white"/>
</svg>
