<svg width="24" height="24" viewBox="0 0 24 24" fill="none" xmlns="http://www.w3.org/2000/svg">
<path d="M19.8111 3H10.5725C9.99484 3 9.44088 3.22946 9.03244 3.63789C8.62401 4.04633 8.39455 4.60029 8.39455 5.1779V8.44972C8.39455 8.65017 8.47418 8.84242 8.61592 8.98416C8.75766 9.1259 8.9499 9.20552 9.15035 9.20552C9.25338 9.21089 9.35642 9.19538 9.4533 9.15994C9.55019 9.12449 9.63891 9.06983 9.71414 8.99924C9.78937 8.92865 9.84956 8.84359 9.8911 8.74916C9.93265 8.65473 9.95468 8.55288 9.95588 8.44972V5.1779C9.95588 5.00382 10.025 4.83688 10.1481 4.71379C10.2712 4.5907 10.4382 4.52155 10.6122 4.52155H19.8509C20.0242 4.52411 20.1896 4.59409 20.3122 4.71663C20.4347 4.83917 20.5047 5.00462 20.5073 5.1779V18.8221C20.5047 18.9954 20.4347 19.1608 20.3122 19.2834C20.1896 19.4059 20.0242 19.4759 19.8509 19.4785H10.5725C10.4054 19.4683 10.2485 19.3947 10.1338 19.2727C10.0192 19.1507 9.95557 18.9895 9.95588 18.8221V15.5503C9.95326 15.3489 9.87143 15.1567 9.72811 15.0152C9.58479 14.8738 9.39151 14.7945 9.19013 14.7945C8.98968 14.7945 8.79744 14.8741 8.6557 15.0158C8.51396 15.1576 8.43433 15.3498 8.43433 15.5503V18.8221C8.43424 19.3929 8.65822 19.9409 9.0581 20.3482C9.45797 20.7555 10.0018 20.9896 10.5725 21H19.8111C20.3887 21 20.9427 20.7705 21.3511 20.3621C21.7596 19.9537 21.989 19.3997 21.989 18.8221V5.1779C21.989 4.60029 21.7596 4.04633 21.3511 3.63789C20.9427 3.22946 20.3887 3 19.8111 3Z" fill="black"/>
<path d="M4.59565 12.7558H16.2608C16.3601 12.7558 16.4584 12.7363 16.5501 12.6983C16.6418 12.6603 16.7251 12.6046 16.7953 12.5344C16.8655 12.4642 16.9211 12.3809 16.9591 12.2892C16.9971 12.1975 17.0166 12.0993 17.0166 12C17.0166 11.9007 16.9971 11.8025 16.9591 11.7108C16.9211 11.6191 16.8655 11.5357 16.7953 11.4656C16.7251 11.3954 16.6418 11.3397 16.5501 11.3017C16.4584 11.2637 16.3601 11.2442 16.2608 11.2442H4.59565L6.85311 8.96685C6.9906 8.81825 7.06541 8.62231 7.06195 8.41989C7.05807 8.22094 6.97588 8.03155 6.83322 7.89282C6.69045 7.75489 6.49969 7.67779 6.30118 7.67779C6.10266 7.67779 5.91191 7.75489 5.76913 7.89282L2.21886 11.463C2.15114 11.5355 2.09722 11.6197 2.05974 11.7116C2.02033 11.8026 2 11.9008 2 12C2 12.0992 2.02033 12.1974 2.05974 12.2884C2.09494 12.3814 2.14913 12.4661 2.21886 12.537L5.76913 16.0873C5.83896 16.1626 5.92359 16.2226 6.0177 16.2637C6.11182 16.3048 6.21341 16.326 6.3161 16.326C6.51645 16.3242 6.70855 16.2459 6.85311 16.1072C6.92493 16.0373 6.98214 15.9538 7.02141 15.8616C7.06068 15.7695 7.08122 15.6704 7.08184 15.5702C7.08307 15.4706 7.06435 15.3718 7.02677 15.2795C6.9892 15.1873 6.93353 15.1035 6.86306 15.0331L4.59565 12.7558Z" fill="black"/>
</svg>
