<svg width="277" height="81" viewBox="0 0 277 81" fill="none" xmlns="http://www.w3.org/2000/svg">
<path fill-rule="evenodd" clip-rule="evenodd" d="M37.3094 22.1858C37.5593 19.3691 37.4579 16.1941 37.5263 13.1935H42.2552V68.251H37.3825V59.5525C36.4324 62.5914 34.8294 64.9685 32.5098 66.777C30.308 68.4923 27.2811 69.8708 23.5635 69.8708C19.7446 69.8708 16.5668 68.2868 14.2542 66.335C11.9841 64.4166 10.0816 61.6644 9.23771 58.5205C7.29522 51.3032 9.85771 43.2546 12.4367 37.5161C14.4192 38.8229 16.2061 40.328 18.1085 41.7161C15.3245 36.7564 12.0925 30.705 12.5098 23.0697C12.8846 16.2012 17.2127 11.2751 23.9996 10.8355C28.059 10.5727 30.7865 12.4027 32.7267 14.4477C34.7988 16.6265 36.2863 19.1397 37.3094 22.1858ZM29.9638 17.6896C28.6248 16.0603 26.6446 14.6484 23.6366 14.9637C19.9379 15.3507 17.0006 19.4216 17.4555 23.882C17.604 25.344 18.1533 27.0522 18.6177 28.5979C20.9963 36.4865 25.2396 41.5369 28.5093 48.4244C29.8176 51.1814 31.324 54.581 30.9091 57.7847C30.4471 61.3491 26.9369 63.2221 23.2005 62.8709C20.275 62.5938 18.3183 61.2726 17.3094 59.7747C16.1849 58.1024 15.1194 55.0516 14.9826 52.2564C14.8247 49.0695 15.4565 46.4009 15.7087 43.1184C14.985 43.7085 15.0345 44.473 14.8365 45.1801C14.1764 47.531 13.4881 50.0609 13.6743 53.0663C13.8865 56.5543 15.0416 59.0652 16.5833 61.1006C18.1062 63.1146 20.3716 64.7415 23.5635 64.9326C28.8936 65.2528 31.8025 62.4672 32.2905 57.7847C32.8115 52.7988 30.6663 48.4818 28.9454 45.1801C27.1514 41.74 25.0133 38.0178 23.2736 34.7879C21.4324 31.374 19.1128 27.1191 19.1269 22.7758C19.1316 21.3759 19.5112 19.7418 20.0722 18.7957C21.3122 16.7053 24.4216 16.2323 26.9817 17.4698C29.8648 18.8626 31.3382 22.3124 32.0006 26.0918C32.2316 27.4129 32.6677 29.0375 32.4367 29.9238C32.2811 30.5235 31.3547 31.3262 30.9091 31.9139C30.341 32.6664 29.9897 33.3425 29.5277 33.9039C28.8205 30.3873 28.3183 26.7345 26.9817 23.7338C26.7012 23.1007 25.8832 21.3185 24.8742 21.5957C23.804 21.8895 24.629 25.1481 24.8742 25.9437C25.2207 27.0833 25.9798 28.7054 26.4725 29.7781C29.8789 37.1865 35.3622 43.1136 37.5263 51.2244V27.3461C36.4442 27.671 35.5201 28.1607 34.4004 28.4498C33.5423 24.6536 32.1939 20.4035 29.9638 17.6896ZM20.3646 46.3603C20.0274 47.863 19.7776 49.5473 19.7823 51.2244C19.7917 54.151 21.0081 56.6379 22.6913 57.6365C23.3938 58.0546 24.8294 58.4034 25.4541 57.7106C26.0741 57.0273 25.6003 55.1543 25.3103 54.2465C24.5748 51.9483 23.5777 50.2831 22.5451 48.4985C22.0359 47.6193 21.4984 46.647 20.6545 46.1381C20.6498 46.0951 20.6451 46.0521 20.5814 46.0665C20.4188 46.0856 20.3787 46.2958 20.3646 46.3603Z" fill="white"/>
<path fill-rule="evenodd" clip-rule="evenodd" d="M57.2359 13.0469H60.8734C59.7182 22.5122 58.8979 32.0373 56.2906 40.3176C55.9511 41.3951 55.4231 42.8166 54.7631 44.0756C54.2138 45.1268 53.2425 46.5697 51.9271 46.5076C49.591 46.4001 48.3628 42.0234 47.7829 40.1695C45.2392 32.0683 44.2421 22.6771 43.2001 13.195H46.5452C47.2501 19.6645 48.0657 26.1913 49.5273 32.1352C49.7465 33.0287 49.9351 33.9604 50.3265 35.0092C50.5858 35.7044 51.1492 37.1044 51.781 37.1474C52.4976 37.1976 53.1247 35.7689 53.3816 35.0833C54.3906 32.3956 54.9068 29.2039 55.4184 26.165C56.1539 21.7859 56.6537 17.6529 57.1629 13.2691C57.1581 13.1639 57.1511 13.0588 57.2359 13.0469Z" fill="white"/>
<path fill-rule="evenodd" clip-rule="evenodd" d="M44 30.5145C44.0613 30.5002 44.0684 30.5432 44.0731 30.5886C45.2565 35.9496 46.223 41.2293 48.7266 45.5511C49.4149 46.7384 50.7185 48.7046 52.364 48.4991C53.2409 48.3869 54.0637 47.7346 54.6176 47.0968C56.2018 45.2787 57.305 42.3283 58.182 39.5068C59.1014 36.5444 59.8086 33.3909 60.3626 30.5145C60.5323 42.9446 60.3885 55.6973 60.4356 68.2516H55.7091V53.583C54.7662 54.111 53.6488 56.8273 52.001 56.8273C50.4805 56.8273 49.5116 54.5697 48.5097 53.8792V68.2516H44V30.5145Z" fill="white"/>
<path fill-rule="evenodd" clip-rule="evenodd" d="M80 38.621V42.453C79.1961 54.3098 74.2716 63.4813 67.7817 69.6497C61.1386 75.9639 52.5436 81 40.1462 81C27.9986 81 18.76 76.0404 12.3645 69.7979C9.09948 66.6109 6.39321 62.9748 4.14663 58.4476C2.01555 54.1521 0.318246 48.6549 0 42.8209V38.1791C0.693069 26.8407 5.82509 17.7576 11.8553 11.6465C18.1565 5.25825 26.7704 0.843327 38.1094 0H41.8906C53.0057 0.642649 62.0179 5.51149 68.2909 11.8663C74.5686 18.2307 79.3541 27.2588 80 38.621ZM63.9274 10.6885C57.8972 5.62855 49.2456 1.59348 37.8901 2.13818C30.8934 2.47264 24.7478 4.83539 20 7.81212C15.2452 10.796 11.1952 14.9529 8.21783 19.4586C5.07073 24.2224 2.9255 29.9297 2.25601 36.9989C1.59594 43.951 3.04809 51.2518 5.60113 56.7514C10.4055 67.1054 19.6558 75.1947 31.273 77.9038C38.0622 79.4901 45.7119 78.9646 51.636 77.0199C57.1924 75.1971 61.636 72.3661 65.455 68.9139C65.6271 68.7586 66.1504 68.6392 65.9642 68.2498H62.1099V13.0465H66.3272C65.7001 12.141 64.7831 11.4052 63.9274 10.6885ZM66.9826 67.4399C72.9774 61.6178 77.8902 52.3078 77.8902 40.6852C77.8902 28.0759 72.7534 19.5184 66.5464 13.1205C66.5417 13.0417 66.4521 13.0608 66.4734 13.1946V67.8078C66.7468 67.9177 66.8505 67.5665 66.9826 67.4399Z" fill="white"/>
<path d="M101.563 12.9463H111.578C113.561 12.9463 115.036 13.0317 116.004 13.2026C116.984 13.3621 117.856 13.7039 118.619 14.228C119.394 14.7521 120.038 15.4528 120.55 16.3301C121.063 17.196 121.319 18.1701 121.319 19.2524C121.319 20.4259 121 21.5026 120.362 22.4824C119.736 23.4622 118.881 24.1971 117.799 24.687C119.326 25.1313 120.499 25.889 121.319 26.96C122.14 28.0309 122.55 29.2899 122.55 30.7368C122.55 31.8761 122.282 32.987 121.747 34.0693C121.222 35.1403 120.499 36.0005 119.576 36.6499C118.665 37.2879 117.537 37.681 116.192 37.8291C115.349 37.9202 113.316 37.9772 110.091 38H101.563V12.9463ZM106.622 17.1162V22.9097H109.938C111.909 22.9097 113.133 22.8812 113.612 22.8242C114.478 22.7217 115.156 22.4255 115.646 21.9355C116.147 21.4342 116.397 20.7791 116.397 19.9702C116.397 19.1955 116.181 18.5688 115.748 18.0903C115.326 17.6004 114.694 17.3042 113.851 17.2017C113.35 17.1447 111.909 17.1162 109.527 17.1162H106.622ZM106.622 27.0796V33.7788H111.305C113.128 33.7788 114.284 33.7275 114.774 33.625C115.526 33.4883 116.135 33.1579 116.603 32.6338C117.081 32.0983 117.32 31.3862 117.32 30.4976C117.32 29.7456 117.138 29.1076 116.773 28.5835C116.409 28.0594 115.879 27.6777 115.184 27.4385C114.5 27.1992 113.008 27.0796 110.707 27.0796H106.622ZM126.686 38V12.9463H131.744V38H126.686ZM136.717 38V13.1514H141.776V33.7788H154.354V38H136.717ZM158.114 38V13.1514H163.172V33.7788H175.75V38H158.114ZM178.092 29.8481L183.014 29.3696C183.31 31.0216 183.908 32.235 184.808 33.0098C185.72 33.7845 186.944 34.1719 188.482 34.1719C190.112 34.1719 191.336 33.8301 192.157 33.1465C192.988 32.4515 193.404 31.6426 193.404 30.7197C193.404 30.1273 193.228 29.626 192.875 29.2158C192.533 28.7943 191.929 28.4297 191.063 28.1221C190.471 27.917 189.12 27.5524 187.013 27.0283C184.301 26.3561 182.398 25.5301 181.305 24.5503C179.767 23.1717 178.998 21.4912 178.998 19.5088C178.998 18.2327 179.356 17.0422 180.074 15.937C180.803 14.8205 181.846 13.9717 183.202 13.3906C184.569 12.8096 186.215 12.519 188.141 12.519C191.285 12.519 193.649 13.2083 195.233 14.5869C196.828 15.9655 197.665 17.8055 197.745 20.1069L192.687 20.3291C192.47 19.0417 192.003 18.1188 191.285 17.5605C190.579 16.9909 189.514 16.7061 188.089 16.7061C186.62 16.7061 185.469 17.008 184.637 17.6118C184.102 17.9992 183.834 18.5176 183.834 19.167C183.834 19.7594 184.085 20.2664 184.586 20.688C185.224 21.2235 186.773 21.7817 189.234 22.3628C191.695 22.9438 193.513 23.5477 194.686 24.1743C195.871 24.7896 196.794 25.6383 197.455 26.7207C198.127 27.7917 198.463 29.119 198.463 30.7026C198.463 32.1382 198.064 33.4826 197.267 34.7358C196.469 35.9891 195.341 36.9233 193.883 37.5386C192.424 38.1424 190.607 38.4443 188.431 38.4443C185.264 38.4443 182.831 37.7152 181.134 36.2568C179.436 34.7871 178.422 32.6509 178.092 29.8481ZM212.459 38V12.9463H220.577C223.653 12.9463 225.659 13.0716 226.593 13.3223C228.028 13.6982 229.23 14.5186 230.199 15.7832C231.167 17.0365 231.651 18.66 231.651 20.6538C231.651 22.1919 231.372 23.485 230.814 24.5332C230.256 25.5814 229.544 26.4074 228.678 27.0112C227.823 27.6037 226.952 27.9967 226.063 28.1904C224.855 28.4297 223.106 28.5493 220.816 28.5493H217.518V38H212.459ZM217.518 17.1846V24.2939H220.287C222.28 24.2939 223.613 24.1629 224.286 23.9009C224.958 23.6388 225.482 23.2287 225.858 22.6704C226.245 22.1121 226.439 21.4627 226.439 20.7222C226.439 19.8107 226.171 19.0588 225.636 18.4663C225.1 17.8739 224.422 17.5036 223.602 17.3555C222.998 17.2415 221.785 17.1846 219.962 17.1846H217.518ZM255.799 38H250.296L248.109 32.3091H238.094L236.026 38H230.66L240.418 12.9463H245.768L255.799 38ZM246.485 28.0879L243.033 18.791L239.649 28.0879H246.485ZM261.866 38V27.4556L252.689 12.9463H258.619L264.515 22.8584L270.292 12.9463H276.119L266.908 27.4897V38H261.866Z" fill="white"/>
<path d="M99.9185 56.376C99.9185 54.1185 100.525 52.3527 101.737 51.0786C102.949 49.7983 104.514 49.1582 106.431 49.1582C107.687 49.1582 108.819 49.4582 109.827 50.0581C110.835 50.658 111.602 51.4961 112.127 52.5723C112.659 53.6423 112.925 54.8576 112.925 56.2183C112.925 57.5975 112.647 58.8314 112.09 59.9199C111.534 61.0085 110.745 61.8341 109.725 62.397C108.704 62.9536 107.603 63.2319 106.422 63.2319C105.142 63.2319 103.997 62.9227 102.989 62.3042C101.981 61.6857 101.217 60.8415 100.698 59.7715C100.178 58.7015 99.9185 57.5697 99.9185 56.376ZM101.774 56.4038C101.774 58.0428 102.213 59.3354 103.091 60.2817C103.976 61.2218 105.083 61.6919 106.413 61.6919C107.767 61.6919 108.88 61.2157 109.752 60.2632C110.631 59.3107 111.07 57.9593 111.07 56.209C111.07 55.1019 110.881 54.137 110.504 53.3145C110.133 52.4857 109.585 51.8455 108.862 51.394C108.144 50.9364 107.337 50.7075 106.44 50.7075C105.166 50.7075 104.069 51.1466 103.147 52.0249C102.232 52.897 101.774 54.3566 101.774 56.4038ZM115.041 63V53.1475H116.543V54.5483C117.267 53.466 118.312 52.9248 119.679 52.9248C120.273 52.9248 120.817 53.033 121.312 53.2495C121.813 53.4598 122.187 53.7381 122.435 54.0845C122.682 54.4308 122.855 54.8421 122.954 55.3184C123.016 55.6276 123.047 56.1688 123.047 56.9419V63H121.377V57.0068C121.377 56.3265 121.312 55.8193 121.182 55.4854C121.052 55.1452 120.82 54.8761 120.486 54.6782C120.159 54.4741 119.772 54.3721 119.327 54.3721C118.615 54.3721 118 54.5978 117.48 55.0493C116.967 55.5008 116.71 56.3574 116.71 57.6191V63H115.041ZM132.361 59.8271L134.087 60.0405C133.815 61.0487 133.311 61.8311 132.575 62.3877C131.839 62.9443 130.899 63.2227 129.754 63.2227C128.313 63.2227 127.169 62.7804 126.322 61.896C125.481 61.0054 125.06 59.7591 125.06 58.1572C125.06 56.4997 125.487 55.2132 126.34 54.2979C127.194 53.3825 128.301 52.9248 129.662 52.9248C130.979 52.9248 132.055 53.3732 132.89 54.27C133.725 55.1668 134.143 56.4285 134.143 58.0552C134.143 58.1541 134.139 58.3026 134.133 58.5005H126.786C126.847 59.5828 127.154 60.4116 127.704 60.9868C128.255 61.562 128.941 61.8496 129.764 61.8496C130.376 61.8496 130.899 61.6888 131.332 61.3672C131.764 61.0456 132.108 60.5322 132.361 59.8271ZM126.878 57.1274H132.38C132.306 56.2987 132.095 55.6771 131.749 55.2627C131.217 54.6195 130.528 54.2979 129.68 54.2979C128.913 54.2979 128.267 54.5545 127.741 55.0679C127.222 55.5812 126.934 56.2677 126.878 57.1274ZM141.694 63V49.3994H146.825C147.728 49.3994 148.417 49.4427 148.894 49.5293C149.562 49.6406 150.121 49.854 150.573 50.1694C151.024 50.4787 151.386 50.9147 151.658 51.4775C151.937 52.0404 152.076 52.6589 152.076 53.333C152.076 54.4896 151.708 55.4699 150.972 56.2739C150.236 57.0718 148.906 57.4707 146.982 57.4707H143.494V63H141.694ZM143.494 55.8657H147.01C148.173 55.8657 148.999 55.6493 149.487 55.2163C149.976 54.7834 150.22 54.1742 150.22 53.3887C150.22 52.8197 150.075 52.3341 149.784 51.9321C149.5 51.5239 149.122 51.2549 148.652 51.125C148.349 51.0446 147.79 51.0044 146.973 51.0044H143.494V55.8657ZM154.117 63V49.3994H155.787V63H154.117ZM164.813 61.7847C164.195 62.3104 163.598 62.6815 163.023 62.8979C162.454 63.1144 161.842 63.2227 161.186 63.2227C160.104 63.2227 159.272 62.9598 158.69 62.4341C158.109 61.9022 157.818 61.2249 157.818 60.4023C157.818 59.9199 157.927 59.4808 158.143 59.085C158.366 58.6829 158.653 58.3613 159.006 58.1201C159.365 57.8789 159.767 57.6965 160.212 57.5728C160.54 57.4862 161.035 57.4027 161.696 57.3223C163.045 57.1615 164.037 56.9697 164.674 56.7471C164.681 56.5182 164.684 56.3729 164.684 56.311C164.684 55.6307 164.526 55.1514 164.21 54.873C163.784 54.4958 163.15 54.3071 162.309 54.3071C161.523 54.3071 160.942 54.4463 160.564 54.7246C160.193 54.9967 159.918 55.4823 159.739 56.1812L158.106 55.9585C158.254 55.2596 158.499 54.6968 158.839 54.27C159.179 53.8371 159.671 53.5062 160.314 53.2773C160.957 53.0423 161.702 52.9248 162.55 52.9248C163.391 52.9248 164.074 53.0238 164.6 53.2217C165.126 53.4196 165.512 53.6701 165.76 53.9731C166.007 54.27 166.18 54.6473 166.279 55.105C166.335 55.3895 166.363 55.9028 166.363 56.645V58.8716C166.363 60.424 166.397 61.4074 166.465 61.8218C166.539 62.23 166.681 62.6227 166.892 63H165.147C164.974 62.6536 164.863 62.2485 164.813 61.7847ZM164.674 58.0552C164.068 58.3026 163.159 58.5129 161.947 58.686C161.26 58.785 160.775 58.8963 160.49 59.02C160.206 59.1437 159.986 59.3262 159.832 59.5674C159.677 59.8024 159.6 60.0653 159.6 60.356C159.6 60.8013 159.767 61.1724 160.101 61.4692C160.441 61.7661 160.936 61.9146 161.585 61.9146C162.228 61.9146 162.8 61.7754 163.301 61.4971C163.802 61.2126 164.17 60.826 164.405 60.3374C164.585 59.9601 164.674 59.4035 164.674 58.6675V58.0552ZM175.39 59.3911L177.032 59.6045C176.852 60.7363 176.392 61.6239 175.649 62.2671C174.913 62.9041 174.007 63.2227 172.931 63.2227C171.583 63.2227 170.497 62.7835 169.675 61.9053C168.858 61.0208 168.45 59.756 168.45 58.1108C168.45 57.047 168.626 56.1162 168.979 55.3184C169.332 54.5205 169.867 53.9237 170.584 53.5278C171.308 53.1258 172.093 52.9248 172.94 52.9248C174.01 52.9248 174.886 53.1969 175.566 53.7412C176.246 54.2793 176.682 55.0462 176.874 56.042L175.25 56.2925C175.096 55.6307 174.821 55.1328 174.425 54.7988C174.035 54.4648 173.562 54.2979 173.005 54.2979C172.164 54.2979 171.481 54.6009 170.955 55.207C170.429 55.807 170.167 56.7594 170.167 58.0645C170.167 59.388 170.42 60.3498 170.927 60.9497C171.434 61.5496 172.096 61.8496 172.913 61.8496C173.568 61.8496 174.116 61.6486 174.555 61.2466C174.994 60.8446 175.272 60.2261 175.39 59.3911ZM185.205 59.8271L186.931 60.0405C186.659 61.0487 186.154 61.8311 185.418 62.3877C184.682 62.9443 183.742 63.2227 182.598 63.2227C181.157 63.2227 180.013 62.7804 179.166 61.896C178.324 61.0054 177.904 59.7591 177.904 58.1572C177.904 56.4997 178.331 55.2132 179.184 54.2979C180.038 53.3825 181.145 52.9248 182.505 52.9248C183.823 52.9248 184.899 53.3732 185.734 54.27C186.569 55.1668 186.986 56.4285 186.986 58.0552C186.986 58.1541 186.983 58.3026 186.977 58.5005H179.629C179.691 59.5828 179.997 60.4116 180.548 60.9868C181.098 61.562 181.785 61.8496 182.607 61.8496C183.22 61.8496 183.742 61.6888 184.175 61.3672C184.608 61.0456 184.951 60.5322 185.205 59.8271ZM179.722 57.1274H185.224C185.149 56.2987 184.939 55.6771 184.593 55.2627C184.061 54.6195 183.371 54.2979 182.524 54.2979C181.757 54.2979 181.111 54.5545 180.585 55.0679C180.065 55.5812 179.778 56.2677 179.722 57.1274ZM197.971 61.5063L198.212 62.9814C197.742 63.0804 197.321 63.1299 196.95 63.1299C196.344 63.1299 195.874 63.034 195.54 62.8423C195.206 62.6506 194.971 62.4001 194.835 62.0908C194.699 61.7754 194.631 61.1167 194.631 60.1147V54.4463H193.406V53.1475H194.631V50.7075L196.292 49.7056V53.1475H197.971V54.4463H196.292V60.2075C196.292 60.6838 196.319 60.9899 196.375 61.126C196.437 61.262 196.533 61.3703 196.663 61.4507C196.799 61.5311 196.99 61.5713 197.238 61.5713C197.423 61.5713 197.668 61.5496 197.971 61.5063ZM198.991 58.0737C198.991 56.2492 199.498 54.8978 200.513 54.0195C201.36 53.2897 202.393 52.9248 203.611 52.9248C204.966 52.9248 206.073 53.3701 206.933 54.2607C207.792 55.1452 208.222 56.3698 208.222 57.9346C208.222 59.2025 208.03 60.2013 207.647 60.9312C207.27 61.6548 206.716 62.2176 205.986 62.6196C205.263 63.0216 204.471 63.2227 203.611 63.2227C202.232 63.2227 201.116 62.7804 200.262 61.896C199.415 61.0116 198.991 59.7375 198.991 58.0737ZM200.708 58.0737C200.708 59.3354 200.983 60.2817 201.533 60.9126C202.084 61.5373 202.776 61.8496 203.611 61.8496C204.44 61.8496 205.13 61.5342 205.68 60.9033C206.231 60.2725 206.506 59.3107 206.506 58.0181C206.506 56.7996 206.228 55.8781 205.671 55.2534C205.12 54.6226 204.434 54.3071 203.611 54.3071C202.776 54.3071 202.084 54.6195 201.533 55.2441C200.983 55.8688 200.708 56.812 200.708 58.0737ZM215.69 63V49.3994H220.821C221.724 49.3994 222.413 49.4427 222.89 49.5293C223.558 49.6406 224.117 49.854 224.569 50.1694C225.02 50.4787 225.382 50.9147 225.654 51.4775C225.933 52.0404 226.072 52.6589 226.072 53.333C226.072 54.4896 225.704 55.4699 224.968 56.2739C224.232 57.0718 222.902 57.4707 220.979 57.4707H217.49V63H215.69ZM217.49 55.8657H221.006C222.169 55.8657 222.995 55.6493 223.483 55.2163C223.972 54.7834 224.216 54.1742 224.216 53.3887C224.216 52.8197 224.071 52.3341 223.78 51.9321C223.496 51.5239 223.118 51.2549 222.648 51.125C222.345 51.0446 221.786 51.0044 220.969 51.0044H217.49V55.8657ZM234.579 61.7847C233.961 62.3104 233.364 62.6815 232.789 62.8979C232.22 63.1144 231.607 63.2227 230.952 63.2227C229.869 63.2227 229.037 62.9598 228.456 62.4341C227.875 61.9022 227.584 61.2249 227.584 60.4023C227.584 59.9199 227.692 59.4808 227.909 59.085C228.131 58.6829 228.419 58.3613 228.771 58.1201C229.13 57.8789 229.532 57.6965 229.978 57.5728C230.305 57.4862 230.8 57.4027 231.462 57.3223C232.81 57.1615 233.803 56.9697 234.44 56.7471C234.446 56.5182 234.449 56.3729 234.449 56.311C234.449 55.6307 234.292 55.1514 233.976 54.873C233.549 54.4958 232.915 54.3071 232.074 54.3071C231.289 54.3071 230.707 54.4463 230.33 54.7246C229.959 54.9967 229.684 55.4823 229.504 56.1812L227.872 55.9585C228.02 55.2596 228.264 54.6968 228.604 54.27C228.945 53.8371 229.436 53.5062 230.08 53.2773C230.723 53.0423 231.468 52.9248 232.315 52.9248C233.157 52.9248 233.84 53.0238 234.366 53.2217C234.891 53.4196 235.278 53.6701 235.525 53.9731C235.773 54.27 235.946 54.6473 236.045 55.105C236.101 55.3895 236.128 55.9028 236.128 56.645V58.8716C236.128 60.424 236.162 61.4074 236.23 61.8218C236.305 62.23 236.447 62.6227 236.657 63H234.913C234.74 62.6536 234.629 62.2485 234.579 61.7847ZM234.44 58.0552C233.834 58.3026 232.925 58.5129 231.712 58.686C231.026 58.785 230.54 58.8963 230.256 59.02C229.971 59.1437 229.752 59.3262 229.597 59.5674C229.443 59.8024 229.365 60.0653 229.365 60.356C229.365 60.8013 229.532 61.1724 229.866 61.4692C230.206 61.7661 230.701 61.9146 231.351 61.9146C231.994 61.9146 232.566 61.7754 233.067 61.4971C233.568 61.2126 233.936 60.826 234.171 60.3374C234.35 59.9601 234.44 59.4035 234.44 58.6675V58.0552ZM238.652 66.7944L238.466 65.2266C238.831 65.3255 239.15 65.375 239.422 65.375C239.793 65.375 240.09 65.3132 240.312 65.1895C240.535 65.0658 240.718 64.8926 240.86 64.6699C240.965 64.5029 241.135 64.0885 241.37 63.4268C241.401 63.334 241.451 63.1979 241.519 63.0186L237.78 53.1475H239.58L241.63 58.853C241.896 59.5767 242.134 60.3374 242.344 61.1353C242.536 60.3683 242.765 59.62 243.031 58.8901L245.137 53.1475H246.807L243.059 63.167C242.657 64.2493 242.344 64.9946 242.122 65.4028C241.825 65.9533 241.485 66.3553 241.101 66.6089C240.718 66.8687 240.26 66.9985 239.728 66.9985C239.406 66.9985 239.048 66.9305 238.652 66.7944ZM251.176 63L256.399 49.3994H258.338L263.905 63H261.854L260.268 58.8809H254.581L253.087 63H251.176ZM255.101 57.415H259.711L258.292 53.6484C257.859 52.5042 257.537 51.5641 257.327 50.8281C257.154 51.7002 256.91 52.5661 256.594 53.4258L255.101 57.415ZM265.092 63V49.3994H266.762V63H265.092ZM269.323 63V49.3994H270.993V63H269.323Z" fill="white"/>
</svg>
