<svg width="24" height="24" viewBox="0 0 24 24" fill="none" xmlns="http://www.w3.org/2000/svg">
<path d="M18.1439 4.75569C17.6966 4.34296 15.889 3.03075 11.8627 3.01292C11.8627 3.01292 7.11466 2.7266 4.80007 4.84969C3.51163 6.1384 3.05838 8.02405 3.01057 10.3619C2.96276 12.6997 2.9009 17.0809 7.12412 18.2689H7.12817L7.12547 20.0816C7.12547 20.0816 7.09846 20.8155 7.58169 20.9652C8.16621 21.1467 8.50925 20.5889 9.06731 19.9876C9.37362 19.6575 9.79661 19.1727 10.1153 18.8021C13.0037 19.0452 15.2251 18.4896 15.4774 18.4075C16.0605 18.2184 19.3605 17.7957 19.8972 13.4147C20.4512 8.89922 19.6293 6.04305 18.1439 4.75569Z" fill="white"/>
<path d="M17.2047 5.66762C16.8265 5.32403 15.1942 4.29842 11.7884 4.28356C11.7884 4.28356 7.75532 4.01858 5.79754 5.79187C4.70791 6.86773 4.34082 8.46761 4.30058 10.42C4.26033 12.3724 4.0518 16.1021 7.62296 17.0942C7.62296 17.0942 7.60892 19.8631 7.6073 20.1065C7.6073 20.2767 7.63431 20.3931 7.73155 20.4171C7.80151 20.4342 7.90631 20.398 7.99545 20.3091C8.56647 19.7356 10.3946 17.5302 10.3946 17.5302C12.8475 17.6903 14.7991 17.206 15.0089 17.1374C15.5038 16.9783 18.1803 16.7485 18.6333 13.0895C19.1014 9.31792 18.4612 6.74348 17.2047 5.66762Z" fill="#161720"/>
<path fill-rule="evenodd" clip-rule="evenodd" d="M11.932 8.84169C11.9385 8.7161 12.0456 8.61961 12.1712 8.62616C12.6411 8.65067 13.032 8.7929 13.3104 9.08077C13.5878 9.36754 13.7237 9.76816 13.7476 10.2493C13.7538 10.3749 13.6571 10.4818 13.5315 10.488C13.4059 10.4942 13.299 10.3975 13.2927 10.2719C13.2723 9.85999 13.1593 9.57961 12.9831 9.39738C12.8079 9.21624 12.5405 9.10146 12.1475 9.08095C12.0219 9.0744 11.9254 8.96728 11.932 8.84169Z" fill="white"/>
<path fill-rule="evenodd" clip-rule="evenodd" d="M11.5868 7.61494C11.596 7.48952 11.7051 7.39528 11.8305 7.40446C12.7867 7.47445 13.5564 7.80117 14.117 8.41315L14.1171 8.41323C14.6716 9.01919 14.9352 9.77299 14.9161 10.6572C14.9133 10.7829 14.8092 10.8826 14.6835 10.8799C14.5578 10.8772 14.458 10.773 14.4608 10.6473C14.4776 9.86758 14.2483 9.2312 13.7811 8.72069C13.3153 8.21229 12.6642 7.92211 11.7973 7.85866C11.6718 7.84948 11.5776 7.74036 11.5868 7.61494Z" fill="white"/>
<path fill-rule="evenodd" clip-rule="evenodd" d="M11.1848 6.44878C11.1857 6.32302 11.2883 6.22179 11.4141 6.22266C12.7355 6.23187 13.8525 6.67179 14.7493 7.54604C15.6536 8.4276 16.1008 9.62776 16.1122 11.1183C16.1131 11.2441 16.012 11.3468 15.8862 11.3478C15.7604 11.3487 15.6577 11.2476 15.6568 11.1218C15.6461 9.72506 15.2306 8.65123 14.4314 7.87214C13.6247 7.08573 12.6231 6.6865 11.4109 6.67806C11.2851 6.67719 11.1839 6.57453 11.1848 6.44878Z" fill="white"/>
<path d="M12.2045 13.3104C12.2045 13.3104 12.5245 13.3374 12.6969 13.1251L13.0329 12.7024C13.195 12.4928 13.5861 12.3591 13.9691 12.5725C14.2561 12.7362 14.5348 12.9141 14.804 13.1057C15.0582 13.2926 15.5787 13.7269 15.5803 13.7269C15.8283 13.9363 15.8856 14.2436 15.7167 14.5678C15.7167 14.5697 15.7154 14.5729 15.7154 14.5745C15.5294 14.8969 15.2934 15.1875 15.0161 15.4357C15.0128 15.4373 15.0128 15.4389 15.0098 15.4405C14.7689 15.6418 14.5322 15.7563 14.2997 15.7838C14.2655 15.7898 14.2307 15.792 14.196 15.7903C14.0935 15.7913 13.9915 15.7756 13.894 15.7439L13.8864 15.7328C13.5283 15.6318 12.9302 15.3789 11.9343 14.8295C11.358 14.5153 10.8094 14.1529 10.2942 13.7461C10.036 13.5423 9.78971 13.3239 9.55653 13.0919L9.48198 13.0173C9.47361 13.0092 9.46551 13.0009 9.45713 12.9925C9.22513 12.7593 9.0067 12.513 8.80292 12.2548C8.39618 11.7397 8.03375 11.1911 7.7195 10.6149C7.17009 9.61877 6.91726 9.02128 6.81624 8.66257L6.80516 8.65501C6.7735 8.55752 6.7579 8.45552 6.75898 8.35302C6.75709 8.31833 6.75917 8.28352 6.76519 8.2493C6.79418 8.01718 6.9088 7.78029 7.10904 7.53863C7.11066 7.53566 7.11228 7.53566 7.1139 7.53242C7.36195 7.2551 7.65264 7.01912 7.97502 6.83337C7.97664 6.83337 7.97989 6.83175 7.98178 6.83175C8.30591 6.66293 8.6133 6.72019 8.82237 6.9668C8.82399 6.96843 9.25752 7.48893 9.44363 7.74311C9.6352 8.01261 9.81316 8.29154 9.97683 8.57884C10.1902 8.96159 10.0565 9.35352 9.84691 9.51505L9.42418 9.85107C9.21079 10.0234 9.23888 10.3435 9.23888 10.3435C9.23888 10.3435 9.865 12.7132 12.2045 13.3104Z" fill="white"/>
</svg>
