<svg width="20" height="20" viewBox="0 0 20 20" fill="none" xmlns="http://www.w3.org/2000/svg">
<path d="M10 0C8.02219 0 6.08879 0.58649 4.4443 1.6853C2.79981 2.78412 1.51809 4.3459 0.761209 6.17317C0.00433284 8.00043 -0.193701 10.0111 0.192152 11.9509C0.578004 13.8907 1.53041 15.6725 2.92894 17.0711C4.32746 18.4696 6.10929 19.422 8.0491 19.8079C9.98891 20.1937 11.9996 19.9957 13.8268 19.2388C15.6541 18.4819 17.2159 17.2002 18.3147 15.5557C19.4135 13.9112 20 11.9778 20 10C20 7.34784 18.9464 4.8043 17.0711 2.92893C15.1957 1.05357 12.6522 0 10 0V0ZM10 18.54C8.31095 18.54 6.65983 18.0391 5.25543 17.1007C3.85104 16.1624 2.75645 14.8286 2.11007 13.2681C1.4637 11.7076 1.29458 9.99053 1.6241 8.33393C1.95362 6.67733 2.76697 5.15565 3.96131 3.96131C5.15565 2.76697 6.67734 1.95361 8.33393 1.62409C9.99053 1.29458 11.7076 1.4637 13.2681 2.11007C14.8286 2.75644 16.1624 3.85103 17.1008 5.25543C18.0391 6.65983 18.54 8.31095 18.54 10C18.5374 12.2641 17.6368 14.4348 16.0358 16.0358C14.4348 17.6368 12.2641 18.5374 10 18.54ZM15.25 6.54C15.3795 6.67422 15.4519 6.85347 15.4519 7.04C15.4519 7.22653 15.3795 7.40578 15.25 7.54L9.25 13.24C9.01435 13.4694 8.69889 13.5985 8.37 13.6C8.20222 13.6071 8.03514 13.5745 7.88226 13.505C7.72938 13.4355 7.59501 13.3311 7.49 13.2L4.78 10.72C4.65047 10.5858 4.57808 10.4065 4.57808 10.22C4.57808 10.0335 4.65047 9.85422 4.78 9.72C4.91538 9.59274 5.0942 9.52188 5.28 9.52188C5.46581 9.52188 5.64462 9.59274 5.78 9.72L8.33 12.15L14.21 6.6C14.2759 6.52907 14.3553 6.47196 14.4435 6.43199C14.5317 6.39203 14.6269 6.37001 14.7237 6.36722C14.8205 6.36443 14.9169 6.38092 15.0072 6.41573C15.0976 6.45055 15.1801 6.50299 15.25 6.57V6.54Z" fill="white"/>
</svg>
