<svg width="12" height="8" viewBox="0 0 12 8" fill="none" xmlns="http://www.w3.org/2000/svg">
<path d="M0 1.69962C0.000175476 1.50077 0.0793076 1.31013 0.22 1.16962C0.35848 1.04865 0.536122 0.981981 0.72 0.981981C0.903878 0.981981 1.08152 1.04865 1.22 1.16962L6 5.90962L10.73 1.20962C10.8713 1.07757 11.0566 1.00273 11.25 0.999618C11.3469 0.999924 11.4429 1.01954 11.5321 1.05731C11.6214 1.09508 11.7023 1.15026 11.77 1.21962C11.9028 1.34612 11.9846 1.51688 12 1.69962C11.9997 1.79656 11.9801 1.89247 11.9423 1.98175C11.9045 2.07103 11.8494 2.15189 11.78 2.21962L6.52 7.47962C6.38462 7.60688 6.20581 7.67773 6.02 7.67773C5.83419 7.67773 5.65538 7.60688 5.52 7.47962L0.26 2.26962C0.177073 2.19986 0.110715 2.11252 0.0657434 2.01393C0.020772 1.91534 -0.0016861 1.80797 0 1.69962Z" fill="#161720"/>
</svg>
