<svg width="38" height="10" viewBox="0 0 38 10" fill="none" xmlns="http://www.w3.org/2000/svg">
<path d="M5.42339 0.183406C5.30629 0.066163 5.14743 0.000219497 4.98173 7.36214e-05C4.89144 -0.00133115 4.80196 0.0173833 4.7198 0.0548594C4.63764 0.0923355 4.56486 0.147633 4.50673 0.216739L0.165096 4.60004C0.0590429 4.71286 0 4.86187 0 5.0167C0 5.17154 0.0590429 5.32055 0.165096 5.43337L4.5484 9.81667C4.60483 9.87447 4.67222 9.92045 4.74662 9.95193C4.82102 9.9834 4.90094 9.99974 4.98173 10C5.13401 9.98716 5.27631 9.91898 5.38172 9.80833C5.43952 9.7519 5.4855 9.68451 5.51698 9.61011C5.54846 9.53571 5.5648 9.45579 5.56506 9.375C5.56246 9.21386 5.50009 9.05943 5.39006 8.94167L2.28343 5.81522H37.3025C37.6877 5.81522 38 5.50295 38 5.11775C38 4.73255 37.6877 4.42028 37.3025 4.42028H2.04833L5.42339 1.01673C5.5242 0.901334 5.57975 0.7533 5.57975 0.600069C5.57975 0.446839 5.5242 0.298805 5.42339 0.183406Z" fill="#403F47"/>
</svg>
