<svg width="28" height="20" viewBox="0 0 28 20" fill="none" xmlns="http://www.w3.org/2000/svg">
<path d="M26.1593 1.67431C24.0679 0.8643 21.8022 0.610543 19.5835 0.937825C17.8834 1.15422 16.2003 1.48819 14.5464 1.93735H14.3228C12.4156 2.47846 10.4733 2.88713 8.5098 3.16044C6.54196 3.45768 4.53338 3.33214 2.61787 2.7922C2.40237 2.7131 2.17148 2.685 1.9433 2.7101C1.71512 2.7352 1.49586 2.81282 1.30271 2.93687C1.11466 3.09799 0.966806 3.30077 0.870913 3.52909C0.77502 3.7574 0.733735 4.00495 0.750342 4.25203V17.0222C0.732679 17.3042 0.806278 17.5843 0.960242 17.8212C1.11421 18.0581 1.34035 18.2391 1.6052 18.3374C3.05013 18.9429 4.60214 19.2515 6.16881 19.2448H6.37924C8.33216 19.1855 10.2727 18.9121 12.1659 18.4294L13.5995 18.1796C15.0856 17.8245 16.6243 17.4431 18.1368 17.1537C20.5135 16.617 22.987 16.6848 25.3307 17.351C25.5348 17.4271 25.7546 17.4513 25.9704 17.4215C26.1862 17.3917 26.3912 17.3087 26.567 17.18C26.7544 17.0345 26.9046 16.8465 27.0052 16.6316C27.1058 16.4167 27.1539 16.1809 27.1456 15.9438V3.12099C27.1688 2.80388 27.084 2.48826 26.9049 2.22556C26.7257 1.96286 26.4629 1.76856 26.1593 1.67431ZM2.17072 16.9039C2.17072 13.5634 2.17072 10.2228 2.17072 6.88235V4.37039C2.17072 4.37039 2.17072 4.29148 2.17072 4.25203L2.67048 4.37039L3.81467 4.62027C5.16002 4.86083 6.53266 4.90954 7.89167 4.76494C10.0548 4.5035 12.1927 4.06361 14.2834 3.44978L15.5985 3.12099C17.4601 2.6032 19.3755 2.30309 21.3063 2.22668H21.5036C22.8532 2.20955 24.1933 2.45523 25.4491 2.95002C25.6069 2.95002 25.6464 3.06838 25.6464 3.21305C25.6464 6.65877 25.6464 10.1045 25.6464 13.537V15.8254C25.6464 15.8254 25.6464 15.8254 25.6464 15.8912L25.1334 15.7728C24.7257 15.6808 24.3575 15.5887 23.963 15.5229C22.6309 15.2824 21.2713 15.2337 19.9254 15.3783C17.7581 15.641 15.616 16.0809 13.5206 16.6934L11.9292 17.088C9.98821 17.624 7.98516 17.9026 5.97154 17.9165C4.76095 17.8895 3.56411 17.6537 2.43375 17.2195C2.21017 17.1274 2.17072 17.0617 2.17072 16.9039Z" fill="#161720"/>
<path d="M13.6631 14.7464H13.8604C14.3525 14.7453 14.8392 14.6445 15.2913 14.4501C15.7434 14.2558 16.1514 13.9718 16.4907 13.6154C17.356 12.6924 17.8537 11.4848 17.8901 10.2202C17.9264 8.95559 17.4988 7.72137 16.688 6.75025C16.0988 6.03777 15.2583 5.579 14.3403 5.46884C13.4223 5.35869 12.4971 5.60557 11.7561 6.15843C11.2012 6.57907 10.7478 7.1188 10.4291 7.73789C10.1105 8.35698 9.93475 9.03967 9.91488 9.73567C9.84626 10.9726 10.2088 12.195 10.9407 13.1945C11.2537 13.6362 11.6596 14.004 12.1299 14.2721C12.6003 14.5402 13.1236 14.7021 13.6631 14.7464ZM12.2164 7.71032C12.4257 7.45482 12.6884 7.24824 12.986 7.1051C13.2837 6.96196 13.609 6.88573 13.9393 6.88177C14.2774 6.89485 14.6081 6.9845 14.9066 7.14397C15.205 7.30343 15.4634 7.52856 15.6621 7.80238C16.1935 8.4573 16.4857 9.27374 16.4907 10.1171C16.4841 11.0705 16.1012 11.9827 15.4254 12.6553C15.021 13.0451 14.4812 13.2628 13.9195 13.2628C13.3579 13.2628 12.8181 13.0451 12.4137 12.6553C11.7907 11.993 11.4278 11.1282 11.3915 10.2197C11.3553 9.31116 11.6482 8.42011 12.2164 7.71032Z" fill="#161720"/>
<path fill-rule="evenodd" clip-rule="evenodd" d="M26.2028 1.54961C26.5331 1.6532 26.8189 1.86512 27.0139 2.15119C27.2089 2.43718 27.3018 2.7805 27.2777 3.1257V15.9416C27.2862 16.1988 27.2338 16.4544 27.1247 16.6876C27.0153 16.9214 26.8519 17.1259 26.648 17.2843L26.645 17.2866C26.4515 17.4282 26.2259 17.5194 25.9885 17.5523C25.7529 17.5849 25.5128 17.5589 25.2897 17.4766C22.9686 16.8178 20.5194 16.751 18.1659 17.2825L18.1616 17.2835C16.8604 17.5324 15.5396 17.8496 14.2463 18.1602C14.0402 18.2097 13.8347 18.2591 13.6302 18.308L13.6222 18.3099L12.1936 18.5586C10.2926 19.0428 8.34412 19.3172 6.38324 19.3768L6.37924 19.3769L6.16937 19.3769C6.16927 19.3769 6.16947 19.3769 6.16937 19.3769C4.58598 19.3836 3.01712 19.0718 1.55664 18.4602C1.26634 18.3518 1.01847 18.153 0.849556 17.8931C0.680906 17.6337 0.599888 17.327 0.618329 17.0182V4.25637C0.601146 3.99029 0.645935 3.72384 0.749199 3.47797C0.853047 3.23071 1.01317 3.01111 1.21682 2.83662L1.23069 2.82473C1.441 2.68966 1.68042 2.60621 1.92887 2.57888C2.17559 2.55174 2.42523 2.58173 2.65847 2.66648C4.55449 3.2002 6.54243 3.32409 8.49008 3.02991L8.4916 3.02968C10.4491 2.75721 12.3854 2.3498 14.2868 1.81035L14.3045 1.80533H14.5288C16.1827 1.35702 17.8656 1.02346 19.5655 0.807034C21.805 0.476926 24.0917 0.732775 26.2028 1.54961ZM26.1116 1.79742C24.0415 0.995649 21.7989 0.744474 19.6027 1.06842L19.6001 1.06881C17.9061 1.28443 16.229 1.61719 14.581 2.06474L14.564 2.06936H14.3412C12.4341 2.60957 10.492 3.01779 8.52876 3.29109C6.54262 3.59098 4.51537 3.46422 2.58206 2.91926L2.57225 2.9165C2.37589 2.84443 2.16565 2.81845 1.95774 2.84132C1.75284 2.86386 1.55583 2.93288 1.3817 3.04306C1.21253 3.18985 1.07939 3.37363 0.992627 3.58021C0.904689 3.78958 0.866829 4.01659 0.882058 4.24317L0.882653 4.25203L0.882355 17.0305C0.866465 17.2841 0.932418 17.5362 1.07093 17.7492C1.20944 17.9623 1.41288 18.1252 1.65114 18.2136L1.65626 18.2155C3.08487 18.8142 4.61928 19.1194 6.16825 19.1128H6.37721C8.31981 19.0537 10.2501 18.7816 12.1333 18.3015L12.1432 18.299L13.5728 18.0502C13.7755 18.0018 13.9793 17.9528 14.184 17.9036C15.4761 17.5933 16.8028 17.2746 18.1098 17.0245C20.5075 16.4834 23.0025 16.552 25.3668 17.224L25.377 17.2269C25.5606 17.2954 25.7582 17.3176 25.9523 17.2907C26.1458 17.264 26.3297 17.1897 26.4875 17.0746C26.6577 16.942 26.7941 16.771 26.8856 16.5756C26.9773 16.3796 27.0212 16.1647 27.0137 15.9484L27.0136 15.9438L27.0136 3.11133C27.0347 2.82397 26.9581 2.53799 26.7958 2.29993C26.6335 2.06187 26.3953 1.8858 26.1201 1.8004L26.1116 1.79742ZM25.4007 3.07284C24.1608 2.58434 22.8378 2.34177 21.5053 2.35868L21.5036 2.35869H21.3089C19.3892 2.43487 17.4848 2.73336 15.6339 3.24817L15.6306 3.2491L14.318 3.5772C12.2211 4.19269 10.077 4.63379 7.90751 4.896L7.90564 4.89622C6.53423 5.04214 5.14905 4.99298 3.79143 4.75022L3.78648 4.74934L2.64005 4.49887L2.30273 4.41896V16.9039C2.30273 16.9739 2.31229 16.9923 2.32182 17.0043C2.33681 17.0232 2.37394 17.052 2.48258 17.0968C3.59772 17.525 4.77834 17.7576 5.97254 17.7845C7.97395 17.7705 9.96484 17.4935 11.8941 16.9607L11.8974 16.9598L13.4861 16.566C15.5877 15.9518 17.736 15.5107 19.9095 15.2472L19.9113 15.247C21.2694 15.1011 22.6414 15.1502 23.9855 15.3929C24.2976 15.4449 24.5944 15.5134 24.9019 15.5844C24.9878 15.6042 25.0745 15.6242 25.1625 15.644L25.5143 15.7252V3.21305C25.5143 3.14767 25.5044 3.11254 25.4947 3.0969C25.4914 3.09145 25.4888 3.08953 25.486 3.08809C25.4825 3.08629 25.472 3.08203 25.4491 3.08203H25.424L25.4007 3.07284ZM25.4763 2.81888C24.211 2.32348 22.8617 2.07753 21.5028 2.09467H21.3063L21.3011 2.09477C19.3607 2.17156 17.4358 2.4731 15.5648 2.99334L14.2513 3.32171L14.2462 3.32311C12.1628 3.93481 10.0324 4.37319 7.87677 4.63377C6.5313 4.77683 5.17235 4.72869 3.84038 4.49076L2.69977 4.24166L2.0387 4.08509V16.9039C2.0387 16.9916 2.04887 17.085 2.11496 17.1684C2.17553 17.2447 2.26966 17.2947 2.38349 17.3416L2.38641 17.3427C3.53096 17.7824 4.74281 18.0211 5.96859 18.0485L5.97245 18.0485C7.99706 18.0345 10.0111 17.7545 11.9627 17.2157L13.5523 16.8216L13.5576 16.8201C15.6458 16.2097 17.7806 15.7713 19.9404 15.5094C21.2735 15.3663 22.6201 15.4146 23.9395 15.6529L23.9413 15.6532C24.2448 15.7037 24.5316 15.7699 24.8381 15.8406C24.9249 15.8606 25.0133 15.881 25.1041 15.9015C25.104 15.9015 25.1042 15.9015 25.1041 15.9015L25.7784 16.0571V3.21305C25.7784 3.13376 25.7686 3.03738 25.7191 2.95767C25.6666 2.87313 25.5818 2.82576 25.4763 2.81888ZM11.6772 6.05262C12.4454 5.47951 13.4044 5.22358 14.356 5.33777C15.3075 5.45195 16.1787 5.92743 16.7895 6.66588C17.6209 7.66171 18.0593 8.92727 18.022 10.224C17.9847 11.5208 17.4743 12.7592 16.587 13.7057C16.2354 14.075 15.8119 14.37 15.3435 14.5714C14.875 14.7729 14.3706 14.8773 13.8607 14.8784H13.6523C13.0935 14.8325 12.5516 14.6645 12.0646 14.3868C11.5778 14.1093 11.1577 13.7287 10.8336 13.2717C10.0844 12.2482 9.71312 10.9966 9.78297 9.73011C9.80366 9.01499 9.98434 8.31359 10.3118 7.67748C10.6394 7.04083 11.1066 6.48518 11.6772 6.05262ZM11.8354 6.26397C11.2965 6.67263 10.856 7.19694 10.5465 7.79831C10.2369 8.39984 10.0661 9.06317 10.0468 9.73943L10.0467 9.74298C9.97976 10.9494 10.3334 12.1417 11.0472 13.1165L11.0484 13.1182C11.3503 13.5442 11.7418 13.8989 12.1953 14.1574C12.6473 14.4151 13.1501 14.571 13.6686 14.6144H13.8601C14.3343 14.6133 14.8035 14.5162 15.2392 14.3289C15.6747 14.1416 16.0678 13.8681 16.3947 13.5248C17.2377 12.6254 17.7227 11.4486 17.7581 10.2164C17.7935 8.98401 17.3768 7.78124 16.5866 6.83486C16.019 6.14848 15.2089 5.70603 14.3246 5.59991C13.4404 5.49381 12.5492 5.73155 11.8354 6.26397ZM13.9444 6.74986C14.3025 6.7637 14.6527 6.85865 14.9688 7.02753C15.2838 7.19586 15.5566 7.43327 15.7669 7.72196C16.3157 8.39973 16.6176 9.24412 16.6227 10.1163L16.6227 10.118C16.6158 11.1062 16.219 12.0517 15.5185 12.7489L15.517 12.7504C15.088 13.1639 14.5154 13.3949 13.9195 13.3949C13.3237 13.3949 12.7511 13.1638 12.3221 12.7504L12.3174 12.7459C11.6727 12.0604 11.2971 11.1652 11.2596 10.2249C11.2221 9.28465 11.5253 8.36244 12.1134 7.62782L12.1143 7.62667C12.3358 7.35626 12.6138 7.13762 12.9288 6.98613C13.2438 6.83463 13.5882 6.75396 13.9377 6.74977L13.9444 6.74986ZM13.9375 7.01382C13.6277 7.01802 13.3225 7.08977 13.0432 7.22407C12.7632 7.35875 12.516 7.55309 12.319 7.79343C11.771 8.4783 11.4885 9.33794 11.5234 10.2144C11.5584 11.09 11.9078 11.9237 12.5076 12.5625C12.8872 12.9271 13.3931 13.1308 13.9195 13.1308C14.4467 13.1308 14.9533 12.9266 15.333 12.561C15.9835 11.9132 16.3521 11.0349 16.3587 10.1169C16.3537 9.30395 16.0718 8.51692 15.5596 7.88555L15.5552 7.88005C15.3681 7.6224 15.1252 7.41045 14.8444 7.2604C14.5645 7.11087 14.2545 7.02658 13.9375 7.01382Z" fill="#161720"/>
</svg>
