<svg width="20" height="20" viewBox="0 0 20 20" fill="none" xmlns="http://www.w3.org/2000/svg">
<path d="M10 0C8.02219 0 6.08879 0.58649 4.4443 1.6853C2.79981 2.78412 1.51809 4.3459 0.761209 6.17316C0.00433286 8.00042 -0.1937 10.0111 0.192152 11.9509C0.578004 13.8907 1.53041 15.6725 2.92894 17.0711C4.32746 18.4696 6.10929 19.422 8.0491 19.8078C9.98891 20.1937 11.9996 19.9957 13.8268 19.2388C15.6541 18.4819 17.2159 17.2002 18.3147 15.5557C19.4135 13.9112 20 11.9778 20 10C20 7.34783 18.9464 4.80429 17.0711 2.92893C15.1957 1.05357 12.6522 0 10 0V0ZM10 18.3444C8.34963 18.3444 6.73631 17.855 5.36408 16.9381C3.99184 16.0212 2.92231 14.718 2.29074 13.1933C1.65917 11.6685 1.49392 9.99074 1.8159 8.37208C2.13787 6.75341 2.9326 5.26658 4.09959 4.09959C5.26658 2.93259 6.75342 2.13786 8.37208 1.81589C9.99074 1.49392 11.6685 1.65917 13.1933 2.29074C14.718 2.92231 16.0213 3.99184 16.9382 5.36407C17.8551 6.73631 18.3444 8.34962 18.3444 10C18.3415 12.2122 17.4614 14.3329 15.8972 15.8972C14.3329 17.4614 12.2122 18.3415 10 18.3444ZM10 12.3C10.226 12.2971 10.442 12.2061 10.6018 12.0462C10.7616 11.8864 10.8527 11.6705 10.8556 11.4444V4.55555C10.8527 4.32954 10.7616 4.1136 10.6018 3.95377C10.442 3.79394 10.226 3.70288 10 3.7C9.7817 3.69983 9.57181 3.78421 9.41437 3.93543C9.25693 4.08666 9.16417 4.29298 9.15556 4.51111V11.4444C9.15554 11.6694 9.24415 11.8854 9.4022 12.0455C9.56026 12.2056 9.77503 12.2971 10 12.3ZM10 16.2556C10.225 16.2526 10.4397 16.1612 10.5978 16.0011C10.7559 15.8409 10.8445 15.625 10.8444 15.4V14.6C10.8459 14.4882 10.8252 14.3772 10.7834 14.2734C10.7416 14.1697 10.6796 14.0753 10.6011 13.9957C10.5225 13.9161 10.4289 13.8529 10.3257 13.8098C10.2226 13.7666 10.1118 13.7444 10 13.7444C9.77573 13.7527 9.56288 13.8455 9.40419 14.0042C9.2455 14.1629 9.15271 14.3757 9.14445 14.6V15.4C9.14733 15.626 9.23839 15.842 9.39822 16.0018C9.55804 16.1616 9.77399 16.2527 10 16.2556Z" fill="#FF4E4E"/>
</svg>
