<svg width="42" height="31" viewBox="0 0 42 31" fill="none" xmlns="http://www.w3.org/2000/svg">
<path d="M41.0142 1.28371C40.79 1.05725 40.5229 0.877717 40.2286 0.755571C39.9343 0.633425 39.6186 0.571117 39.2999 0.572282H14.7856C14.2346 0.578353 13.7034 0.778689 13.2856 1.13799C12.8367 1.48885 12.5318 1.99195 12.4285 2.55228H6.83991C6.46414 2.55415 6.09306 2.63596 5.75134 2.79228C5.42349 2.95883 5.1321 3.18902 4.8942 3.46942H4.79134V3.5637C4.41976 4.02185 4.217 4.59381 4.21705 5.1837V6.31512C4.22712 6.44248 4.25901 6.56715 4.31134 6.6837C4.3722 6.79524 4.45711 6.89186 4.55991 6.96655L4.12277 13.4723C3.13043 13.5205 2.19433 13.9473 1.50713 14.6648C0.819919 15.3823 0.433889 16.3359 0.428481 17.3294V25.2665C0.427829 25.3793 0.44945 25.4911 0.492106 25.5956C0.534761 25.7 0.597611 25.795 0.677053 25.8751C0.757144 25.9545 0.852129 26.0174 0.956561 26.06C1.06099 26.1027 1.17282 26.1243 1.28562 26.1236H3.5142C3.5142 27.374 4.01088 28.573 4.89498 29.4571C5.77908 30.3412 6.97818 30.8379 8.22848 30.8379C9.47879 30.8379 10.6779 30.3412 11.562 29.4571C12.4461 28.573 12.9428 27.374 12.9428 26.1236H27.9599C27.9599 27.374 28.4566 28.573 29.3407 29.4571C30.2248 30.3412 31.4239 30.8379 32.6742 30.8379C33.9245 30.8379 35.1236 30.3412 36.0077 29.4571C36.8918 28.573 37.3885 27.374 37.3885 26.1236H39.3256C39.9607 26.1191 40.568 25.8631 41.0146 25.4116C41.4613 24.9602 41.7108 24.3501 41.7085 23.7151V2.98085C41.708 2.34608 41.4588 1.73679 41.0142 1.28371ZM6.50562 4.33513C6.61463 4.2911 6.73092 4.26784 6.84848 4.26656H12.2228V5.45798H6.42848L6.50562 4.33513ZM2.14277 18.4094H3.94277C3.9431 18.506 3.92567 18.6019 3.89134 18.6922C3.85864 18.7853 3.80598 18.8702 3.73705 18.9408C3.59849 19.0804 3.41087 19.1604 3.2142 19.1637H2.14277V18.4094ZM11.1171 27.3579C10.8712 27.9194 10.4659 28.3963 9.95134 28.7294C9.4399 29.0552 8.84336 29.2223 8.23705 29.2094C7.83898 29.206 7.44548 29.1241 7.0791 28.9684C6.71273 28.8127 6.38068 28.5862 6.10199 28.302C5.8233 28.0177 5.60344 27.6812 5.45502 27.3119C5.3066 26.9425 5.23253 26.5474 5.23705 26.1494C5.23694 25.6936 5.33807 25.2435 5.53314 24.8316C5.72821 24.4197 6.01235 24.0562 6.36503 23.7675C6.71771 23.4788 7.13011 23.2721 7.57245 23.1622C8.01478 23.0523 8.476 23.0421 8.92277 23.1322C9.52006 23.2601 10.0677 23.5577 10.4999 23.9894C10.9361 24.425 11.2342 24.9796 11.3571 25.5837C11.4552 26.1858 11.3717 26.8035 11.1171 27.3579ZM12.4285 23.9294C12.0162 23.1228 11.3791 22.453 10.5942 22.0008C10.0044 21.6571 9.34652 21.4469 8.66675 21.3848C7.98698 21.3228 7.30187 21.4104 6.65963 21.6417C6.01739 21.8729 5.43364 22.2421 4.94944 22.7232C4.46524 23.2044 4.09236 23.7858 3.85705 24.4265H2.14277V20.8437H3.26562C3.91657 20.8391 4.53918 20.5768 4.99706 20.1141C5.45494 19.6514 5.71076 19.0261 5.70848 18.3751V17.518C5.70848 17.2906 5.61818 17.0726 5.45743 16.9119C5.29668 16.7511 5.07867 16.6608 4.85134 16.6608H2.27991C2.41554 16.2212 2.68851 15.8367 3.05875 15.5636C3.42899 15.2906 3.87701 15.1434 4.33705 15.1437H12.4285V23.9294ZM12.4285 13.4294H5.9142L6.34277 7.12941H12.4285V13.4294ZM23.9828 2.28656H30.2571V10.318L27.5399 8.54369C27.4158 8.46012 27.2696 8.41536 27.1199 8.41512C26.9678 8.41666 26.8192 8.46123 26.6913 8.54369L23.9828 10.3265V2.28656ZM35.5713 27.3579C35.3255 27.9194 34.9201 28.3963 34.4056 28.7294C33.8942 29.0552 33.2976 29.2223 32.6913 29.2094C32.2933 29.206 31.8998 29.1241 31.5334 28.9684C31.167 28.8127 30.835 28.5862 30.5563 28.302C30.2776 28.0177 30.0577 27.6812 29.9093 27.3119C29.7609 26.9425 29.6868 26.5474 29.6913 26.1494C29.6912 25.6936 29.7924 25.2435 29.9874 24.8316C30.1825 24.4197 30.4666 24.0562 30.8193 23.7675C31.172 23.4788 31.5844 23.2721 32.0267 23.1622C32.4691 23.0523 32.9303 23.0421 33.3771 23.1322C33.9743 23.2601 34.522 23.5577 34.9542 23.9894C35.3903 24.425 35.6885 24.9796 35.8113 25.5837C35.9095 26.1858 35.8259 26.8035 35.5713 27.3579ZM39.9942 23.7151C40.0113 23.8028 40.0113 23.8931 39.9942 23.9808C39.9623 24.0673 39.9127 24.1461 39.8485 24.2122C39.789 24.2785 39.7159 24.3311 39.6342 24.3665C39.5504 24.4036 39.4601 24.424 39.3685 24.4265H37.0713C36.7409 23.5273 36.1425 22.7511 35.357 22.2029C34.5714 21.6546 33.6365 21.3606 32.6785 21.3606C31.7205 21.3606 30.7856 21.6546 30 22.2029C29.2144 22.7511 28.616 23.5273 28.2856 24.4265H14.1428V2.99799C14.1305 2.90985 14.1305 2.82042 14.1428 2.73228C14.1801 2.65124 14.2292 2.57615 14.2885 2.50942C14.3541 2.4465 14.4293 2.39442 14.5113 2.35513C14.5928 2.32096 14.6802 2.30348 14.7685 2.30371H22.4228V11.7323C22.4238 11.8717 22.4622 12.0082 22.5339 12.1278C22.6056 12.2473 22.7081 12.3454 22.8306 12.4119C22.9531 12.4784 23.0912 12.5109 23.2305 12.5059C23.3699 12.501 23.5053 12.4587 23.6228 12.3837L27.1028 10.0865L30.5828 12.3837C30.7126 12.4607 30.8604 12.5021 31.0113 12.5037C31.1365 12.5047 31.2601 12.4753 31.3713 12.418C31.4932 12.3496 31.5948 12.2501 31.6655 12.1296C31.7363 12.0091 31.7738 11.872 31.7742 11.7323V2.28656H39.3085C39.3968 2.28633 39.4842 2.30382 39.5656 2.33799C39.6476 2.37727 39.7228 2.42935 39.7885 2.49228C39.8477 2.559 39.8968 2.6341 39.9342 2.71513C39.9465 2.80328 39.9465 2.8927 39.9342 2.98085V23.7151H39.9942Z" fill="#161720"/>
<path d="M16.9885 18.3237H22.2942C22.4988 18.3237 22.695 18.2424 22.8397 18.0977C22.9844 17.9531 23.0656 17.7568 23.0656 17.5523C23.0656 17.3477 22.9844 17.1514 22.8397 17.0068C22.695 16.8621 22.4988 16.7808 22.2942 16.7808H16.9885C16.7839 16.7808 16.5877 16.8621 16.443 17.0068C16.2984 17.1514 16.2171 17.3477 16.2171 17.5523C16.2171 17.7568 16.2984 17.9531 16.443 18.0977C16.5877 18.2424 16.7839 18.3237 16.9885 18.3237Z" fill="#161720"/>
<path d="M24.5056 19.9608H16.9885C16.7839 19.9608 16.5877 20.0421 16.443 20.1867C16.2984 20.3314 16.2171 20.5276 16.2171 20.7322C16.2171 20.9368 16.2984 21.133 16.443 21.2777C16.5877 21.4224 16.7839 21.5036 16.9885 21.5036H24.5056C24.7102 21.5036 24.9065 21.4224 25.0511 21.2777C25.1958 21.133 25.2771 20.9368 25.2771 20.7322C25.2771 20.5276 25.1958 20.3314 25.0511 20.1867C24.9065 20.0421 24.7102 19.9608 24.5056 19.9608Z" fill="#161720"/>
</svg>
