<svg width="24" height="24" viewBox="0 0 24 24" fill="none" xmlns="http://www.w3.org/2000/svg">
<path d="M19.7143 3C20.0357 3 20.3571 3.16071 20.5982 3.40179C20.8393 3.64286 21 3.96429 21 4.28571V19.7143C21 20.0759 20.8393 20.3973 20.5982 20.6384C20.3571 20.8795 20.0357 21 19.7143 21H4.28571C3.92411 21 3.60268 20.8795 3.36161 20.6384C3.12054 20.3973 3 20.0759 3 19.7143V4.28571C3 3.96429 3.12054 3.64286 3.36161 3.40179C3.60268 3.16071 3.92411 3 4.28571 3H19.7143ZM8.42411 18.4286H8.46429V9.83036H5.77232V18.4286H8.42411ZM7.09821 8.66518C7.5 8.66518 7.86161 8.54464 8.18304 8.22321C8.50446 7.90179 8.66518 7.54018 8.66518 7.13839C8.66518 6.73661 8.50446 6.375 8.18304 6.05357C7.86161 5.73214 7.5 5.57143 7.09821 5.57143C6.65625 5.57143 6.29464 5.73214 6.01339 6.05357C5.69196 6.375 5.57143 6.73661 5.57143 7.13839C5.57143 7.54018 5.69196 7.90179 6.01339 8.22321C6.29464 8.54464 6.65625 8.66518 7.09821 8.66518ZM18.4286 18.4286V13.7277C18.4286 12.4018 18.2277 11.4375 17.8661 10.7946C17.3438 10.0312 16.4598 9.62946 15.2545 9.62946C14.6116 9.62946 14.0893 9.79018 13.6071 10.0714C13.2054 10.3125 12.8839 10.6339 12.7232 10.9955H12.683V9.83036H10.1116V18.4286H12.7634V14.1696C12.7634 13.5268 12.8438 13.0045 13.0446 12.6429C13.2857 12.2009 13.7277 11.9598 14.3705 11.9598C14.9732 11.9598 15.375 12.2411 15.5759 12.7232C15.6964 13.0446 15.7768 13.567 15.7768 14.25V18.4286H18.4286Z" fill="white"/>
</svg>
