<svg width="64" height="64" viewBox="0 0 64 64" fill="none" xmlns="http://www.w3.org/2000/svg">
<path d="M57.1034 10.9355H31.2855L31.2372 10.8395L29.0069 8.66059C28.8842 8.53228 28.7192 8.45202 28.5421 8.43441C28.3649 8.41679 28.1872 8.46299 28.0414 8.5646L26.9021 9.29411C26.5892 9.14218 26.2667 9.01072 25.9365 8.90056L25.7145 7.58553C25.6756 7.42042 25.5822 7.27302 25.4492 7.16688C25.3162 7.06074 25.1512 7.00198 24.9807 7H21.8234C21.6529 7.00198 21.4879 7.06074 21.3549 7.16688C21.2219 7.27302 21.1285 7.42042 21.0897 7.58553L20.8 8.91975C20.4698 9.02955 20.1472 9.16103 19.8345 9.3133L18.6855 8.5838C18.5397 8.48219 18.362 8.43599 18.1848 8.4536C18.0076 8.47122 17.8427 8.55148 17.72 8.67979L15.5862 10.8395C15.5862 10.8395 15.5862 10.8395 15.5862 10.8971H6.89655C6.12834 10.8971 5.39159 11.2005 4.84838 11.7405C4.30517 12.2806 4 13.013 4 13.7767V46.2878C4 47.0515 4.30517 47.7839 4.84838 48.324C5.39159 48.864 6.12834 49.1674 6.89655 49.1674H23.1462L22.5669 55.0802H19.0717C18.8156 55.0802 18.5701 55.1814 18.389 55.3614C18.2079 55.5414 18.1062 55.7855 18.1062 56.0401C18.1062 56.2947 18.2079 56.5388 18.389 56.7189C18.5701 56.8989 18.8156 57 19.0717 57H44.9283C45.1843 57 45.4299 56.8989 45.611 56.7189C45.7921 56.5388 45.8938 56.2947 45.8938 56.0401C45.8938 55.7855 45.7921 55.5414 45.611 55.3614C45.4299 55.1814 45.1843 55.0802 44.9283 55.0802H41.4331L40.8538 49.1674H57.1034C57.8716 49.1674 58.6084 48.864 59.1516 48.324C59.6948 47.7839 60 47.0515 60 46.2878V13.8247C60.0013 13.4458 59.9273 13.0703 59.7823 12.7198C59.6373 12.3693 59.4241 12.0507 59.155 11.7823C58.8859 11.5139 58.5662 11.3009 58.2141 11.1556C57.8621 11.0103 57.4846 10.9355 57.1034 10.9355ZM17.1117 14.679C17.2585 14.179 17.4592 13.6963 17.7103 13.2392C17.7832 13.1243 17.8219 12.9911 17.8219 12.8553C17.8219 12.7194 17.7832 12.5862 17.7103 12.4713L17.0731 11.5114L18.4441 10.1388L19.4097 10.7819C19.5267 10.8503 19.6601 10.8863 19.7959 10.8863C19.9316 10.8863 20.065 10.8503 20.1821 10.7819C20.6346 10.5244 21.1179 10.3244 21.6207 10.1868C21.752 10.1512 21.8709 10.0805 21.9646 9.9823C22.0582 9.88413 22.1229 9.76229 22.1517 9.63006L22.4028 8.46861H24.3338L24.5848 9.63006C24.6155 9.76142 24.6809 9.88226 24.7743 9.98012C24.8676 10.078 24.9855 10.1493 25.1159 10.1868C25.6217 10.3243 26.1082 10.5243 26.5641 10.7819C26.6812 10.8503 26.8146 10.8863 26.9503 10.8863C27.0861 10.8863 27.2195 10.8503 27.3365 10.7819L28.3021 10.1388L29.7503 11.5114L29.1034 12.4713C29.0347 12.5877 28.9984 12.7203 28.9984 12.8553C28.9984 12.9902 29.0347 13.1228 29.1034 13.2392C29.3559 13.6934 29.5505 14.177 29.6828 14.679C29.7193 14.8108 29.7919 14.9299 29.8925 15.0231C29.993 15.1163 30.1176 15.1799 30.2524 15.2069L31.411 15.4565V17.3763L30.2524 17.6258C30.1176 17.6529 29.993 17.7165 29.8925 17.8097C29.7919 17.9029 29.7193 18.022 29.6828 18.1538C29.5562 18.6698 29.3614 19.1669 29.1034 19.632C29.0272 19.7528 28.9867 19.8925 28.9867 20.0351C28.9867 20.1778 29.0272 20.3175 29.1034 20.4383L29.7407 21.3982L28.3696 22.7708L27.4041 22.1277C27.287 22.0593 27.1537 22.0233 27.0179 22.0233C26.8821 22.0233 26.7488 22.0593 26.6317 22.1277C26.1747 22.383 25.6884 22.5828 25.1834 22.7228C25.0522 22.7584 24.9332 22.8291 24.8396 22.9273C24.7459 23.0255 24.6812 23.1473 24.6524 23.2795L24.4014 24.4314H22.4703L22.2193 23.2795C22.1905 23.1473 22.1258 23.0255 22.0321 22.9273C21.9385 22.8291 21.8196 22.7584 21.6883 22.7228C21.1864 22.5828 20.7033 22.3829 20.2497 22.1277C20.1326 22.0593 19.9992 22.0233 19.8634 22.0233C19.7277 22.0233 19.5943 22.0593 19.4772 22.1277L18.5117 22.7708L17.0538 21.3982L17.691 20.4383C17.7639 20.3233 17.8026 20.1902 17.8026 20.0543C17.8026 19.9184 17.7639 19.7853 17.691 19.6704C17.4399 19.2133 17.2392 18.7305 17.0924 18.2306C17.0576 18.0995 16.9868 17.9807 16.8879 17.8875C16.7889 17.7942 16.6659 17.7302 16.5324 17.7026L15.3738 17.4531V15.5333L16.5517 15.2357C16.6888 15.2059 16.8145 15.1376 16.9138 15.0389C17.013 14.9403 17.0817 14.8153 17.1117 14.679ZM24.5076 55.0898L25.0676 49.3306H38.9324L39.4924 55.0898H24.5076ZM58.069 46.2878C58.069 46.5423 57.9672 46.7865 57.7862 46.9665C57.6051 47.1465 57.3595 47.2477 57.1034 47.2477H6.89655C6.64048 47.2477 6.3949 47.1465 6.21383 46.9665C6.03276 46.7865 5.93103 46.5423 5.93103 46.2878V13.8247C5.93103 13.5702 6.03276 13.326 6.21383 13.146C6.3949 12.966 6.64048 12.8648 6.89655 12.8648H16.1365L16.1945 12.9512C16.0423 13.2614 15.9132 13.5822 15.8083 13.9111L14.4855 14.1991C14.316 14.2325 14.1635 14.3237 14.0543 14.4568C13.945 14.59 13.8858 14.7568 13.8869 14.9286V18.1442C13.9001 18.3004 13.9635 18.4483 14.0679 18.5658C14.1722 18.6834 14.3119 18.7644 14.4662 18.7969L15.789 19.0849C15.8983 19.4122 16.0273 19.7327 16.1752 20.0447L15.4414 21.1774C15.3429 21.3237 15.2987 21.4994 15.3163 21.6746C15.3339 21.8497 15.4123 22.0133 15.5379 22.1373L17.7876 24.2778C17.9123 24.4027 18.0769 24.4806 18.253 24.4981C18.4292 24.5156 18.606 24.4717 18.7531 24.3738L19.9021 23.6443C20.213 23.7978 20.5359 23.9262 20.8676 24.0282L21.1572 25.3529C21.1961 25.518 21.2895 25.6654 21.4225 25.7715C21.5555 25.8776 21.7205 25.9364 21.891 25.9384H25.0483C25.2188 25.9364 25.3838 25.8776 25.5168 25.7715C25.6498 25.6654 25.7432 25.518 25.7821 25.3529L26.0621 24.0282C26.3936 23.9257 26.7164 23.7974 27.0276 23.6443L28.1669 24.3738C28.3127 24.4754 28.4904 24.5216 28.6676 24.504C28.8448 24.4864 29.0097 24.4061 29.1324 24.2778L31.3628 22.0605C31.4899 21.9377 31.57 21.7747 31.5894 21.5995C31.6088 21.4243 31.5662 21.2479 31.469 21.1006L30.7352 19.9679C30.8805 19.6548 31.0094 19.3345 31.1214 19.0081L32.4441 18.7201C32.611 18.683 32.7603 18.5906 32.8673 18.458C32.9744 18.3255 33.0328 18.1606 33.0331 17.9906V14.8902C33.0365 14.7193 32.9794 14.5526 32.8717 14.4192C32.7641 14.2859 32.6127 14.1944 32.4441 14.1607L31.0345 13.8727C30.9225 13.5463 30.7936 13.2259 30.6483 12.9128L30.6965 12.8265H57.1034C57.3595 12.8265 57.6051 12.9276 57.7862 13.1076C57.9672 13.2876 58.069 13.5318 58.069 13.7863V46.2878Z" fill="#55C9A5"/>
<path d="M23.3972 21.0718C24.3158 21.0718 25.2137 20.801 25.9774 20.2937C26.7411 19.7864 27.3364 19.0653 27.6879 18.2216C28.0394 17.378 28.1313 16.4497 27.9521 15.5541C27.7729 14.6584 27.3306 13.8358 26.6811 13.1901C26.0316 12.5444 25.2041 12.1046 24.3033 11.9265C23.4024 11.7483 22.4686 11.8398 21.62 12.1892C20.7714 12.5387 20.0461 13.1305 19.5358 13.8897C19.0255 14.649 18.7531 15.5416 18.7531 16.4548C18.7557 17.6785 19.2458 18.8514 20.1162 19.7167C20.9865 20.582 22.1663 21.0693 23.3972 21.0718ZM23.3972 13.3256C24.0198 13.3256 24.6283 13.5091 25.1459 13.853C25.6636 14.1968 26.067 14.6855 26.3052 15.2573C26.5435 15.8291 26.6058 16.4583 26.4843 17.0653C26.3629 17.6723 26.0631 18.2298 25.6229 18.6675C25.1827 19.1051 24.6219 19.4031 24.0113 19.5239C23.4007 19.6446 22.7679 19.5826 22.1927 19.3458C21.6176 19.109 21.126 18.7079 20.7801 18.1933C20.4343 17.6787 20.2497 17.0737 20.2497 16.4548C20.2497 15.6249 20.5813 14.829 21.1716 14.2421C21.7618 13.6553 22.5624 13.3256 23.3972 13.3256Z" fill="#55C9A5"/>
<path d="M45.3145 22.358C44.6175 22.358 43.9361 22.5635 43.3566 22.9485C42.777 23.3335 42.3253 23.8806 42.0586 24.5208C41.7919 25.161 41.7221 25.8655 41.858 26.5451C41.994 27.2247 42.3297 27.849 42.8225 28.339C43.3154 28.829 43.9433 29.1626 44.6269 29.2978C45.3106 29.433 46.0191 29.3636 46.6631 29.0984C47.307 28.8333 47.8574 28.3842 48.2447 27.8081C48.6319 27.2319 48.8386 26.5545 48.8386 25.8616C48.8361 24.9332 48.4639 24.0435 47.8036 23.387C47.1432 22.7305 46.2483 22.3606 45.3145 22.358ZM45.3145 27.8677C44.9154 27.8677 44.5252 27.7501 44.1934 27.5296C43.8615 27.3092 43.6029 26.9959 43.4501 26.6293C43.2974 26.2627 43.2575 25.8594 43.3353 25.4702C43.4132 25.0811 43.6054 24.7236 43.8876 24.443C44.1698 24.1625 44.5294 23.9714 44.9208 23.894C45.3122 23.8166 45.718 23.8563 46.0867 24.0082C46.4554 24.16 46.7706 24.4171 46.9923 24.747C47.2141 25.0769 47.3324 25.4648 47.3324 25.8616C47.3298 26.392 47.1161 26.8998 46.738 27.2739C46.3598 27.6481 45.848 27.8581 45.3145 27.8581V27.8677Z" fill="#55C9A5"/>
<path d="M51.9572 23.9418L51.0979 23.7499C51.0421 23.5883 50.9743 23.4311 50.8952 23.2795L51.3779 22.5404C51.47 22.3914 51.5095 22.2162 51.4903 22.0424C51.4711 21.8686 51.3941 21.7061 51.2717 21.5805L49.6207 19.9391C49.4745 19.7939 49.277 19.7112 49.0703 19.7088C48.9198 19.7104 48.7727 19.7536 48.6455 19.8336L47.9117 20.3039L47.429 20.1023L47.2455 19.2576C47.208 19.084 47.1119 18.9284 46.9732 18.8167C46.8344 18.7049 46.6613 18.6437 46.4827 18.6433H44.1462C43.9693 18.6459 43.7985 18.7081 43.6617 18.8197C43.5249 18.9312 43.4302 19.0856 43.3931 19.2576L43.2 20.1023L42.7172 20.3039L41.9834 19.8336C41.8346 19.7387 41.6576 19.6974 41.4819 19.7166C41.3062 19.7358 41.1424 19.8144 41.0179 19.9391L39.3669 21.5805C39.2429 21.7055 39.1656 21.8689 39.1481 22.0435C39.1305 22.2182 39.1737 22.3935 39.2703 22.5404L39.7241 23.3179C39.6484 23.4711 39.5808 23.6281 39.5214 23.7882L38.6621 23.9802C38.4884 24.0178 38.3331 24.1137 38.2223 24.2518C38.1115 24.39 38.0519 24.5619 38.0538 24.7385V27.0518C38.0519 27.2285 38.1115 27.4004 38.2223 27.5385C38.3331 27.6767 38.4884 27.7726 38.6621 27.8101L39.5214 27.9925C39.579 28.1565 39.6467 28.3168 39.7241 28.4725L39.251 29.2116C39.1543 29.3584 39.1112 29.5338 39.1288 29.7085C39.1463 29.8831 39.2236 30.0465 39.3476 30.1714L40.9986 31.8128C41.1231 31.9376 41.2869 32.0162 41.4626 32.0354C41.6383 32.0546 41.8153 32.0133 41.9641 31.9184L42.6979 31.4481L43.1807 31.64L43.3738 32.4943C43.4109 32.6663 43.5056 32.8207 43.6424 32.9323C43.7792 33.0439 43.95 33.1061 44.1269 33.1087H46.4827C46.6613 33.1082 46.8344 33.047 46.9732 32.9353C47.1119 32.8235 47.208 32.6679 47.2455 32.4943L47.429 31.6496L47.9117 31.4481L48.6455 31.9184C48.7727 31.9984 48.9198 32.0416 49.0703 32.0432C49.277 32.0408 49.4745 31.9581 49.6207 31.8128L51.3103 30.133C51.4328 30.0075 51.5097 29.845 51.5289 29.6712C51.5481 29.4974 51.5086 29.3222 51.4165 29.1732L50.9338 28.4341C51.0112 28.2784 51.0789 28.1181 51.1365 27.9541L51.9958 27.7717C52.1695 27.7342 52.3248 27.6383 52.4356 27.5001C52.5465 27.362 52.606 27.1901 52.6041 27.0134V24.7001C52.6043 24.518 52.5393 24.3417 52.4208 24.2028C52.3023 24.0639 52.138 23.9714 51.9572 23.9418ZM50.9917 26.3895L50.3062 26.5431C50.1682 26.5721 50.041 26.6386 49.9387 26.7352C49.8364 26.8318 49.7631 26.9547 49.7269 27.0902C49.6374 27.4487 49.501 27.794 49.3214 28.1173C49.2481 28.2374 49.2093 28.3752 49.2093 28.5156C49.2093 28.6561 49.2481 28.7939 49.3214 28.914L49.6979 29.4995L48.9352 30.2578L48.4138 29.8643C48.2866 29.7843 48.1395 29.7411 47.989 29.7395C47.8563 29.7415 47.7265 29.7779 47.6124 29.8451C47.2886 30.0218 46.9451 30.1604 46.589 30.2578C46.4538 30.2993 46.332 30.3751 46.2354 30.4778C46.1389 30.5805 46.071 30.7065 46.0386 30.8433L45.8938 31.5153H44.7738L44.629 30.8433C44.6014 30.7044 44.5352 30.5759 44.4379 30.4724C44.3407 30.3689 44.2162 30.2946 44.0786 30.2578C43.723 30.1587 43.3797 30.0202 43.0552 29.8451C42.9414 29.7771 42.8114 29.7406 42.6786 29.7395C42.5281 29.7411 42.381 29.7843 42.2538 29.8643L41.6648 30.2386L40.9117 29.4803L41.2883 28.8948C41.3616 28.7747 41.4003 28.6369 41.4003 28.4964C41.4003 28.356 41.3616 28.2182 41.2883 28.0981C41.105 27.781 40.9623 27.4424 40.8634 27.0902C40.8272 26.9547 40.7539 26.8318 40.6516 26.7352C40.5493 26.6386 40.4221 26.5721 40.2841 26.5431L39.5986 26.3895V25.3241L40.2841 25.1705C40.4221 25.1415 40.5493 25.0749 40.6516 24.9784C40.7539 24.8818 40.8272 24.7589 40.8634 24.6233C40.9623 24.2711 41.105 23.9326 41.2883 23.6155C41.3635 23.4943 41.4033 23.3547 41.4033 23.2123C41.4033 23.0699 41.3635 22.9304 41.2883 22.8092L40.9214 22.2332L41.6745 21.4749L42.2634 21.8493C42.3907 21.9293 42.5378 21.9725 42.6883 21.9741C42.821 21.9729 42.951 21.9365 43.0648 21.8685C43.3875 21.6893 43.7312 21.5507 44.0883 21.4558C44.2253 21.418 44.3492 21.3433 44.4464 21.24C44.5435 21.1367 44.61 21.0087 44.6386 20.8702L44.7834 20.1887H45.8648L46.0096 20.8702C46.0421 21.007 46.1099 21.1331 46.2065 21.2358C46.303 21.3385 46.4249 21.4143 46.56 21.4558C46.917 21.5507 47.2608 21.6893 47.5834 21.8685C47.7006 21.9368 47.8338 21.9733 47.9696 21.9741C48.1169 21.9712 48.2606 21.928 48.3848 21.8493L48.9738 21.4749L49.7365 22.2332L49.3503 22.8188C49.279 22.9396 49.2415 23.0771 49.2415 23.2171C49.2415 23.3572 49.279 23.4947 49.3503 23.6155C49.5336 23.9326 49.6763 24.2711 49.7752 24.6233C49.8121 24.7601 49.8869 24.8839 49.991 24.9806C50.0951 25.0773 50.2244 25.1431 50.3641 25.1705L51.04 25.3241L50.9917 26.3895Z" fill="#55C9A5"/>
<path d="M28.7945 31.8512C28.0971 31.8512 27.4153 32.0569 26.8356 32.4423C26.2558 32.8277 25.8041 33.3755 25.5377 34.0162C25.2712 34.657 25.202 35.3619 25.3388 36.0418C25.4755 36.7217 25.8121 37.346 26.306 37.8356C26.7998 38.3251 27.4286 38.6581 28.1129 38.7922C28.7971 38.9263 29.506 38.8555 30.1498 38.5889C30.7936 38.3222 31.3433 37.8717 31.7294 37.2942C32.1155 36.7168 32.3205 36.0385 32.3186 35.3452C32.3161 34.4176 31.9436 33.529 31.283 32.874C30.6224 32.219 29.7275 31.8512 28.7945 31.8512ZM28.7945 37.3513C28.3954 37.3513 28.0052 37.2337 27.6734 37.0132C27.3415 36.7928 27.0829 36.4795 26.9302 36.1129C26.7774 35.7463 26.7375 35.3429 26.8153 34.9538C26.8932 34.5646 27.0854 34.2072 27.3676 33.9266C27.6498 33.646 28.0094 33.455 28.4008 33.3776C28.7922 33.3002 29.198 33.3399 29.5667 33.4917C29.9354 33.6436 30.2506 33.9007 30.4723 34.2306C30.6941 34.5605 30.8124 34.9484 30.8124 35.3452C30.8124 35.8772 30.5998 36.3875 30.2214 36.7637C29.8429 37.14 29.3297 37.3513 28.7945 37.3513Z" fill="#55C9A5"/>
<path d="M35.4372 33.435L34.5779 33.2526C34.5228 33.0891 34.4583 32.9289 34.3848 32.7727L34.8579 32.0336C34.9534 31.8857 34.9949 31.7097 34.9756 31.535C34.9563 31.3603 34.8772 31.1975 34.7517 31.0737L33.1007 29.4323C32.9545 29.2871 32.757 29.2044 32.5503 29.202C32.3998 29.2036 32.2527 29.2468 32.1255 29.3267L31.3917 29.7971L30.909 29.5955L30.7255 28.7508C30.688 28.5772 30.5919 28.4216 30.4532 28.3099C30.3144 28.1981 30.1413 28.1369 29.9628 28.1365H27.6359C27.4573 28.1369 27.2842 28.1981 27.1455 28.3099C27.0067 28.4216 26.9106 28.5772 26.8731 28.7508L26.68 29.5955L26.2069 29.7971L25.4634 29.3267C25.3147 29.2318 25.1376 29.1906 24.9619 29.2098C24.7862 29.229 24.6224 29.3075 24.4979 29.4323L22.8469 31.0737C22.7244 31.1995 22.6483 31.3628 22.6308 31.537C22.6132 31.7112 22.6554 31.8862 22.7503 32.0336L23.2234 32.7727C23.146 32.9284 23.0783 33.0887 23.0207 33.2526L22.1614 33.435C21.9886 33.4742 21.8342 33.5705 21.7237 33.7083C21.6132 33.8461 21.553 34.0171 21.5531 34.1933V36.5066C21.553 36.6828 21.6132 36.8539 21.7237 36.9916C21.8342 37.1294 21.9886 37.2258 22.1614 37.2649L23.0207 37.4473C23.0783 37.6113 23.146 37.7716 23.2234 37.9272L22.7503 38.6663C22.6549 38.8143 22.6134 38.9903 22.6327 39.165C22.652 39.3396 22.731 39.5025 22.8565 39.6262L24.4979 41.2676C24.6224 41.3924 24.7862 41.471 24.9619 41.4902C25.1376 41.5094 25.3147 41.4681 25.4634 41.3732L26.2069 40.9029C26.3614 40.9796 26.5255 41.0372 26.68 41.1044L26.8731 41.9491C26.9106 42.1227 27.0067 42.2783 27.1455 42.3901C27.2842 42.5018 27.4573 42.563 27.6359 42.5634H29.9628C30.1413 42.563 30.3144 42.5018 30.4532 42.3901C30.5919 42.2783 30.688 42.1227 30.7255 41.9491L30.909 41.1044L31.3917 40.9029L32.1255 41.3732C32.2527 41.4532 32.3998 41.4964 32.5503 41.498C32.757 41.4955 32.9545 41.4129 33.1007 41.2676L34.7517 39.6358C34.8833 39.5169 34.9696 39.3564 34.996 39.1815C35.0224 39.0066 34.9873 38.8281 34.8965 38.6759L34.4234 37.9368C34.491 37.7833 34.5586 37.6297 34.6165 37.4569L35.4759 37.2745C35.6505 37.2373 35.807 37.1417 35.9194 37.0038C36.0318 36.8658 36.0934 36.6938 36.0938 36.5162V34.1933C36.0916 34.0103 36.0246 33.8339 35.9045 33.6952C35.7844 33.5565 35.6189 33.4644 35.4372 33.435ZM34.4717 35.8827L33.7959 36.0363C33.6561 36.0637 33.5268 36.1295 33.4227 36.2262C33.3186 36.3229 33.2439 36.4466 33.2069 36.5834C33.1097 36.9362 32.9669 37.275 32.7821 37.5913C32.7108 37.7121 32.6732 37.8496 32.6732 37.9896C32.6732 38.1297 32.7108 38.2672 32.7821 38.388L33.1586 38.9735L32.3959 39.7318L31.8069 39.3575C31.6827 39.2787 31.539 39.2355 31.3917 39.2327C31.2559 39.2335 31.1227 39.2699 31.0055 39.3383C30.6844 39.5136 30.3443 39.6521 29.9917 39.751C29.8543 39.7901 29.73 39.865 29.6315 39.968C29.5331 40.0709 29.4641 40.1982 29.4317 40.3365L29.2869 41.0084H28.2634L28.109 40.3365C28.0803 40.198 28.0138 40.0701 27.9167 39.9667C27.8196 39.8634 27.6957 39.7888 27.5586 39.751C27.2036 39.6501 26.8605 39.5117 26.5352 39.3383C26.4214 39.2703 26.2914 39.2338 26.1586 39.2327C26.0083 39.2357 25.8616 39.2788 25.7338 39.3575L25.1545 39.7318L24.3917 38.9735L24.7683 38.388C24.8416 38.2679 24.8803 38.1301 24.8803 37.9896C24.8803 37.8492 24.8416 37.7114 24.7683 37.5913C24.5891 37.2722 24.4466 36.9341 24.3434 36.5834C24.3072 36.4479 24.2339 36.325 24.1316 36.2284C24.0293 36.1318 23.9021 36.0653 23.7641 36.0363L23.0786 35.8827V34.8364L23.7641 34.6829C23.9021 34.6538 24.0293 34.5873 24.1316 34.4907C24.2339 34.3942 24.3072 34.2713 24.3434 34.1357C24.4466 33.785 24.5891 33.4469 24.7683 33.1279C24.8414 33.0059 24.88 32.8666 24.88 32.7247C24.88 32.5828 24.8414 32.4435 24.7683 32.3216L24.3917 31.7456L25.1545 30.9873L25.7338 31.3617C25.861 31.4417 26.0081 31.4849 26.1586 31.4865C26.2943 31.4843 26.4272 31.448 26.5448 31.3809C26.85 31.2076 27.1739 31.0691 27.5103 30.9681C27.6474 30.9304 27.7713 30.8557 27.8684 30.7524C27.9655 30.6491 28.0321 30.5211 28.0607 30.3826L28.2055 29.7011H29.2869L29.4317 30.3826C29.4652 30.536 29.5436 30.6762 29.657 30.7855C29.7703 30.8948 29.9137 30.9683 30.069 30.9969C30.4229 31.0919 30.7635 31.2306 31.0828 31.4097C31.1999 31.478 31.3331 31.5144 31.469 31.5153C31.6163 31.5124 31.7599 31.4692 31.8841 31.3905L32.4731 31.0161L33.2359 31.7744L32.8593 32.36C32.788 32.4807 32.7504 32.6183 32.7504 32.7583C32.7504 32.8983 32.788 33.0359 32.8593 33.1567C33.0425 33.4737 33.1852 33.8123 33.2841 34.1645C33.3211 34.3013 33.3959 34.4251 33.5 34.5218C33.6041 34.6185 33.7333 34.6842 33.8731 34.7117L34.549 34.8652L34.4717 35.8827Z" fill="#55C9A5"/>
</svg>
