<svg width="25" height="24" viewBox="0 0 25 24" fill="none" xmlns="http://www.w3.org/2000/svg">
<path d="M19.2283 5.51H16.9083V4.77C16.9057 4.03443 16.6116 3.32989 16.0905 2.8107C15.5695 2.29151 14.8639 2 14.1283 2L9.8883 2C9.15273 2 8.44714 2.29151 7.92607 2.8107C7.40501 3.32989 7.11095 4.03443 7.1083 4.77V5.51H4.7883C4.051 5.51 3.3439 5.80289 2.82254 6.32424C2.30119 6.84559 2.0083 7.5527 2.0083 8.29L2.0083 19.22C2.01094 19.9565 2.30467 20.6621 2.82546 21.1828C3.34624 21.7036 4.05181 21.9974 4.7883 22H19.2283C19.9648 21.9974 20.6704 21.7036 21.1911 21.1828C21.7119 20.6621 22.0057 19.9565 22.0083 19.22V8.29C22.0083 7.5527 21.7154 6.84559 21.1941 6.32424C20.6727 5.80289 19.9656 5.51 19.2283 5.51ZM8.6283 4.77C8.6283 4.605 8.66096 4.44164 8.7244 4.28932C8.78784 4.13701 8.88081 3.99877 8.99795 3.88256C9.11508 3.76636 9.25406 3.67449 9.40688 3.61226C9.55969 3.55004 9.72331 3.51868 9.8883 3.52H14.1283C14.2933 3.51868 14.4569 3.55004 14.6097 3.61226C14.7625 3.67449 14.9015 3.76636 15.0187 3.88256C15.1358 3.99877 15.2288 4.13701 15.2922 4.28932C15.3556 4.44164 15.3883 4.605 15.3883 4.77V5.51H8.6283V4.77ZM4.7883 7H19.2283C19.3946 6.99999 19.5593 7.03291 19.7128 7.09686C19.8663 7.1608 20.0057 7.25451 20.1228 7.37257C20.2399 7.49064 20.3325 7.63072 20.3953 7.78475C20.458 7.93877 20.4896 8.10369 20.4883 8.27V10.77H3.4883V8.29C3.48413 8.11861 3.51498 7.94816 3.57897 7.78911C3.64295 7.63005 3.73872 7.48573 3.86042 7.36496C3.98212 7.2442 4.12718 7.14955 4.28672 7.0868C4.44627 7.02404 4.61694 6.99451 4.7883 7ZM13.9283 12.28V13.21H10.0883V12.3L13.9283 12.28ZM19.2283 20.46H4.7883C4.62246 20.4613 4.45802 20.4297 4.30455 20.3668C4.15108 20.304 4.01165 20.2112 3.89438 20.0939C3.77711 19.9767 3.68435 19.8372 3.6215 19.6838C3.55865 19.5303 3.52697 19.3658 3.5283 19.2V12.28H8.5283V14C8.5283 14.2016 8.60837 14.3949 8.7509 14.5374C8.89343 14.6799 9.08674 14.76 9.2883 14.76H14.6483C14.8499 14.76 15.0432 14.6799 15.1857 14.5374C15.3282 14.3949 15.4083 14.2016 15.4083 14V12.28H20.4083V19.22C20.4114 19.5415 20.2905 19.8518 20.0707 20.0864C19.851 20.3211 19.5493 20.462 19.2283 20.48V20.46Z" fill="#0797FF"/>
</svg>
